<?xml version="1.0" encoding="UTF-8" standalone="no"?>
<svg
   xmlns:dc="http://purl.org/dc/elements/1.1/"
   xmlns:cc="http://creativecommons.org/ns#"
   xmlns:rdf="http://www.w3.org/1999/02/22-rdf-syntax-ns#"
   xmlns:svg="http://www.w3.org/2000/svg"
   xmlns="http://www.w3.org/2000/svg"
   viewBox="0 0 461.60001 88.386665"
   height="88.386665"
   width="461.60001"
   xml:space="preserve"
   id="svg10"
   version="1.1"><metadata
     id="metadata16"><rdf:RDF><cc:Work
         rdf:about=""><dc:format>image/svg+xml</dc:format><dc:type
           rdf:resource="http://purl.org/dc/dcmitype/StillImage" /><dc:title></dc:title></cc:Work></rdf:RDF></metadata><defs
     id="defs14" /><g
     id="g216"
     transform="matrix(1.3333333,0,0,-1.3333333,0,88.386667)"
     style="display:inline;mix-blend-mode:normal"><g
       id="g214"
       transform="scale(0.1)"><path
         d="m 824.449,219.277 c 0,-6.308 -1.933,-9.218 -7.765,-9.218 h -25.243 c -5.82,0 -8.253,2.91 -8.253,9.218 v 136.895 c 0,33.973 -8.731,59.199 -47.079,59.199 -22.324,0 -50.468,-12.609 -67.472,-28.125 V 219.277 c 0,-6.308 -2.422,-9.218 -8.25,-9.218 h -25.235 c -5.343,0 -7.773,2.91 -7.773,8.75 v 322.793 c 0,6.777 3.398,9.207 9.226,10.175 18.45,2.442 23.301,3.399 24.758,3.399 4.375,0 7.274,-1.934 7.274,-8.242 V 421.211 c 21.359,18.926 52.422,28.633 79.609,28.633 55.813,0 76.203,-33.965 76.203,-86.895 V 219.277"
         style="fill:#231f20;fill-opacity:1;fill-rule:nonzero;stroke:none"
         id="path118" /><path
         d="m 1036.44,349.375 v 6.797 c 0,33.008 -17.97,61.641 -54.854,61.641 -40.281,0 -63.094,-32.532 -66.981,-68.438 z m 40.77,-14.551 c 0,-11.172 -1.94,-13.613 -14.56,-13.613 H 913.629 c 1.465,-46.113 27.676,-82.012 76.699,-82.012 19.902,0 41.732,3.867 58.242,10.176 4.37,1.465 9.23,2.441 10.68,-3.398 l 5.33,-17.95 c 1.47,-4.375 -0.96,-6.308 -5.33,-8.75 -20.88,-9.707 -51.93,-14.062 -74.266,-14.062 -74.754,0 -114.55,49.023 -114.55,122.305 0,69.433 43.195,122.324 113.097,122.324 27.669,0 49.989,-10.188 66.019,-26.699 19.41,-19.883 27.66,-48.536 27.66,-80.079 v -8.242"
         style="fill:#231f20;fill-opacity:1;fill-rule:nonzero;stroke:none"
         id="path120" /><path
         d="m 1278.2,381.895 c -11.66,21.835 -35.43,34.941 -58.74,34.941 -37.38,0 -65.52,-33 -65.52,-90.762 0,-53.379 24.75,-86.406 59.7,-86.406 31.06,0 55.82,24.746 64.56,49.043 z m 62.13,-165.528 c 0,-4.844 -2.43,-6.308 -7.29,-6.308 h -20.39 c -21.35,0 -31.54,16.523 -31.54,35.918 h -0.98 c -11.15,-21.368 -43.19,-40.762 -72.8,-40.762 -66.98,0 -96.59,56.797 -96.59,117.93 0,81.074 48.05,126.699 103.38,126.699 24.27,0 50.48,-10.188 65.04,-29.602 l 0.49,16.016 c 0,5.812 3.89,8.254 9.23,8.254 h 21.84 c 5.82,0 8.74,-2.91 8.74,-9.219 V 265.391 c 0,-11.153 0.48,-18.926 2.42,-21.836 1.94,-3.399 4.36,-4.356 8.25,-4.356 h 3.4 c 4.37,0 6.8,-0.976 6.8,-6.308 v -16.524"
         style="fill:#231f20;fill-opacity:1;fill-rule:nonzero;stroke:none"
         id="path122" /><path
         d="m 1542.77,383.34 c -10.2,18.457 -33.5,33.996 -57.28,33.996 -43.68,0 -68.92,-35.93 -68.92,-89.328 0,-51.445 22.81,-89.785 65.05,-89.785 22.81,0 49.02,14.55 61.15,32.031 z m 41.25,-163.086 c 0,-6.309 -2.9,-10.195 -7.27,-10.195 h -20.88 c -7.27,0 -10.19,2.91 -10.19,9.218 l -0.48,17.481 c -15.54,-18.457 -43.69,-31.543 -71.36,-31.543 -69.88,0 -99.98,57.265 -99.98,120.859 0,71.348 41.74,124.258 105.8,124.258 22.33,0 49.04,-10.195 63.11,-27.187 v 118.457 c 0,6.308 1.46,9.207 7.77,10.175 24.75,3.399 25.24,3.399 26.21,3.399 4.85,0 7.27,-2.422 7.27,-8.242 v -326.68"
         style="fill:#231f20;fill-opacity:1;fill-rule:nonzero;stroke:none"
         id="path124" /><path
         d="m 1783.55,551.777 c 6.82,-2.433 6.82,-6.797 5.35,-12.14 l -3.4,-15.047 c -0.96,-3.379 -2.43,-4.844 -4.85,-4.844 -1.47,0 -2.92,0.469 -4.37,0.965 -7.77,2.902 -20.88,6.309 -32.03,6.309 -33.02,0 -42.23,-21.844 -42.23,-59.696 v -22.812 h 59.69 c 4.87,0 7.29,-0.977 7.29,-5.821 v -16.515 c 0,-4.84 -1.94,-6.805 -6.8,-6.805 h -60.18 V 220.742 c 0,-6.797 -2.44,-10.683 -9.23,-10.683 h -22.81 c -6.31,0 -9.22,3.398 -9.22,10.195 v 195.117 h -28.64 c -5.35,0 -6.31,0.977 -6.31,7.305 v 15.019 c 0,4.871 1.94,6.817 6.79,6.817 h 28.16 v 9.226 c 0,17.461 0.97,30.071 1.93,38.821 5.83,42.234 31.56,67.461 76.7,67.461 14.57,0 32.03,-3.399 44.16,-8.243"
         style="fill:#231f20;fill-opacity:1;fill-rule:nonzero;stroke:none"
         id="path126" /><path
         d="m 1895.13,417.813 c -52.41,0 -68.44,-46.114 -68.44,-88.829 0,-44.648 15.06,-91.738 66.51,-91.738 50.97,0 68.92,44.649 68.92,89.805 0,45.137 -16.5,90.762 -66.99,90.762 z m -2.42,-212.598 c -75.23,0 -108.72,53.398 -108.72,122.793 0,68.445 39.31,121.836 111.63,121.836 75.24,0 109.22,-51.934 109.22,-122.324 0,-68.438 -39.81,-122.305 -112.13,-122.305"
         style="fill:#231f20;fill-opacity:1;fill-rule:nonzero;stroke:none"
         id="path128" /><path
         d="m 2086.42,435.762 0.49,-16.485 c 11.63,16.016 30.1,30.567 55.82,30.567 3.38,0 9.22,-0.469 14.06,-1.446 4.37,-0.988 4.37,-4.863 3.88,-8.261 l -3.39,-21.836 c -0.49,-3.399 -2.43,-4.863 -5.33,-4.863 -3.9,0 -6.81,1.464 -15.53,1.464 -17,0 -35.93,-11.172 -48.54,-29.121 V 220.254 c 0,-6.309 -2.9,-10.195 -9.22,-10.195 h -22.82 c -6.3,0 -9.22,3.398 -9.22,10.195 v 214.539 c 0,7.277 3.39,9.719 9.22,9.719 h 20.87 c 6.31,0 9.71,-2.442 9.71,-8.75"
         style="fill:#231f20;fill-opacity:1;fill-rule:nonzero;stroke:none"
         id="path130" /><path
         d="m 2497.57,444.512 c 5.33,0 6.81,-5.352 5.33,-9.719 l -65.02,-215.984 c -1.94,-5.84 -5.85,-8.75 -11.66,-8.75 h -24.74 c -6.81,0 -10.23,2.91 -11.67,8.75 l -46.59,162.109 h -0.49 l -45.65,-162.617 c -1.93,-6.309 -6.3,-8.242 -12.11,-8.242 h -24.28 c -6.31,0 -10.19,3.398 -11.63,8.75 l -64.56,215.984 c -1.47,4.863 -0.5,9.719 6.79,9.719 h 25.74 c 7.25,0 10.67,-2.442 11.62,-6.817 l 46.13,-177.148 h 0.95 l 50.5,176.68 c 1.45,5.339 4.83,7.285 9.69,7.285 h 19.91 c 4.38,0 7.3,-0.977 8.74,-5.821 l 51.46,-178.632 h 0.95 l 45.63,176.199 c 1.45,5.344 4.87,8.254 11.67,8.254 h 23.29"
         style="fill:#231f20;fill-opacity:1;fill-rule:nonzero;stroke:none"
         id="path132" /><path
         d="m 2684.46,381.895 c -11.62,21.835 -35.41,34.941 -58.7,34.941 -37.4,0 -65.56,-33 -65.56,-90.762 0,-53.379 24.78,-86.406 59.74,-86.406 31.04,0 55.83,24.746 64.52,49.043 z m 62.14,-165.528 c 0,-4.844 -2.4,-6.308 -7.26,-6.308 h -20.41 c -21.36,0 -31.54,16.523 -31.54,35.918 h -0.95 c -11.17,-21.368 -43.2,-40.762 -72.8,-40.762 -67,0 -96.6,56.797 -96.6,117.93 0,81.074 48.02,126.699 103.36,126.699 24.28,0 50.5,-10.188 65.05,-29.602 l 0.49,16.016 c 0,5.812 3.88,8.254 9.2,8.254 h 21.85 c 5.86,0 8.74,-2.91 8.74,-9.219 V 265.391 c 0,-11.153 0.5,-18.926 2.43,-21.836 1.94,-3.399 4.37,-4.356 8.25,-4.356 h 3.42 c 4.37,0 6.77,-0.976 6.77,-6.308 v -16.524"
         style="fill:#231f20;fill-opacity:1;fill-rule:nonzero;stroke:none"
         id="path134" /><path
         d="m 2827.07,435.762 0.49,-16.485 c 11.63,16.016 30.1,30.567 55.82,30.567 3.38,0 9.2,-0.469 14.07,-1.446 4.36,-0.988 4.36,-4.863 3.87,-8.261 l -3.39,-21.836 c -0.48,-3.399 -2.43,-4.863 -5.35,-4.863 -3.87,0 -6.76,1.464 -15.51,1.464 -16.98,0 -35.94,-11.172 -48.56,-29.121 V 220.254 c 0,-6.309 -2.88,-10.195 -9.19,-10.195 h -22.84 c -6.31,0 -9.2,3.398 -9.2,10.195 v 214.539 c 0,7.277 3.39,9.719 9.2,9.719 h 20.9 c 6.31,0 9.69,-2.442 9.69,-8.75"
         style="fill:#231f20;fill-opacity:1;fill-rule:nonzero;stroke:none"
         id="path136" /><path
         d="m 3081.94,383.34 c -10.19,18.457 -33.52,33.996 -57.27,33.996 -43.7,0 -68.93,-35.93 -68.93,-89.328 0,-51.445 22.8,-89.785 65.02,-89.785 22.84,0 49.06,14.55 61.18,32.031 z m 41.27,-163.086 c 0,-6.309 -2.93,-10.195 -7.3,-10.195 h -20.87 c -7.29,0 -10.22,2.91 -10.22,9.218 l -0.45,17.481 c -15.55,-18.457 -43.7,-31.543 -71.37,-31.543 -69.88,0 -99.97,57.265 -99.97,120.859 0,71.348 41.72,124.258 105.79,124.258 22.35,0 49.02,-10.195 63.12,-27.187 v 118.457 c 0,6.308 1.44,9.207 7.75,10.175 24.78,3.399 25.23,3.399 26.22,3.399 4.87,0 7.3,-2.422 7.3,-8.242 v -326.68"
         style="fill:#231f20;fill-opacity:1;fill-rule:nonzero;stroke:none"
         id="path138" /><path
         d="m 3242.15,205.215 c -24.78,0 -50.5,8.242 -66.5,15.527 -4.38,1.934 -5.86,5.332 -4.38,9.219 l 6.31,17.48 c 1.45,3.868 4.87,5.821 8.25,4.375 18.43,-7.773 41.27,-14.57 57.76,-14.57 28.16,0 47.08,13.594 47.08,36.406 0,18.926 -14.05,29.121 -36.4,37.852 l -32.53,12.637 c -28.61,11.152 -49.97,30.566 -49.97,61.14 0,42.727 38.8,64.563 81.51,64.563 20.9,0 41.27,-3.399 63.12,-13.586 2.93,-1.465 4.37,-2.899 4.37,-4.863 0,-0.965 -0.49,-2.411 -0.99,-3.875 l -5.32,-16.993 c -0.99,-3.398 -2.92,-4.863 -5.35,-4.863 -0.96,0 -2.4,0.496 -3.88,0.977 -12.62,5.828 -35.42,11.66 -50.96,11.66 -25.73,0 -39.78,-13.606 -39.78,-30.098 0,-16.504 9.68,-24.277 30.09,-32.988 l 37.85,-16.055 c 26.68,-11.152 48.52,-30.566 48.52,-61.621 0,-44.648 -37.35,-72.324 -88.8,-72.324"
         style="fill:#231f20;fill-opacity:1;fill-rule:nonzero;stroke:none"
         id="path140" /><path
         d="m 3459.48,484.375 h -7.07 c -2.04,0 -3.05,1.25 -3.05,3.281 l -0.76,44.043 -17.98,-45.558 c -0.5,-1.524 -1.5,-1.766 -2.54,-1.766 h -4.29 c -1.27,0 -2.04,0.488 -2.78,2.012 l -19.75,45.586 -0.51,-45.059 c 0,-2.051 -1.01,-2.539 -2.79,-2.539 h -6.83 c -1.78,0 -2.28,1.004 -2.28,2.539 v 0.234 l 1.78,65.586 c 0,2.012 0.76,2.774 2.54,2.774 h 6.33 c 2.01,0 3.02,-0.762 3.54,-2.012 l 23.03,-52.676 21.77,52.676 c 0.5,1.504 1.02,2.012 2.8,2.012 h 6.57 c 1.78,0 2.54,-0.762 2.54,-2.539 l 2.27,-65.567 v -0.254 c 0,-1.769 -0.5,-2.773 -2.54,-2.773 z m -72.15,63.281 c -0.25,-2.023 -1.51,-2.265 -3.03,-2.265 h -17.48 v -58.243 c 0,-1.769 -0.74,-2.773 -2.78,-2.773 h -7.34 c -2.02,0 -2.78,1.004 -2.78,2.773 v 58.243 h -17.73 c -1.77,0 -2.51,0.488 -2.51,2.265 v 5.313 c 0,1.777 0.74,2.539 2.26,2.539 h 49.62 c 1.52,0 2.53,-0.246 2.53,-1.778 v -0.761 l -0.76,-5.313"
         style="fill:#231f20;fill-opacity:1;fill-rule:nonzero;stroke:none"
         id="path142" /><path
         d="m 363.066,454.012 c 0.039,0.058 0.079,0.117 0.118,0.183 2.367,3.66 3.75,8.028 3.75,12.723 0,4.703 -1.383,9.059 -3.75,12.73 -0.039,0.059 -0.079,0.122 -0.118,0.188 -0.16,0.23 -0.336,0.477 -0.492,0.711 -1.148,1.656 -2.511,3.199 -4.109,4.57 L 238.832,587.098 c -9.871,8.429 -24.703,7.246 -33.113,-2.637 -8.43,-9.871 -7.246,-24.699 2.625,-33.117 l 71.457,-60.926 H 104.469 c -12.969,0 -23.4963,-10.52 -23.4963,-23.5 0,-12.973 10.5273,-23.496 23.4963,-23.496 H 279.801 L 208.344,382.5 c -9.871,-8.422 -11.055,-23.246 -2.625,-33.125 4.64,-5.453 11.234,-8.258 17.89,-8.258 5.391,0 10.801,1.844 15.223,5.617 l 119.633,101.993 c 1.598,1.367 2.961,2.91 4.109,4.574 0.156,0.222 0.332,0.465 0.492,0.711 z m 97.872,-106.586 -31.907,-15.098 v -95.703 c 0,-15.996 -12.972,-28.973 -28.984,-28.973 H 333.824 V 100.977 L 81.5469,156.004 H 80.8555 V 276.68 C 31.5508,316.492 0,377.402 0,445.703 0,565.664 97.2422,662.91 217.191,662.91 c 118.688,0 215.039,-95.191 217.11,-213.359 l 35.957,-76.09 c 4.601,-9.715 0.414,-21.445 -9.32,-26.035"
         style="fill:#231f20;fill-opacity:1;fill-rule:nonzero;stroke:none"
         id="path144" /><path
         d="m 1351.22,102.188 c -6.11,4.941 -14.05,6.238 -22.89,6.238 h -12.34 V 38.2227 h 11.17 c 11.45,0 19.5,1.1718 25.62,7.2812 6.24,6.3711 9.49,15.8633 9.49,27.5625 0,12.4805 -3.77,23.2695 -11.05,29.1216 z m 10.53,-64.0942 c -7.41,-6.7618 -18.98,-9.4922 -31.98,-9.4922 h -22.63 c -2.47,0 -3.25,0.7812 -3.25,3.1211 v 82.8123 c 0,2.602 0.92,3.645 3.78,3.645 h 16.38 c 16.51,0 25.09,-1.43 33.28,-6.504 11.04,-6.891 17.81,-20.4104 17.81,-38.7424 0,-14.8203 -4.81,-27.0391 -13.39,-34.8398"
         style="fill:#231f20;fill-opacity:1;fill-rule:nonzero;stroke:none"
         id="path146" /><path
         d="m 1430.78,65.9141 v 1.8203 c 0,8.8437 -4.81,16.5156 -14.69,16.5156 -10.79,0 -16.91,-8.7148 -17.94,-18.3359 z m 10.92,-3.8985 c 0,-2.9922 -0.52,-3.6406 -3.9,-3.6406 h -39.91 c 0.39,-12.3516 7.41,-21.9687 20.54,-21.9687 5.33,0 11.18,1.0351 15.6,2.7304 1.17,0.3828 2.47,0.6485 2.86,-0.914 l 1.42,-4.8086 c 0.4,-1.168 -0.25,-1.6914 -1.42,-2.3399 -5.59,-2.6015 -13.91,-3.7695 -19.89,-3.7695 -20.02,0 -30.68,13.1289 -30.68,32.7578 0,18.5938 11.57,32.7656 30.29,32.7656 7.41,0 13.38,-2.7304 17.68,-7.1562 5.2,-5.3242 7.41,-12.9961 7.41,-21.4492 v -2.2071"
         style="fill:#231f20;fill-opacity:1;fill-rule:nonzero;stroke:none"
         id="path148" /><path
         d="m 1501.89,89.0586 -21.58,-58.375 c -0.66,-1.5625 -1.57,-2.082 -2.99,-2.082 h -5.72 c -1.69,0 -2.6,0.6523 -3.13,2.082 l -21.32,58.375 c -0.51,1.4297 0.27,2.3359 1.82,2.3359 h 7.16 c 1.94,0 2.72,-0.5195 3.11,-1.8203 l 11.7,-35.2304 c 1.69,-5.1993 3.25,-9.8829 4.16,-12.8711 h 0.13 c 0.78,2.7304 2.34,7.8007 3.91,12.4804 l 11.69,35.3633 c 0.52,1.5586 1.43,2.0781 3.26,2.0781 h 5.97 c 2.08,0 2.35,-0.9062 1.83,-2.3359"
         style="fill:#231f20;fill-opacity:1;fill-rule:nonzero;stroke:none"
         id="path150" /><path
         d="m 1551.28,65.9141 v 1.8203 c 0,8.8437 -4.8,16.5156 -14.68,16.5156 -10.79,0 -16.91,-8.7148 -17.94,-18.3359 z m 10.93,-3.8985 c 0,-2.9922 -0.53,-3.6406 -3.9,-3.6406 h -39.92 c 0.39,-12.3516 7.42,-21.9687 20.55,-21.9687 5.33,0 11.18,1.0351 15.6,2.7304 1.17,0.3828 2.47,0.6485 2.86,-0.914 l 1.42,-4.8086 c 0.39,-1.168 -0.25,-1.6914 -1.42,-2.3399 -5.59,-2.6015 -13.91,-3.7695 -19.9,-3.7695 -20.02,0 -30.67,13.1289 -30.67,32.7578 0,18.5938 11.56,32.7656 30.28,32.7656 7.42,0 13.39,-2.7304 17.69,-7.1562 5.19,-5.3242 7.41,-12.9961 7.41,-21.4492 v -2.2071"
         style="fill:#231f20;fill-opacity:1;fill-rule:nonzero;stroke:none"
         id="path152" /><path
         d="m 1586.24,31.332 c 0,-1.8203 -0.77,-2.7304 -2.33,-2.7304 h -6.37 c -1.56,0 -2.34,0.7812 -2.34,2.5976 v 86.3278 c 0,1.817 0.39,2.34 1.95,2.598 6.76,0.91 6.89,0.91 7.15,0.91 1.17,0 1.94,-0.519 1.94,-2.207 V 31.332"
         style="fill:#231f20;fill-opacity:1;fill-rule:nonzero;stroke:none"
         id="path154" /><path
         d="m 1629.94,84.25 c -14.05,0 -18.33,-12.3555 -18.33,-23.7969 0,-11.957 4.03,-24.5703 17.81,-24.5703 13.65,0 18.46,11.957 18.46,24.0547 0,12.0898 -4.42,24.3125 -17.94,24.3125 z m -0.65,-56.9453 c -20.15,0 -29.12,14.2969 -29.12,32.8906 0,18.3281 10.53,32.6328 29.89,32.6328 20.16,0 29.26,-13.9101 29.26,-32.7656 0,-18.3281 -10.66,-32.7578 -30.03,-32.7578"
         style="fill:#231f20;fill-opacity:1;fill-rule:nonzero;stroke:none"
         id="path156" /><path
         d="m 1700.52,83.9844 c -6.11,0 -13.26,-3.6367 -16.51,-8.3203 V 45.1133 c 2.73,-5.0703 9.36,-9.0977 15.73,-9.0977 13.39,0 18.07,12.7383 18.07,24.3047 0,11.3164 -3.77,23.6641 -17.29,23.6641 z m 0.65,-56.6797 c -6.37,0 -13.26,2.4687 -17.16,7.2812 V 3.125 c 0,-1.95312 -1.17,-2.472656 -2.86,-2.472656 h -5.72 c -1.69,0 -2.47,0.910156 -2.47,2.730466 V 89.0586 c 0,1.8164 0.78,2.3359 2.47,2.3359 h 4.94 c 1.95,0 2.99,-0.5195 2.99,-2.3359 v -4.5508 c 4.16,4.9336 11.96,8.3203 19.37,8.3203 18.47,0 26.65,-15.4765 26.65,-32.2422 0,-17.289 -9.36,-33.2812 -28.21,-33.2812"
         style="fill:#231f20;fill-opacity:1;fill-rule:nonzero;stroke:none"
         id="path158" /><path
         d="m 1755.38,31.332 c 0,-1.8203 -0.79,-2.7304 -2.48,-2.7304 h -5.97 c -1.69,0 -2.6,0.9101 -2.6,2.7304 v 57.461 c 0,1.8203 0.91,2.6015 2.6,2.6015 h 5.97 c 1.69,0 2.48,-0.7812 2.48,-2.6015 z m -5.59,69.168 c -3.52,0 -6.63,2.469 -6.63,6.238 0,3.77 3.11,6.239 6.63,6.239 3.51,0 6.76,-2.469 6.76,-6.239 0,-3.769 -3.38,-6.238 -6.76,-6.238"
         style="fill:#231f20;fill-opacity:1;fill-rule:nonzero;stroke:none"
         id="path160" /><path
         d="m 1826.75,31.332 c 0,-1.8203 -0.65,-2.7304 -2.47,-2.7304 h -6.11 c -1.69,0 -2.47,0.9101 -2.47,2.7304 v 36.4024 c 0,9.2265 -2.34,15.8594 -12.74,15.8594 -5.98,0 -13.4,-3.379 -17.95,-7.5391 V 31.332 c 0,-1.8203 -0.77,-2.7304 -2.46,-2.7304 h -6.11 c -1.56,0 -2.47,0.9101 -2.47,2.5976 V 88.793 c 0,1.8203 0.65,2.6015 2.47,2.6015 h 5.72 c 1.56,0 2.47,-0.6484 2.47,-2.3359 l 0.13,-4.0352 c 5.98,5.0743 13.78,7.8047 21.32,7.8047 14.95,0 20.67,-9.1015 20.67,-23.2734 V 31.332"
         style="fill:#231f20;fill-opacity:1;fill-rule:nonzero;stroke:none"
         id="path162" /><path
         d="m 1885.9,75.0156 c -2.86,5.0703 -9.24,8.9688 -15.6,8.9688 -13.26,0 -18.21,-11.5664 -18.21,-23.3985 0,-11.0507 4.3,-23.0117 17.04,-23.0117 6.24,0 13.52,3.5117 16.77,8.1875 z M 1867.7,0 c -5.99,0 -12.87,1.82031 -18.47,4.42188 -1.03,0.51953 -1.55,1.16796 -1.55,2.08203 0,0.39062 0.13,0.78125 0.25,1.16797 l 1.44,3.89842 c 0.39,1.1719 1.03,1.8242 1.82,1.8242 0.39,0 0.78,-0.1328 1.29,-0.3906 4.68,-2.082 10.41,-3.90234 14.96,-3.90234 14.43,0 18.46,7.67184 18.46,21.19144 v 5.9804 c -4.16,-4.6836 -12.1,-7.6718 -18.59,-7.6718 -18.47,0 -26.79,14.3047 -26.79,31.3359 0,17.4141 9.88,32.8906 28.48,32.8906 6.11,0 13.39,-2.7304 17.16,-7.6718 l 0.12,4.0273 c 0,1.6914 1.05,2.2109 2.61,2.2109 h 5.71 c 1.7,0 2.35,-0.7812 2.35,-2.6015 V 31.9805 C 1896.95,11.832 1888.63,0 1867.7,0"
         style="fill:#231f20;fill-opacity:1;fill-rule:nonzero;stroke:none"
         id="path164" /><path
         d="m 1986,74.625 c -2.99,5.0703 -9.49,9.3594 -15.73,9.3594 -13.52,0 -17.94,-11.9571 -17.94,-23.7891 0,-10.9219 3.77,-23.789 16.9,-23.789 6.37,0 13.26,4.0273 16.77,8.707 z m 11.05,-71.24219 c 0,-1.82031 -0.39,-2.730466 -2.07,-2.730466 h -6.51 c -1.69,0 -2.47,0.519536 -2.47,2.339846 V 35.3594 c -4.42,-4.9336 -11.57,-8.0547 -18.72,-8.0547 -18.85,0 -26.39,15.3398 -26.39,32.6328 0,17.5469 9.36,32.8906 28.21,32.8906 6.24,0 13.39,-2.4726 17.42,-7.5468 l 0.13,4.0351 c 0,1.5586 0.91,2.0781 2.6,2.0781 h 5.33 c 1.82,0 2.47,-0.9062 2.47,-2.6015 V 3.38281"
         style="fill:#231f20;fill-opacity:1;fill-rule:nonzero;stroke:none"
         id="path166" /><path
         d="m 2066.21,31.4648 c 0,-1.9531 -0.79,-2.8632 -2.6,-2.8632 h -5.59 c -1.56,0 -2.47,0.9101 -2.47,2.4726 l -0.14,4.0274 c -5.97,-5.0664 -12.99,-7.7969 -20.53,-7.7969 -14.95,0 -20.41,9.6172 -20.41,23.5312 V 88.793 c 0,1.8203 0.91,2.6015 2.59,2.6015 h 5.85 c 1.69,0 2.61,-0.7812 2.61,-2.6015 V 52.5234 c 0,-9.2265 2.07,-15.7304 12.48,-15.7304 5.72,0 13,3.7734 17.16,7.6679 V 88.793 c 0,1.8203 0.78,2.6015 2.47,2.6015 h 6.1 c 1.69,0 2.48,-0.7812 2.48,-2.6015 V 31.4648"
         style="fill:#231f20;fill-opacity:1;fill-rule:nonzero;stroke:none"
         id="path168" /><path
         d="m 2124.31,74.625 c -3.11,5.8477 -9.49,9.3594 -15.73,9.3594 -10.01,0 -17.55,-8.8399 -17.55,-24.3125 0,-14.2969 6.63,-23.1406 16,-23.1406 8.32,0 14.94,6.6328 17.28,13.1328 z m 16.64,-44.332 c 0,-1.3008 -0.64,-1.6914 -1.95,-1.6914 h -5.46 c -5.71,0 -8.45,4.4218 -8.45,9.6211 h -0.26 c -2.99,-5.7188 -11.57,-10.918 -19.5,-10.918 -17.94,0 -25.87,15.2109 -25.87,31.5898 0,21.711 12.87,33.9336 27.69,33.9336 6.5,0 13.52,-2.7304 17.42,-7.9297 l 0.13,4.2852 c 0,1.5625 1.04,2.2109 2.47,2.2109 h 5.85 c 1.56,0 2.35,-0.7812 2.35,-2.4687 V 43.4219 c 0,-2.9883 0.12,-5.0664 0.64,-5.8477 0.52,-0.9101 1.17,-1.1679 2.21,-1.1679 h 0.92 c 1.17,0 1.81,-0.2657 1.81,-1.6954 V 30.293"
         style="fill:#231f20;fill-opacity:1;fill-rule:nonzero;stroke:none"
         id="path170" /><path
         d="m 2164.49,31.332 c 0,-1.8203 -0.78,-2.7304 -2.35,-2.7304 h -6.36 c -1.57,0 -2.35,0.7812 -2.35,2.5976 v 86.3278 c 0,1.817 0.39,2.34 1.96,2.598 6.75,0.91 6.88,0.91 7.14,0.91 1.18,0 1.96,-0.519 1.96,-2.207 V 31.332"
         style="fill:#231f20;fill-opacity:1;fill-rule:nonzero;stroke:none"
         id="path172" /><path
         d="m 2194.12,31.332 c 0,-1.8203 -0.79,-2.7304 -2.47,-2.7304 h -5.98 c -1.69,0 -2.6,0.9101 -2.6,2.7304 v 57.461 c 0,1.8203 0.91,2.6015 2.6,2.6015 h 5.98 c 1.68,0 2.47,-0.7812 2.47,-2.6015 z m -5.59,69.168 c -3.52,0 -6.63,2.469 -6.63,6.238 0,3.77 3.11,6.239 6.63,6.239 3.51,0 6.76,-2.469 6.76,-6.239 0,-3.769 -3.38,-6.238 -6.76,-6.238"
         style="fill:#231f20;fill-opacity:1;fill-rule:nonzero;stroke:none"
         id="path174" /><path
         d="m 2235.85,36.0156 c 2.99,0 6.11,0.9063 8.19,1.5586 0.91,0.3906 1.95,0 2.34,-1.1679 l 1.04,-4.1602 c 0.26,-1.3047 -0.13,-1.9531 -1.69,-2.6016 -2.99,-1.1718 -7.67,-2.3398 -12.09,-2.3398 -5.59,0 -11.18,1.5586 -14.17,4.8086 -3.77,4.1601 -4.03,9.3594 -4.03,17.4219 v 34.0586 h -7.15 c -1.69,0 -1.95,0.2617 -1.95,1.9531 v 4.0273 c 0,1.3008 0.52,1.8203 1.69,1.8203 h 7.41 v 14.8205 c 0,1.82 0.52,2.34 2.21,2.601 l 6.37,0.911 c 0.13,0 0.39,0 0.52,0 1.29,0 1.95,-0.911 1.95,-2.34 V 91.3945 h 15.34 c 1.17,0 1.82,-0.2578 1.82,-1.6875 v -4.4257 c 0,-1.2969 -0.65,-1.6875 -1.95,-1.6875 h -15.21 V 48.4961 c 0,-4.293 0.26,-7.6719 2.21,-9.8828 1.43,-1.5586 3.77,-2.5977 7.15,-2.5977"
         style="fill:#231f20;fill-opacity:1;fill-rule:nonzero;stroke:none"
         id="path176" /><path
         d="m 2266.01,89.707 16.9,-48.6211 16.38,48.3555 c 0.52,1.4336 1.17,1.9531 2.74,1.9531 h 7.14 c 1.18,0 1.69,-0.5195 1.69,-1.2968 0,-0.3907 -0.12,-0.7813 -0.26,-1.1719 l -25.35,-67.9922 c -5.72,-15.34376 -12.22,-20.800787 -26.26,-20.800787 -1.95,0 -3.9,0.128906 -5.85,0.519531 -1.17,0.261719 -1.43,1.042966 -1.43,1.949216 0,0.25782 0,0.39063 0,0.64844 l 0.65,4.94141 c 0.13,1.30078 0.78,1.82419 1.95,1.82419 0.13,0 0.25,0 0.52,0 1.43,-0.13279 3.25,-0.3906 4.55,-0.3906 7.15,0 11.44,2.8555 14.17,9.6172 l 3.38,8.3203 -23.27,61.6211 c -0.39,1.0391 0,2.2109 1.3,2.2109 h 8.58 c 1.3,0 2.08,-0.5195 2.47,-1.6875"
         style="fill:#231f20;fill-opacity:1;fill-rule:nonzero;stroke:none"
         id="path178" /><path
         d="m 2365.85,27.3047 c -6.63,0 -13.52,2.207 -17.81,4.1601 -1.17,0.5157 -1.56,1.4297 -1.17,2.4688 l 1.69,4.6797 c 0.39,1.039 1.3,1.5625 2.22,1.1719 4.94,-2.0821 11.04,-3.9024 15.46,-3.9024 7.54,0 12.61,3.6367 12.61,9.75 0,5.0703 -3.77,7.8008 -9.74,10.1445 l -8.71,3.379 c -7.68,2.9882 -13.39,8.1875 -13.39,16.3789 0,11.4414 10.4,17.2929 21.83,17.2929 5.6,0 11.06,-0.914 16.91,-3.6445 0.78,-0.3906 1.17,-0.7773 1.17,-1.2969 0,-0.2617 -0.14,-0.6523 -0.27,-1.0429 l -1.42,-4.5508 c -0.26,-0.9063 -0.78,-1.2969 -1.44,-1.2969 -0.26,0 -0.65,0.1289 -1.03,0.2578 -3.39,1.5625 -9.49,3.1211 -13.65,3.1211 -6.9,0 -10.67,-3.6367 -10.67,-8.0625 0,-4.418 2.6,-6.5 8.06,-8.8359 l 10.15,-4.293 c 7.14,-2.9883 12.99,-8.1875 12.99,-16.5078 0,-11.9649 -10.01,-19.3711 -23.79,-19.3711"
         style="fill:#231f20;fill-opacity:1;fill-rule:nonzero;stroke:none"
         id="path180" /><path
         d="m 2428.38,84.25 c -14.04,0 -18.33,-12.3555 -18.33,-23.7969 0,-11.957 4.04,-24.5703 17.82,-24.5703 13.65,0 18.45,11.957 18.45,24.0547 0,12.0898 -4.41,24.3125 -17.94,24.3125 z m -0.65,-56.9453 c -20.15,0 -29.12,14.2969 -29.12,32.8906 0,18.3281 10.54,32.6328 29.9,32.6328 20.16,0 29.26,-13.9101 29.26,-32.7656 0,-18.3281 -10.67,-32.7578 -30.04,-32.7578"
         style="fill:#231f20;fill-opacity:1;fill-rule:nonzero;stroke:none"
         id="path182" /><path
         d="m 2507.68,120.125 c 1.82,-0.648 1.82,-1.82 1.43,-3.25 l -0.91,-4.027 c -0.27,-0.91 -0.65,-1.301 -1.3,-1.301 -0.39,0 -0.78,0.129 -1.17,0.258 -2.08,0.781 -5.59,1.691 -8.59,1.691 -8.83,0 -11.31,-5.851 -11.31,-15.9921 v -6.1094 h 16 c 1.3,0 1.94,-0.2578 1.94,-1.5586 v -4.4218 c 0,-1.2969 -0.51,-1.8203 -1.81,-1.8203 h -16.13 v -52.129 c 0,-1.8203 -0.64,-2.8632 -2.47,-2.8632 h -6.1 c -1.69,0 -2.47,0.9101 -2.47,2.7304 v 52.2618 h -7.68 c -1.42,0 -1.69,0.2617 -1.69,1.9531 v 4.0273 c 0,1.3008 0.53,1.8203 1.83,1.8203 h 7.54 v 2.4727 c 0,4.6758 0.25,8.0548 0.52,10.3988 1.56,11.308 8.44,18.074 20.53,18.074 3.91,0 8.59,-0.914 11.84,-2.215"
         style="fill:#231f20;fill-opacity:1;fill-rule:nonzero;stroke:none"
         id="path184" /><path
         d="m 2540.32,36.0156 c 2.99,0 6.1,0.9063 8.18,1.5586 0.91,0.3906 1.95,0 2.34,-1.1679 l 1.04,-4.1602 c 0.26,-1.3047 -0.13,-1.9531 -1.69,-2.6016 -2.99,-1.1718 -7.67,-2.3398 -12.09,-2.3398 -5.59,0 -11.18,1.5586 -14.17,4.8086 -3.77,4.1601 -4.03,9.3594 -4.03,17.4219 v 34.0586 h -7.15 c -1.69,0 -1.94,0.2617 -1.94,1.9531 v 4.0273 c 0,1.3008 0.51,1.8203 1.68,1.8203 h 7.41 v 14.8205 c 0,1.82 0.52,2.34 2.21,2.601 l 6.37,0.911 c 0.13,0 0.39,0 0.52,0 1.31,0 1.95,-0.911 1.95,-2.34 V 91.3945 h 15.34 c 1.18,0 1.82,-0.2578 1.82,-1.6875 v -4.4257 c 0,-1.2969 -0.64,-1.6875 -1.94,-1.6875 h -15.22 V 48.4961 c 0,-4.293 0.27,-7.6719 2.21,-9.8828 1.43,-1.5586 3.77,-2.5977 7.16,-2.5977"
         style="fill:#231f20;fill-opacity:1;fill-rule:nonzero;stroke:none"
         id="path186" /><path
         d="m 2639.89,91.3945 c 1.42,0 1.81,-1.4297 1.42,-2.6015 l -17.42,-57.8516 c -0.52,-1.5586 -1.55,-2.3398 -3.11,-2.3398 h -6.63 c -1.82,0 -2.74,0.7812 -3.12,2.3398 l -12.48,43.4219 h -0.14 L 2586.2,30.8164 c -0.52,-1.6953 -1.69,-2.2148 -3.26,-2.2148 h -6.5 c -1.69,0 -2.72,0.9101 -3.12,2.3398 l -17.29,57.8516 c -0.39,1.3047 -0.13,2.6015 1.83,2.6015 h 6.88 c 1.95,0 2.86,-0.6484 3.13,-1.8203 l 12.34,-47.4492 h 0.26 L 2594,89.4414 c 0.39,1.4336 1.3,1.9531 2.6,1.9531 h 5.33 c 1.16,0 1.94,-0.2578 2.33,-1.5586 l 13.78,-47.8437 h 0.27 l 12.21,47.1914 c 0.39,1.4297 1.31,2.2109 3.13,2.2109 h 6.24"
         style="fill:#231f20;fill-opacity:1;fill-rule:nonzero;stroke:none"
         id="path188" /><path
         d="m 2692.54,74.625 c -3.11,5.8477 -9.49,9.3594 -15.73,9.3594 -10.01,0 -17.55,-8.8399 -17.55,-24.3125 0,-14.2969 6.63,-23.1406 15.99,-23.1406 8.32,0 14.95,6.6328 17.29,13.1328 z m 16.64,-44.332 c 0,-1.3008 -0.65,-1.6914 -1.95,-1.6914 h -5.46 c -5.72,0 -8.45,4.4218 -8.45,9.6211 h -0.26 c -2.99,-5.7188 -11.56,-10.918 -19.5,-10.918 -17.94,0 -25.87,15.2109 -25.87,31.5898 0,21.711 12.87,33.9336 27.7,33.9336 6.49,0 13.51,-2.7304 17.42,-7.9297 l 0.12,4.2852 c 0,1.5625 1.05,2.2109 2.47,2.2109 h 5.85 c 1.57,0 2.35,-0.7812 2.35,-2.4687 V 43.4219 c 0,-2.9883 0.13,-5.0664 0.64,-5.8477 0.52,-0.9101 1.17,-1.1679 2.22,-1.1679 h 0.91 c 1.16,0 1.81,-0.2657 1.81,-1.6954 V 30.293"
         style="fill:#231f20;fill-opacity:1;fill-rule:nonzero;stroke:none"
         id="path190" /><path
         d="m 2732.32,89.0586 0.13,-4.4258 c 3.11,4.293 8.05,8.1953 14.95,8.1953 0.91,0 2.47,-0.1328 3.77,-0.3906 1.17,-0.2617 1.17,-1.3008 1.03,-2.2148 l -0.91,-5.8477 c -0.12,-0.9102 -0.64,-1.3008 -1.42,-1.3008 -1.05,0 -1.83,0.3906 -4.16,0.3906 -4.55,0 -9.62,-2.9921 -13,-7.8007 V 31.332 c 0,-1.6875 -0.78,-2.7304 -2.47,-2.7304 h -6.11 c -1.69,0 -2.48,0.9101 -2.48,2.7304 v 57.461 c 0,1.9531 0.91,2.6015 2.48,2.6015 h 5.58 c 1.69,0 2.61,-0.6484 2.61,-2.3359"
         style="fill:#231f20;fill-opacity:1;fill-rule:nonzero;stroke:none"
         id="path192" /><path
         d="m 2802.64,65.9141 v 1.8203 c 0,8.8437 -4.8,16.5156 -14.69,16.5156 -10.79,0 -16.9,-8.7148 -17.94,-18.3359 z m 10.93,-3.8985 c 0,-2.9922 -0.53,-3.6406 -3.91,-3.6406 h -39.91 c 0.39,-12.3516 7.41,-21.9687 20.55,-21.9687 5.32,0 11.18,1.0351 15.59,2.7304 1.18,0.3828 2.47,0.6485 2.86,-0.914 l 1.44,-4.8086 c 0.38,-1.168 -0.26,-1.6914 -1.44,-2.3399 -5.58,-2.6015 -13.9,-3.7695 -19.89,-3.7695 -20.02,0 -30.68,13.1289 -30.68,32.7578 0,18.5938 11.57,32.7656 30.29,32.7656 7.41,0 13.4,-2.7304 17.69,-7.1562 5.19,-5.3242 7.41,-12.9961 7.41,-21.4492 v -2.2071"
         style="fill:#231f20;fill-opacity:1;fill-rule:nonzero;stroke:none"
         id="path194" /><path
         d="m 2828.52,12.8711 c -0.78,-0.5195 -1.3,-0.7773 -1.83,-0.7773 -0.51,0 -1.03,0.3867 -1.56,1.039 l -0.91,1.043 c -0.25,0.3828 -0.51,0.7734 -0.51,1.164 0,0.3907 0.26,0.6524 0.78,1.1719 2.47,2.4727 4.55,5.461 4.55,8.5821 0,3.5078 -4.43,5.5898 -4.43,9.4921 0,4.0274 2.99,6.8868 7.03,6.8868 4.55,0 7.53,-4.5508 7.53,-8.8399 0,-7.6719 -4.67,-15.6015 -10.65,-19.7617"
         style="fill:#231f20;fill-opacity:1;fill-rule:nonzero;stroke:none"
         id="path196" /><path
         d="m 2909.12,84.25 c -14.05,0 -18.33,-12.3555 -18.33,-23.7969 0,-11.957 4.03,-24.5703 17.81,-24.5703 13.65,0 18.46,11.957 18.46,24.0547 0,12.0898 -4.42,24.3125 -17.94,24.3125 z m -0.65,-56.9453 c -20.15,0 -29.12,14.2969 -29.12,32.8906 0,18.3281 10.53,32.6328 29.89,32.6328 20.16,0 29.26,-13.9101 29.26,-32.7656 0,-18.3281 -10.66,-32.7578 -30.03,-32.7578"
         style="fill:#231f20;fill-opacity:1;fill-rule:nonzero;stroke:none"
         id="path198" /><path
         d="m 3005.05,31.332 c 0,-1.8203 -0.65,-2.7304 -2.47,-2.7304 h -6.11 c -1.69,0 -2.47,0.9101 -2.47,2.7304 v 36.4024 c 0,9.2265 -2.34,15.8594 -12.74,15.8594 -5.98,0 -13.39,-3.379 -17.94,-7.5391 V 31.332 c 0,-1.8203 -0.78,-2.7304 -2.47,-2.7304 h -6.11 c -1.56,0 -2.47,0.9101 -2.47,2.5976 V 88.793 c 0,1.8203 0.65,2.6015 2.47,2.6015 h 5.72 c 1.56,0 2.47,-0.6484 2.47,-2.3359 l 0.13,-4.0352 c 5.98,5.0743 13.78,7.8047 21.32,7.8047 14.95,0 20.67,-9.1015 20.67,-23.2734 V 31.332"
         style="fill:#231f20;fill-opacity:1;fill-rule:nonzero;stroke:none"
         id="path200" /><path
         d="m 3036.9,27.3047 c -6.63,0 -13.53,2.207 -17.81,4.1601 -1.18,0.5157 -1.57,1.4297 -1.18,2.4688 l 1.69,4.6797 c 0.39,1.039 1.31,1.5625 2.22,1.1719 4.94,-2.0821 11.05,-3.9024 15.47,-3.9024 7.54,0 12.61,3.6367 12.61,9.75 0,5.0703 -3.77,7.8008 -9.75,10.1445 l -8.71,3.379 c -7.68,2.9882 -13.39,8.1875 -13.39,16.3789 0,11.4414 10.4,17.2929 21.84,17.2929 5.59,0 11.05,-0.914 16.9,-3.6445 0.78,-0.3906 1.17,-0.7773 1.17,-1.2969 0,-0.2617 -0.13,-0.6523 -0.26,-1.0429 l -1.44,-4.5508 c -0.25,-0.9063 -0.77,-1.2969 -1.42,-1.2969 -0.27,0 -0.65,0.1289 -1.04,0.2578 -3.39,1.5625 -9.49,3.1211 -13.65,3.1211 -6.89,0 -10.66,-3.6367 -10.66,-8.0625 0,-4.418 2.59,-6.5 8.06,-8.8359 l 10.14,-4.293 c 7.15,-2.9883 13,-8.1875 13,-16.5078 0,-11.9649 -10.01,-19.3711 -23.79,-19.3711"
         style="fill:#231f20;fill-opacity:1;fill-rule:nonzero;stroke:none"
         id="path202" /><path
         d="m 3125.95,31.0742 c 0,-1.6914 -0.52,-2.4726 -2.08,-2.4726 h -6.76 c -1.56,0 -2.21,0.7812 -2.21,2.4726 v 36.6602 c 0,9.1015 -2.34,15.8594 -12.61,15.8594 -5.98,0 -13.53,-3.379 -18.08,-7.5391 V 31.0742 c 0,-1.6914 -0.64,-2.4726 -2.2,-2.4726 h -6.76 c -1.43,0 -2.08,0.7812 -2.08,2.3398 v 86.4566 c 0,1.821 0.91,2.469 2.47,2.727 4.94,0.652 6.24,0.91 6.63,0.91 1.17,0 1.94,-0.519 1.94,-2.207 V 85.1563 c 5.73,5.0664 14.05,7.6718 21.33,7.6718 14.95,0 20.41,-9.1015 20.41,-23.2734 V 31.0742"
         style="fill:#231f20;fill-opacity:1;fill-rule:nonzero;stroke:none"
         id="path204" /><path
         d="m 3169.63,84.25 c -14.04,0 -18.33,-12.3555 -18.33,-23.7969 0,-11.957 4.04,-24.5703 17.82,-24.5703 13.65,0 18.45,11.957 18.45,24.0547 0,12.0898 -4.41,24.3125 -17.94,24.3125 z m -0.65,-56.9453 c -20.15,0 -29.12,14.2969 -29.12,32.8906 0,18.3281 10.54,32.6328 29.9,32.6328 20.16,0 29.26,-13.9101 29.26,-32.7656 0,-18.3281 -10.67,-32.7578 -30.04,-32.7578"
         style="fill:#231f20;fill-opacity:1;fill-rule:nonzero;stroke:none"
         id="path206" /><path
         d="m 3223.45,89.0586 0.13,-4.4258 c 3.11,4.293 8.06,8.1953 14.95,8.1953 0.91,0 2.47,-0.1328 3.77,-0.3906 1.17,-0.2617 1.17,-1.3008 1.03,-2.2148 l -0.9,-5.8477 c -0.13,-0.9102 -0.65,-1.3008 -1.43,-1.3008 -1.04,0 -1.83,0.3906 -4.16,0.3906 -4.55,0 -9.62,-2.9921 -13,-7.8007 V 31.332 c 0,-1.6875 -0.78,-2.7304 -2.47,-2.7304 h -6.11 c -1.69,0 -2.47,0.9101 -2.47,2.7304 v 57.461 c 0,1.9531 0.91,2.6015 2.47,2.6015 h 5.58 c 1.69,0 2.61,-0.6484 2.61,-2.3359"
         style="fill:#231f20;fill-opacity:1;fill-rule:nonzero;stroke:none"
         id="path208" /><path
         d="m 3293.77,65.9141 v 1.8203 c 0,8.8437 -4.8,16.5156 -14.68,16.5156 -10.79,0 -16.91,-8.7148 -17.94,-18.3359 z m 10.93,-3.8985 c 0,-2.9922 -0.53,-3.6406 -3.9,-3.6406 h -39.92 c 0.39,-12.3516 7.42,-21.9687 20.55,-21.9687 5.32,0 11.18,1.0351 15.6,2.7304 1.17,0.3828 2.47,0.6485 2.86,-0.914 l 1.43,-4.8086 c 0.38,-1.168 -0.26,-1.6914 -1.43,-2.3399 -5.59,-2.6015 -13.91,-3.7695 -19.9,-3.7695 -20.01,0 -30.68,13.1289 -30.68,32.7578 0,18.5938 11.57,32.7656 30.29,32.7656 7.42,0 13.4,-2.7304 17.69,-7.1562 5.2,-5.3242 7.41,-12.9961 7.41,-21.4492 v -2.2071"
         style="fill:#231f20;fill-opacity:1;fill-rule:nonzero;stroke:none"
         id="path210" /><path
         d="m 3323.03,26.9141 c -3.9,0 -7.8,2.8593 -7.8,7.2812 0,4.5508 3.64,7.2774 7.8,7.2774 4.03,0 7.67,-2.7266 7.67,-7.1485 0,-4.289 -3.77,-7.4101 -7.67,-7.4101"
         style="fill:#231f20;fill-opacity:1;fill-rule:nonzero;stroke:none"
         id="path212" /></g></g></svg>
