<?xml version="1.0" encoding="UTF-8" standalone="no"?>
<svg
   xmlns:dc="http://purl.org/dc/elements/1.1/"
   xmlns:cc="http://creativecommons.org/ns#"
   xmlns:rdf="http://www.w3.org/1999/02/22-rdf-syntax-ns#"
   xmlns:svg="http://www.w3.org/2000/svg"
   xmlns="http://www.w3.org/2000/svg"
   viewBox="0 0 1189.76 1659.6934"
   height="1659.6934"
   width="1189.76"
   xml:space="preserve"
   id="svg10"
   version="1.1"><metadata
     id="metadata16"><rdf:RDF><cc:Work
         rdf:about=""><dc:format>image/svg+xml</dc:format><dc:type
           rdf:resource="http://purl.org/dc/dcmitype/StillImage" /><dc:title></dc:title></cc:Work></rdf:RDF></metadata><defs
     id="defs14" /><g
     transform="matrix(1.3333333,0,0,-1.3333333,0,1659.6933)"
     id="g18"><g
       transform="scale(0.1)"
       id="g20"><path
         id="path22"
         style="fill:#231f20;fill-opacity:1;fill-rule:nonzero;stroke:none"
         d="m 6852.7,8504.82 c 0.75,1.13 1.51,2.23 2.17,3.46 44.71,69.23 71.02,151.56 71.02,240.18 0,88.69 -26.31,171.02 -71.02,240.37 -0.66,1.1 -1.42,2.2 -2.17,3.42 -3.04,4.47 -6.29,8.96 -9.36,13.46 -21.6,31.22 -47.1,60.39 -77.28,86.29 l -2258.01,1924.9 c -186.35,159 -466.4,136.7 -625.19,-49.8 -158.94,-186.4 -136.71,-466.3 49.68,-625.2 L 5281.37,9192.1 H 1971.96 c -244.93,0 -443.49,-198.62 -443.49,-443.64 0,-244.84 198.56,-443.45 443.49,-443.45 H 5281.37 L 3932.54,7155.13 c -186.39,-158.98 -208.62,-438.83 -49.68,-625.26 87.68,-102.95 212.27,-155.8 337.61,-155.8 101.79,0 204.15,34.74 287.58,105.98 l 2258.01,1925.02 c 30.18,25.78 55.68,55.01 77.28,86.33 3.07,4.37 6.32,8.8 9.36,13.42 M 8700.08,6493.13 8097.67,6208.18 V 4401.83 c 0,-301.95 -244.76,-546.81 -546.91,-546.81 H 6300.79 V 1841.4 L 1539.32,2880.24 h -13.23 v 2277.6 C 595.609,5909.3 0.00390625,7058.9 0.00390625,8348.11 0.00390625,10612.2 1835.39,12447.7 4099.63,12447.7 c 2239.8,0 4058.72,-1796.6 4097.67,-4027.03 l 678.82,-1436.12 c 86.74,-183.46 7.58,-404.78 -176.04,-491.42" /><path
         id="path24"
         style="fill:#231f20;fill-opacity:1;fill-rule:nonzero;stroke:none"
         d="m 648.828,45.8984 c 0,-20.4961 -6.324,-30 -25.32,-30 h -82.293 c -18.996,0 -26.91,9.5039 -26.91,30 V 492.301 c 0,110.699 -28.489,193 -153.516,193 -72.797,0 -164.594,-41.102 -219.984,-91.801 V 45.8984 c 0,-20.4961 -7.918,-30 -26.907,-30 H 31.5977 c -17.4063,0 -25.32036,9.5039 -25.32036,28.5039 V 1096.8 c 0,22.2 11.07816,30.1 30.07426,33.3 60.1406,7.9 75.9644,11 80.7114,11 14.242,0 23.742,-6.3 23.742,-26.9 V 704.301 c 69.633,61.801 170.922,93.398 259.554,93.398 182,0 248.469,-110.797 248.469,-283.297 V 45.8984" /><path
         id="path26"
         style="fill:#231f20;fill-opacity:1;fill-rule:nonzero;stroke:none"
         d="m 1359.47,470.102 v 22.199 c 0,107.597 -58.56,200.898 -178.84,200.898 -131.36,0 -205.751,-106 -218.411,-223.097 z m 132.93,-47.5 c 0,-36.403 -6.32,-44.301 -47.47,-44.301 H 959.055 c 4.75,-150.399 90.215,-267.5 250.055,-267.5 64.89,0 136.11,12.699 189.92,33.301 14.24,4.699 30.07,7.898 34.82,-11.102 l 17.41,-58.5977 c 4.74,-14.2031 -3.17,-20.5 -17.41,-28.5039 C 1365.79,14.3008 1264.5,0 1191.71,0 947.977,0 818.199,159.898 818.199,398.902 c 0,226.297 140.856,398.797 368.761,398.797 90.21,0 163.01,-33.199 215.23,-87 63.31,-64.898 90.21,-158.301 90.21,-261.199 v -26.898" /><path
         id="path28"
         style="fill:#231f20;fill-opacity:1;fill-rule:nonzero;stroke:none"
         d="m 2147.64,576.102 c -37.98,71.296 -115.53,114 -191.5,114 -121.86,0 -213.65,-107.602 -213.65,-296 0,-174.102 80.71,-281.704 194.66,-281.704 101.29,0 182,80.704 210.49,159.903 z M 2350.22,36.5 c 0,-15.8984 -7.91,-20.6016 -23.74,-20.6016 h -66.47 c -69.64,0 -102.87,53.8008 -102.87,117.1016 h -3.17 C 2117.57,63.3984 2013.12,0 1916.57,0 c -218.4,0 -314.94,185.199 -314.94,384.602 0,264.3 156.68,413.097 337.1,413.097 79.13,0 164.6,-33.199 212.08,-96.5 l 1.58,52.199 c 0,19 12.66,26.903 30.07,26.903 h 71.22 c 18.99,0 28.49,-9.5 28.49,-30.102 V 196.301 c 0,-36.403 1.58,-61.699 7.91,-71.199 6.33,-11.102 14.24,-14.301 26.9,-14.301 h 11.08 c 14.25,0 22.16,-3.102 22.16,-20.5002 V 36.5" /><path
         id="path30"
         style="fill:#231f20;fill-opacity:1;fill-rule:nonzero;stroke:none"
         d="m 3010.21,580.898 c -33.23,60.102 -109.2,110.801 -186.75,110.801 -142.44,0 -224.74,-117.199 -224.74,-291.199 0,-167.801 74.39,-292.801 212.08,-292.801 74.38,0 159.84,47.5 199.41,104.403 z M 3144.73,49.1016 c 0,-20.6016 -9.49,-33.2032 -23.74,-33.2032 h -68.05 c -23.74,0 -33.24,9.5039 -33.24,30 l -1.58,57.0036 C 2967.48,42.8008 2875.69,0 2785.48,0 c -227.9,0 -326.03,186.801 -326.03,394.102 0,232.699 136.11,405.199 345.02,405.199 72.8,0 159.84,-33.199 205.74,-88.602 V 1096.8 c 0,20.6 4.75,30.1 25.32,33.3 80.72,11 82.3,11 85.46,11 15.83,0 23.74,-7.9 23.74,-26.9 V 49.1016" /><path
         id="path32"
         style="fill:#231f20;fill-opacity:1;fill-rule:nonzero;stroke:none"
         d="m 3795.21,1130.1 c 22.16,-8 22.16,-22.2 17.41,-39.6 l -11.07,-49.1 c -3.17,-11.1 -7.92,-15.8 -15.83,-15.8 -4.75,0 -9.5,1.6 -14.25,3.2 -25.32,9.5 -68.05,20.5 -104.45,20.5 -107.62,0 -137.69,-71.198 -137.69,-194.601 v -74.398 h 194.66 c 15.83,0 23.74,-3.199 23.74,-19 V 707.5 c 0,-15.801 -6.33,-22.199 -22.15,-22.199 H 3529.33 V 50.6992 c 0,-22.1992 -7.92,-34.8008 -30.07,-34.8008 h -74.38 c -20.58,0 -30.08,11.1016 -30.08,33.2032 V 685.301 h -93.37 c -17.41,0 -20.57,3.199 -20.57,23.801 v 49 c 0,15.898 6.33,22.199 22.15,22.199 h 91.79 v 30.101 c 0,56.899 3.17,98.098 6.34,126.598 18.98,137.7 102.87,220 250.05,220 47.48,0 104.46,-11.1 144.02,-26.9" /><path
         id="path34"
         style="fill:#231f20;fill-opacity:1;fill-rule:nonzero;stroke:none"
         d="m 4159.24,693.199 c -170.93,0 -223.15,-150.297 -223.15,-289.597 0,-145.602 49.06,-299.102 216.82,-299.102 166.17,0 224.73,145.602 224.73,292.801 0,147.199 -53.8,295.898 -218.4,295.898 z M 4151.33,0 c -245.31,0 -354.52,174.102 -354.52,400.5 0,223.102 128.2,397.199 364.01,397.199 245.31,0 356.09,-169.301 356.09,-398.797 C 4516.91,175.699 4387.14,0 4151.33,0" /><path
         id="path36"
         style="fill:#231f20;fill-opacity:1;fill-rule:nonzero;stroke:none"
         d="M 4814.48,751.801 4816.06,698 c 37.99,52.199 98.13,99.699 182.01,99.699 11.08,0 30.07,-1.597 45.89,-4.699 14.25,-3.199 14.25,-15.898 12.67,-26.898 l -11.09,-71.301 c -1.58,-11.102 -7.91,-15.801 -17.4,-15.801 -12.66,0 -22.16,4.699 -50.64,4.699 -55.39,0 -117.12,-36.301 -158.27,-94.898 V 49.1016 c 0,-20.6016 -9.5,-33.2032 -30.07,-33.2032 h -74.39 c -20.56,0 -30.07,11.1016 -30.07,33.2032 V 748.602 c 0,23.796 11.09,31.699 30.07,31.699 h 68.06 c 20.58,0 31.65,-7.903 31.65,-28.5" /><path
         id="path38"
         style="fill:#231f20;fill-opacity:1;fill-rule:nonzero;stroke:none"
         d="m 6123.34,780.301 c 17.41,0 22.16,-17.399 17.41,-31.699 L 5928.68,44.4023 c -6.34,-19 -18.99,-28.5039 -37.99,-28.5039 h -80.71 c -22.16,0 -33.23,9.5039 -37.98,28.5039 L 5620.07,573 h -1.6 L 5469.71,42.8008 c -6.33,-20.6016 -20.57,-26.9024 -39.57,-26.9024 h -79.13 c -20.57,0 -33.23,11.1016 -37.99,28.5039 L 5102.54,748.602 c -4.75,15.898 -1.59,31.699 22.15,31.699 h 83.88 c 23.74,0 34.83,-7.903 37.99,-22.199 L 5396.91,180.5 h 3.17 l 164.59,576.102 c 4.75,17.398 15.83,23.699 31.66,23.699 h 64.88 c 14.25,0 23.74,-3.199 28.48,-19 l 167.77,-582.399 h 3.16 l 148.77,574.496 c 4.75,17.403 15.83,26.903 37.98,26.903 h 75.97" /><path
         id="path40"
         style="fill:#231f20;fill-opacity:1;fill-rule:nonzero;stroke:none"
         d="m 6764.37,576.102 c -37.99,71.296 -115.53,114 -191.5,114 -121.87,0 -213.65,-107.602 -213.65,-296 0,-174.102 80.71,-281.704 194.65,-281.704 101.29,0 182.02,80.704 210.5,159.903 z M 6966.95,36.5 c 0,-15.8984 -7.92,-20.6016 -23.74,-20.6016 h -66.47 c -69.64,0 -102.88,53.8008 -102.88,117.1016 h -3.16 C 6734.3,63.3984 6629.85,0 6533.31,0 6314.9,0 6218.36,185.199 6218.36,384.602 c 0,264.3 156.68,413.097 337.11,413.097 79.13,0 164.59,-33.199 212.07,-96.5 l 1.58,52.199 c 0,19 12.66,26.903 30.07,26.903 h 71.22 c 18.99,0 28.48,-9.5 28.48,-30.102 V 196.301 c 0,-36.403 1.59,-61.699 7.91,-71.199 6.34,-11.102 14.25,-14.301 26.92,-14.301 h 11.07 c 14.24,0 22.16,-3.102 22.16,-20.5002 V 36.5" /><path
         id="path42"
         style="fill:#231f20;fill-opacity:1;fill-rule:nonzero;stroke:none"
         d="M 7248.68,751.801 7250.26,698 c 37.99,52.199 98.13,99.699 182.01,99.699 11.08,0 30.07,-1.597 45.89,-4.699 14.25,-3.199 14.25,-15.898 12.67,-26.898 l -11.09,-71.301 c -1.58,-11.102 -7.91,-15.801 -17.4,-15.801 -12.66,0 -22.16,4.699 -50.64,4.699 -55.39,0 -117.12,-36.301 -158.27,-94.898 V 49.1016 c 0,-20.6016 -9.5,-33.2032 -30.07,-33.2032 h -74.39 c -20.56,0 -30.07,11.1016 -30.07,33.2032 V 748.602 c 0,23.796 11.09,31.699 30.07,31.699 h 68.06 c 20.57,0 31.65,-7.903 31.65,-28.5" /><path
         id="path44"
         style="fill:#231f20;fill-opacity:1;fill-rule:nonzero;stroke:none"
         d="m 8111.24,580.898 c -33.23,60.102 -109.2,110.801 -186.75,110.801 -142.44,0 -224.74,-117.199 -224.74,-291.199 0,-167.801 74.39,-292.801 212.07,-292.801 74.39,0 159.86,47.5 199.42,104.403 z M 8245.77,49.1016 c 0,-20.6016 -9.5,-33.2032 -23.74,-33.2032 h -68.06 c -23.74,0 -33.23,9.5039 -33.23,30 l -1.58,57.0036 C 8068.51,42.8008 7976.72,0 7886.5,0 c -227.9,0 -326.02,186.801 -326.02,394.102 0,232.699 136.11,405.199 345.02,405.199 72.8,0 159.84,-33.199 205.74,-88.602 V 1096.8 c 0,20.6 4.74,30.1 25.32,33.3 80.71,11 82.29,11 85.47,11 15.82,0 23.74,-7.9 23.74,-26.9 V 49.1016" /><path
         id="path46"
         style="fill:#231f20;fill-opacity:1;fill-rule:nonzero;stroke:none"
         d="m 8633.52,0 c -80.71,0 -164.59,27 -216.81,50.6992 -14.25,6.3008 -19,17.4024 -14.25,30.1016 l 20.57,56.8982 c 4.75,12.703 15.82,19 26.91,14.301 60.14,-25.301 134.52,-47.5 188.33,-47.5 91.8,0 153.51,44.301 153.51,118.699 0,61.699 -45.88,95 -118.69,123.403 l -106.03,41.199 c -93.38,36.398 -163.02,99.699 -163.02,199.398 0,139.301 126.61,210.5 265.89,210.5 68.05,0 134.52,-11.097 205.74,-44.301 9.49,-4.796 14.24,-9.496 14.24,-15.796 0,-3.2 -1.58,-8 -3.16,-12.704 L 8869.34,669.5 c -3.17,-11.102 -9.5,-15.801 -17.41,-15.801 -3.16,0 -7.92,1.602 -12.66,3.102 -41.15,19 -115.53,38 -166.18,38 -83.88,0 -129.77,-44.301 -129.77,-98.102 0,-53.797 31.65,-79.097 98.11,-107.597 l 123.45,-52.2 C 8851.93,400.5 8923.15,337.199 8923.15,235.898 8923.15,90.3008 8801.29,0 8633.52,0" /></g></g></svg>
