<?xml version="1.0" encoding="utf-8"?>
<!-- Generator: Adobe Illustrator 24.0.2, SVG Export Plug-In . SVG Version: 6.00 Build 0)  -->
<svg version="1.1" id="Layer_0_xA0_Image_1_" xmlns="http://www.w3.org/2000/svg" xmlns:xlink="http://www.w3.org/1999/xlink"
	 x="0px" y="0px" viewBox="0 0 218.9 216.7" style="enable-background:new 0 0 218.9 216.7;" xml:space="preserve">
<style type="text/css">
	.st0{fill:#010101;}
</style>
<g>
	<g>
		<path class="st0" d="M16.4,111.4c0.1-0.7,0.8-0.9,1.3-1.1c0.7-0.3,1.5-0.4,2.1-0.8c0.5-0.3,1.1-0.4,1.7-0.6
			c0.2-0.1,0.4-0.1,0.6-0.2c0.7-0.5,1.5-0.6,2.3-1c0.2-0.1,0.4-0.1,0.5-0.1c0.9-0.1,1.6-0.5,2.3-0.9c0.6-0.3,1.4-0.5,2-0.8
			c0.7-0.3,1.5-0.4,2.1-0.7c0.2-0.1,0.5-0.1,0.7-0.2c0.5-0.1,1-0.3,1.5-0.5c0.9-0.4,1.8-0.6,2.7-0.9c0.9-0.2,1.7-0.6,2.5-0.8
			c1-0.3,2.1-0.6,3.1-0.9c1.3-0.4,2.6-0.8,4-1.2c0.5-0.2,0.9-0.4,1.4-0.6c0.1,0,0.2-0.1,0.2-0.1c0-0.1,0.1-0.2,0.1-0.3
			c0-0.1-0.1-0.1-0.2-0.1c-1.2,0-2.5-0.1-3.7,0.1c-0.4,0.1-0.8,0-1.1,0c-0.3,0-0.7,0.1-1,0.1c-0.4,0-0.8,0-1.2,0
			c-1.5,0-2.9,0.1-4.4,0.1c-0.6,0-1.3-0.1-1.9-0.4c-0.4-0.2-0.7-0.4-1-0.7c-0.3-0.2-0.2-1.2,0-1.4c0.3-0.4,1-0.4,1.4-0.1
			c0.2,0.2,0.5,0.4,0.8,0.2c0.3-0.1,0.6-0.1,0.9-0.1c0.3,0,0.5,0.1,0.5,0.4c0,0.2,0.1,0.3,0.2,0.3c0.4,0,0.8,0.1,1.1,0.1
			c0.2,0,0.3-0.1,0.5-0.1c0.1,0,0.3,0,0.4,0c0.4,0.1,0.7,0.1,1.1,0c0.2-0.1,0.4-0.1,0.6-0.1c0.6,0,1.2,0,1.8,0c0.5,0,1-0.1,1.5-0.1
			c0.3,0,0.6,0,0.9,0.1c0.1,0,0.2,0,0.2,0c0.6-0.2,1.2-0.2,1.8,0c0.3,0.1,0.6,0,0.9,0c0.1,0,0.2-0.1,0.3,0c0.9,0.3,1.7,0,2.6,0.1
			c0.7,0.1,1.4-0.1,2.1-0.1c0.3,0,0.6,0,0.8,0.3c0.1,0.1,0.2,0.2,0.3,0.3c0.3,0.5,0.3,0.6,0,1.1c-0.7,1-1.5,2-2.4,2.8
			c-0.9,0.9-1.7,1.7-2.7,2.6c-1,0.9-2.1,1.8-3.1,2.8c-0.6,0.6-1.3,1.1-1.9,1.7c-0.6,0.5-1.3,1.1-1.9,1.6c-1.1,1-2.2,2-3.1,3.2
			c-0.1,0.1-0.2,0.4-0.2,0.5c-0.2,0.5-0.3,0.9-0.9,0.9c-0.2,0-0.3,0.2-0.5,0.2c-0.3,0.2-0.5,0.2-0.7-0.1c-0.2-0.3-0.4-0.6-0.2-1
			c0.2-0.5,0.5-1,0.8-1.4c0.4-0.4,0.7-0.9,1.1-1.4c0-0.1,0.1-0.1,0.2-0.2c0.8-0.5,1.5-1.2,2.2-1.8c0,0,0.1-0.1,0.1-0.1
			c0.6-0.3,1-0.9,1.5-1.3c0.4-0.2,0.6-0.5,0.9-0.8c0.3-0.3,0.6-0.5,0.9-0.8c0,0,0.1-0.1,0.2-0.1c0.7-0.3,1.1-0.9,1.7-1.4
			c0.5-0.4,0.9-0.8,1.3-1.3c0.4-0.5,0.9-0.9,1.5-1.2c0.1,0,0.1-0.1,0.1-0.1c0.5-0.8,1.3-1.4,2-2.1c0.2-0.3,0.5-0.6,0.7-0.9
			c0.1-0.1,0-0.2-0.1-0.3c-0.2,0-0.3-0.1-0.5-0.1c-0.2,0-0.4,0-0.4,0.3c0,0.2-0.1,0.4-0.1,0.5c0,0.1-0.1,0.2-0.1,0.2
			c-0.3,0.1-0.5,0.4-0.8,0.5c-0.1,0.1-0.3,0.1-0.5,0.1c-0.6,0.2-1.1,0.4-1.7,0.6c-0.7,0.3-1.4,0.5-2.2,0.7c-1,0.3-1.9,0.6-2.9,0.8
			c-0.9,0.3-1.8,0.6-2.7,0.8c-1.4,0.3-2.6,0.9-3.9,1.3c-0.6,0.2-1.3,0.3-1.9,0.5c-0.3,0.1-0.5,0.2-0.8,0.4c0,0-0.1,0-0.1,0
			c-0.7,0.2-1.3,0.4-1.9,0.7c-0.5-0.1-0.7,0.3-1.1,0.4c-0.4,0-0.7,0.3-1.1,0.4c-0.3,0.1-0.6,0.1-0.9,0.2c-0.1,0-0.3,0-0.3,0.1
			c-0.2,0.4-0.6,0.4-1,0.4c-0.4,0.1-0.7,0.3-1.1,0.5c-0.2,0.1-0.4,0.2-0.7,0.2c-0.3,0-0.6,0.3-0.9,0.4c-0.7,0.2-1.3,0.6-2,0.9
			c-0.4,0.2-0.9,0.4-1.3,0.6c-0.3,0.1-0.5,0.3-0.8,0.5c0,0,0,0.1-0.1,0.1c-0.5,0.2-1,0.3-1.5,0.5c-0.1,0-0.1,0-0.2,0.1
			c-0.4,0.4-0.9,0.1-1.3,0c-0.1,0-0.1-0.2-0.2-0.3c-0.1-0.2-0.2-0.4-0.2-0.5C16.4,111.7,16.4,111.5,16.4,111.4z"/>
		<path class="st0" d="M200.7,94.6c-0.2,0.2-0.3,0.4-0.7,0.4c-0.1,0-0.2,0-0.3,0.1c-0.2,0.4-0.6,0.4-1,0.5c-0.3,0.1-0.7,0.2-1.1,0.2
			c-0.6,0-1.2,0.2-1.7,0.3c-0.2,0.1-0.3,0.1-0.3-0.2c0-0.4-0.1-0.5-0.5-0.5c-0.6,0-1.2,0-1.8,0c-0.4,0-0.9,0-1.3,0
			c-0.4,0-0.8-0.1-1.2-0.1c-0.9-0.1-1.8-0.1-2.6-0.2c-0.4,0-0.8-0.1-1.2,0c-0.1,0-0.2,0-0.4,0c-0.5,0-1.1-0.1-1.6,0
			c-0.6,0.1-1.1-0.1-1.7-0.1c-0.6,0-1.3-0.2-1.9,0c-0.4,0.1-0.9,0-1.3,0c-0.3,0-0.6-0.1-0.8,0.1c-0.1,0.1-0.3,0.1-0.5,0
			c-0.9-0.2-1.7-0.2-2.6,0.1c-0.1,0-0.2,0.1-0.3,0c-0.7-0.1-1.3-0.1-2,0c-0.6,0.1-1.3,0.2-2,0.1c-0.5-0.1-1,0-1.4-0.1
			c-0.1,0-0.2,0-0.3,0.1c-0.3,0.1-0.7,0.2-1,0.2c-0.9-0.1-1.7,0.1-2.5,0.2c-1,0.1-2,0.1-3,0.2c-0.5,0-1,0.1-1.5,0.2
			c-0.3,0-0.6,0.1-0.9,0c-0.5,0-1,0.1-1.5,0.2c-0.2,0-0.3,0.2-0.4,0.4c0,0.2,0.2,0.2,0.3,0.3c0.5,0.4,1.2,0.6,1.7,1
			c0.6,0.4,1.2,0.7,1.8,1c0.1,0.1,0.3,0.2,0.4,0.2c0.6,0.4,1.3,0.7,2,0.9c0.1,0,0.2,0.1,0.3,0.1c0.2,0.1,0.4,0.2,0.5,0.2
			c0.4,0.1,0.8,0.2,1.3,0.3c0.5,0.1,1,0.3,1.5,0.4c0.4,0.1,0.8,0.2,1.2,0.3c0.2,0,0.3,0.1,0.5,0.1c0.4,0.1,0.7,0.3,0.7,0.7
			c0.1,0.4,0.2,0.8-0.3,1.2c-0.5,0.3-0.9,0.3-1.4,0.3c0,0-0.1,0-0.1,0c-0.9-0.7-2.2-0.8-3.2-1.3c-0.7-0.4-1.6-0.5-2.3-0.9
			c-0.7-0.3-1.5-0.5-2.2-1c-0.8-0.5-1.8-0.9-2.5-1.5c-0.3-0.3-0.8-0.3-1.2-0.5c-0.4-0.2-0.8-0.4-1.1-0.7c-0.1-0.1-0.1-0.2-0.2-0.2
			c-0.5-0.1-1-0.4-1.5-0.7c-0.4-0.2-0.8-0.5-1.3-0.7c-0.1-0.1-0.1-0.1,0-0.3c0.1-0.1,0.3-0.3,0.3-0.5c0.1-0.2,0.2-0.5,0.5-0.5
			c0.2,0,0.3-0.2,0.2-0.4c0,0,0.1-0.2,0.2-0.2c0.3,0,0.6,0,0.9,0c0.8,0,1.5,0,2.3-0.1c0.1,0,0.2-0.1,0.3-0.1c0.1,0,0.2,0,0.3,0
			c0.6,0.3,1.1,0.1,1.6-0.1c0.6-0.3,1.3-0.5,1.9-0.8c0.6-0.3,1.3-0.5,2-0.7c0.7-0.1,1.2-0.5,1.7-0.8c0.6-0.3,1.2-0.5,1.7-0.8
			c0.4-0.2,0.7-0.4,1-0.6c0.1-0.1,0.1-0.2,0.1-0.3c0.1-0.7,0.4-1,1-1.1c0.2,0,0.4-0.1,0.6-0.3c0.1-0.1,0.3-0.1,0.5-0.1
			c0.5,0,0.9-0.3,1.2-0.7c0.2-0.4,0.6-0.6,1-0.6c0.3,0,0.6,0.2,0.8,0.5c0.1,0.2,0.1,0.5-0.1,0.8c-0.7,1-1.6,1.8-2.7,2.4
			c-0.6,0.3-1.1,0.6-1.7,0.9c-0.1,0.1-0.3,0.1-0.3,0.2c-0.1,0.1-0.2,0.2-0.3,0.1c-0.1,0-0.2,0.1-0.3,0.1c-0.7,0.3-1.3,0.6-2,0.9
			c-0.3,0.1-0.6,0.2-0.8,0.3c-0.1,0-0.2,0.2-0.2,0.2c0,0.1,0.1,0.2,0.2,0.2c0.1,0,0.2,0.1,0.3,0.1c0.7-0.2,1.5,0,2.2-0.1
			c0.9-0.1,1.9-0.1,2.8-0.2c0.5-0.1,1.1,0,1.6-0.1c0.7-0.1,1.4-0.1,2.1-0.2c0.1,0,0.2,0,0.4,0c0.5,0,1.1,0.1,1.6-0.1
			c0.3-0.1,0.6,0,0.9,0c0.2,0,0.4,0,0.7,0c0.2,0,0.3-0.1,0.5,0c0.8,0.2,1.6,0,2.4,0.1c0.9,0,1.8,0.2,2.8,0.2c0.6,0,1.3-0.1,1.9-0.1
			c0.9,0,1.7-0.1,2.6,0.1c0.1,0,0.2,0,0.3,0c0.1,0,0.3-0.1,0.4,0c0.8,0.2,1.5,0,2.3,0c0.2,0,0.5,0.2,0.6,0.1
			c0.6-0.2,1.2,0.1,1.8,0.1c0.6-0.1,1.2-0.1,1.8,0c0.7,0.2,1.3-0.1,1.9-0.1c0.2,0,0.4-0.1,0.6-0.2c0.3-0.1,0.6-0.2,0.9-0.3
			c0.2,0,0.3,0,0.5,0.2c0.2,0.2,0.4,0.4,0.6,0.5C200.7,94.3,200.7,94.5,200.7,94.6z"/>
		<path class="st0" d="M136.1,104.1c-0.1-1.3-0.3-2.6-0.4-3.9c0-0.6,0-1.1,0-1.7c0-0.2,0.1-0.5-0.1-0.7c0,0,0-0.1,0-0.2
			c0.3-0.8,0.1-1.5,0.1-2.3c0-0.8,0-1.6,0-2.4c0-0.4,0-0.8,0-1.2c0-0.4,0-0.9,0-1.3c0-0.1,0-0.3,0-0.4c-0.2-1.3-0.1-2.6-0.1-3.9
			c0-0.4-0.1-0.9-0.1-1.3c0-0.3,0.1-0.6,0.1-0.9c0-0.7-0.1-1.3-0.2-2c-0.1-1.6-0.1-3.1-0.2-4.7c0-0.6-0.1-1.2-0.2-1.8
			c0-0.3,0-0.5,0-0.8c0-0.4-0.1-0.9-0.1-1.3c-0.1-0.6-0.2-1.2-0.1-1.9c0-0.1,0-0.2,0-0.2c-0.3-0.6-0.2-1.2-0.2-1.8
			c0-0.3-0.1-0.6-0.2-0.9c-0.2-0.9-0.4-1.7-0.6-2.6c-0.1-0.3,0.4-0.9,0.8-0.9c0.4,0,0.8-0.1,1.2,0.3c0.2,0.2,0.3,0.4,0.3,0.7
			c0.2,0.7,0.3,1.4,0.5,2.2c0,0.1,0,0.2,0,0.4c0,0.6,0,1.1,0.1,1.7c0.1,0.3-0.1,0.6-0.1,0.9c-0.1,0.5-0.1,1,0,1.5
			c0.1,0.3,0,0.6,0,0.9c0,0.7,0,1.3,0,2c0.1,1,0.3,2,0.2,3c0,0.8,0.3,1.5,0,2.3c0.2,0.6,0.2,1.2,0.2,1.9c0,0.9,0,1.9,0,2.8
			c0,1.2,0.1,2.4,0.1,3.6c0,0.4,0,0.7,0,1.1c0,0.6,0.1,1.2,0.1,1.8c0,0.2,0,0.3,0,0.5c0,0.6,0,1.2,0,1.8c0,0.3,0,0.6,0,1
			c0,0.5,0,1.1,0,1.6c0,1.4,0,2.8,0.4,4.1c0.1,0.5,0.2,1,0.4,1.4c0.1,0.3,0.1,0.6,0,0.9c-0.2,0.6-0.1,1.2-0.1,1.8
			c0,0.5,0.3,0.8,0.7,1.1c0.2,0.1,0.4,0.3,0.5,0.6c0.2,0.5,0.1,0.9-0.4,1.2c-0.2,0.1-0.3,0.2-0.5,0.3c-0.4,0.1-0.6,0.3-0.8,0.7
			c0,0.2-0.3,0.3-0.5,0.4c-0.3,0.3-0.7,0.3-1.1,0c-0.3-0.2-0.6-0.4-0.6-0.8c0-0.1-0.2-0.2-0.3-0.2c-0.5,0-0.9,0.1-1.3,0.2
			c-0.8,0.2-1.6,0.4-2.4,0.5c-0.4,0-0.7,0.1-1.1,0.2c-1.4,0.2-2.7,0.4-4.1,0.6c-0.6,0.1-1.1,0.1-1.7,0.1c-1.3,0.1-2.7,0.2-4,0.4
			c-0.4,0-0.7,0-1.1,0c-1.6,0.1-3.2,0.1-4.8,0.3c-0.6,0.1-1.2,0-1.8,0.1c-0.8,0.1-1.6,0.1-2.4,0.1c-0.5,0-0.9,0-1.4,0
			c-1.3,0-2.7,0.1-4,0.1c-1.3,0-2.7,0-4,0.1c-1.6,0-3.3,0.1-4.9,0.2c-0.6,0-1.2,0.1-1.8,0.1c-0.5,0-1,0-1.5,0
			c-0.5,0-1.1,0.1-1.6,0.1c-0.3,0-0.7,0.1-1,0.1c-0.4,0-0.8,0-1.2,0c-0.6,0-1.1,0.2-1.7,0.2c-1.2-0.1-2.4,0.2-3.6,0.2
			c-0.9,0-1.8,0.2-2.6,0.3c-0.6,0.1-1.2,0.1-1.8,0.1c-0.4,0-0.9,0-1.3,0.1c-0.7,0.1-1.4,0.1-2.1,0.2c-0.9,0.1-1.9,0.2-2.8,0.2
			c-0.6,0-1.1,0.1-1.7,0.1c-0.5,0-1,0.1-1.5,0.2c-0.5,0.1-1,0.1-1.5,0.2c-0.1,0-0.2,0-0.3,0c-0.5,0.3-1,0.2-1.5,0.2
			c-0.6,0.1-1.1,0.1-1.6,0.3c-0.6,0.2-1.2-0.1-1.7-0.2c-0.1,0-0.2-0.2-0.2-0.3c-0.2-0.5-0.4-0.6-0.9-0.3c-0.4,0.2-0.5,0.2-0.6-0.2
			c-0.2-0.5-0.2-1,0.1-1.5c0.5-1.3,0.8-2.7,0.9-4.2c0.1-1.7,0-3.4-0.1-5.1c-0.1-0.7-0.2-1.4-0.3-2.1c-0.1-1.1-0.5-2.2-0.6-3.4
			c-0.2-1.4-0.4-2.7-0.5-4.1c-0.1-0.6-0.2-1.1-0.3-1.7c0-0.1,0-0.2,0-0.4c0-1.2-0.1-2.4-0.2-3.5c-0.1-0.8-0.1-1.5-0.1-2.3
			c0-0.1,0-0.2,0-0.3c-0.2-1-0.2-1.9-0.2-2.9c0-1,0-2.1-0.1-3.1c-0.1-0.6-0.1-1.3-0.1-1.9c0-0.8,0.1-1.5,0-2.3
			c-0.1-0.7,0.1-1.3,0.1-1.9c0-0.6,0-1.3,0.1-1.9c0-0.6,0-1.3,0.1-1.9c0-0.4,0.1-0.8,0.3-1.2c0.3-0.6,1.2-0.6,1.5,0
			c0.2,0.3,0.3,0.6,0.3,1.1c0,0.4,0.1,0.7,0.2,1.1c0.2,0.5,0.2,0.7-0.2,1c-0.1,0.1-0.2,0.3-0.3,0.5c-0.1,0.7-0.2,1.3-0.2,2
			c0,0.8,0,1.7,0,2.5c0,1,0,1.9,0.1,2.9c0.1,0.9-0.1,1.8,0.1,2.7c0.1,0.2-0.1,0.4-0.1,0.6c0,0.7,0.1,1.4,0.1,2.1
			c0.1,1,0.2,2.1,0.3,3.1c0,0.4,0.1,0.9,0.2,1.3c0,0.3,0,0.6,0,0.9c0.1,0.9,0.2,1.8,0.3,2.8c0,0.7,0.3,1.3,0.4,1.9
			c0.1,0.7,0.3,1.3,0.3,2c0,0.5,0.1,1,0.3,1.5c0.1,0.4,0.1,0.7,0.2,1.1c0.1,0.4,0.2,0.9,0.3,1.3c0.2,0.8,0.4,1.6,0.3,2.4
			c0,0.2,0,0.5,0.1,0.7c0.2,0.5,0.2,1,0.1,1.5c-0.1,0.5,0.1,0.9-0.1,1.4c-0.1,0.2-0.1,0.6,0,0.8c0.1,0.4-0.1,0.9,0.1,1.3
			c0.1,0.1,0,0.4,0,0.5c-0.1,0.4-0.1,0.9-0.2,1.3c-0.1,0.4-0.2,0.8-0.3,1.1c0,0.2-0.1,0.4-0.1,0.5c0,0.2,0.2,0.4-0.2,0.4
			c0,0,0,0.1,0,0.1c0,0,0,0.1,0.1,0.1c0.1,0,0.2,0,0.4,0c0.7-0.1,1.4-0.2,2.1-0.2c0.9,0,1.8,0,2.7,0c1-0.1,1.9-0.2,2.9-0.3
			c0.1,0,0.2,0,0.2,0c0.4-0.1,0.7,0.2,1.1,0c0.3-0.2,0.7-0.1,1.1-0.1c0.7,0,1.4,0.1,2.1,0.1c0.3,0,0.5,0,0.8-0.1
			c0.8-0.2,1.6-0.2,2.3-0.2c0.4,0,0.9-0.1,1.3-0.1c0.2,0,0.5,0,0.7,0c0.8,0,1.7-0.3,2.5-0.2c0.1,0,0.2,0,0.3,0
			c0.2,0,0.3-0.1,0.5-0.1c0.7,0.1,1.4-0.2,2-0.2c0.2,0,0.4,0.1,0.5,0.1c0.1,0,0.2,0,0.3,0c0.3,0,0.5-0.1,0.8-0.2
			c0.9-0.1,1.7,0.1,2.6-0.2c0.1-0.1,0.3,0.1,0.5,0.1c0.6,0,1.3,0,1.9-0.1c0.2,0,0.4-0.2,0.7,0c0,0,0.1,0,0.1,0
			c0.7-0.1,1.5,0,2.3-0.1c0.5-0.1,0.9,0,1.4-0.1c0.7,0,1.4,0,2.1-0.1c0.4,0,0.8,0.2,1.2,0c0.4-0.2,0.9-0.1,1.3-0.1
			c0.7,0,1.5,0,2.2,0c0.3,0,0.5,0,0.8,0c0.8,0,1.6-0.1,2.5-0.1c0.4,0,0.7,0,1.1,0c0.1,0,0.3,0,0.4-0.1c0.2,0,0.4-0.1,0.6-0.1
			c0.3,0,0.6,0.1,0.9-0.1c0,0,0.1,0,0.1,0c1.2,0.2,2.3-0.2,3.5-0.2c0.6,0,1.3-0.1,1.9-0.1c0.6,0.1,1.2,0,1.8-0.1c0,0,0,0,0.1,0
			c1.2,0.3,2.3-0.2,3.4-0.1c0.9,0,1.7-0.1,2.6-0.2c0.3,0,0.7-0.1,1-0.2c0.2,0,0.5,0,0.7,0c0.3,0.1,0.5,0.1,0.7-0.1
			c0.6-0.4,1.3-0.4,2-0.4c0.4,0,0.8-0.2,1.2-0.3c0.6-0.1,1.2-0.4,1.7-0.5c0.9-0.2,1.7-0.4,2.6-0.6c0.3-0.1,0.7-0.1,1-0.1
			c0.2,0,0.3-0.1,0.4-0.3C136,105.3,136.1,104.7,136.1,104.1z"/>
		<path class="st0" d="M90.9,116.3c-0.5,0-0.9,0.1-1.4,0.1c-0.5,0.1-1.1,0.1-1.6,0.1c-1,0-2.1,0.1-3.1,0.2c-0.6,0-1.2,0.1-1.8,0.1
			c-1.3,0.1-2.6,0.1-3.9,0.2c-0.4,0-0.8,0.1-1.2,0.1c-1.3,0-2.6,0.3-3.9,0.2c-1,0-2.1,0-3.1,0.2c-0.1,0-0.3,0-0.4,0
			c-0.5,0-0.9-0.1-1.4,0.2c-0.1,0-0.2,0-0.3,0c-0.4,0-0.9-0.1-1.3-0.1c-0.3,0-0.6,0.1-0.9,0.1c-1,0.1-2.1,0.2-3.1,0.3
			c-0.6,0.1-1.1,0.1-1.7,0.1c-0.1,0-0.2,0-0.2,0c-0.8,0.3-1.6,0.3-2.5,0.4c-0.5,0.1-0.9-0.1-1.1-0.5c-0.1-0.2-0.1-0.6,0-0.8
			c0.1-0.3,0.4-0.6,0.8-0.6c0.2,0,0.4,0,0.5,0.1c0.2,0,0.5,0.1,0.7,0.1c0.6-0.1,1.1-0.2,1.7-0.1c0.6,0.1,1.2,0,1.8-0.1
			c0.8-0.1,1.6-0.2,2.4-0.2c0.6,0,1.1-0.2,1.7,0c0.2,0.1,0.5,0,0.8-0.1c1,0,2,0,2.9-0.1c1.1-0.1,2.2,0,3.2-0.2
			c0.2,0,0.5,0.1,0.7-0.1c0,0,0.1,0,0.1,0c0.3,0.3,0.6,0.1,0.8,0c0.4-0.1,0.8,0,1.3,0c0.8,0,1.6-0.2,2.4-0.2c0.8,0,1.7,0,2.5-0.1
			c0.8-0.1,1.6,0,2.4-0.3c0.1,0,0.2,0,0.3,0c0.7,0.2,1.4,0.2,2.1,0c0,0,0.1,0,0.1,0c0.8,0.3,1.5-0.2,2.3,0c0.4,0.1,0.8-0.1,1.2-0.1
			c0.2,0,0.5,0,0.7,0c0.1,0,0.2-0.1,0.3-0.1c0.1-0.1,0.2-0.2,0.3-0.3c0.4-0.2,0.7-0.2,1.1,0.1c0.3,0.3,0.8,0.3,1.2,0.2
			c0.6-0.1,1.1,0,1.7-0.1c0.3,0,0.7-0.1,1-0.1c0.1,0,0.2,0,0.4,0c1.3,0.1,2.6-0.1,3.9,0c0.3,0,0.6-0.1,0.9-0.1c0.4,0.1,0.7,0,1.1,0
			c0.7,0,1.5,0,2.2-0.1c1.1-0.1,2.3-0.1,3.4-0.1c0.6,0,1.3,0.1,1.9-0.2c0.1,0,0.2,0,0.3,0c0.1,0,0.2,0.1,0.3,0c0.5-0.1,1.1,0,1.6,0
			c0.3,0,0.6-0.1,0.9-0.1c0,0,0,0,0.1,0c0.5,0,1,0,1.6,0c0.3,0,0.7,0.1,1,0c1.2-0.2,2.5,0,3.7-0.1c0.5,0,1.1,0.1,1.6,0.1
			c0.6,0,1.3-0.1,1.9-0.1c0.3,0,0.5,0.1,0.8,0.1c0.5,0,1,0.1,1.5,0c0.7-0.1,1.3,0.1,2-0.1c0.2-0.1,0.3,0.2,0.6,0.2
			c0.3,0,0.6-0.1,0.9-0.2c0.1,0,0.3-0.1,0.4,0c0.6,0.2,1.2-0.1,1.7-0.2c0.4-0.1,0.8-0.1,1.1,0.1c0.3,0.2,0.6,0.2,1,0.1
			c0.3-0.1,0.5-0.1,0.8-0.1c0.3-0.1,0.5-0.3,0.4-0.5c-0.1-0.3,0-0.6,0.1-0.8c0.2-0.2,0.4-0.4,0.6-0.6c0.1-0.1,0.2-0.1,0.3-0.1
			c0.3,0.1,0.5,0.3,0.9,0.1c0,0,0.1,0.1,0.1,0.2c0.1,0.3,0.2,0.6,0.2,1c0.1,0.3,0,0.7-0.3,0.9c-0.2,0.1-0.3,0.3-0.4,0.5
			c-0.3,0.5-0.7,0.7-1.3,0.6c-0.3-0.1-0.4,0.3-0.7,0.2c-0.2-0.1-0.5,0-0.7,0.1c-0.4,0.2-0.8,0.4-1.3,0.5c-0.5,0.1-1,0-1.5-0.1
			c-0.6-0.2-1.1-0.3-1.7-0.2c-0.1,0-0.3,0-0.4,0c-1.5-0.2-3.1-0.2-4.6-0.2c-0.9,0-1.8-0.1-2.7-0.1c-0.7,0-1.4,0-2.2,0
			c-0.5,0-1.1,0.1-1.6,0.1c-0.6-0.1-1.1,0-1.7-0.1c-0.7,0-1.4,0-2,0c-0.7,0-1.5,0.1-2.2,0.1c-0.7,0-1.4,0.1-2.1,0
			c-0.1,0-0.4,0-0.4,0.1c-0.1,0.2,0,0.3,0.2,0.5c0.5,0.5,0.5,0.9,0.1,1.4c0,0-0.1,0.1-0.1,0.1c-0.3,0.6-0.9,0.7-1.5,0.8
			c-0.5,0.1-0.8-0.3-0.7-0.8c0.1-0.3,0.1-0.6,0.2-0.9c0.1-0.3,0.2-0.6,0.4-0.9c0.2-0.3,0.2-0.3-0.2-0.3c-0.3,0-0.6,0.1-0.8,0.1
			c-0.4,0-0.8,0-1.3,0c-0.4,0-0.4,0.1-0.4,0.5c0,0.1,0,0.2,0,0.2c0.3,0.5,0,0.9-0.3,1.3c-0.3,0.4-0.7,0.9-1.1,1.3
			c-0.4,0.4-0.6,1.1-1.1,1.5c-0.3,0.2-0.3,0.6-0.5,0.9c-0.5,0.6-0.8,1.3-1.2,1.9c-0.1,0.1-0.1,0.2-0.2,0.3c-0.1,0.4,0,0.5,0.4,0.5
			c0.6-0.1,1.1-0.1,1.7-0.2c0.8-0.1,1.6-0.1,2.4-0.1c0.6,0,1.2-0.2,1.7-0.1c1,0.1,2-0.2,2.9-0.2c0.5,0,0.9,0.1,1.4,0
			c0.4-0.1,0.8,0.2,1.2-0.1c0,0,0.1,0,0.1,0c1,0,2.1,0.2,3.1,0.1c1.3-0.1,2.5,0.1,3.8,0.1c0.6,0,1.2,0,1.8-0.1
			c0.7,0,1.4-0.1,2.1-0.1c0.5,0,1,0,1.6,0c0.7,0.1,1.3,1,0.9,1.7c-0.4,0.8-1,1.1-1.8,0.8c-0.2-0.1-0.4-0.2-0.5-0.3
			c-0.3-0.3-0.6-0.4-1-0.4c-0.8,0.1-1.6,0.2-2.5,0.2c-0.7,0-1.3,0-2-0.2c-0.4-0.1-0.8-0.1-1.2-0.1c-0.8,0-1.6,0-2.4,0
			c-1.5,0-3,0-4.4,0c-1,0-2,0.1-3,0.2c-0.8,0-1.6,0-2.3,0.1c-0.8,0-1.7,0.1-2.5,0.2c-0.1,0-0.2,0-0.3,0.1c-0.3,0.3-0.5,0.4-0.8,0.1
			c-0.4,0.1-0.9-0.1-1.3,0.2c-0.2,0.2-0.2,0.4-0.2,0.6c0,0.5-0.1,0.6-0.7,0.7c-0.3,0-0.7,0.1-1,0.2c-0.5,0.1-0.5,0.1-0.7-0.3
			c0-0.1-0.1-0.2-0.1-0.3c-0.2-0.4-0.5-0.6-0.9-0.5c-0.7,0.1-1.5,0.2-2.2,0.3c-0.1,0-0.1,0-0.2,0c-0.7-0.1-1.4,0.1-2.1,0.1
			c-0.8,0-1.5,0.4-2.2,0.4c-0.6,0-1.1,0.3-1.7,0.2c-0.2,0-0.5,0.1-0.7,0.3c-0.4,0.3-0.9,0.3-1.3,0.4c-0.7,0-1.4,0.3-2.1,0
			c-0.2-0.1-0.2,0.4-0.4,0.1c-0.1-0.1-0.3-0.1-0.5-0.1c-0.2,0-0.4,0-0.6,0c-0.2,0-0.4,0-0.5-0.1c-0.2,0-0.4-0.1-0.6-0.1
			c-0.1,0-0.2,0-0.3,0c-0.6,0-0.9-0.3-0.9-0.9c0-0.3,0.1-0.7,0.3-0.9c0.1-0.2,0.5-0.3,0.7-0.2c1.2,0.3,2.3,0.1,3.5,0.1
			c0.8,0,1.6-0.1,2.4-0.2c0.2,0,0.4,0,0.6,0c0.4,0.2,0.7-0.2,1.1-0.2c0.3,0,0.7,0,1.1-0.1c0.5-0.1,1-0.1,1.5-0.1
			c0.2,0,0.4-0.1,0.6-0.2c0.2,0,0.5,0,0.7,0c0.8-0.1,1.6-0.2,2.4-0.3c0.3,0,0.7,0,1,0c0.2,0,0.3,0,0.5-0.1c0.1-0.1,0.2-0.2,0.1-0.3
			c-0.4-0.9-0.8-1.9-1.3-2.8c-0.1-0.2-0.1-0.5-0.3-0.7c-0.6-0.8-1.2-1.6-1.7-2.5c-0.4-0.7-1.2-1.1-1.6-1.8c0-0.1-0.2-0.1-0.3-0.1
			C91.3,116.3,91.1,116.3,90.9,116.3z M96.7,116C96.7,116,96.7,116,96.7,116c-0.3,0-0.6,0-1,0c-0.2,0-0.4,0-0.6,0.1
			c-0.4,0.1-0.5,0.3-0.3,0.6c0.4,0.6,0.8,1.3,1.2,1.9c0.6,0.8,0.9,1.7,1.4,2.5c0.4,0.8,0.7,1.7,1,2.6c0.1,0.2,0.3,0.3,0.4,0.1
			c0.1-0.1,0.2-0.3,0.3-0.5c0.5-0.9,1-1.8,1.5-2.6c0.9-1.3,1.8-2.6,2.6-4c0.3-0.6,0.2-0.8-0.4-0.8c-1,0-2,0.1-3,0.1
			c-0.5,0-1-0.1-1.6-0.1C97.8,115.9,97.2,116,96.7,116z"/>
		<path class="st0" d="M167.2,128c-0.2,0-0.4,0-0.6,0c-0.7,0.2-1.4,0-2.1,0.1c-0.1,0-0.2,0-0.4-0.1c-1-0.3-2-0.2-3-0.3
			c-0.1,0-0.2,0-0.3,0.1c-0.1,0-0.1,0.2-0.1,0.2c0,0,0.1,0.1,0.2,0.1c0.3,0.1,0.6,0.2,0.9,0.5c0.3,0.3,0.7,0.5,1.1,0.6
			c0.2,0.1,0.4,0.2,0.7,0.2c0.1,0,0.1,0,0.1,0.1c0.1,0.5,0.5,0.5,0.9,0.6c0.1,0,0.3,0.1,0.4,0.2c0.3,0.2,0.6,0.4,1,0.5
			c0.4,0.1,0.7,0.4,1,0.6c0.8,0.5,1.7,0.9,2.5,1.3c0.8,0.3,1.5,0.8,2.2,1.2c0.8,0.4,1.6,0.9,2.4,1.3c0.3,0.2,0.7,0.4,1,0.6
			c0.9,0.6,1.8,1,2.6,1.6c0.5,0.4,1.1,0.7,1.7,1c0.1,0,0.2,0.1,0.3,0.1c0.3,0.4,0.8,0.6,1.2,0.9c0.4,0.2,0.8,0.5,1.1,0.7
			c0.1,0.1,0.3,0.2,0.3,0.3c0.1,0.3,0.2,0.4,0.5,0.4c0.2,0,0.4,0.1,0.5,0.2c0.3,0.2,0.6,0.3,0.9,0.5c0.1,0,0.1,0,0.2,0.1
			c0.3,0.4,0.8,0.4,1.2,0.5c0.2,0.1,0.4,0.2,0.6,0.3c0.4,0.4,0.8,0.8,1.4,1c0.2,0.1,0.4,0.4,0.7,0.5c0.3,0.1,0.4,1,0.3,1.3
			c0,0.1-0.1,0.2-0.2,0.2c-0.5,0.1-1,0.2-1.5,0.3c-0.1,0-0.2,0-0.3-0.1c-0.2-0.2-0.3-0.4-0.6-0.5c-0.4-0.3-0.8-0.6-1.1-0.9
			c-0.6-0.6-1.3-1.2-2.2-1.6c-0.6-0.3-1.2-0.7-1.7-1.1c-0.4-0.2-0.7-0.5-1.1-0.8c-0.2-0.1-0.3-0.2-0.5-0.3c-0.3-0.2-0.6-0.3-0.9-0.5
			c-0.8-0.4-1.5-0.7-2.1-1.4c-0.1-0.1-0.2-0.2-0.3-0.2c-1-0.5-1.8-1.3-2.9-1.6c-0.1,0-0.1,0-0.2-0.1c-0.6-0.8-1.5-0.9-2.2-1.5
			c-0.3-0.3-0.8-0.4-1.2-0.6c-0.6-0.2-1-0.6-1.6-0.8c-0.4-0.2-0.8-0.5-1.3-0.5c-0.1,0-0.1,0-0.2-0.1c-0.5-0.3-1-0.7-1.6-1
			c-0.2-0.1-0.5-0.3-0.7-0.2c-0.4,0-0.7-0.2-0.9-0.4c-0.5-0.3-1.1-0.6-1.7-0.8c-0.1,0-0.2-0.1-0.2-0.2c-0.4-0.2-0.8-0.4-1.2-0.6
			c-0.4-0.2-0.7-0.4-1.1-0.6c-0.4-0.2-0.8-0.5-1.3-0.7c-0.6-0.2-0.6-0.7-0.6-1.2c0-0.2,0-0.3-0.2-0.3c-0.2-0.1-0.5-0.1-0.7-0.1
			c-0.6-0.1-1.3-0.1-1.9-0.1c-0.3,0-0.4,0.2-0.3,0.4c0.2,0.3,0.4,0.6,0.6,0.9c0.1,0.2,0.3,0.3,0.3,0.5c0.2,0.4,0.4,0.8,0.8,1.2
			c0.6,0.6,1.2,1.2,1.9,1.7c0.4,0.3,0.8,0.6,1.3,0.9c0.1,0,0.1,0.1,0.2,0.2c0.3,0.4,0.7,0.7,1.1,0.9c0.3,0.1,0.5,0.4,0.8,0.6
			c0.2,0.1,0.3,0.2,0.5,0.3c0.1,0.1,0.2,0.3,0.4,0.4c0.2,0.2,0.3,0.4,0.5,0.5c0.4,0.1,0.8,0.3,1,0.5c0.4,0.4,0.8,0.6,1.2,1
			c0.4,0.4,0.8,0.7,1.3,1.1c0.4,0.4,0.8,0.8,1.2,1.2c1.1,1,2,2.2,2.9,3.4c0.2,0.3,0.2,0.6,0.2,1c0,0.3-0.2,0.5-0.5,0.5
			c-0.4,0.1-0.8,0-1.2,0.3c-0.3,0.2-0.6-0.1-0.9-0.4c-0.3-0.3-0.5-0.5-0.4-1c0.1-0.4-0.2-0.6-0.4-0.9c-0.6-0.7-1.2-1.5-2-2.1
			c-0.4-0.3-0.7-0.7-1-1c-0.7-0.7-1.4-1.3-2.2-1.9c-0.7-0.5-1.4-1.1-2.1-1.7c-0.8-0.7-1.7-1.4-2.5-2.1c-1.1-0.9-2.1-1.9-3.1-2.9
			c-0.8-0.8-1.5-1.7-2-2.7c-0.2-0.5-0.4-1-0.5-1.4c-0.1-0.5,0.2-0.8,0.7-0.9c0.1,0,0.2,0,0.2,0c0.4-0.3,0.8-0.2,1.2,0
			c0.1,0.1,0.2,0.1,0.3,0.1c1,0.1,2,0.3,3,0.3c0.4,0,0.8,0.1,1.3,0.2c0.3,0.1,0.6,0,0.9,0.1c0.8,0.1,1.6,0.3,2.5,0.1
			c0.1,0,0.3,0,0.5,0.1c0.2,0.1,0.4,0.2,0.7,0.1c0,0,0,0,0.1,0c0.3,0.3,0.6,0.2,0.9,0.1c0.3,0,0.6-0.1,1,0c0.5,0.1,1.1-0.1,1.6-0.2
			c0.2,0,0.4-0.3,0.7-0.3c0.2,0,0.5,0.1,0.8,0.1c0.4-0.1,0.7-0.3,1-0.5c0.3-0.2,0.7-0.2,1,0c0.3,0.2,0.6,0.5,0.7,0.8
			c0.1,0.3-0.1,0.7-0.4,0.9c-0.4,0.3-0.9,0.6-1.5,0.7C168.2,127.9,167.7,128,167.2,128C167.2,128,167.2,128,167.2,128z"/>
		<path class="st0" d="M104.7,149.3c-0.1-0.3-0.1-0.6-0.1-0.8c-0.1-0.2-0.2-0.4-0.5-0.3c-0.2,0.1-0.2,0-0.2-0.2
			c0.1-0.4,0.1-0.9,0.2-1.3c0.1-1,0.9-1.3,1.7-0.7c0.1,0,0.1,0.1,0.2,0.2c0.1,0.1,0.3,0.2,0.3-0.1c0.1-0.5,0.1-1,0.1-1.5
			c0-0.9,0.7-1.3,1.5-1c0.2,0.1,0.5,0.1,0.7,0.2c0.1,0,0.3,0.1,0.4,0.2c0.3,0.3,0.6,0.6,0.8,0.9c0.3,0.4,0.4,0.9,0.6,1.3
			c0.1,0.3,0.3,0.5,0.5,0.8c0.1,0.3,0.3,0.6,0.4,0.9c0.2,0.9,0.6,1.7,1,2.4c0.5,1,1,2,1.4,3c0.3,0.8,0.6,1.5,1,2.2
			c0.2,0.3,0.3,0.6,0.4,0.9c0.2,0.6,0.5,1.2,0.7,1.8c0.1,0.3,0.3,0.6,0.4,0.9c0.1,0.2,0.2,0.4,0.3,0.6c0.4,0.6,0.5,1.3,0.4,2
			c-0.1,0.4-0.2,0.5-0.6,0.4c-0.3,0-0.6,0-0.9-0.1c-0.2-0.1-0.3-0.3-0.4-0.5c-0.4-0.7-0.7-1.5-1-2.3c-0.2-0.5-0.3-1-0.5-1.4
			c-0.1-0.4-0.3-0.7-0.4-1c-0.2-0.6-0.4-1.1-0.7-1.7c-0.4-0.8-0.7-1.6-1.1-2.4c-0.7-1.4-1.4-2.9-2-4.4c-0.2-0.5-0.5-1-0.8-1.4
			c-0.2-0.3-0.3-0.2-0.4,0.1c-0.3,0.8-0.5,1.7-0.8,2.5c-0.2,0.7-0.5,1.3-0.6,2c-0.1,0.6-0.2,1.2-0.2,1.7c0,1.2-0.1,2.3-0.2,3.4
			c-0.1,0.8-0.1,1.6-0.1,2.4c0,0.9-0.1,1.8-0.2,2.8c-0.1,0.7-0.1,1.5-0.2,2.2c-0.1,0.6-0.2,1.2-0.3,1.8c0,0.2-0.1,0.3-0.1,0.5
			c-0.1,0.7-0.1,1.3-0.2,2c-0.1,0.5-0.2,1-0.3,1.5c-0.1,0.5-0.1,1-0.2,1.5c-0.1,1.2-0.3,2.4-0.4,3.6c-0.1,0.5-0.1,1-0.1,1.5
			c0,0.6-0.2,1-0.7,1.3c-0.5,0.3-1.2,0-1.3-0.5c0-0.2-0.1-0.4,0-0.6c0.1-0.8,0.1-1.6,0.2-2.4c0.1-0.5,0.2-1.1,0.3-1.6
			c0.2-0.8,0.2-1.6,0.3-2.5c0-0.3,0.1-0.6,0.2-0.9c0.2-0.9,0.4-1.8,0.5-2.7c0-0.1,0-0.2,0-0.3c0.1-0.6-0.1-1.2,0.2-1.8
			c0,0,0,0,0-0.1c0.1-1.1,0.3-2.2,0.4-3.4c0.1-0.8,0.1-1.6,0.2-2.4c0-0.6,0-1.2,0-1.8c0-0.1,0-0.1-0.1-0.2c-0.1,0-0.2,0-0.2,0.1
			c-0.2,0.4-0.4,0.8-0.6,1.3c-0.1,0.2-0.1,0.6-0.4,0.6c-0.4,0-0.7,0.1-1.1-0.1c-0.5-0.3-0.6-0.7-0.5-1.2c0.3-0.8,0.3-1.7,0.7-2.5
			c0-0.1,0.1-0.1,0.1-0.2c-0.1-0.9,0.7-1.6,0.7-2.4c0,0,0-0.1,0-0.1c0.5-0.1,0.3-0.6,0.5-0.9c0.1-0.3,0.3-0.6,0.4-0.9
			c0.1-0.2,0.2-0.3,0.2-0.5C104.6,149.7,104.7,149.4,104.7,149.3z"/>
		<path class="st0" d="M97,65c-1.8,0-3.6,0-5.4,0c-1.2,0-2.4,0.1-3.6,0.1c-0.1,0-0.2,0-0.3,0c-0.6,0-1.3-0.1-1.9,0
			c-3,0.1-5.9,0.1-8.9,0.1c-1.1,0-2.2-0.1-3.4-0.1c-1,0-2,0-3,0.1c-0.3,0-0.6,0-1,0c-0.2,0-0.3,0-0.5,0c-0.2,0-0.3,0.1-0.5,0.1
			c-0.9-0.1-1.8,0.1-2.6,0.3c-0.5,0.1-1,0.1-1.5,0.1c-0.6,0-1-0.7-0.7-1.4c0.2-0.5,0.5-0.7,1.2-0.6c0.3,0.1,0.7,0,1-0.1
			c0.4-0.1,0.9,0,1.4,0c0.9,0,1.9,0.1,2.8,0.1c0.5,0,1-0.1,1.5-0.1c0.3,0,0.6,0.1,0.9,0.1c0.4,0,0.8-0.1,1.2,0c0.1,0,0.1,0,0.2,0
			c0.3-0.3,0.7,0,1,0c0.6,0.1,1.2,0.2,1.8,0.1c0.6-0.2,1.1,0,1.6-0.1c0.5-0.1,1.1,0,1.7,0c1.1,0,2.1,0,3.2,0c0.6,0,1.3,0.1,1.9,0
			c1.3-0.1,2.6,0,3.8-0.1c1.4-0.1,2.7-0.1,4.1-0.1c2.5,0,4.9,0,7.3,0c1.2,0,2.3,0,3.5,0c0.5,0,0.9,0,1.4-0.1c0.2,0,0.4,0,0.6,0
			c0.2,0,0.4,0.1,0.5,0c0.3-0.2,0.5-0.1,0.8,0c0.1,0.1,0.3,0,0.5-0.1c0.6-0.1,1.3-0.1,1.9-0.1c0.1,0,0.2,0,0.3,0c0.3,0,0.7,0.1,1,0
			c0.8-0.2,1.7-0.1,2.5-0.1c0.9,0,1.8,0.1,2.6-0.1c0.6,0.2,1.2-0.1,1.8,0c1.1,0,2.3-0.1,3.4-0.2c0.5,0,1-0.1,1.6,0
			c0.1,0,0.2,0,0.2,0c0.7-0.2,1.3-0.1,2,0.1c0.3,0,0.6,0,0.8,0c0.4,0,0.8-0.1,1.2-0.1c0.3,0,0.6,0,0.8,0c0,0,0.1,0,0.1,0
			c0.4,0.3,0.9,0,1.3,0.1c0.6,0,1.3,0,1.9-0.1c0.7-0.1,1.4-0.2,2.1-0.1c0.4,0.1,0.8,0.4,0.9,0.9c0.1,0.5-0.1,0.8-0.6,1.1
			c-0.1,0-0.1,0.1-0.2,0.1c-0.6,0.1-1,0.5-1.4,0.7c-0.1,0-0.1,0.1-0.2,0.1c-0.4-0.1-0.7-0.3-1.1-0.4c-0.1-0.1-0.3-0.1-0.4-0.1
			c-0.8,0.1-1.6,0.1-2.4,0.2c-0.3,0-0.5,0-0.7-0.1c-0.3-0.1-0.6-0.2-1-0.3c-0.7-0.1-1.4-0.2-2.1-0.2c-0.4,0-0.7,0.1-1.1,0
			c-0.9,0-1.8,0-2.7-0.1c-0.2,0-0.5,0-0.7,0.1c-0.6,0.2-1.2,0-1.8,0.1c-0.1,0-0.2,0-0.3,0c-0.9,0.1-1.8,0.2-2.7,0.2
			c-1.6-0.1-3.2,0-4.8,0c-0.6,0-1.3,0-1.9,0c-0.8,0-1.7,0.1-2.5,0.1c-0.1,0-0.2,0-0.4-0.1c-0.1,0-0.2-0.1-0.4,0
			c-1.4,0.2-2.8,0.1-4.2,0.1C99.4,65.1,98.2,65.1,97,65C97,65.1,97,65,97,65z"/>
		<path class="st0" d="M63.6,131.1c0.3,0.1,0.7,0.1,1,0.3c0.2,0.1,0.3,0.3,0.3,0.5c0,0.7,0,1.4-0.1,2.1c0,0.5-0.2,0.9-0.3,1.4
			c-0.2,1.8-0.7,3.5-1.1,5.2c-0.1,0.5-0.2,1-0.3,1.5c-0.1,0.3-0.2,0.5-0.3,0.8c-0.2,0.6-0.3,1.2-0.5,1.8c-0.1,0.2-0.1,0.5-0.2,0.7
			c-0.2,0.6-0.3,1.2-0.5,1.8c-0.1,0.4-0.2,0.9-0.3,1.3c-0.1,0.9-0.3,1.8-0.2,2.7c0.1,0.8-0.3,1.4-0.7,1.9c-0.1,0.1-0.2,0.2-0.3,0.3
			c-0.4,0.4-1,0.4-1.4,0c-0.2-0.2-0.2-0.5,0-0.7c0.4-0.4,0.3-0.9,0.4-1.4c0.2-0.5,0.1-1.1,0.2-1.6c0.2-0.9,0.3-1.8,0.5-2.7
			c0.1-0.5,0.2-0.9,0.3-1.4c0.2-0.8,0.5-1.6,0.7-2.4c0-0.1,0.1-0.1,0.1-0.2c0.1-1.2,0.5-2.3,0.8-3.4c0.4-1.8,0.9-3.7,1.1-5.5
			c0-0.1,0-0.2,0-0.2c0-0.2-0.1-0.3-0.3-0.2c-0.7,0.3-1.5,0.5-2.1,1c-0.2,0.2-0.4,0.4-0.7,0.3c-0.1,0-0.2,0.1-0.3,0.1
			c-1.7,1.1-3.4,2.2-5.1,3.3c-0.8,0.5-1.6,1.1-2.4,1.6c-0.4,0.2-0.7,0.4-1.1,0.7c-0.5,0.4-1.1,0.6-1.6,0.8c-0.2,0.1-0.4-0.1-0.7-0.2
			c-0.1,0-0.1-0.1-0.2-0.2c-0.2-0.2-0.5-0.3-0.4-0.6c0.1-0.4,0.2-0.8,0.6-1c0.1,0,0.1-0.1,0.2-0.1c0.8-0.1,1.4-0.7,2.1-1
			c0.2-0.1,0.3-0.2,0.5-0.3c0.4-0.3,0.9-0.6,1.3-0.9c0.7-0.5,1.5-0.9,2.2-1.4c1-0.6,1.9-1.2,2.9-1.8c1-0.6,1.9-1.2,2.9-1.7
			c0.8-0.5,1.6-0.9,2.4-1.4C63.3,131.2,63.5,131.2,63.6,131.1z"/>
		<path class="st0" d="M60.3,137.3c0.1,0.5-0.2,0.9-0.6,1.3c-0.3,0.3-0.5,0.6-0.7,0.9c-0.2,0.3-0.5,0.5-0.7,0.7
			c-0.5,0.5-1,1-1.5,1.5c-0.3,0.2-0.5,0.5-0.8,0.8c-1.1,1-2.2,2.1-3.3,3.1c-1.1,1-2.2,2-3.3,2.9c-0.8,0.7-1.6,1.5-2.3,2.2
			c-0.5,0.5-1.1,1-1.6,1.4c-0.3,0.3-0.6,0.7-1,1c-0.7,0.6-1.3,1.3-1.9,1.8c-0.7,0.6-1.2,1.4-2,1.9c-0.4,0.7-1,1-1.5,1.6
			c-0.4,0.4-0.8,0.8-1.2,1.2c-0.4,0.4-0.8,0.9-1.2,1.3c-0.4,0.4-0.9,0.8-1.2,1.3c-0.5,0.6-1.2,1.1-1.7,1.6c-0.7,0.7-1.4,1.4-2.1,2.1
			c-0.5,0.5-1.1,0.9-1.6,1.3c-0.3,0.2-0.8,0.1-1-0.2c-0.6-0.8-0.4-1.3,0.5-1.7c0.2-0.1,0.4-0.2,0.5-0.3c1.5-1.4,3-2.9,4.5-4.3
			c1-1,1.9-2,2.9-3c0.7-0.7,1.5-1.3,2.2-2c0.3-0.3,0.7-0.7,1-1c1-0.9,1.9-1.9,2.9-2.8c0.5-0.4,0.9-0.9,1.3-1.3
			c0.4-0.4,0.9-0.8,1.3-1.2c0.4-0.4,0.7-0.8,1.1-1.1c1-0.9,2-1.7,2.9-2.6c1-0.9,2-1.8,2.9-2.7c0.7-0.7,1.5-1.4,2.2-2.1
			c0.7-0.7,1.3-1.4,1.9-2c0.6-0.6,1-1.3,1.4-2c0.3-0.6,1.3-0.6,1.6-0.1C60.4,136.8,60.3,137,60.3,137.3z"/>
	</g>
</g>
</svg>
