<?xml version="1.0" encoding="utf-8"?>
<!-- Generator: Adobe Illustrator 24.0.2, SVG Export Plug-In . SVG Version: 6.00 Build 0)  -->
<svg version="1.1" id="Layer_1" xmlns="http://www.w3.org/2000/svg" xmlns:xlink="http://www.w3.org/1999/xlink" x="0px" y="0px"
	 viewBox="0 0 218.9 216.7" style="enable-background:new 0 0 218.9 216.7;" xml:space="preserve">
<g>
	<path d="M57.9,55.3c0-0.5,0.2-0.9,0.6-1.1c0.5-0.3,0.6-0.9,0-1.2c-0.4-0.2-0.7-0.5-1-0.8c-0.3-0.4-0.4-0.7-0.2-1.1
		c0.2-0.4,0.6-0.7,1-0.6c0.1,0,0.1,0,0.2,0c0.7,0.2,1.4,0.3,2.1,0.5c0.5,0.1,0.9,0.3,1.3,0.5c0.3,0.1,0.7,0.1,1,0.1
		c0.4,0,0.7,0,1.1,0.1c0.3,0.1,0.7,0.2,1,0c0,0,0.1,0,0.1,0c0.5,0.5,1.2,0.3,1.8,0.3c0.7,0,1.4,0.1,2.1,0.2c0.3,0,0.7-0.1,1-0.1
		c0.5,0,0.9,0.1,1.4,0.1c0.2,0,0.4,0,0.5,0c0.2,0,0.4,0,0.5,0c0.6,0.1,1.1,0.2,1.7,0.1c0.1,0,0.2,0,0.4,0c0.4,0,0.9,0.1,1.3,0.1
		c1.4,0,2.8,0,4.2,0c1.3,0,2.5-0.1,3.8,0c0.8,0,1.6-0.1,2.4,0c0.3,0,0.7,0,1-0.1c0.6-0.1,1.2,0,1.8,0c0.5,0,1,0,1.5,0
		c0.9,0,1.9-0.1,2.8-0.1c0.7,0,1.5,0,2.2,0c0.8,0,1.5-0.1,2.3-0.1c1.3,0,2.5,0,3.8-0.1c0.1,0,0.2,0.1,0.3,0c0.4,0,0.8,0.1,1.1-0.2
		c0,0,0.1,0,0.1,0c0.6,0,1.1-0.1,1.7,0c0.5,0,1,0.2,1.5,0c0.1,0,0.2,0,0.2,0c0.5,0.1,1.1,0,1.6-0.1c0.9-0.1,1.8,0,2.7,0
		c0.4,0,0.9,0,1.3-0.1c0.6-0.1,1.1,0.1,1.7,0c0.5,0,1.1,0,1.6-0.1c0.7,0,1.4-0.2,2.1-0.2c1.4,0.1,2.8-0.1,4.2-0.1c0.5,0,1,0,1.5,0
		c0.8,0,1.6-0.1,2.4-0.1c0.5,0,1.1,0,1.6,0c1-0.1,2-0.1,3-0.1c0.8,0,1.6,0,2.4-0.1c0.5-0.1,0.9,0,1.3,0.1c0.3,0.1,0.6,0,0.9,0
		c0.5,0,1,0,1.5,0c0.1,0,0.1,0,0.2,0c0.7-0.3,1.4,0,2.1-0.1c0.9-0.2,1.9,0,2.8-0.3c0.3-0.1,0.6,0,0.9,0c0.6,0.1,1.2,0.3,1.8,0.3
		c0.4,0,0.8,0,1.2-0.1c0.5-0.1,1-0.1,1.5-0.4c0.2-0.1,0.4-0.1,0.6-0.1c0.8,0.1,1.6-0.1,2.3-0.4c0.5-0.3,1-0.2,1.4,0.2
		c0.3,0.3,0.4,0.1,0.7,0c0.4-0.3,0.8-0.6,1.2-0.9c0.4-0.3,0.9-0.7,1.3-1.1c0.2-0.2,0.4-0.4,0.7-0.3c0.4,0.1,0.8,0.1,1.1,0.5
		c0.1,0.1,0.1,0.2,0.2,0.3c0.1,0.1,0.1,0.2-0.1,0.3c-0.2,0.1-0.3,0.2-0.1,0.4c0.2,0.2,0.1,0.4-0.1,0.6c-0.2,0.2-0.4,0.3-0.6,0.4
		c-0.5,0.2-1,0.5-1.4,0.9c-0.1,0.1-0.3,0.2-0.5,0.3c-0.5,0.3-1,0.7-1.4,1.1c-0.1,0.1-0.1,0.2-0.1,0.4c0,0.6,0.1,1.1,0.1,1.7
		c0,0.9,0.2,1.8,0.3,2.7c0,0.1,0.1,0.2,0,0.3c-0.1,0.4,0,0.7,0,1.1c0.1,0.9,0.1,1.7,0.2,2.6c0,0.6,0,1.3,0.1,1.9
		c0.1,0.9-0.1,1.8,0,2.7c0.1,0.7,0,1.4,0,2.1c0,0.5,0.1,0.9,0.1,1.4c0,0.6,0.1,1.2,0.1,1.8c0.1,1.2,0.3,2.4,0.5,3.7
		c0.1,0.6,0.1,1.2,0.2,1.8c0.1,0.7,0.2,1.4,0.3,2.1c0.1,0.8,0.3,1.5,0.5,2.3c0.2,1.1,0.5,2.3,0.7,3.4c0.1,0.8,0.2,1.6,0.3,2.5
		c0,0.2,0.1,0.3,0.1,0.5c0,0.2,0.1,0.5,0,0.7c-0.1,0.4-0.4,0.6-0.7,0.4c-0.3-0.2-0.5-0.1-0.7,0c-0.5,0.3-1,0.4-1.6,0.3
		c-0.3,0-0.7,0.1-1,0c-0.4-0.2-0.4-0.2-0.4-0.7c0-0.3,0.2-0.4,0.5-0.4c0.2,0,0.5,0.1,0.7-0.1c0.4-0.2,0.5-0.5,0.5-0.9
		c-0.2-1.1-0.2-2.2-0.4-3.3c-0.2-0.7-0.3-1.4-0.4-2.2c0-0.6-0.2-1.2-0.3-1.8c0-0.4-0.1-0.7-0.1-1.1c0-0.1,0-0.3,0.1-0.4
		c0,0,0-0.1,0-0.1c-0.4-0.5-0.3-0.5-0.4-1c0-0.3-0.2-0.6-0.2-0.9c-0.1-1-0.2-2-0.3-3.1c-0.1-1-0.2-2-0.3-3c0-0.1,0-0.2,0-0.3
		c0.2-1,0-2-0.1-3c0-0.1,0-0.2,0-0.3c0-1.1,0-2.1,0-3.2c0-0.2-0.1-0.5-0.1-0.7c0-0.1,0-0.2,0-0.3c0-0.5,0.1-1.1-0.1-1.6
		c-0.1-0.1-0.1-0.3-0.1-0.5c0.1-0.8-0.1-1.6,0-2.4c0.1-1-0.2-1.9-0.4-2.9c-0.1-0.2,0.2-0.5-0.1-0.8c-0.1-0.1-0.2-0.2-0.4-0.1
		c-0.1,0.1-0.3,0.1-0.4,0.2c-0.6,0.4-1.1,0.7-1.7,1.1c-0.3,0.2-0.7,0.3-1.1,0.5c-1,0.5-2,1.1-3,1.7c-0.5,0.3-1,0.6-1.6,0.8
		c-1,0.5-2,1-3,1.5c-0.7,0.3-1.5,0.6-2.2,1c-0.7,0.4-1.4,0.8-2.2,1.2c-0.8,0.4-1.6,0.8-2.4,1.2c-0.4,0.2-0.9,0.5-1.3,0.7
		c-1.2,0.6-2.3,1.3-3.5,1.9c-0.5,0.3-1.1,0.6-1.7,0.8c-0.9,0.3-1.7,0.8-2.5,1.2c-0.5,0.3-1,0.5-1.5,0.8c-0.4,0.2-0.8,0.4-1.3,0.6
		c-1.1,0.4-2.1,1.2-3.3,1.6c-0.5,0.2-1,0.5-1.5,0.8c-0.9,0.5-1.9,0.9-2.8,1.4c-0.6,0.3-1.1,0.6-1.6,0.8c-0.1,0-0.2,0.1-0.2,0.2
		c0,0.1,0.1,0.2,0.2,0.2c0.9,0.1,1.6,0.6,2.4,0.8c0.4,0.1,0.7,0.3,1.1,0.4c0.6,0.2,1.2,0.5,1.8,0.7c0.6,0.2,1.2,0.5,1.8,0.7
		c0.8,0.3,1.6,0.5,2.4,0.8c0.6,0.2,1.2,0.5,1.7,0.8c0.3,0.1,0.6,0.3,1,0.4c1.1,0.4,2.2,0.8,3.2,1.2c1.1,0.4,2.1,0.9,3.1,1.4
		c0.7,0.3,1.3,0.6,2,0.9c0.2,0.1,0.5,0.2,0.7,0.3c1.1,0.5,2.1,1.1,3.2,1.5c0.3,0.1,0.5,0.3,0.8,0.4c0.4,0.2,0.8,0.4,1.2,0.6
		c0.9,0.4,1.8,0.8,2.7,1.2c1,0.4,1.8,0.9,2.8,1.4c0.8,0.4,1.6,0.8,2.3,1.5c0.1,0.1,0.3,0.2,0.4,0c0.1-0.1,0.1-0.2,0.2-0.3
		c0.5-0.4,1.1-0.3,1.4,0.2c0.1,0.2,0.2,0.4,0.1,0.6c-0.2,0.5-0.4,1-1,1.2c-0.1,0-0.1,0.1-0.1,0.2c0,0.1,0,0.3-0.1,0.4
		c-0.2,0.4-0.5,0.6-1,0.4c-0.6-0.2-1.2-0.3-1.8-0.4c-0.2,0-0.5,0-0.8,0c-0.5,0-1,0.1-1.5,0.1c-0.3,0-0.6,0-0.8,0.1
		c-0.8,0.1-1.6,0.1-2.4,0.2c-0.8,0-1.5,0-2.3,0c-0.1,0-0.2,0-0.4,0c-0.6,0.2-1.1,0-1.6-0.3c-0.1-0.1-0.3-0.1-0.5-0.1
		c-0.5,0-1-0.1-1.6-0.1c-0.1,0-0.1,0-0.2,0c-1.5,0-2.9,0-4.4,0c-0.8,0-1.6-0.1-2.4-0.1c-0.7,0-1.5,0-2.2,0c-0.4,0-0.7,0-1.1,0
		c-1.9,0-3.8,0-5.7,0c-0.8,0-1.6,0.1-2.3,0c-0.8-0.1-1.6,0.1-2.4,0c-1.7-0.1-3.5,0.1-5.2,0c-0.8,0-1.6,0-2.4,0c-1,0-2.1,0.1-3.1,0.2
		c-0.5,0-1.1,0-1.6,0.1c-0.7,0.1-1.5,0.1-2.2,0c-0.6,0-1.2,0.1-1.8,0.1c-0.4,0-0.7,0.1-1.1,0.1c-0.7,0-1.3,0.1-2,0
		c-0.2,0-0.4-0.1-0.5,0.2c0,0-0.2,0.1-0.2,0.1c-1.2,0-2.3,0-3.5,0c-0.9,0-1.8,0.2-2.8,0.2c-0.7,0-1.5,0.1-2.3,0.2
		c-0.4,0-0.8,0-1.2,0.1c-0.5,0-0.9,0.1-1.4,0.2c-0.7,0.1-1.4,0.1-2.2,0.2c-0.2,0-0.3,0-0.5,0.1c-0.2,0.1-0.4,0.1-0.6,0.1
		c-0.6,0-1.1,0-1.7,0.1c-0.7,0.1-1.3,0.2-2,0.3c-0.1,0-0.2,0-0.4,0c-0.7-0.1-1.4,0.1-2.1,0.2c-0.4,0-0.7,0.1-1.1,0.1
		c-1.1,0.1-2.1,0.3-3.2,0.4c-0.7,0.1-1.4,0.1-2.1,0.2c-1,0-1.9,0.1-2.9,0.1c-0.9,0-1.7-0.2-2.5-0.6c-0.1-0.1-0.2-0.2-0.2-0.3
		c-0.1-0.3-0.1-0.5-0.1-0.8c0-0.1,0.1-0.3,0.2-0.4c0.4-0.3,0.7-0.5,1.2-0.4c0.7,0.2,1.5,0.3,2.3,0.3c0.4,0,0.7,0,1-0.1
		c0.1,0,0.3-0.1,0.5,0c0.5,0.1,1.1,0,1.4-0.4c0.3-0.5,0.9-0.7,1.4-1c0.3-0.2,0.6-0.3,0.9-0.5c0.3-0.2,0.5-0.3,0.9-0.3
		c0.3,0,0.5-0.1,0.7-0.2c0.5,0,1-0.2,1.5-0.5c0.1,0,0.2-0.1,0.3,0c0.2,0.1,0.4,0.2,0.6,0.3c-0.1,0.2-0.2,0.4-0.4,0.5
		c-0.4,0.3-0.8,0.4-1.2,0.7c-0.1,0.1-0.2,0.2-0.3,0.3c0.1,0,0.3,0.1,0.4,0c0.2,0,0.4-0.1,0.6-0.2c0.7-0.3,1.4-0.5,2-0.8
		c0.4-0.2,0.7-0.6,1.2-0.5c0.2,0,0.3-0.2,0.5-0.3c0.2-0.1,0.5-0.3,0.7-0.3c0.9-0.3,1.7-0.7,2.6-1.1c0.3-0.1,0.5-0.2,0.8-0.3
		c0.1,0,0.2,0,0.3-0.1c0.5-0.5,1.1-0.5,1.7-0.8c0.7-0.4,1.4-0.6,2.1-1c0.7-0.3,1.4-0.7,2.1-1c0.3-0.1,0.6-0.2,0.8-0.3
		c1.3-0.6,2.6-1.1,3.8-1.8c1-0.5,2-0.9,3-1.4c1.5-0.8,3.1-1.6,4.7-2.4c1.1-0.5,2.1-1.1,3.2-1.6c1.1-0.5,2.3-1.1,3.4-1.6
		c0.3-0.1,0.6-0.3,0.9-0.5c0.5-0.2,1-0.4,1.5-0.7c0.1,0,0.2-0.1,0.2-0.2c0-0.1-0.1-0.2-0.2-0.2c-0.3-0.2-0.7-0.3-1-0.4
		c-0.7-0.3-1.4-0.6-2-0.8c-1.4-0.5-2.7-1-4.1-1.6c-1.3-0.5-2.7-1.1-4-1.7c-1-0.4-2-0.8-3-1.2c-0.7-0.3-1.4-0.6-2-1
		c-0.2-0.1-0.4-0.2-0.7-0.3c-1.2-0.5-2.5-1.1-3.7-1.7c-0.7-0.3-1.3-0.7-2-1.1c-1-0.5-2-1.1-3-1.6c-0.4-0.2-0.7-0.3-1.1-0.5
		c-0.5-0.2-0.9-0.5-1.4-0.8c-1.9-1-3.7-2.2-5.5-3.4c-0.7-0.5-1.5-0.8-2.2-1.2c-0.3-0.2-0.6-0.4-0.9-0.6c-0.8-0.5-1.6-0.9-2.4-1.4
		c-0.6-0.3-1.2-0.5-1.8-0.8c0,0-0.1,0-0.1,0c-0.5,0.2-1-0.1-1.5-0.2c-0.1,0-0.2,0-0.2,0c-0.2,0-0.4-0.1-0.5-0.1
		c0.1,0.2,0.2,0.3,0.3,0.5c0.2,0.3,0.4,0.5,0.5,0.8c0.2,0.4,0,0.5-0.4,0.4c-0.1,0-0.2-0.1-0.2-0.1c-0.2-0.1-0.2,0-0.2,0.2
		c0,0.4,0.1,0.8,0.1,1.2c0,0.2,0.1,0.4-0.1,0.6c-0.2,0.3,0.2,0.5,0.2,0.8c0,0.1,0.1,0.1,0.1,0.2c-0.1,1,0.3,2,0,3c0,0.1,0,0.2,0,0.4
		c0.1,0.7,0.1,1.3,0,2c0,0.1,0,0.2,0,0.4c-0.1,0.8-0.1,1.6-0.2,2.4c0,0.3,0,0.5-0.1,0.8c0,0.1,0,0.2,0,0.4c-0.2,0.5,0,1-0.1,1.5
		c0,0.3-0.1,0.6-0.1,0.9C62,71,61.9,71.5,62,72.1c0.1,0.8,0,1.6-0.1,2.4c0,0,0,0.1,0,0.1c0.2,0.7,0,1.5,0,2.2c0,0.7,0.2,1.4,0.2,2.1
		c0,0.7,0.1,1.3,0.1,2c0,0.6,0,1.2-0.1,1.8c-0.1,0.7,0,1.4-0.1,2.1c0,0.3-0.2,0.7-0.2,1c-0.1,0.7-0.1,1.5-0.2,2.3
		c-0.1,0.6-0.3,0.8-0.9,0.6c-0.3-0.1-0.5-0.1-0.8,0.1c-0.2,0.1-0.3,0.1-0.4,0c-0.4-0.3-0.5-0.6-0.4-1.1c0.1-0.6,0.1-1.3,0.2-1.9
		c0-0.1,0-0.1,0-0.2c0.3-0.5,0.4-1,0.3-1.5c0-0.2,0-0.5,0.1-0.7c0.1-0.7,0.1-1.3,0.1-2c0-0.3,0-0.5,0-0.8c0-0.9-0.1-1.7,0-2.6
		c0.1-1-0.1-2,0-3c0.1-1.3,0.2-2.6,0.2-3.8c0-1,0.2-1.8,0.3-2.8c0-0.1,0-0.2,0-0.4c0-0.4,0.1-0.9,0.1-1.3c0-0.2,0.1-0.4,0.1-0.6
		c0-1.1,0.1-2.2,0.1-3.3c0-1.2,0-2.5-0.1-3.7c0-0.4-0.2-0.8-0.2-1.3c0-0.6-0.2-1.3-0.3-1.9c0-0.2-0.1-0.5-0.3-0.6
		c-0.2-0.1-0.4,0.1-0.6,0.3c-0.1,0.1-0.2,0.2-0.4,0.3c-0.5,0.2-0.8,0.1-0.8-0.5C57.9,55.4,57.9,55.4,57.9,55.3z M108.1,73.4
		c0.2-0.1,0.4-0.1,0.6-0.2c0.3-0.2,0.6-0.4,0.9-0.5c0.3-0.2,0.7-0.3,1-0.4c0.3-0.1,0.6-0.3,1-0.4c0.4-0.1,0.9-0.1,1.2-0.6
		c0,0,0.1,0,0.1-0.1c0.9-0.3,1.7-1,2.7-1.2c0.1,0,0.1-0.1,0.2-0.1c0.2-0.2,0.4-0.3,0.6-0.4c1-0.5,2-1,2.9-1.5
		c0.8-0.4,1.6-0.8,2.4-1.2c0.9-0.5,1.9-0.9,2.8-1.4c0.1-0.1,0.2-0.1,0.3-0.1c1-0.5,2-1,2.9-1.6c0.6-0.3,1.2-0.6,1.7-0.9
		c0.6-0.3,1.1-0.8,1.8-0.8c0,0,0.1,0,0.1-0.1c0.5-0.5,1.1-0.8,1.7-1.1c0.9-0.5,1.9-1,2.8-1.5c0.9-0.4,1.7-0.9,2.6-1.3
		c0.8-0.4,1.5-0.7,2.3-1.2c0.5-0.3,1-0.7,1.6-1c1.6-0.9,3.3-1.8,4.9-2.7c0.4-0.2,0.7-0.4,1-0.6c0.1,0,0.1-0.1,0.1-0.2
		c-0.1,0-0.1,0-0.2,0c-0.7,0.2-1.4,0.3-2,0.5c-0.1,0-0.3,0-0.4,0c-0.1,0-0.3,0-0.4,0c-1.3,0.2-2.5,0.2-3.8,0.2c-0.3,0-0.5,0-0.8-0.2
		c-0.2-0.1-0.5-0.2-0.7-0.3c-1,0-2-0.2-3.1-0.1c-0.2,0-0.4,0-0.6,0c-0.3,0-0.6,0-0.9,0c-0.5,0-1.1,0-1.6,0c-0.9,0-1.8,0-2.6,0
		c-0.7,0-1.4,0.1-2.1,0.1c-0.6,0-1.2-0.1-1.8,0c-1.3,0-2.5,0.1-3.8,0.2c-1.4,0.1-2.8,0-4.2,0.2c-0.1,0-0.1,0-0.2,0
		c-0.9,0-1.8,0-2.7,0c-0.1,0-0.2,0-0.4,0c-0.7,0-1.3,0.1-2,0.1c-1,0-2,0-3,0c-1.1,0-2.2,0.1-3.3,0.2c-0.9,0-1.8,0.1-2.7,0.1
		c-0.2,0-0.3,0-0.5,0c-0.2,0-0.4-0.1-0.7-0.1c-1.2,0-2.3,0.1-3.5,0.1c-0.7,0-1.4,0.1-2.1,0.1c-1,0-2,0.2-3,0c-0.2,0-0.4,0-0.6,0
		c-0.7,0-1.3,0.2-2,0.1c-0.3-0.1-0.7,0.1-1,0.1c-0.5,0-1-0.1-1.6-0.1c-0.5,0-1,0.1-1.5,0c-0.8-0.1-1.6,0.2-2.4,0c-0.1,0-0.2,0-0.2,0
		c-0.3,0-0.6,0.1-0.8,0.1c-1.9,0-3.9,0-5.8,0c-0.2,0-0.5,0-0.7,0c-0.7,0-1.4,0-2.1,0c-0.7,0-1.5,0-2.2,0c-0.6,0-1.1,0-1.7-0.1
		c-0.5-0.1-1.1,0.3-1.6,0c0,0-0.1,0.1-0.1,0.1c-0.1,0-0.2,0-0.3,0c-0.6-0.1-1.2-0.2-1.8-0.1c-0.4,0.1-0.8,0.1-1.2,0
		c-0.3,0-0.5-0.1-0.8-0.1c0,0-0.1,0-0.1,0.1c0,0,0,0.1,0.1,0.1c0.2,0.1,0.3,0.2,0.5,0.2c0.5,0.3,1.1,0.5,1.6,0.9
		c0.7,0.4,1.3,0.8,2,1.3c1,0.6,2,1.3,3.1,1.8c0.7,0.4,1.3,1,2.1,1.2c0.1,0,0.1,0.1,0.1,0.1c0.4,0.3,0.8,0.7,1.3,0.8
		c0.1,0,0.2,0.1,0.3,0.2c0.6,0.4,1.2,0.8,1.8,1.1c0.4,0.2,0.9,0.5,1.3,0.7c0.9,0.2,1.7,0.8,2.6,1.2c0.8,0.3,1.5,0.9,2.4,1.2
		c0.1,0,0.2,0.1,0.3,0.2c0.4,0.2,0.7,0.5,1.1,0.6c0.7,0.2,1.3,0.8,2,0.8c0.1,0,0.2,0.1,0.4,0.2c0.2,0.1,0.3,0.2,0.5,0.3
		c0.3,0.1,0.6,0.3,0.9,0.4c0.2,0.1,0.4,0.2,0.6,0.2c0.3,0.1,0.6,0.2,1,0.3c0.2,0.1,0.4,0.2,0.7,0.3c1.3,0.5,2.5,1,3.8,1.6
		c0.7,0.3,1.6,0.6,2.3,0.8c0.6,0.2,1.1,0.5,1.7,0.7c0.4,0.2,0.8,0.4,1.1,0.5c1,0.3,2,0.7,3,1.1c0.8,0.3,1.6,0.7,2.4,1
		C107.9,73.4,108,73.4,108.1,73.4z M140.7,89.6C140.7,89.6,140.7,89.6,140.7,89.6c0.1,0,0.2,0,0.3,0c-0.1,0-0.1-0.1-0.2-0.1
		c-0.9-0.5-1.7-0.9-2.6-1.4c-1.3-0.7-2.7-1.3-4-1.9c-0.7-0.3-1.4-0.6-2.1-1c-0.9-0.5-1.8-0.8-2.7-1.2c-0.9-0.4-1.7-0.8-2.6-1.2
		c-1.5-0.6-3.1-1.3-4.7-1.9c-0.9-0.4-1.9-0.8-2.8-1.2c-1-0.4-2-0.7-3-1.1c-0.5-0.2-0.9-0.4-1.4-0.6c-0.8-0.3-1.6-0.6-2.4-0.9
		c-0.6-0.2-1.1-0.4-1.7-0.6c-0.6-0.2-1.2-0.3-1.7-0.6c-0.7-0.3-1.3-0.2-1.9,0c-0.9,0.4-1.8,0.8-2.6,1.2c-0.7,0.4-1.4,0.8-2.2,1.1
		c-0.6,0.3-1.1,0.5-1.7,0.8c-1,0.5-2,1.1-3.1,1.5c-0.1,0-0.1,0-0.2,0.1c-0.6,0.6-1.5,0.7-2.2,1.2c-0.9,0.6-1.9,1-2.8,1.4
		c-0.2,0.1-0.4,0.3-0.7,0.4c-0.7,0.3-1.3,0.5-2,0.8c-0.5,0.2-1,0.5-1.5,0.7c-0.2,0.1-0.3,0.2-0.5,0.3c-0.3,0.1-0.5,0.2-0.8,0.3
		c-1.2,0.6-2.4,1.1-3.5,1.7c-0.6,0.3-1.1,0.6-1.6,0.8c-0.7,0.2-1.4,0.5-2,0.9c-0.8,0.5-1.7,0.7-2.5,1.2c-1.1,0.6-2.3,1.1-3.4,1.6
		c0,0-0.1,0.1-0.1,0.1c0.1,0,0.1,0,0.2,0c0.8,0,1.6,0,2.4,0.2c0.2,0,0.5,0,0.6-0.1c0.5-0.3,0.5-0.3,1-0.2c0.3,0.1,0.7,0.1,1.1,0
		c0.2-0.1,0.4-0.1,0.6-0.1c0.4,0,0.9-0.1,1.3-0.2c0.1-0.3,0.5-0.3,0.7-0.3c0.6,0,1.1-0.2,1.7-0.2c0.4,0,0.9-0.1,1.3-0.1
		c0.6,0,1.1-0.1,1.7-0.1c0.1,0,0.2,0,0.4,0c0.9-0.1,1.8-0.2,2.7-0.2c0.9,0,1.8,0,2.7-0.1c0.6-0.1,1.2-0.1,1.8-0.1c0,0,0.1,0,0.1,0.1
		c0.3,0.2,0.4,0.2,0.7,0.1c0.4-0.2,0.8-0.5,1.4-0.3c0.3,0.1,0.7,0,1,0c0.8,0,1.5-0.2,2.3-0.1c0.7,0.1,1.3,0,1.9-0.1
		c0.3,0,0.7-0.2,1,0.2c0,0,0.1,0,0.2,0c0.2,0,0.3-0.1,0.5-0.1c0.7-0.2,1.4-0.2,2.2-0.1c0.6,0,1.1,0,1.7,0c0.3,0,0.6,0,0.9-0.1
		c0.5,0,1-0.1,1.4-0.1c0.9,0,1.7,0.1,2.6,0.1c1.4,0,2.8,0,4.2,0c1.3,0,2.7-0.1,4,0c0,0,0.1,0,0.1,0c1.3-0.1,2.6,0.1,3.9,0
		c0.9-0.1,1.9,0.2,2.9-0.1c0.1,0,0.1,0,0.2,0c0.5,0.2,1.1-0.1,1.6,0.1c0,0,0.1,0,0.2,0c0.8,0,1.7-0.1,2.5-0.1c0.3,0,0.6,0.1,0.9,0.1
		c0.7-0.1,1.5-0.1,2.2-0.2c0.2,0,0.3,0,0.5,0c0.8,0.1,1.5,0.2,2.3,0c0.1,0,0.3,0,0.4,0c0.3,0.1,0.6,0,0.9,0
		C139.3,89.8,140,89.7,140.7,89.6z"/>
	<path d="M160.5,144.5c0-0.4,0.1-0.7,0.5-0.9c0.2-0.1,0.3-0.3,0.5-0.4c0,0,0.1-0.1,0.1-0.1c0.7-0.4,1.5-0.8,2.2-1.2
		c0.2-0.1,0.4-0.2,0.6-0.3c1.4-0.8,2.7-1.7,4.1-2.5c0.5-0.3,1-0.5,1.5-0.8c0.7-0.4,1.4-0.9,2.1-1.3c0.7-0.4,1.3-0.7,2-1.1
		c0.8-0.4,1.5-0.8,2.3-1.2c0.7-0.4,1.4-0.9,2.1-1.3c0.6-0.3,1.2-0.6,1.8-1c0.6-0.3,1.1-0.7,1.6-1.1c0.3-0.2,0.5-0.3,0.8-0.5
		c0.5-0.3,1.1-0.6,1.6-0.9c0.9-0.6,1.8-1.2,2.8-1.7c0.2-0.1,0.4-0.2,0.6-0.4c0.3-0.2,0.5-0.4,0.8-0.6c0.5-0.4,1.1-0.8,1.6-1.2
		c0.3-0.2,0.7-0.5,1-0.7c0.8-0.7,1.6-1.4,2.4-2.1c0.5-0.4,0.9-0.9,1.4-1.4c0.5-0.5,1-1,1.4-1.6c0.4-0.5,0.7-0.9,1-1.4
		c0.4-0.7,0.9-1.4,1.3-2.1c0.4-0.8,0.7-1.6,0.9-2.4c0.2-0.5,0.4-1,0.4-1.5c0.1-0.8,0.4-1.6,0.3-2.5c-0.1-0.3,0-0.7,0.1-1
		c0.2-0.6,0-1.2-0.1-1.8c0,0,0-0.1,0-0.1c0.1-0.8-0.3-1.5-0.4-2.2c-0.2-0.9-0.6-1.8-0.9-2.7c-0.2-0.5-0.3-1.1-0.4-1.7
		c0-0.1,0-0.2,0-0.2c-0.6-0.5-0.6-1.3-1-1.9c-0.4-0.6-0.7-1.3-1.1-1.9c-0.4-0.7-0.9-1.4-1.4-2.2c-0.2-0.4-0.4-0.8-0.7-1.1
		c-0.4-0.6-0.8-1.2-1.2-1.8c-0.1-0.2-0.2-0.3-0.4-0.4c-0.1-0.1-0.1-0.1-0.2-0.2c-0.6-0.7-1.1-1.4-1.7-2.1c-0.7-0.8-1.5-1.6-2.2-2.4
		c-0.6-0.7-1.3-1.2-2-1.9c-0.6-0.5-1.2-1-1.7-1.5c-0.8-0.8-1.7-1.4-2.5-2.1c-0.8-0.7-1.7-1.5-2.6-2c-0.7-0.4-1.2-1-2-1.2
		c-0.1,0-0.1-0.2-0.2-0.2c-0.8-0.6-1.6-1.1-2.5-1.5c-0.2-0.1-0.3-0.3-0.5-0.4c-0.4-0.2-0.9-0.5-1.3-0.7c-0.5-0.3-1.1-0.6-1.6-0.9
		c-0.2-0.1-0.4-0.2-0.6-0.2c-0.5,0-0.8-0.2-1.2-0.4c-0.3-0.1-0.6-0.2-0.9-0.3c-0.3-0.1-0.6-0.2-0.9-0.3c-0.5-0.2-1-0.4-1.5-0.6
		c-0.1,0-0.2-0.1-0.3-0.1c-0.1,0-0.1,0-0.2,0.1c0,0.1,0,0.2,0.1,0.3c0.3,0.4,0.7,0.9,1.1,1.3c0.6,0.7,1,1.4,1.5,2.2
		c0.3,0.4,0.5,0.8,0.9,1.1c0.4,0.3,0.7,0.8,1,1.2c0.5,0.5,0.9,1,1.4,1.5c0.4,0.3,0.7,0.7,1.1,1c0.4,0.2,0.5,0.7,0.5,1.1
		c0,0.4-0.6,0.7-0.9,0.5c-0.2-0.1-0.2-0.1-0.4,0c-0.4,0.4-0.9,0.3-1.3-0.1c-0.2-0.2-0.5-0.4-0.5-0.8c0-0.2-0.2-0.3-0.3-0.5
		c-0.4-0.5-0.8-0.9-1.2-1.3c-0.4-0.5-0.7-1-1.1-1.4c-0.5-0.6-0.9-1.2-1.4-1.8c-0.1-0.2-0.3-0.4-0.4-0.6c-0.2-0.2-0.4-0.4-0.6-0.7
		c-0.1-0.1-0.1-0.1-0.2-0.2c-0.1-0.2-0.2-0.5-0.4-0.7c-0.6-0.8-1.3-1.6-2.1-2.3c-0.2-0.2-0.5-0.4-0.7-0.6c-0.1,0-0.1-0.1-0.2-0.1
		c-0.7,0-1.4-0.2-2.1,0c-0.7,0.2-1.2-0.5-1-1.1c0-0.1,0-0.2,0-0.2c0-0.5,0.3-0.7,0.7-0.7c0.3,0,0.5-0.2,0.5-0.5
		c0-0.2,0.1-0.4,0.1-0.6c0.2-0.6,0.6-0.9,1.2-0.6c0.2,0.1,0.5,0.2,0.6,0.4c0.2,0.2,0.5,0.3,0.8,0.2c0.4-0.1,0.9-0.1,1.3-0.3
		c0.2-0.1,0.4-0.1,0.6-0.1c0.3,0,0.5,0,0.8,0c0.3,0,0.5-0.1,0.8-0.2c0.1,0,0.3-0.1,0.4-0.1c0.4-0.2,0.8-0.3,1.2-0.5
		c0.6-0.3,1.2-0.5,1.8-0.4c0.3,0,0.5,0,0.8-0.2c0.4-0.3,0.9-0.4,1.4-0.3c0.2,0,0.3,0,0.4-0.1c0.2-0.3,0.5-0.5,0.9-0.5
		c0.7,0,1.3-0.2,2-0.3c0.5-0.1,0.9-0.2,1.4-0.3c0.1,0,0.2,0,0.3,0c0.1,0,0.2,0.1,0.2,0c0.5-0.4,1.1-0.4,1.7-0.5
		c0.3-0.1,0.7-0.1,0.9,0.3c0.1,0.1,0.2,0.1,0.3,0.2c0.2,0.2,0.4,0.4,0.3,0.8c-0.1,0.3-0.2,0.5-0.6,0.6c-0.4,0.1-0.7,0.4-1,0.6
		c-0.4,0.2-0.7,0.5-1.1,0.7c-0.1,0.1-0.3,0.2-0.4,0.1c-0.5-0.1-0.9,0.3-1.3,0.5c-0.5,0.2-1.1,0.3-1.6,0.4c-0.2,0-0.4-0.1-0.5-0.2
		c-0.2-0.2-0.2-0.4,0-0.5c0.2-0.2,0.5-0.3,0.7-0.5c0,0,0.1-0.1,0.1-0.1c0,0-0.1-0.1-0.1-0.1c-0.3-0.1-0.6,0.1-0.8,0.2
		c-0.2,0.1-0.3,0.3-0.4-0.1c0,0-0.4,0-0.5,0.1c-0.7,0.3-1.4,0.6-2.1,0.9c-0.1,0.1-0.2,0.1-0.3,0.1c-0.3,0-0.8,0.2-1,0.3
		c-0.1,0.1-0.3,0.1-0.4,0.2c-0.3,0.1-0.6,0.1-0.9,0.1c-0.2,0-0.4,0-0.6,0.2c0,0.1-0.1,0.1-0.2,0.1c-0.2,0.1-0.5,0.1-0.7,0.2
		c-0.1,0-0.1,0.2-0.2,0.3c-0.1,0-0.2-0.2-0.4,0c-0.1,0.1-0.3,0.1-0.4,0.1c-0.1,0-0.1,0.1-0.2,0.2c0.1,0,0.2,0.1,0.2,0.1
		c0.4,0.2,0.8,0.4,1.3,0.4c0.2,0,0.4,0.1,0.6,0.2c0.5,0.2,1.1,0.4,1.6,0.5c0.3,0.1,0.6,0.2,0.8,0.3c0.1,0,0.2,0.1,0.3,0.1
		c0.6,0.2,1.1,0.5,1.7,0.7c0.5,0.1,1,0.4,1.5,0.8c0.4,0.3,0.9,0.4,1.3,0.6c0.7,0.4,1.5,0.6,2,1.2c0.1,0.1,0.3,0.2,0.5,0.3
		c0.6,0.4,1.2,0.8,1.8,1.2c0.3,0.2,0.6,0.3,0.9,0.5c0.1,0,0.2,0,0.3,0.1c0.5,0.6,1.2,0.8,1.8,1.3c0.5,0.4,1.1,0.9,1.6,1.3
		c0.6,0.4,1.2,0.8,1.7,1.3c0.5,0.4,1.1,0.9,1.6,1.3c0.1,0.1,0.1,0.2,0.2,0.3c0.1,0.2,0.2,0.3,0.4,0.4c0.6,0.3,1,0.7,1.3,1.2
		c0.2,0.3,0.4,0.5,0.8,0.6c0.2,0.1,0.4,0.3,0.5,0.4c0.1,0.1,0.1,0.1,0.2,0.2c0.3,0.1,0.5,0.5,0.7,0.7c0.2,0.2,0.4,0.5,0.6,0.7
		c0.4,0.3,0.8,0.7,1.2,1c0.1,0.1,0.2,0.3,0.3,0.5c0.1,0.4,0.3,0.7,0.7,0.9c0.2,0.1,0.4,0.4,0.5,0.5c0.4,0.4,0.9,0.9,1.3,1.3
		c0.2,0.2,0.2,0.5,0.4,0.8c0.3,0.5,0.6,1,1,1.4c0.7,0.7,1.2,1.6,1.6,2.5c0.2,0.4,0.4,0.8,0.7,1.2c0,0,0.1,0.1,0.1,0.1
		c-0.1,0.5,0.4,0.8,0.6,1.2c0.4,0.7,0.7,1.4,0.9,2.1c0,0.2,0.1,0.3,0.2,0.4c0.2,0.3,0.3,0.5,0.2,0.8c-0.1,0.2,0,0.3,0.2,0.4
		c0.3,0.1,0.4,0.4,0.4,0.7c0.2,0.8,0.5,1.6,0.7,2.5c0,0.2,0.1,0.3,0.1,0.5c0.1,1,0.2,2,0.4,3.1c0,0.1,0,0.2,0,0.4
		c-0.1,1.2-0.2,2.4-0.4,3.6c-0.1,0.6-0.2,1.1-0.4,1.7c0,0,0,0,0,0.1c0,0.3-0.5,0.4-0.4,0.8c0.1,0.3-0.1,0.7-0.2,1
		c-0.1,0.3-0.3,0.6-0.4,0.9c-0.1,0.2-0.2,0.4-0.3,0.6c-0.4,0.7-0.9,1.3-1.2,2c-0.2,0.4-0.6,0.8-0.9,1.2c-0.4,0.5-0.7,1.1-1.2,1.5
		c-0.4,0.4-0.8,0.9-1.4,1.2c-0.1,0.1-0.2,0.2-0.4,0.4c-0.1,0.2-0.2,0.4-0.4,0.5c-0.4,0.3-0.7,0.8-1.2,1c-0.2,0.1-0.4,0.3-0.6,0.5
		c-0.2,0.2-0.3,0.3-0.5,0.5c-0.7,0.4-1.2,0.9-1.7,1.3c-0.4,0.3-0.8,0.6-1.2,0.8c-0.7,0.5-1.5,0.9-2.2,1.4c-0.8,0.5-1.6,1.1-2.4,1.6
		c-0.8,0.5-1.7,1-2.5,1.5c-0.8,0.4-1.6,0.8-2.4,1.3c-0.9,0.5-1.8,1.1-2.7,1.7c-0.7,0.4-1.5,0.8-2.2,1.2c-1,0.5-1.9,1-2.9,1.6
		c-0.7,0.4-1.3,0.8-2,1.2c-0.4,0.2-0.8,0.5-1.3,0.7c-0.1,0.1-0.2,0.1-0.3,0.2c-0.6,0.6-1.4,1-2.2,1.4c-0.6,0.3-1.1,0.7-1.7,1.1
		c-0.5,0.3-1.1,0.6-1.5,1.1c-0.1,0.1-0.2,0.3-0.3,0.4c-0.2,0.2-0.3,0.3-0.5,0.5c-0.1,0.1-0.3,0.2-0.4,0c-0.1-0.2-0.3-0.2-0.4-0.1
		c-0.2,0.1-0.3,0.4-0.6,0.2C160.6,145.1,160.5,145,160.5,144.5z"/>
	<path d="M67.8,155.3c-0.1-0.7-0.2-1.4-0.3-2.1c-0.2-1.3-0.3-2.7-0.3-4.1c0-0.9-0.1-1.7-0.1-2.6c0,0,0-0.1,0-0.1
		c-0.3-0.4-0.1-0.9-0.1-1.4c0-0.5-0.2-1-0.1-1.4c0.1-0.6-0.1-1.1,0-1.6c0.1-0.3-0.1-0.6-0.1-0.9c0-0.8,0-1.6,0-2.3
		c0-0.4-0.1-0.9-0.1-1.3c0-0.2,0-0.4,0-0.5c0.1-0.8-0.1-1.5-0.1-2.3c0-1.2-0.3-2.4-0.3-3.5c0-0.1,0-0.2,0-0.2
		c-0.4-0.2-0.2-0.7-0.5-1c0,0,0,0,0,0c-1-0.5-0.8-1.4-0.6-2.2c0-0.1,0.1-0.3,0.1-0.4c-0.1-0.4,0.2-0.5,0.5-0.6
		c0.4-0.1,0.7-0.2,1,0.1c0.2,0.2,0.4,0.3,0.6,0.5c0.1,0.1,0.2,0.2,0.2,0.3c0.2,1,0.7,2,0.9,3c0.2,0.6,0.2,1.3,0.3,2
		c0,0.2,0.1,0.4,0.1,0.6c0,0.1,0,0.2,0,0.2c0,0.8,0,1.5,0.1,2.3c0,0.3,0,0.6-0.2,0.8c-0.1,0.2-0.2,0.3,0,0.5
		c0.1,0.1,0.2,0.3,0.2,0.5c-0.1,0.8,0,1.5,0.1,2.3c0,0.9,0,1.9,0,2.8c0,0.1,0,0.2,0,0.2c0.1,1,0.1,1.9,0.2,2.9c0,0.5,0,1.1,0,1.6
		c0,0,0,0.1,0,0.1c-0.1,0.1-0.2,0.3-0.2,0.4c0,0.1,0.2,0.3,0.3,0.4c0.1,0.4,0.1,0.7,0.1,1.1c0.1,0.6,0.1,1.2,0.1,1.8
		c0,0.4,0.1,0.8,0.1,1.2c0.1,1.3,0.2,2.5,0.4,3.8c0.1,0.5,0.2,1.1,0.2,1.6c0.2,1.2,0.3,2.5,0.5,3.7c0.2,1.4,0.4,2.7,0.7,4.1
		c0,0.3,0.1,0.6,0.1,0.8c0,0.4,0.3,0.6,0.7,0.5c0.3-0.1,0.5-0.1,0.8,0c0.3,0.1,0.6,0.2,0.9,0c0.3-0.1,0.6,0,1,0.1
		c0.8,0.1,1.6,0.1,2.4-0.1c0.3-0.1,0.6-0.1,0.9,0.1c0.5,0.3,1.1,0.2,1.6,0c0.2-0.1,0.5-0.1,0.7-0.1c0.3,0,0.6,0.1,0.9-0.1
		c0.1-0.1,0.2,0,0.3,0c0.3,0.2,0.5,0.1,0.8-0.1c0.2-0.1,0.5-0.2,0.7-0.1c0.3,0.1,0.6,0,0.8,0c0.5-0.1,1-0.2,1.5,0.1
		c0.1,0,0.2,0,0.3,0c0.2,0,0.4-0.3,0.6-0.1c0,0,0.1,0,0.1-0.1c0.3-0.4,0.6-0.1,0.8,0c0.1,0,0.1,0.2,0.2,0c0.4-0.5,1-0.3,1.5-0.4
		c0.1,0,0.3,0,0.4,0c0.5-0.4,1.2-0.4,1.8-0.5c1.1-0.2,2.2-0.2,3.2-0.3c0.6-0.1,1.2-0.1,1.7,0c0.1,0,0.1,0,0.2,0
		c0.8-0.4,1.7-0.3,2.6-0.4c0.3,0,0.5-0.1,0.8-0.1c1-0.1,2-0.2,3-0.3c0.3,0,0.7-0.1,0.9,0c0.3,0.1,0.5,0,0.7-0.1
		c0.5-0.2,1.1-0.1,1.6-0.2c0.5,0,1-0.2,1.6-0.2c0.8-0.1,1.5-0.1,2.3-0.2c0.1,0,0.2,0,0.3,0c0.5-0.3,1.1-0.1,1.7-0.2
		c0.4-0.1,0.8-0.1,1.2-0.1c0.2,0,0.4-0.1,0.6-0.1c1,0,2-0.1,3-0.1c0.2,0,0.3,0,0.5-0.1c0.4-0.2,0.8-0.1,1.2,0.1
		c0.1,0,0.3,0.1,0.3,0.1c0.3-0.4,0.8-0.1,1.2-0.3c0,0,0.1,0,0.1,0c0.6,0.4,1.2,0,1.8,0c1.1-0.1,2.1-0.3,3.2-0.1c0,0,0.1,0,0.1,0
		c0.7-0.2,1.4-0.2,2-0.2c0.9-0.1,1.8-0.1,2.7-0.2c0.1,0,0.3,0,0.3,0.1c0.2,0.3,0.4,0.2,0.7,0c0.1-0.1,0.2-0.1,0.3-0.1
		c0.9,0.1,1.9-0.1,2.8-0.1c0.4,0,0.9-0.1,1.3-0.1c0.8,0,1.5-0.1,2.3-0.1c0.3,0,0.5-0.1,0.8-0.1c0.8,0,1.5-0.1,2.3-0.1
		c0.3,0,0.6-0.1,0.9-0.1c1.3-0.1,2.6-0.2,3.9-0.4c0.5-0.1,1-0.2,1.5-0.3c0.3,0,0.6-0.1,0.9,0c0.3,0,0.8,0.6,0.9,0.9
		c0.1,0.3-0.3,0.8-0.6,1c-0.1,0-0.2,0-0.2,0c-0.3-0.2-0.6-0.1-0.8,0.2c-0.1,0.1-0.2,0.1-0.2,0.1c-0.5-0.2-1.1-0.1-1.6-0.1
		c-1.1,0-2.1,0.3-3.2,0.3c-0.8,0-1.6,0.3-2.4,0.2c-0.4,0-0.9,0.1-1.3,0.1c-1.1,0-2.1,0.1-3.2,0.1c-1,0-1.9,0.1-2.9,0.2
		c-0.6,0-1.3,0-1.9,0c-0.1,0-0.2,0-0.4,0c-0.5,0.1-1,0.1-1.5,0.1c-0.9,0-1.8,0.1-2.7,0.2c-0.3,0-0.6,0-0.8,0c-0.5,0-1,0.1-1.4,0.1
		c-0.6,0-1.3,0-1.9,0c-0.6,0-1.1,0.1-1.7,0.1c-0.4,0-0.8,0.1-1.2,0.1c-0.9,0.1-1.8,0.2-2.7,0.2c-0.5,0-0.9,0-1.4,0.1
		c-0.6,0-1.2,0.1-1.8,0.1c-0.4,0-0.8,0.1-1.2,0.1c-0.4,0-0.8,0.1-1.2,0.1c-0.5,0-1,0-1.4,0.1c-0.4,0.1-0.8,0.1-1.2,0.2
		c-1.2,0.1-2.3,0.2-3.5,0.4c-0.9,0.1-1.8,0-2.7,0.3c-0.2,0.1-0.4,0-0.6,0c-0.1,0-0.3,0-0.4,0c-0.4,0.3-0.8,0.1-1.2,0.2
		c-0.1,0-0.3,0.1-0.4,0.2c-0.4,0.2-0.4,0.2-0.8,0c-0.1-0.1-0.2,0-0.3,0c-0.4,0.1-0.8,0.2-1.3,0.3c0,0,0,0-0.1,0
		c-0.8-0.3-1.6,0.2-2.4,0.2c-0.9,0-1.7,0.2-2.6,0.3c-0.3,0-0.6,0-0.9,0c-0.2,0-0.3,0-0.5,0.1c-0.6,0.1-1.1,0.3-1.7,0.3
		c-0.6,0-1.2,0.2-1.8,0.3c-0.1,0-0.2,0.1-0.2,0.1c-1,0.1-1.9,0.2-2.9,0.3c-1,0.1-1.9,0.3-2.9,0.4c-0.4,0.1-0.8,0.2-1.2,0.1
		c-0.2,0-0.4,0.1-0.6,0.1c-0.5,0-1.1,0-1.6,0.1c-0.8,0.1-1.6,0.2-2.3,0.4c-0.1,0-0.1,0.1-0.1,0.2c0,0,0,0,0,0.1
		c0,0.3,0.2,0.6-0.1,0.9c-0.4,0.2-0.8,0.6-1.4,0.3c-0.1-0.1-0.3-0.1-0.4-0.1c-0.9,0.1-1.7,0-2.4-0.4c-0.4-0.2-0.7-0.5-1-0.8
		c-0.1-0.1-0.2-0.3-0.3-0.4c-0.3-0.2-0.4-0.5-0.4-0.9c-0.1-0.9-0.2-1.9-0.4-2.8c-0.2-0.7-0.2-1.4-0.3-2.1c-0.1-0.4-0.1-0.8-0.2-1.3
		c-0.1-0.5-0.1-1-0.2-1.5c0-0.3-0.1-0.6-0.1-0.9c-0.1-1-0.1-2.1-0.4-3.1C67.8,156.1,67.8,155.7,67.8,155.3
		C67.8,155.3,67.8,155.3,67.8,155.3z"/>
	<path d="M71.5,124.6c1.1,0,2.2-0.1,3.3-0.1c0.1,0,0.1,0,0.2,0c0.4-0.3,0.8-0.1,1.2,0c0.1,0,0.2,0.1,0.3,0c0.5-0.2,1-0.1,1.5-0.1
		c0.5,0,1.1,0,1.6-0.1c0.2,0,0.4-0.2,0.7,0c0,0,0.1,0.1,0.2,0c0.7-0.3,1.4,0.2,2-0.2c0.1,0,0.2,0,0.2,0c0.3,0,0.6,0.2,0.9,0.1
		c0.3-0.1,0.6-0.1,0.9-0.1c0.5,0,1,0,1.5-0.1c0.9,0,1.7-0.1,2.6-0.1c0.5,0,1,0.1,1.4,0.1c0.3,0,0.6,0,0.9,0c0.5-0.1,1-0.1,1.5-0.2
		c0.2,0,0.4,0,0.5,0c0.5,0.2,0.9,0.1,1.4,0c0.4-0.1,0.8-0.2,1.2,0c0,0,0.1,0,0.2,0c1.3-0.1,2.5-0.2,3.8-0.3c0.4,0,0.8,0,1.2,0.1
		c0.6,0.1,1.1-0.1,1.6-0.2c0.3-0.1,0.5-0.1,0.7-0.1c0.6,0,1.1,0,1.7,0c0.4,0,0.9,0.1,1.3,0.1c0.5,0,1-0.1,1.4-0.1
		c0.1,0,0.2-0.1,0.3,0c0.7,0.1,1.3,0,2,0c0.7,0,1.5,0.1,2.2-0.1c0.1,0,0.2,0,0.3,0c0.8,0.1,1.6,0.1,2.5,0.1c0.7-0.1,1.3,0,2-0.1
		c0,0,0.1,0,0.1,0c0.5-0.3,1.1-0.1,1.6-0.1c1.1,0,2.1-0.1,3.2-0.2c0.7,0,1.4,0,2.1-0.1c0.4-0.1,0.9,0,1.3-0.2c0.1-0.1,0.4,0,0.5,0
		c0.3,0.3,0.7,0.2,1,0.2c0.6,0,1.1-0.1,1.7-0.1c0.4,0,0.7-0.1,1.1-0.2c0.1,0,0.2-0.1,0.3,0c0.4,0.2,0.8,0.1,1.2,0c0.4,0,0.7,0,1.1,0
		c0.1,0,0.3,0,0.4,0c0.8-0.2,1.7-0.3,2.6-0.5c1-0.2,2-0.3,3-0.5c0.2,0,0.3,0,0.5-0.1c0.6-0.3,1.2-0.2,1.9-0.2
		c0.8-0.1,1.7-0.1,2.5-0.1c0.5,0,1.1,0,1.6,0c1-0.1,2.1-0.2,3.1-0.3c0.4,0,0.8-0.1,1.2-0.1c0.8-0.1,1.5-0.1,2.3-0.2
		c0.3,0,0.6,0,0.9,0.3c0.1,0.1,0.1,0.1,0.2,0.2c0.5,0.3,0.6,0.8,0.4,1.3c-0.3,1.1-0.4,2.3-0.3,3.4c0.1,0.4,0,0.9-0.1,1.3
		c0,0.3-0.1,0.6-0.1,0.9c0,0.4-0.1,0.7,0,1.1c0,0.4-0.1,0.9-0.3,1.3c-0.1,0.2-0.1,0.4-0.1,0.7c0,0.5,0,0.9-0.1,1.4
		c0,0.2-0.1,0.3-0.1,0.5c-0.1,1.2-0.2,2.5-0.4,3.7c-0.1,0.8-0.3,1.6-0.4,2.4c0,0.2,0,0.4,0,0.6c-0.1,0.9-0.3,1.8-0.4,2.8
		c-0.1,0.5,0,1,0,1.5c-0.1,1.2-0.2,2.5-0.2,3.7c0,0.6,0,1.1,0.1,1.7c0.1,0.4-0.1,0.7-0.3,1c-0.1,0.1-0.2,0.2-0.3,0
		c-0.1-0.2-0.2-0.2-0.3-0.1c-0.2,0.1-0.5,0.1-0.7,0.2c-0.7,0.4-1.6,0.5-2.3,0.6c-0.4,0.1-0.5-0.1-0.4-0.5c0.1-0.3,0.2-0.5,0.5-0.6
		c0.4-0.2,0.7-0.4,1.1-0.7c0.1-0.1,0.2-0.3,0.2-0.5c0.1-0.2,0.1-0.5,0.1-0.8c0-0.9,0.1-1.9,0.1-2.8c0-0.1,0-0.2,0-0.2
		c0.1-0.6,0.1-1.1,0.2-1.7c0.2-0.6,0-1.3,0.1-1.9c0.2-1,0.3-2,0.4-3c0.1-0.7,0.2-1.4,0.3-2c0.1-0.6,0.2-1.2,0.3-1.9
		c0.1-0.5,0-1.1,0.2-1.6c0-0.1,0.1-0.3,0.1-0.4c0-0.2,0.2-0.3-0.1-0.4c0,0,0-0.1,0.1-0.1c0-0.2,0.1-0.3,0.1-0.5
		c-0.1-0.4,0.1-0.9,0.1-1.3c0.1-0.8,0.3-1.5,0.2-2.3c0-0.2,0-0.4,0-0.5c0-0.1,0.1-0.2,0.1-0.3c-0.2-0.5,0-1.1,0-1.6
		c0-0.1,0-0.3,0-0.4c0.2-0.6,0-1.3,0-1.9c0-0.1-0.1-0.3-0.3-0.2c-0.5,0.1-1,0.1-1.5,0.2c-1,0.1-2,0.1-3,0.4c-0.3,0.1-0.6,0-0.9,0
		c-0.5,0-0.9,0-1.4-0.1c-0.8-0.1-1.5,0-2.3,0c0,0-0.1,0-0.1,0c-0.7,0.3-1.3,0.1-2,0.1c-0.7,0.1-1.3,0.2-2,0.2
		c-1,0.1-1.9,0.2-2.9,0.2c-1.7,0.1-3.5,0.2-5.2,0.3c-0.7,0-1.3,0-2,0c-0.3,0-0.7,0.1-1,0.1c-0.2,0-0.4,0.1-0.5,0
		c-0.4-0.2-0.7-0.1-1.1,0c-0.3,0.1-0.5,0.1-0.8,0.1c-0.5,0-1.1,0-1.6,0c-0.7,0-1.3,0-2,0c-2.1,0-4.2,0-6.3,0.1c-0.9,0-1.8,0-2.8,0.1
		c-0.7,0-1.5,0-2.2,0.1c-0.3,0-0.6,0-0.9,0c-1,0-1.9,0-2.9,0.1c-0.1,0-0.2,0.1-0.3,0.1c-0.2,0.1-0.4,0.3-0.5-0.1c0,0-0.2,0-0.2,0
		c-0.5,0.1-1,0.1-1.5,0.2c-0.3,0-0.5,0-0.8-0.1c-0.8,0-1.7,0-2.5,0.1c-0.7,0-1.5,0-2.2,0.1c-0.6,0-1.2,0.1-1.8,0.1
		c-0.2,0-0.4,0-0.6,0c-0.3,0-0.6,0.3-0.9,0.2c-0.1,0-0.1,0.1-0.2,0.1c-0.7-0.1-0.9-0.1-1.4,0.1c-0.2,0.1-0.4,0.1-0.6,0
		c-0.4-0.1-0.7-0.2-1.1-0.1c-0.5,0.1-1,0-1.6,0.1c-0.5,0-1,0.1-1.5,0.1c-0.2,0-0.4-0.1-0.6-0.1c-0.5,0-1.1,0.1-1.6,0.1
		c-0.3,0-0.6,0-0.9,0.2c-0.1,0.1-0.3,0.1-0.4,0c-0.6-0.3-1.2-0.1-1.7,0c-0.1,0-0.3,0-0.4,0c-0.4,0-0.8-0.1-1.2,0.1c0,0,0,0-0.1,0
		c-0.6-0.1-1.3,0.2-1.9,0.2c-0.6,0-1.1-0.1-1.7,0c-0.6,0.1-1.3,0-1.9,0.1c-1,0-1.9,0.1-2.9,0.1c-0.3,0-0.6,0.1-0.9,0.1
		c-0.7,0.1-1.3,0.3-2,0.2c-0.6-0.1-1.2,0-1.8-0.2c-0.2,0-0.3-0.1-0.4,0c0,0-0.1,0.1-0.2,0.1c-0.4-0.1-0.7-0.2-1.1-0.4
		c-0.4-0.2-0.4-0.6-0.4-0.9c0.1-0.4,0-0.8,0.5-1c0.4-0.2,0.7-0.1,1.1,0.1c0.4,0.2,0.9,0.1,1.4,0.1c0.1,0,0.1-0.2,0.2-0.2
		c0.2-0.1,0.4-0.4,0.7-0.4c0.8,0,1.4-0.3,2.1-0.6c0.7-0.3,1.4-0.4,2.2-0.4c0.1,0,0.1,0,0.2,0.1c0.1,0,0.2,0.1,0.3,0.1
		c-0.1,0.1-0.1,0.2-0.2,0.3c-0.3,0.1-0.4,0.4-0.6,0.6c-0.2,0.2-0.5,0.3-0.7,0.5c-0.1,0-0.1,0.1-0.2,0.2c0.1,0,0.1,0.1,0.2,0.1
		C71,124.5,71.2,124.5,71.5,124.6C71.5,124.5,71.5,124.6,71.5,124.6z"/>
	<path d="M52.5,75c-0.1,0-0.2,0-0.3,0.1c-0.7,0.3-1.3,0.6-2,0.9c-0.2,0.1-0.4,0.1-0.6,0.2c-0.5,0.2-0.9,0.3-1.4,0.5
		c-0.4,0.2-0.9,0.4-1.3,0.6c-0.2,0.1-0.4,0.2-0.5,0.3c-1,0.4-2,0.8-3,1.3c-0.4,0.2-0.8,0.5-1.2,0.8c-0.1,0.1-0.2,0.2-0.2,0.2
		c-0.4,0-0.6,0.2-0.8,0.4c-0.5,0.4-1.1,0.7-1.6,1c-0.1,0.1-0.2,0.1-0.3,0.2c-0.5,0.4-0.9,0.8-1.5,1.1c0,0-0.1,0-0.1,0.1
		c-0.3,0.5-0.9,0.6-1.2,1c-0.1,0.1-0.2,0.2-0.4,0.3c-0.2,0.1-0.4,0.2-0.5,0.4c-0.1,0.2-0.3,0.3-0.5,0.5c-0.7,0.6-1.4,1.2-2,1.9
		c0,0-0.1,0.1-0.1,0.1c-0.5,0.3-0.8,0.7-1,1.1c0,0.1-0.1,0.2-0.2,0.2c-0.5,0-0.7,0.5-0.9,0.8c-0.5,0.6-1,1.2-1.5,1.8
		c-0.6,0.7-1.1,1.5-1.7,2.3c-0.4,0.5-0.8,1-1.2,1.5c-0.3,0.3-0.6,0.7-0.7,1c-0.3,0.7-0.8,1.2-1.2,1.8c-0.3,0.5-0.6,1-0.9,1.5
		c0,0.1-0.1,0.1-0.1,0.2c-0.6,0.7-1,1.6-1.4,2.4c-0.6,1.1-1.2,2.3-1.7,3.5c-0.2,0.5-0.5,1-0.7,1.5c-0.3,0.8-0.5,1.7-0.8,2.5
		c-0.1,0.2-0.2,0.4-0.2,0.6c-0.3,0.8-0.5,1.7-0.6,2.6c0,0.1,0,0.3-0.1,0.4c-0.3,0.3-0.2,0.7-0.3,1.1c0,0.4,0.1,0.8-0.2,1.1
		c-0.1,0.1,0,0.2,0,0.4c0,0.3,0,0.5,0,0.8c-0.2,0.8-0.1,1.6-0.1,2.4c0,0.6,0,1.3,0,1.9c0,0.5,0.1,1,0.2,1.5c0,0.3,0,0.6,0.2,0.8
		c0.1,0.1,0.1,0.2,0.1,0.3c-0.1,0.3,0,0.6,0.2,0.8c0,0,0.1,0.1,0.1,0.2c-0.1,0.9,0.4,1.6,0.6,2.4c0.3,0.8,0.6,1.6,0.9,2.3
		c0.4,0.8,0.9,1.5,1.3,2.3c0.5,0.8,1.1,1.5,1.8,2.2c0.6,0.7,1.1,1.4,2,1.9c0.2,0.1,0.4,0.4,0.6,0.5c0.6,0.5,1.1,1,1.7,1.4
		c0.4,0.3,0.8,0.6,1.2,0.8c1.3,0.8,2.7,1.6,4.1,2.4c1.2,0.7,2.5,1.3,3.7,1.8c0.7,0.3,1.4,0.7,2.2,1c0.4,0.2,0.8,0.3,1.2,0.4
		c0.4,0.2,0.9,0.4,1.3,0.6c0.5,0.2,1.1,0.3,1.6,0.4c0.6,0.1,1.2,0.3,1.7,0.4c0.1,0,0.2,0,0.2,0.1c0.3,0.4,0.8,0.4,1.2,0.7
		c0.1,0.1,0.3,0.1,0.4,0.1c0.9,0.1,1.8,0.4,2.6,0.8c0.2,0.1,0.5,0.1,0.7,0.1c1,0.3,1.9,0.5,2.9,0.8c0.3,0.1,0.7,0.2,1,0.3
		c0.5,0.2,0.7,0.6,0.6,1.2c0,0.2-0.1,0.3-0.2,0.5c-0.2,0.2-0.4,0.4-0.6,0.5c-0.5,0.4-1.2,0.3-1.6-0.2c-0.1-0.2-0.3-0.3-0.5-0.3
		c-1.5-0.5-3.1-1-4.6-1.6c-0.5-0.2-1.1-0.4-1.6-0.7c-0.6-0.2-1.2-0.4-1.8-0.7c-0.2-0.1-0.5-0.2-0.7-0.3c-0.2-0.1-0.4-0.3-0.7-0.2
		c-0.1,0-0.3-0.1-0.4-0.1c-1.1-0.4-2.2-0.8-3.3-1.3c-0.3-0.1-0.5-0.2-0.8-0.4c-0.6-0.4-1.2-0.7-1.8-0.9c-0.7-0.3-1.3-0.7-1.9-1
		c-0.2-0.1-0.5-0.2-0.8-0.3c-0.6-0.4-1.3-0.8-2-1.1c-1-0.5-2-1.2-3-1.8c-0.6-0.4-1.1-0.7-1.7-1.1c-0.6-0.4-1.1-0.9-1.7-1.3
		c-0.4-0.3-0.8-0.7-1.2-1c-0.4-0.4-0.8-0.8-1.2-1.1c-0.1-0.1-0.2-0.1-0.3-0.1c-0.1-0.1-0.3-0.1-0.4-0.1c0,0-0.1-0.1-0.1-0.2
		c0.1,0,0.1,0,0.2,0c0.1,0,0.1,0,0.2,0.1c0,0-0.1-0.1-0.1-0.1c0,0,0-0.1-0.1-0.1c-0.2-0.1-0.4-0.1-0.6-0.2c-0.1-0.1-0.1-0.4-0.2-0.6
		c-0.2-0.3-0.5-0.5-0.7-0.7c-0.1-0.1-0.2-0.1-0.2-0.2c0-0.4-0.3-0.6-0.6-0.9c0,0,0-0.2,0-0.2c0.3-0.1,0.2-0.2,0.1-0.4
		c-0.6-0.9-1.1-1.7-1.7-2.6c-0.1-0.2-0.3-0.4-0.1-0.7c0.1-0.1,0-0.3,0-0.4c-0.2-0.6-0.4-1.3-0.6-1.9c0-0.1,0-0.1-0.1-0.1
		c-0.5-0.2-0.3-0.7-0.5-1.1c0-0.1,0-0.2,0-0.3c0,0,0.1-0.1,0.1-0.1c-0.1-0.3-0.4-0.5-0.1-0.8c-0.1-0.3-0.1-0.6-0.2-0.8
		c-0.3-0.5-0.3-1.1-0.2-1.6c0.1-0.5,0.1-1,0-1.5c-0.1-0.9,0-1.7,0-2.6c0-0.1,0-0.3,0-0.4c0-0.1,0-0.2,0-0.3c0-0.1,0.1-0.2,0.1-0.3
		c0-0.1,0-0.3,0-0.4c0-0.1,0-0.3,0.1-0.1c0-0.1,0-0.2,0.1-0.4c0.1-0.4,0.1-0.8,0.2-1.2c0.1-0.7,0.3-1.3,0.4-2
		c0.1-0.4,0.2-0.8,0.3-1.2c0-0.1,0.1-0.2,0.2-0.3c0.1-0.1,0.1-0.2,0.1-0.3c-0.1-0.4,0-0.6,0.2-0.9c0.1-0.2,0.2-0.5,0.3-0.8
		c0.2-0.8,0.5-1.6,0.9-2.4c0-0.1,0.1-0.1,0.1-0.2c0.1-0.8,0.7-1.2,1-1.9c0.3,0,0.2-0.3,0.3-0.4c0.1-0.5,0.4-0.9,0.7-1.3
		c0.3-0.3,0.6-0.7,0.6-1.2c0-0.2,0.1-0.4,0.2-0.6c0.3-0.5,0.8-0.9,0.9-1.5c0-0.1,0.1-0.2,0.2-0.3c0.4-0.6,0.8-1.2,1.3-1.7
		c0.4-0.5,0.6-1.1,1.1-1.5c0.1-0.1,0.1-0.2,0.1-0.3c0.2-0.5,0.5-0.9,0.9-1.3c0.3-0.3,0.5-0.7,0.9-0.9c0.1,0,0.1-0.1,0.1-0.2
		c-0.1-0.4,0.3-0.5,0.5-0.7c0.3-0.3,0.6-0.5,0.6-0.9c0-0.1,0.1-0.2,0.1-0.2c0.6-0.3,0.8-1,1.4-1.3c0.1,0,0.1-0.1,0.2-0.2
		c0.2-0.5,0.6-0.7,1-1c0.3-0.3,0.5-0.5,0.7-0.9c0.2-0.3,0.5-0.5,0.8-0.7c0.4-0.3,0.8-0.7,1.1-1.2c0.2-0.3,0.5-0.4,0.8-0.6
		c0.2-0.1,0.4-0.3,0.6-0.5c0.4-0.5,0.9-1,1.6-1.2c0.1,0,0.2-0.1,0.3-0.2c0.9-0.6,1.7-1.2,2.5-1.9c0.5-0.4,1.1-0.7,1.7-1
		c0.8-0.4,1.5-0.8,2.2-1.3c0.4-0.3,0.9-0.7,1.5-0.8c0.6-0.1,1-0.5,1.5-0.8c0.3-0.2,0.6-0.3,0.9-0.4c0.3-0.1,0.6-0.2,0.8-0.3
		c0.5-0.3,0.9-0.4,1.4-0.6c0.9-0.3,1.8-0.8,2.7-1.1c0.2-0.1,0.4-0.1,0.6-0.2c0.5-0.2,0.9-0.3,1.4-0.5c0.6-0.3,1.2-0.8,1.9-0.9
		c0.1,0,0.3-0.2,0.4-0.2c0.7-0.4,1.3-0.2,1.8,0.4c0,0,0,0.1,0.1,0.1c0.4,0.5,0.4,0.8-0.1,1.3c-0.3,0.3-0.7,0.5-1.2,0.5
		c-0.5,0-1,0.2-1.4,0.3c-0.7,0.2-1.4,0.4-2.2,0.6C52.7,75,52.6,75,52.5,75C52.5,75,52.5,75,52.5,75z"/>
	<path d="M48,139.3c0.1,0,0.3,0.1,0.4,0.2c0.7,0.4,1.4,0.7,2.1,1.1c0.7,0.4,1.5,0.7,2.2,1.1c1,0.5,2,1,3,1.4c1.4,0.6,2.8,1.3,4,2.2
		c0.4,0.3,0.8,0.4,1.1,0.8c0.1,0.2,0.3,0.4,0.3,0.5c0,0.3-0.2,0.6-0.4,0.8c-0.4,0.3-0.8,0.7-1.2,1.1c-0.6,0.5-1.3,1-2,1.4
		c-0.3,0.1-0.5,0.3-0.8,0.5c-0.4,0.2-0.9,0.5-1.3,0.7c-0.7,0.4-1.3,0.7-2,1.1c-0.3,0.2-0.7,0.3-1,0.4c-1,0.5-2,1.1-3,1.6
		c-0.2,0.1-0.5,0.1-0.6,0.3c-0.3,0.3-0.8,0.4-1.1,0.6c-0.4,0.2-0.8,0.4-1.2,0.5c-0.4,0.2-0.8,0.4-1.3,0.5c-0.4,0.2-0.8,0.3-1.2,0.5
		c-0.6,0.3-1.2,0.6-1.8,1c-0.1,0.1-0.2,0.2-0.3,0.2c-0.1,0.1-0.2,0.3-0.3,0.3c-0.1,0.1-0.2,0.2-0.4,0.2c-0.4,0-0.9-0.1-1.3-0.2
		c-0.3-0.1-0.5-0.9-0.4-1.2c0.1-0.2,0.4-0.5,0.6-0.6c0.7-0.4,1.5-0.7,2.2-1c0.8-0.3,1.6-0.5,2.4-0.8c0.2-0.1,0.3-0.2,0.5-0.3
		c0.4-0.2,0.7-0.4,1.1-0.6c0.1,0,0.2-0.1,0.3-0.1c0.3-0.2,0.7-0.3,1-0.6c0.2-0.2,0.6-0.4,0.9-0.5c0.8-0.3,1.7-0.7,2.5-1.1
		c0.4-0.2,0.7-0.3,1-0.7c0,0,0.1-0.1,0.2-0.1c0.9-0.2,1.5-0.9,2.3-1.3c0.5-0.3,1-0.5,1.5-0.8c0.5-0.3,1.1-0.5,1.4-1.1c0,0,0,0,0,0
		c0.2-0.2,0.6-0.3,0.5-0.6c-0.1-0.2-0.4-0.4-0.6-0.5c-1.3-1.1-2.8-1.8-4.5-2.3c-0.7-0.2-1.3-0.6-2-0.9c-0.1,0-0.1-0.1-0.2-0.1
		c-0.5-0.1-0.9-0.4-1.3-0.6c-0.6-0.4-1.3-0.6-1.9-1c-0.3-0.2-0.6-0.9-0.5-1.2C46.9,139.6,47.4,139.3,48,139.3z"/>
	<path d="M152.3,90.3c0.3,0.1,0.6,0,0.8-0.4c0.1-0.1,0.3-0.3,0.5-0.3c0.2-0.1,0.5-0.1,0.6,0.1c0.2,0.2,0.3,0.4,0.1,0.6
		c-0.1,0.1-0.2,0.3-0.2,0.4c0,0.4-0.2,0.7-0.5,0.9c-0.2,0.1-0.3,0.3-0.5,0.5c-0.4,0.6-0.8,0.7-1.4,0.3c-0.3-0.3-0.6-0.6-0.8-0.9
		c-0.3-0.7,0-1.1,0.7-1.2C152,90.3,152.1,90.3,152.3,90.3z"/>
	<path d="M150.6,157c0.7,0,1.4,0.8,1.2,1.5c0,0.2-0.2,0.5-0.4,0.6c-0.4,0.2-0.9,0.4-1.3,0.5c-0.5,0.1-0.8-0.3-0.7-0.8
		c0.1-0.3,0.2-0.6,0.2-0.9C149.7,157.4,150.2,157,150.6,157z"/>
</g>
</svg>
