<?xml version="1.0" encoding="utf-8"?>
<!-- Generator: Adobe Illustrator 24.0.2, SVG Export Plug-In . SVG Version: 6.00 Build 0)  -->
<svg version="1.1" id="Layer_1" xmlns="http://www.w3.org/2000/svg" xmlns:xlink="http://www.w3.org/1999/xlink" x="0px" y="0px"
	 viewBox="0 0 218.9 216.7" style="enable-background:new 0 0 218.9 216.7;" xml:space="preserve">
<g>
	<path d="M138.1,130c-1.1,0-2.3,0.1-3.4,0.1c-0.2,0-0.4,0.1-0.6,0.1c-0.8,0.2-1.6,0.2-2.4,0.4c-0.8,0.2-1.7,0.2-2.6,0.2
		c-1,0.1-1.9,0.1-2.9,0.2c-0.2,0-0.2,0.1-0.2,0.3c0,0.4,0,0.8,0,1.2c0,0,0,0.1,0,0.1c-0.3,0.3-0.2,0.7-0.1,1.1c0,0.3,0,0.5,0,0.8
		c-0.1,0.5-0.1,1-0.2,1.5c0,0.4,0,0.8-0.1,1.2c0,0.5-0.1,1-0.2,1.5c-0.1,0.7-0.1,1.4-0.1,2.1c0,0.2,0,0.5,0.1,0.7c0,0.2,0,0.5,0,0.7
		c0,0.8,0,1.5-0.1,2.3c0,0.2,0,0.3-0.1,0.5c-0.1,0.6,0,1.1,0.2,1.7c0,0.1,0.1,0.1,0.2,0.2c0.3,0.2,0.3,0.4,0,0.7
		c-0.1,0.1-0.1,0.2-0.2,0.3c-0.1,0.3-0.2,0.6-0.3,0.8c0,0.1,0,0.2,0,0.3c0.2,0.8-0.2,1.3-0.9,1.5c-0.3,0.1-0.6,0-0.8-0.2
		c-0.8-0.7-0.8-0.8-0.4-1.9c0.2-0.6,0.3-1.2,0.3-1.8c0.1-1.2,0.1-2.5,0.2-3.7c0.1-1.1,0.1-2.1,0.2-3.2c0.1-0.8,0-1.7,0.1-2.5
		c0.2-1,0-2,0.2-3c0.1-0.4-0.1-0.8-0.1-1.2c0-0.3-0.1-0.6-0.1-0.9c0-0.4,0.1-0.8,0.5-1.1c0.2-0.1,0.2-0.3,0-0.4
		c-0.4-0.2-0.5-0.6-0.3-1c0.2-0.5,0.5-0.7,1-0.7c0.7-0.1,1.4-0.2,2.1-0.2c0.2,0,0.4-0.2,0.7-0.1c0.4,0.1,0.7,0.2,1,0.3
		c0.4,0.1,0.9,0.1,1.4,0.1c0.5,0,1.1-0.1,1.6,0c0.2,0,0.4,0.1,0.6,0c0.7-0.1,1.4-0.2,2.1-0.2c0,0,0,0,0.1,0c0.7-0.3,1.4-0.2,2.1-0.2
		c0.8-0.1,1.6-0.2,2.4-0.3c0.6-0.1,1.2,0,1.8-0.2c0.3-0.1,0.6-0.2,0.9-0.3c0.2-0.1,0.4-0.2,0.3-0.6c-0.1-0.6,0.2-1,0.7-1.3
		c0,0,0,0,0.1,0c0.7-0.2,0.9-0.7,1-1.4c0.1-0.7,0.2-1.3,0.2-2c0.1-0.5,0.1-1.1,0.1-1.6c0-0.5-0.1-1-0.1-1.4
		c-0.1-0.8-0.1-1.5-0.2-2.3c-0.1-0.7-0.2-1.3-0.3-2c-0.1-0.8-0.3-1.6-0.4-2.4c-0.1-0.5-0.2-1-0.4-1.6c-0.2-0.5-0.2-1-0.2-1.5
		c0-0.3-0.1-0.5-0.1-0.8c0-0.4,0-0.8-0.1-1.2c0-0.2,0-0.4,0-0.6c-0.1-0.6,0-1.1,0.6-1.3c0.9-0.5,1.6-1.1,2.4-1.8
		c0.7-0.6,1.5-1.3,2.2-1.9c0.3-0.3,0.5-0.7,0.8-1c0-0.1,0.1-0.1,0.2-0.2c0.8-0.4,1.4-1.1,2-1.7c0.3-0.3,0.6-0.6,0.9-0.9
		c0.1-0.1,0.2-0.2,0.1-0.5c-0.3-1-0.9-1.9-1.3-2.8c-0.2-0.5-0.4-1.1-0.7-1.6c-0.5-1-1-2.1-1.5-3.1c-0.2-0.3-0.3-0.6-0.5-1
		c-0.3-0.7-0.7-1.3-1-2c-0.2-0.4-0.4-0.9-0.7-1.2c-0.1-0.1-0.1-0.2-0.2-0.3c-0.2-0.4-0.4-0.8-0.6-1.2c-0.1-0.3-0.3-0.7-0.2-1.1
		c0.1-0.9,0-1.7-0.1-2.6c-0.1-0.6-0.3-1.2-0.2-1.9c0-0.1,0-0.2,0-0.2c-0.4-0.4-0.3-0.9-0.3-1.3c0-0.3,0-0.5-0.2-0.7
		c-0.1-0.2-0.2-0.5-0.3-0.8c-0.3-0.8-0.6-1.6-0.9-2.5c-0.5-1.3-1-2.5-1.4-3.7c-0.3-0.7-0.5-1.5-0.8-2.2c-0.4-1-0.8-2-1.4-2.9
		c-0.1-0.1-0.2-0.3-0.2-0.5c-0.1-0.5-0.4-1-0.7-1.3c-0.1-0.1-0.1-0.4-0.2-0.6c-0.1-0.1-0.2-0.3-0.3-0.3c-0.5,0.1-0.9-0.3-1.2-0.5
		c-0.4-0.3-0.8-0.6-1.1-0.8c-0.6-0.4-1-1.1-1.4-1.6c-0.4-0.5-0.9-1-1.4-1.4c-0.3-0.3-0.6-0.5-0.9-0.8c-0.6-0.6-1.1-1.1-1.7-1.6
		c-0.3-0.2-0.5-0.6-0.7-0.8c-0.1-0.1-0.2-0.2-0.3-0.3c-0.3-0.1-0.6-0.4-0.8-0.7c-0.2-0.2-0.4-0.4-0.7-0.6c-0.5-0.4-1-0.8-1.5-1.3
		c-1.1-0.9-2.1-1.9-3.3-2.6c-0.1,0-0.1-0.1-0.2-0.2c-1.2-1-2.5-1.8-3.9-2.5c-0.6-0.3-1.1-0.7-1.8-1c-0.4-0.2-0.9-0.3-1.4-0.4
		c-0.9-0.3-1.9-0.5-2.8-0.8c-1.4-0.3-2.7-0.7-4.1-1c-0.6-0.1-1.3-0.1-1.9-0.2c-0.2,0-0.3-0.1-0.5-0.1c-0.3-0.1-0.5-0.2-0.8-0.2
		c-1.2-0.1-2.4-0.3-3.7-0.2c-1,0.1-1.9,0.1-2.8,0.4c-0.7,0.2-1.4,0.3-2.1,0.4c-0.6,0-1.1,0.2-1.7,0.4c-1,0.2-2,0.5-3,0.8
		c-0.1,0-0.1,0-0.2,0c-0.7-0.1-1.4,0.2-2.1,0.4c-0.8,0.2-1.7,0.4-2.5,0.5c-0.4,0.1-0.9,0.2-1.3,0.3c-1,0.3-2.1,0.7-3.2,0.9
		c-0.9,0.1-1.7,0.7-2.6,0.9c-0.1,0-0.2,0.1-0.3,0.1c-0.5,0-1,0.3-1.4,0.5c-0.2,0.1-0.5,0.2-0.8,0.3c-0.4,0.1-0.6-0.1-0.7-0.4
		c-0.2-0.6-0.1-1,0.4-1.3c0.8-0.4,1.5-1.1,2.5-1c0.2,0,0.4-0.2,0.5-0.3c0.6-0.5,1.2-0.7,2-0.6c0.1,0,0.2,0,0.3,0
		c0.6-0.3,1.2-0.4,1.8-0.6c0.2-0.1,0.3-0.1,0.5-0.1c0.2,0,0.3,0,0.5-0.1c0.5-0.3,1.1-0.4,1.7-0.5c0.1,0,0.3-0.1,0.4-0.1
		c0.3-0.1,0.5-0.2,0.9-0.1c0.1,0,0.3,0,0.4,0c0.6-0.2,1.2-0.3,1.7-0.6c0.6-0.3,1.3-0.4,2-0.5c0.5-0.1,1-0.2,1.5-0.4
		c0.6-0.2,1.2-0.4,1.9-0.4c0.6,0,1.2-0.2,1.7-0.3c0.1,0,0.3-0.1,0.4-0.1c0.4,0.1,0.7,0,1-0.1c0.3-0.1,0.6-0.2,1-0.1
		c0.1,0,0.2,0,0.3-0.1c0.3-0.1,0.5-0.3,0.8-0.1c0.1,0,0.2,0,0.3,0c0.2,0,0.4,0,0.6-0.1c0.7-0.1,1.3,0.1,2,0c0.4,0,0.9,0,1.3,0.1
		c1.3,0.2,2.6,0.4,3.9,0.7c0.9,0.2,1.8,0.3,2.6,0.5c0.1,0,0.1,0,0.2,0.1c0.8,0.4,1.6,0.4,2.4,0.6c0.1,0,0.2,0,0.3,0.1
		c0.8,0.3,1.7,0.5,2.5,0.6c0.2,0,0.4,0.2,0.6,0.3c0.1,0.1,0.2,0.1,0.3,0.2c0.5,0.2,0.9,0.5,1.4,0.7c0.6,0.4,1.3,0.8,1.9,1.2
		c0.4,0.3,0.9,0.5,1.3,0.8c0.3,0.2,0.7,0.4,1,0.6c1.1,0.7,2.1,1.4,3.1,2.3c0.9,0.8,1.9,1.5,2.9,2.3c0.7,0.6,1.4,1.2,2,1.9
		c0.3,0.4,0.7,0.6,1,1c0.3,0.3,0.5,0.5,0.8,0.8c0.2,0.2,0.4,0.3,0.5,0.5c0.6,0.6,1.2,1.1,1.7,1.7c0.4,0.5,0.9,1,1.3,1.5
		c0.1,0.1,0.2,0.2,0.2,0.3c0.2,0.5,0.5,1.1,1,1.5c0,0,0.1,0.1,0.1,0.2c0.1,0.6,0.5,0.7,1,0.7c0.3,0,0.5,0,0.7,0.2
		c0.1,0.1,0.2,0.1,0.4,0.1c0.5,0.1,0.8,0.4,0.6,0.8c-0.3,0.6,0.1,0.9,0.2,1.4c0.1,0.3,0.2,0.5,0.3,0.7c0.1,0.3,0.3,0.5,0.4,0.8
		c0.1,0.2,0.2,0.4,0.2,0.6c0.1,0.9,0.6,1.6,0.9,2.4c0.3,0.8,0.6,1.5,0.8,2.3c0,0.1,0.1,0.2,0.1,0.3c0.4,0.6,0.5,1.3,0.7,2
		c0.1,0.2,0.1,0.4,0.2,0.6c0.5,0.6,0.7,1.3,0.7,2c0,0,0,0.1,0,0.1c0.5,1.1,0.6,2.3,0.8,3.5c0.1,0.5,0.2,1,0.3,1.4c0,0.2,0,0.4,0,0.5
		c0,0.1-0.1,0.2,0,0.3c0.2,0.8,0.2,1.6,0.6,2.3c0.1,0.2,0.3,0.5,0.4,0.7c0.7,1.1,1.1,2.2,1.6,3.4c0.1,0.1,0.2,0.3,0.2,0.4
		c0.7,1.1,1.1,2.4,1.7,3.6c0.2,0.5,0.5,1,0.8,1.5c0.1,0.2,0.2,0.4,0.3,0.7c0.2,0.5,0.4,1,0.7,1.4c0.2,0.2,0.3,0.5,0.4,0.7
		c0.1,0.3,0.3,0.6,0.4,0.9c0.1,0.4,0.4,0.7,0.7,1c0.6,0.6,0.3,1.5-0.1,1.9c-0.3,0.3-0.7,0.2-1,0.2c-0.4-0.1-0.6,0-0.8,0.3
		c-0.7,0.6-1.5,1.3-2.2,1.9c-0.4,0.4-0.7,0.8-1.2,1.2c-0.7,0.6-1.2,1.4-2,1.9c-0.7,0.5-1.4,1.2-2.1,1.8c-0.1,0.1-0.2,0.3-0.2,0.4
		c0.1,0.4-0.1,0.9-0.1,1.3c-0.2,0.7,0.1,1.4,0.2,2.1c0.1,0.6,0.4,1.1,0.4,1.7c0,0.2,0.1,0.4,0.2,0.6c0,0.1,0.1,0.2,0.1,0.3
		c-0.1,0.6,0.2,1.1,0.3,1.6c0.1,0.9,0.4,1.9,0.4,2.8c0,0.2,0,0.5,0.1,0.7c0.1,0.2-0.2,0.5,0.1,0.6c0,0,0,0,0,0.1
		c-0.3,0.7,0.1,1.5,0,2.2c0,0.3-0.1,0.5-0.1,0.8c0,0.6,0,1.1,0,1.7c0,0.5-0.1,0.9-0.2,1.4c-0.1,0.4-0.3,0.9-0.4,1.3
		c-0.1,0.3-0.2,0.5-0.4,0.6c-0.3,0.1-0.3,0.3-0.2,0.6c0.2,0.5-0.3,1.1-0.8,1.2c-1.3,0.2-2.5,0.4-3.8,0.6
		C139.5,129.9,138.8,130,138.1,130C138.1,130.1,138.1,130.1,138.1,130z"/>
	<path d="M55.1,173.9c-0.4,0-0.7,0-1.1,0.1c-0.5,0-0.9-0.3-0.9-0.7c0-0.3-0.1-0.4-0.3-0.3c-0.6,0.1-1.2-0.1-1.7-0.5
		c-0.1-0.1-0.3-0.2-0.3-0.4c-0.1-0.2-0.2-0.4,0-0.6c0.2-0.2,0.4-0.1,0.7,0c0.2,0.1,0.3,0.2,0.5,0.2c0.4,0.2,0.9,0,1.3,0
		c0.5-0.1,0.8-0.5,0.8-1c0.1-0.8-0.1-1.6-0.3-2.4c-0.1-0.2-0.1-0.4-0.1-0.6c-0.1-0.5-0.2-1-0.4-1.6c0-0.1-0.1-0.2-0.2-0.2
		c-0.5,0.1-1,0.1-1.4,0.4c-0.9,0.4-1,0.6-1.3,1.6c-0.2,0.7-0.5,1.3-0.6,2c-0.2,0.9-0.6,1.7-0.8,2.5c-0.1,0.2-0.1,0.3-0.3,0.3
		c-0.4,0-0.9,0.2-1.3,0.1c-0.3,0-0.4-0.1-0.5-0.4c-0.2-0.7-0.4-1.4-0.5-2.1c0-0.2,0-0.4,0-0.6c0.1-0.5,0.3-0.9,0.4-1.3
		c0-0.1,0-0.3,0.1-0.5c0-0.5,0.2-1,0.4-1.4c0.2-0.3,0.3-0.6,0.4-0.9c0.1-0.2,0.2-0.3,0.3-0.5c0.1-0.2,0.2-0.5,0.3-0.7
		c0.1-0.1,0.1-0.3,0.2-0.3c0.3-0.2,0.4-0.5,0.4-0.8c0-0.1-0.1-0.2,0.1-0.3c0,0,0-0.2,0-0.2c-0.3-0.1-0.3-0.4-0.4-0.6
		c-0.4-0.4-0.8-0.7-1.4-0.6c-0.5,0.1-1,0.2-1.5,0.3c-0.4,0.1-0.4,0.2-0.1,0.5c0.4,0.4,0.8,0.9,1.2,1.3c0.1,0.1,0.1,0.2,0.1,0.3
		c0,0.2,0,0.4,0.1,0.5c0.2,0.4,0.1,0.7,0,1c-0.1,0.3-0.4,0.4-0.7,0.6c-0.5,0.2-0.9,0.4-1.4,0.7c-0.1,0-0.1,0.1-0.2,0.1
		c-0.8,0-1.5,0.5-2.3,0.6c-0.4,0.1-0.9,0.2-1.3,0.2c-0.1,0-0.2,0.1-0.3,0.1c-0.2,0.1-0.4,0.2-0.6,0.3c0.2,0.1,0.4,0.1,0.6,0.2
		c0.2,0,0.3,0.1,0.4,0.2c0.3,0.1,0.5,0.2,0.8,0.3c1,0.4,1.3,1.3,0.8,2c-0.2,0.3-0.6,0.6-0.9,0.8c-1.1,0.7-2.3,1.1-3.5,1.3
		c-0.9,0.1-1.9,0.3-2.8,0.4c-0.2,0-0.5,0.1-0.7,0.1c-0.1,0-0.1,0-0.1,0.1c-0.1,0.1-0.1,0.2-0.2,0.2c-0.1-0.1-0.1-0.2-0.2-0.2
		c-0.1-0.1-0.2-0.1-0.3-0.1c-0.5,0-1-0.1-1.5-0.1c-0.3,0-0.5-0.1-0.8-0.2c-0.6-0.1-0.9-0.5-1.1-1.1c-0.1-0.5-0.1-1.1,0.2-1.6
		c0.1-0.1,0.1-0.3,0.2-0.5c0.1-0.2,0.2-0.3,0.3-0.5c0.5-0.5,1-1,1.5-1.5c0,0,0.1-0.1,0.1-0.2c0-0.1-0.1-0.2-0.1-0.2
		c-0.8,0.1-1.5,0.1-2.2,0.5c-0.1,0.1-0.2,0.2-0.3,0.3c-0.3,0.5-0.6,1-0.9,1.5c-0.2,0.3-0.3,0.6-0.4,1c-0.4,0.9-0.7,1.9-1.1,2.8
		c-0.3,0.8-0.8,1.1-1.6,0.9c-0.1,0-0.2-0.2-0.3-0.3c-0.1-0.5-0.2-1,0.1-1.5c0.2-0.5,0.3-1,0.5-1.5c0.2-0.6,0.4-1.1,0.7-1.6
		c0.1-0.1,0.1-0.3,0.2-0.4c0.2-0.2,0-0.2-0.1-0.2c0.1-0.1,0.2-0.1,0.2-0.2c0,0,0-0.1,0.1-0.1c0,0-0.1,0-0.1,0
		c-0.3,0.1-0.6,0.2-0.8,0.3c-0.1,0-0.2,0.1-0.2,0.2c-0.1,0.5-0.3,1-0.4,1.5c-0.2,0.8-0.5,1.6-0.8,2.4c-0.2,0.5-0.6,0.7-1.1,0.9
		c-0.5,0.2-0.8-0.1-0.8-0.6c0-0.4,0-0.7,0.1-1.1c0.2-0.6,0.3-1.2,0.5-1.8c0.1-0.4,0.1-0.5-0.4-0.7c-0.9-0.4-0.6-1-0.1-1.4
		c0.2-0.1,0.4-0.2,0.6-0.3c0.5-0.3,0.7-0.7,0.8-1.3c0.1-0.6,0.3-1.1,0.5-1.7c0.1-0.3,0.2-0.6,0.2-0.9c0.2-1,0.6-2,0.8-3
		c0.1-0.4,0.2-0.8,0.3-1.2c0.1-0.3,0.1-0.5,0.5-0.5c0.2,0,0.4-0.2,0.5-0.2c0.3-0.1,0.5-0.1,0.6,0.2c0.2,0.4,0.2,0.7,0.1,1.1
		c-0.2,0.9-0.5,1.8-0.7,2.7c-0.1,0.4-0.2,0.9-0.3,1.3c-0.2,0.6-0.4,1.3-0.6,1.9c-0.1,0.4-0.1,0.4,0.3,0.4c0.4-0.1,0.9-0.2,1.3-0.3
		c0.6-0.1,0.9-0.6,1.2-1.1c0.2-0.3,0.2-0.8,0.6-0.9c0,0,0.1-0.1,0.1-0.1c0.2-0.4,0.5-0.7,0.7-1.1c0.1-0.2,0.3-0.4,0.4-0.5
		c0.7-0.6,1.3-1.3,1.5-2.3c0.1-0.4,0.9-0.9,1.3-0.7c0.1,0,0.3,0.2,0.4,0.3c0.1,0.2,0.3,0.4,0.3,0.6c0,0.1,0,0.2,0,0.3
		c-0.4,0.8-0.8,1.6-1.5,2.2c-0.6,0.6-1,1.3-1.6,2c0,0-0.1,0.1-0.1,0.1c-0.2,0.3-0.1,0.5,0.3,0.5c0.4,0,0.8-0.1,1.1-0.1
		c0.3,0,0.7-0.2,0.9-0.1c0.3,0.1,0.5,0,0.8-0.1c0.6-0.2,1.2-0.5,1.6-1.1c0-0.1,0.1-0.1,0.1-0.1c0.6-0.2,0.6-0.8,0.9-1.2
		c0.2-0.3,0.2-0.7,0.4-1.1c0.3-0.7,1-0.8,1.4-0.2c0.2,0.3,0.3,0.7,0.2,1.1c-0.2,0.4-0.3,0.8-0.6,1.1c-0.4,0.6-0.9,1.1-1.4,1.6
		c-0.2,0.2-0.4,0.5-0.6,0.7c0.3-0.1,0.6-0.1,0.9-0.2c0.5-0.1,1-0.2,1.5-0.3c0.8-0.1,1.6-0.3,2.4-0.4c0.1,0,0.2,0,0.3,0
		c0.3,0.1,0.5,0,0.7-0.1c0.2-0.1,0.4-0.3,0.7-0.2c0.1,0,0.2,0,0.3-0.1c0.3-0.1,0.7-0.3,1-0.4c0.3-0.1,0.5-0.5,0.2-0.6
		c-0.5-0.2-0.4-0.8-0.8-1.1c-0.4-0.3-0.5-0.7-0.7-1.1c-0.1-0.2-0.1-0.4-0.1-0.6c0.1-0.3,0.2-0.7,0.4-1c0.3-0.6,1-0.7,1.5-0.8
		c0.3-0.1,0.6-0.1,0.9-0.1c0.2,0,0.5,0,0.7,0c0.1,0,0.1,0.1,0.2,0c0.5-0.3,1,0,1.5,0c0.2,0,0.5,0.2,0.7,0.3c0.2,0.1,0.3,0.3,0.5,0.5
		c0.3,0.3,0.5,0.3,0.9,0c0.4-0.3,0.8-0.4,1.2-0.3c0.3,0.1,0.7-0.2,1,0.1c0.3,0.2,0.5,0.5,0.7,0.7c0.4,0.4,0.8,0.8,1.1,1.3
		c0.2,0.2,0.3,0.3,0.6,0.2c0.5-0.1,1-0.2,1.5-0.3c0.3-0.1,0.6-0.2,0.6-0.6c0.1-0.8,0.7-1.2,1.4-1.4c0.8-0.3,1.6-0.6,2.4-0.6
		c0.6,0,1.2,0.1,1.8-0.2c0.4,0.2,0.8-0.1,1.2,0c0.5,0.1,1-0.1,1.5,0c0.6,0,1.1,0.1,1.6,0.2c0.2,0,0.4,0.4,0.6,0.3
		c0.3,0,0.5,0,0.7,0.1c0.7,0.4,1.4,0.8,1.9,1.5c0.4,0.7,0.7,1.4,0.9,2.1c0,0.2,0,0.5,0,0.7c0,0.1-0.1,0.2-0.1,0.3
		c0.1,0.9-0.6,1.5-0.8,2.2c-0.9,1-1.8,1.9-3,2.4c-1,0.4-1.9,1-2.8,1.4c-0.6,0.2-1.1,0.7-1.8,0.7c-0.1,0-0.3,0.1-0.4,0.2
		c-0.2,0.1-0.4,0.2-0.7,0.3c-1.5,0.4-3,0.8-4.5,1.2c-0.5,0.1-0.9,0.3-1.4,0.4C55.6,173.9,55.4,173.9,55.1,173.9
		C55.1,174,55.1,173.9,55.1,173.9z M60.2,169.7C60.2,169.7,60.2,169.7,60.2,169.7c-0.1,0.1,0,0.2,0,0.2c0,0.5-0.1,0.7-0.7,0.9
		c-0.2,0-0.3,0.1-0.5,0.2c-0.6,0.2-1.1-0.1-1.2-0.7c-0.2-1-0.3-2.1-0.1-3.1c0.1-0.8,0-1.6,0-2.5c0-0.3-0.1-0.4-0.4-0.3
		c-0.5,0.1-1,0.3-1.5,0.5c-0.2,0.1-0.3,0.2-0.2,0.4c0.1,0.7,0.3,1.3,0.4,2c0.1,0.6,0.2,1.3,0.3,1.9c0,0.1,0,0.3,0.1,0.4
		c0.1,0.3,0.1,0.5,0,0.8c-0.2,0.7-0.6,1.3-1.3,1.6c-0.1,0-0.2,0.1-0.2,0.2c0,0,0,0.1-0.1,0.1c0,0,0.1,0.1,0.1,0.1
		c0.5-0.2,1-0.1,1.4-0.3c0.4-0.2,0.9-0.3,1.3-0.4c0.5-0.2,1.2-0.1,1.6-0.6c0,0,0.1-0.1,0.2,0c0.7,0.1,1.4-0.3,2-0.5
		c0.5-0.1,1-0.4,1.6-0.6c0.5-0.2,1-0.4,1.6-0.7c0.1-0.1,0.3-0.1,0.4-0.2c0.5-0.5,1.1-0.7,1.7-1c0.2-0.1,0.5-0.2,0.7-0.5
		c0.1-0.1,0.2-0.2,0.3-0.3c0.7-0.5,1.3-1.1,1.7-1.9c0.2-0.3,0.3-0.7,0.2-1.1c-0.1-0.3-0.2-0.6-0.3-1c-0.1-0.4-0.3-0.6-0.5-0.8
		c-0.3-0.3-0.8-0.4-1.2-0.6c-0.6-0.4-1.3-0.4-2-0.5c-0.9-0.1-1.8-0.1-2.7-0.1c-0.2,0-0.3,0-0.5,0.1c-0.2,0-0.4,0.1-0.6,0.1
		c-0.2,0.1-0.5,0.1-0.7,0.2c-0.3,0.1-0.5,0.2-0.8,0.3c-0.3,0.2,0,0.5,0,0.8c0,0.5,0,1,0,1.4c0,0.6,0.1,1.3,0.1,1.9
		c0,0.5,0,1.1-0.1,1.6C60.1,168.5,60.2,169.1,60.2,169.7z M36.1,172C36.1,172,36.1,172,36.1,172c0.2,0,0.4,0,0.6-0.1
		c0.7-0.1,1.3-0.2,2-0.3c0.7-0.1,1.3-0.3,1.9-0.6c0.2-0.1,0.4-0.4,0.6-0.5c0.2-0.2,0.1-0.3-0.1-0.4c-0.2-0.1-0.4-0.2-0.6-0.3
		c-0.5-0.2-1.1-0.4-1.6-0.6c-0.1,0-0.2,0-0.4,0c-0.3,0-0.7-0.1-1-0.1c-0.2,0-0.4,0-0.6,0c-0.4,0-0.8-0.1-1.1-0.4
		c-0.1-0.1-0.2-0.3-0.4-0.4c-0.1,0.1-0.3,0.3-0.4,0.4c-0.1,0.1-0.2,0.1-0.2,0.2c-0.4,0.3-0.8,0.6-1.1,1c-0.4,0.4-0.9,0.9-1,1.5
		c-0.1,0.4-0.1,0.5,0.3,0.6c0.5,0.2,1.1,0.4,1.7,0.3C35.1,172.1,35.6,172.1,36.1,172z"/>
	<path d="M159.3,161.8c0-0.7,0-1.4,0.1-2.1c0-0.4,0.8-1.1,1.2-1c0.1,0,0.3,0.1,0.4,0.2c0.3,0.4,0.7,0.9,0.6,1.5c0,0.1,0,0.2,0,0.3
		c0,0.1,0,0.1,0.1,0.2c0.1,0,0.2,0,0.2-0.1c0.4-0.4,0.8-0.7,1.2-1.1c0.2-0.2,0.5-0.4,0.7-0.7c0.1-0.1,0.1-0.1,0.2-0.1
		c0.5,0,1-0.3,1.5-0.2c0.2,0,0.5-0.1,0.7,0c0.5,0.2,1,0.2,1.5,0.4c0.3,0.2,0.7,0.2,1,0.3c0.3,0.1,0.5,0.3,0.8,0.5
		c0.4,0.3,0.8,0.6,1.2,0.9c0.7,0.5,1.3,1,1.8,1.8c0.2,0.4,0.5,0.8,0.7,1.2c0.6,1.1,0.3,2.7-0.6,3.6c-0.4,0.4-0.9,0.7-1.4,0.9
		c-0.8,0.4-1.6,0.8-2.5,1.1c-1,0.4-2.1,0.6-3.2,0.9c-0.7,0.2-1.5,0.4-2.2,0.6c-0.2,0.1-0.4,0.1-0.7,0c-0.2-0.1-0.5,0-0.7,0.1
		c-1,0.4-2.1,0.5-3.2,0.7c-0.2,0.1-0.5,0-0.8-0.1c-0.3-0.1-0.5-0.5-0.3-0.7c0.2-0.4,0.6-0.6,1-0.7c0.4-0.1,0.8-0.1,1.2-0.1
		c0.1,0,0.1-0.1,0.2-0.1c-0.1,0-0.1,0-0.2,0c-0.8,0-1-0.3-1-1.1c0-0.3,0-0.5-0.1-0.8c-0.1-0.4-0.1-0.9,0-1.3
		c0.1-0.2,0.1-0.5,0.2-0.7c0-0.1,0-0.1-0.1-0.2c-0.1,0-0.2,0-0.2,0.1c-0.2,0.2-0.5,0.4-0.7,0.6c-0.6,0.6-1.1,1.2-1.7,1.7
		c-0.6,0.5-1.3,1-2,1.4c-0.4,0.2-0.7,0.6-1.2,0.6c-0.5,0.1-1,0.2-1.5,0.2c-0.3,0-0.7,0.1-1,0.1c-0.6,0-1.1-0.1-1.6-0.5
		c-0.7-0.6-1.2-1.4-1.2-2.4c0-0.4,0-0.8,0.2-1.2c0.4-1.4,1-2.7,1.9-3.8c0,0,0-0.1,0-0.2c-0.1,0-0.1,0-0.2,0c-0.4,0-0.7,0.2-1,0.5
		c-0.4,0.3-0.8,0.8-1.2,1.1c-0.6,0.4-1.1,1-1.5,1.6c-0.2,0.3-0.4,0.6-0.6,1c-0.4,0.7-0.5,1.5-0.7,2.2c-0.1,0.3,0.1,0.5,0,0.8
		c-0.1,0.2-0.2,0.3-0.4,0.2c-0.1,0-0.3,0-0.4,0c-0.2,0.1-0.6,0.2-0.9,0.1c-0.1,0-0.2,0-0.2,0c-0.3,0-0.5-0.2-0.5-0.5
		c0-0.2,0-0.4,0.1-0.7c0.1-1.2,0.3-2.4,0.4-3.6c0.1-0.6,0.2-1.1,0.3-1.7c0.1-0.3,0.1-0.6,0-0.9c-0.3,0.1-0.6,0.2-0.8,0.3
		c-0.3,0.1-0.5,0.2-0.8,0.3c-0.3,0.1-0.4,0.3-0.4,0.6c0.1,0.9,0.3,1.9,0.4,2.8c0,0.7,0.1,1.3,0,2c-0.3,1.2-0.9,2-2.2,2.2
		c-0.5,0.1-0.9,0.2-1.3,0.3c-0.4,0.1-0.8,0-1.2-0.2c-0.5-0.2-1-0.5-1.5-0.7c-0.6-0.3-1-0.8-1.4-1.4c-0.5-0.9-0.7-1.8-0.7-2.8
		c0-0.2,0.1-0.4,0.2-0.6c0.1-0.3,0.2-0.5,0.3-0.8c0.2-0.5,0.7-0.8,1.1-1.1c0,0,0,0,0.1,0c0.7-0.7,1.6-0.8,2.4-1.1
		c0.3-0.1,0.6-0.3,0.9-0.3c0.2,0,0.3-0.1,0.2-0.3c-0.4-0.9-0.7-1.9-1.7-2.3c-0.3-0.2-0.6-0.1-0.9,0.1c-0.3,0.2-0.4,0.5-0.6,0.8
		c-0.6,0.7-0.9,1.6-1.5,2.3c-0.1,0.2-0.1,0.4-0.2,0.6c-0.2,0.4-0.5,0.8-0.8,1.2c-0.2,0.2-0.3,0.4-0.4,0.6c0,0.2-0.1,0.3-0.2,0.5
		c-0.4,0.6-0.8,1.2-1.2,1.9c-0.2,0.3-0.3,0.7-0.5,1.1c-0.1,0.4-0.5,0.7-0.9,0.7c-1,0.1-1.4-0.5-1.2-1.5c0.2-0.7,0.5-1.3,0.9-1.9
		c0.5-0.7,0.9-1.4,1.3-2.1c0.6-0.9,1.1-1.8,1.7-2.6c0.2-0.3,0.4-0.5,0.6-0.8c0.2-0.3,0.4-0.5,0.5-0.8c0-0.1,0.1-0.3,0.2-0.3
		c0.3-0.2,0.5-0.4,0.7-0.7c0.1-0.2,0.3-0.4,0.5-0.5c0.3-0.1,0.5-0.3,0.7-0.4c0.1,0,0.1-0.1,0.2-0.1c0.5,0.1,1.1-0.2,1.6-0.1
		c0.5,0.2,1,0.5,1.3,0.9c0.1,0.1,0.1,0.2,0.2,0.2c0.5,0.1,0.6,0.5,0.9,0.8c0.2,0.2,0.3,0.5,0.4,0.8c0.1,0.3,0.2,0.6,0.4,0.9
		c0.1,0.3,0.2,0.4,0.6,0.3c0.8-0.3,1.7-0.6,2.4-1.2c0.4-0.3,0.7-0.6,1-1c0.1-0.1,0.2-0.2,0.3-0.1c0-0.1,0.1-0.1,0.1-0.2
		c0.1-0.1,0.1-0.2,0.2-0.2c0.1,0,0.2,0.1,0.2,0.2c0,0.3,0.2,0.5,0.4,0.6c0.3,0.2,0.4,0.5,0.3,0.9c-0.1,0.6-0.2,1.3-0.3,1.9
		c0,0.1,0,0.2,0,0.3c0.1,0.4,0.1,0.4,0.4,0.1c0.2-0.2,0.5-0.3,0.5-0.6c0,0,0.1-0.1,0.1-0.1c0.6-0.2,1-0.9,1.6-0.9
		c0.6-0.5,1.3-0.7,2-1c0.6-0.3,1.3-0.4,1.9-0.6c0.4-0.1,0.8,0,1.1,0.3c0.3,0.3,0.4,0.8,0.2,1.2c-0.4,0.9-0.8,1.6-1.5,2.3
		c-0.2,0.2-0.4,0.5-0.6,0.7c-0.1,0.1-0.1,0.2-0.2,0.2c-0.5,0.3-0.6,0.8-0.7,1.2c-0.1,0.5-0.5,0.9-0.4,1.4c-0.3,0.4,0,0.7,0.1,1.1
		c0.1,0.3,0.3,0.4,0.6,0.5c0.2,0,0.3,0.1,0.4,0.2c0.1,0,0.3,0.1,0.3,0.1c0.5-0.2,1.1-0.2,1.6-0.5c0.3-0.2,0.8-0.4,1-0.7
		c0.1-0.1,0.3-0.1,0.4-0.2c0.6-0.2,1.1-0.5,1.5-1c0.4-0.4,0.8-0.7,1.3-1.1c0.1-0.1,0.2-0.1,0.3-0.1c0.1,0,0.2,0,0.3-0.1
		c0.3-0.5,0.8-0.8,1.1-1.3c0.2-0.2,0.2-0.4,0.2-0.7C159.4,162.7,159.4,162.3,159.3,161.8C159.4,161.8,159.3,161.8,159.3,161.8z
		 M171.2,165.2c0-0.6-0.1-1.1-0.5-1.5c-0.5-0.6-0.9-1.3-1.7-1.6c-0.2-0.1-0.3-0.2-0.5-0.4c-0.4-0.4-0.8-0.8-1.4-0.9
		c-0.4-0.1-0.7-0.1-1.1-0.2c-0.8-0.2-1.5,0-2.1,0.5c-0.3,0.2-0.6,0.4-0.8,0.7c-0.4,0.7-0.8,1.4-1.1,2.1c-0.2,0.5-0.4,1-0.4,1.5
		c0,1.1-0.2,2.2-0.3,3.3c0,0.2-0.2,0.5-0.3,0.7c0,0.1-0.1,0.1-0.1,0.2c0.1,0,0.2,0,0.2,0c0.9-0.3,1.8-0.5,2.7-0.7
		c0.8-0.2,1.5-0.4,2.3-0.6c0.4-0.1,0.9-0.3,1.3-0.4c0.4-0.2,0.8-0.4,1.2-0.5c0.4-0.1,0.6-0.6,1.1-0.6c0.1,0,0.2-0.2,0.2-0.2
		c0.1-0.1,0.2-0.2,0.3-0.3C170.9,166.1,171.2,165.7,171.2,165.2z M138.8,165.8C138.8,165.8,138.8,165.8,138.8,165.8
		c0.1-0.2,0-0.4,0-0.6c-0.1-0.4-0.2-0.7-0.2-1.1c0-0.3-0.2-0.4-0.4-0.3c-0.9,0.4-1.9,0.7-2.8,1.3c-0.8,0.6-1.1,1.4-0.9,2.2
		c0.1,0.7,0.6,1.3,1.4,1.7c0.2,0.1,0.4,0.1,0.6,0.2c0.5,0.2,1.1,0.3,1.7,0.1c0.6-0.1,0.9-0.5,0.9-1c0-0.7,0-1.4-0.1-2.1
		C138.9,166.2,138.8,166,138.8,165.8z"/>
	<path d="M123.8,167.3c-0.4-0.1-0.7-0.2-1.1-0.3c-1.3-0.3-2.5-0.9-3.4-1.8c-0.1-0.1-0.3-0.2-0.5-0.3c-0.3-0.2-0.7-0.2-0.9,0.1
		c-0.4,0.4-0.7,0.8-1,1.2c-0.5,0.8-1,1.5-1.5,2.3c-0.2,0.2-0.3,0.5-0.6,0.4c-0.1,0-0.3,0.1-0.4,0.1c-0.2,0.4-0.6,0.2-0.9,0.2
		c-0.1,0-0.3-0.1-0.3-0.2c-0.2-0.5-0.4-0.9-0.4-1.4c0-0.3-0.1-0.6-0.1-0.9c0-0.2-0.2-0.2-0.3-0.1c-0.2,0.1-0.3,0.2-0.4,0.3
		c-0.6,0.5-1.2,0.9-2,1.1c-0.1,0-0.2,0.1-0.3,0.1c-0.7,0-1.4,0.2-2.1,0.2c-0.2,0-0.4,0-0.5,0c-0.4-0.1-0.9-0.2-1.3-0.4
		c-0.7-0.3-1.1-1.2-1-2c0.2-1,0.6-1.7,1.4-2.4c0.3-0.2,0.6-0.4,0.8-0.7c0.2-0.2,0.4-0.5,0.6-0.7c0.1-0.1,0.1-0.1,0.2-0.2
		c0.1-0.2,0.5-0.2,0.3-0.5c0-0.1-0.4,0-0.5,0c-1,0.2-2,0.6-2.8,1.2c-0.6,0.4-1.1,0.8-1.6,1.4c-0.3,0.4-0.6,0.9-0.8,1.4
		c-0.4,0.7-0.6,1.6-0.7,2.4c0,0.2,0.1,0.4,0,0.5c0,0.2-0.1,0.4-0.1,0.6c-0.1,0.2-0.3,0.1-0.5,0.1c-0.4,0.1-0.9-0.1-1.2,0.3
		c-0.1,0.1-0.3,0.1-0.3-0.1c-0.1-0.2-0.1-0.4-0.1-0.6c0-0.1,0.1-0.2,0.1-0.3c0-0.1-0.1-0.3-0.1-0.4c-0.1,0.1-0.2,0.1-0.3,0.2
		c-0.6,0.6-1.4,1-2.2,1.3c-0.9,0.3-1.7,0.7-2.7,0.7c-0.6,0-1.1,0.1-1.7,0.1c-0.5,0-1.1-0.1-1.5-0.4c-0.4-0.3-0.8-0.7-1-1.2
		c-0.2-0.6-0.3-1.2-0.1-1.9c0.1-0.3,0.2-0.5,0.3-0.8c0-0.1,0-0.2,0-0.3c-0.1,0-0.2,0-0.3,0c-0.6,0.1-1.3,0.1-1.9,0.2
		c-0.2,0-0.5,0-0.5,0.4c0,0.1-0.2,0.2-0.3,0.3c-0.3,0.2-0.8,0.2-0.7,0.8c-0.2,0.1-0.5,0.3-0.7,0.3c-0.2,0-0.4-0.2-0.6-0.4
		c-0.2-0.3,0-0.6,0.3-0.7c0.5-0.1,1-0.3,1.5-0.4c0.1,0,0.1-0.1,0.2-0.1c-0.1,0-0.1-0.1-0.2,0c-0.5,0.1-1,0-1.4,0.3
		c-0.1,0.1-0.4,0-0.5,0c-0.8,0.2-1.7,0.3-2.5,0.5c-0.2,0-0.5,0.1-0.7,0.1c-0.2,0-0.4,0.2-0.4,0.4c0,0.6-0.3,1.1-0.1,1.6
		c0,0.2-0.1,0.3-0.1,0.5c0,0.3-0.2,0.6-0.1,1c0,0.6-0.8,1.5-1.6,1.5c-0.5,0-1-0.8-0.7-1.2c0.4-0.6,0.4-1.3,0.4-2
		c0-0.1,0-0.3,0.1-0.4c0-0.5,0.1-0.9,0.1-1.4c0-0.3,0-0.5-0.1-0.8c0-0.1,0-0.3-0.1-0.3c-0.4-0.3-0.2-0.7,0-1
		c0.1-0.3,0.2-0.7,0.2-1.1c0-0.8,0.6-1.3,1.4-1.2c0.3,0,0.6,0,0.9-0.2c0.3-0.2,0.6-0.4,1-0.6c0.1,0,0.1-0.1,0.2-0.1
		c0.4,0.3,0.7-0.2,1-0.3c0.4-0.1,0.8-0.5,1.2-0.6c0.8-0.1,1.5-0.4,2.2-0.6c0.3-0.1,0.7,0,1,0c0.9-0.2,1.8-0.2,2.6-0.4
		c0.2,0,0.4,0,0.6,0c0.1,0,0.2,0,0.3,0c0.2,0,0.4,0,0.6,0c0.2,0,0.3,0,0.5,0c0.1,0,0.2-0.1,0.3,0c0.4,0.3,0.8,0.1,1.2,0.1
		c0.2,0,0.3,0.1,0.4,0.1c0.3,0.2,0.5,0.3,0.8,0.5c0.2,0.2,0.3,0.4,0.2,0.7c0,0.1-0.1,0.2-0.1,0.3c0.1,0,0.2-0.1,0.3-0.1
		c0.5-0.2,1-0.2,1.4,0.2c0.1,0.1,0.2,0.3,0.2,0.4c0,0.9-0.4,1.7-1.3,2c-0.2,0.1-0.4,0.2-0.6,0.4c-0.5,0.4-1,0.6-1.6,0.9
		c-0.7,0.4-1.4,0.9-1.8,1.6c-0.3,0.6,0,1.2,0.6,1.4c0.4,0.1,0.8,0.2,1.2,0.2c0.7,0.1,1.4-0.2,2-0.4c0.7-0.3,1.4-0.7,2-1.2
		c0.1-0.1,0.3-0.2,0.5-0.2c0.6-0.3,0.8-0.9,1.2-1.4c0.1-0.1,0.1-0.4,0.1-0.6c0.2-0.9,0.3-1.7,0.2-2.6c0-0.5,0.1-0.9,0.4-1.2
		c0.2-0.4,0.5-0.5,1-0.3c0.4,0.1,0.5,0.3,0.6,0.8c0.1,0.4,0.2,0.8,0.3,1.2c0,0.1,0.1,0.2,0.2,0.1c0,0,0.1-0.1,0.1-0.1
		c0.3-0.8,1.1-1,1.7-1.3c0.8-0.4,1.6-0.7,2.4-1c0.6-0.2,1.2-0.4,1.7-0.7c0.5-0.3,1-0.2,1.5-0.1c0.3,0.1,0.5,0.2,0.4,0.6
		c0,0.1,0,0.2,0,0.3c0.3,0.7,0.1,1.4-0.2,2c-0.2,0.4-0.5,0.8-0.8,1.1c-0.4,0.5-0.9,0.8-1.3,1.3c-0.3,0.3-0.6,0.7-0.9,1
		c-0.3,0.4-0.1,0.7,0.3,0.7c0.5,0,0.9,0.4,1.4,0.2c0.1,0,0.3,0.1,0.4,0.2c0.2,0.1,0.4,0.2,0.5,0.1c0.4-0.1,0.7-0.4,1.1-0.5
		c0.5-0.1,0.8-0.6,1.3-0.8c0.4-0.1,0.6-0.6,0.7-1.1c0.1-0.7,0.3-1.4,0.4-2.2c0.1-0.8,0.2-1.6,0.3-2.4c0-0.4,0.3-0.8,0.5-1
		c0.3-0.3,0.7-0.3,1-0.1c0.5,0.4,0.9,0.8,0.8,1.6c-0.1,0.7-0.3,1.4-0.4,2.1c-0.1,0.8-0.2,1.6-0.3,2.3c0,0.3-0.1,0.5-0.2,0.7
		c0,0,0,0.1,0,0.1c0,0,0.1,0,0.1,0c0.1-0.1,0.2-0.1,0.3-0.2c0.3-0.4,0.7-0.7,0.9-1.1c0.3-0.5,0.8-0.8,1.3-1.2
		c0.2-0.2,0.6-0.3,0.9-0.3c0.7-0.1,1.3,0,1.9,0.3c0.2,0.1,0.4,0.2,0.5,0.5c0.1,0.2,0.3,0.3,0.5,0.4c0.4,0.2,0.8,0.3,1.2,0.5
		c0.5,0.3,1.1,0.4,1.6,0.5c0.3,0.1,0.6,0,0.8-0.3c0.5-0.5,0.8-1.1,1.1-1.6c0.1-0.3,0.2-0.6,0.4-0.8c0.1-0.1,0-0.4,0-0.5
		c0-0.1-0.2-0.3-0.2-0.4c-0.1-0.3,0.2-0.7,0.4-0.7c0.4,0,0.8,0.2,0.8,0.5c0,0.1,0,0.2,0.1,0.3c0.6,0.3,0.5,0.9,0.5,1.3
		c-0.1,1.2-0.4,2.3-1.2,3.2c-0.1,0.1-0.1,0.2-0.2,0.2C125.6,166.7,124.9,167.5,123.8,167.3z M81.5,164.4c0.1,0.1,0.1,0.4,0.2,0.4
		c0.4,0,0.8,0.1,1.2,0c0.7-0.1,1.4-0.1,2.1,0c0.9,0,1.8-0.1,2.7-0.2c0.5,0,0.9-0.2,1.4,0.1c0.1,0,0.2,0,0.3,0c0.2,0,0.3,0,0.5,0
		c0.3,0,0.5,0.1,0.8,0.1c0.2,0.1,0.3,0,0.5-0.1c0.3-0.3,0.6-0.5,0.8-0.7c0.1-0.1,0.2-0.2,0.3-0.2c0.8-0.2,1.4-0.8,2.1-1.2
		c0.2-0.1,0.3-0.2,0.5-0.4c0,0,0-0.1,0.1-0.2c-0.1,0-0.1,0-0.2,0c-0.6,0.2-1.3,0.4-1.9,0.6c-0.1,0-0.3,0-0.4-0.1
		c-0.1-0.1,0-0.3,0-0.4c0.2-0.2,0.4-0.4,0.6-0.5c0.1,0,0.1-0.1,0.1-0.2c-0.1,0-0.1-0.1-0.2-0.1c-0.8,0-1.5-0.4-2.4-0.1
		c-0.5,0.2-1.1-0.1-1.6,0.3c0,0-0.1,0-0.2,0c-0.4,0-0.8,0.1-1.2,0.1c-0.2,0-0.5,0-0.6,0.1c-0.3,0.4-0.8,0.4-1.2,0.6
		c-0.3,0.2-0.7,0.3-1,0.3c-0.5,0.1-1,0.4-1.5,0.5c-0.3,0.6-1,0.6-1.5,1C81.6,164.2,81.5,164.2,81.5,164.4z"/>
	<path d="M80.9,117.4c0.1,0.2-0.1,0.4-0.3,0.6c-0.2,0.1-0.3,0.3-0.4,0.5c-0.2,0.6-0.6,0.8-1.2,0.5c-0.3-0.1-0.5-0.3-0.8-0.5
		c-0.5-0.3-0.9-0.6-1.4-0.9c-0.1,0-0.2-0.1-0.2-0.1c-0.2-0.3-0.6-0.4-1-0.6c-0.7-0.5-1.4-1-2.2-1.5c-0.1-0.1-0.3-0.2-0.5-0.3
		c-1.2-0.6-2.1-1.5-3-2.5c-0.8-0.8-1.4-1.8-2.2-2.6c-0.8-0.9-1.5-1.9-2.1-2.9c-0.1-0.2-0.3-0.4-0.6-0.6c-0.5-0.4-0.8-0.8-1.1-1.4
		c-0.4-0.8-0.8-1.6-1.2-2.4c-0.3-0.6-0.6-1.2-0.8-1.8c-0.2-0.7-0.7-1.3-1-1.9c-0.4-0.8-0.9-1.7-1.2-2.6c-0.3-0.7-0.5-1.4-0.5-2.1
		c0-0.5-0.2-0.9-0.4-1.4c-0.4-1.1-0.8-2.2-0.9-3.4c-0.1-1-0.3-2-0.5-3c-0.1-0.6-0.2-1.3-0.1-1.9c0-0.1,0.1-0.2,0-0.3
		c-0.2-0.4-0.2-0.8-0.3-1.1c-0.1-0.4-0.1-0.7,0-1c0.1-0.6,0.1-1.2,0.1-1.8c0-0.4,0-0.9,0-1.3c0-0.2,0-0.3,0.1-0.5
		c0.1-0.5,0.2-1,0.2-1.6c0-0.9,0.2-1.9,0.3-2.8c0.1-0.8,0.4-1.6,0.4-2.5c0-1,0.6-1.8,0.9-2.8c0-0.1,0-0.1,0.1-0.2
		c0.5-0.4,0.6-1.1,0.8-1.7c0.1-0.4,0.3-0.8,0.5-1.2c0.4-0.7,0.9-1.4,1.4-2.2c0.4-0.7,0.7-1.4,1.1-2c0.5-0.8,0.9-1.7,1.5-2.4
		c0.1-0.1,0.2-0.3,0.2-0.5c0.1-0.2,0.1-0.3,0.2-0.5c0.3-0.6,0.7-1.1,1-1.6c0.4-0.6,0.8-1.3,1.2-1.9c0.2-0.3,0.4-0.6,0.6-0.9
		c0-0.1,0.1-0.1,0.2-0.2c0.1-0.8,1-1.2,1.3-1.8c0.1-0.1,0.3-0.3,0.2-0.4c-0.1-0.3,0.1-0.5,0.3-0.6c0.1-0.1,0.2-0.1,0.2-0.2
		c0.7-1,1.6-1.7,2.6-2.3c0.1-0.1,0.2-0.2,0.3-0.2c0.7-0.6,1.2-0.5,1.8,0.1c0,0.1,0.1,0.1,0.1,0.2c0,0.4-0.3,0.9-0.7,1
		c-0.8,0.3-1.4,0.8-2,1.4c-0.6,0.6-1.1,1.3-1.6,2c-0.2,0.4-0.5,0.7-0.8,1c-0.5,0.5-0.8,1-1,1.6c-0.1,0.1-0.2,0.3-0.3,0.4
		c-0.3,0.3-0.7,0.6-0.7,1.2c0,0.1-0.1,0.1-0.1,0.2c-0.3,0-0.4,0.3-0.5,0.5c-0.3,0.5-0.7,1-1,1.6c-0.2,0.4-0.4,0.8-0.7,1.2
		c-0.2,0.3-0.3,0.6-0.5,0.9c-0.4,0.8-0.8,1.5-1.2,2.3c-0.2,0.4-0.5,0.8-0.8,1.2c-0.2,0.3-0.4,0.7-0.6,1.1c-0.1,0.2-0.2,0.3-0.3,0.5
		c-0.1,0.1-0.2,0.2-0.2,0.2c0.1,0.5-0.3,0.8-0.4,1.2c-0.4,0.9-0.9,1.9-1.2,2.8c-0.1,0.4-0.2,0.9-0.3,1.3c-0.1,0.6-0.2,1.3-0.3,1.9
		c0,0.1,0,0.2-0.1,0.2c-0.3,0.6-0.3,1.2-0.3,1.9c0,0.6,0.1,1.2-0.1,1.8c-0.2,0.7,0.1,1.4-0.2,2.1c0,0.1,0,0.3,0,0.4
		c0.2,0.5,0.1,1,0,1.5c0,0.2,0,0.3,0,0.5c0.1,0.8,0.3,1.7,0.4,2.5c0,0.2,0,0.3,0,0.5c-0.1,0.3-0.1,0.6,0.1,0.9c0.1,0.1,0,0.3,0,0.4
		c0,0.5,0,1,0.3,1.5c0.1,0.2,0.1,0.4,0.1,0.6c0,0.3,0,0.7,0.3,1c0,0,0.1,0.1,0.1,0.2c-0.1,0.4,0.1,0.8,0.3,1.2c0,0.1,0,0.2,0.1,0.2
		c0.4,0.3,0.2,0.9,0.5,1.3c-0.1,0.6,0.3,1.1,0.4,1.6c0,0,0,0,0,0.1c-0.1,1,0.4,1.8,0.8,2.6c0.4,0.9,0.9,1.8,1.3,2.7
		c0.1,0.3,0.2,0.6,0.3,0.9c0.1,0.4,0.3,0.7,0.5,1c0.2,0.3,0.3,0.7,0.5,1.1c0.4,0.6,0.7,1.3,1.2,1.8c0.2,0.2,0.5,0.5,0.6,0.9
		c0.2,0.6,0.7,1,1,1.4c0.3,0.3,0.5,0.7,0.8,1c0.1,0.2,0.3,0.3,0.4,0.4c0.6,0.5,0.9,1.1,1.5,1.6c0.6,0.5,1,1.2,1.5,1.7
		c0.1,0.1,0.1,0.2,0.2,0.3c0.8,0.4,1.3,1.2,2.1,1.7c0.1,0.1,0.3,0.1,0.4,0.2c0.1,0.1,0.3,0.1,0.4,0.2c0.6,0.4,1.1,0.8,1.7,1.1
		c0.5,0.3,1,0.7,1.6,0.9c0.1,0,0.2,0.1,0.3,0.2c0.2,0.4,0.5,0.3,0.8,0.3c0.3,0,0.6-0.3,0.8-0.1c0.2,0.2,0.3,0.6,0.4,0.9
		C81,117.3,80.9,117.3,80.9,117.4z"/>
	<path d="M105.6,101.6c-0.2,0-0.5,0.1-0.7,0.1c-0.5,0.1-1,0.1-1.5,0.2c-0.5,0.1-1,0-1.4-0.1c-1-0.2-2.1-0.4-3-1
		c-0.8-0.5-1.4-1.1-1.5-2c-0.1-0.7,0.1-1.4,0.7-1.7c0.3-0.1,0.6-0.2,0.9-0.1c0.3,0.1,0.5,0,0.7-0.2c0.2-0.2,0.4-0.3,0.7-0.3
		c0.2,0,0.2-0.1,0.1-0.3c-0.2-0.3-0.5-0.5-0.6-0.8c-0.1-0.3,0.1-0.7,0.3-0.9c0.2-0.2,0.4-0.4,0.6-0.5c0.7-0.8,1.5-1.5,2.2-2.3
		c0.4-0.4,0.8-0.7,1.1-1.1c0.2-0.1,0.3-0.3,0.4-0.5c0.2-0.3,0.5-0.5,0.9-0.6c0.1,0,0.2-0.1,0.2-0.2c0.3-0.7,0.8-1.2,1.3-1.8
		c0.5-0.6,1-1.1,1.6-1.7c0.6-0.5,1-1.2,1.5-1.7c0.1-0.1,0.2-0.1,0.3-0.2c0.1-0.1,0.1-0.2,0.2-0.3c-0.1-0.1-0.2-0.2-0.4-0.2
		c-0.2,0-0.4,0-0.6,0.1c-0.5,0.1-0.9,0.2-1.4,0.2c-0.5,0-1.1,0.1-1.7,0.1c-0.8,0-1.6-0.1-2.4,0.2c-0.1,0-0.3,0-0.4,0
		c-0.6-0.1-1.1,0.1-1.6,0.2c-0.1,0-0.3,0-0.4,0c-0.3,0-0.7,0-1,0c-0.1,0-0.3,0-0.4,0c-0.2,0-0.3,0-0.5,0.1c-0.2,0-0.3,0.1-0.5,0.1
		c-0.3,0-0.5,0.1-0.8,0.1c-0.3,0-0.6,0-0.9,0c-0.1,0-0.2,0-0.3,0c-1,0.2-2,0.3-3,0.2c-0.4,0.3-0.9,0.2-1.4,0.2
		C92.4,84.9,91.7,85,91,85c-1.2,0.1-2.4,0.1-3.5,0.3c-0.8,0.1-1.6-0.1-2.3,0.3c-0.5-0.1-0.9,0.3-1.4,0.2c-0.4,0-0.4,0.2-0.4,0.4
		c0,0.1,0,0.3,0,0.4c-0.1,0.4-0.5,0.6-0.7,0.9c-0.3-0.1-0.3,0.2-0.5,0.3c-0.1,0.1-0.2,0.2-0.4,0.1c-0.5-0.2-1.1-0.3-1.7-0.4
		c-0.5-0.1-0.9-0.4-1.3-0.6c-0.4-0.2-0.8-0.4-1.2-0.6c-0.1,0-0.2,0-0.3,0c-0.1,0-0.1,0-0.2-0.1c0.2-0.3-0.2-0.3-0.3-0.5
		c-0.1-0.2-0.3-0.3-0.4-0.4c-0.4-0.3-0.9-0.6-1.2-1.1c-0.2-0.4-0.6-0.8-0.7-1.2c-0.1-0.4-0.1-0.9-0.2-1.3c0-0.4,0.2-0.7,0.3-1
		c0.3-0.7,0.8-1,1.4-1.3c0.6-0.3,1.3-0.5,1.9-0.8c0.7-0.3,1.4-0.5,2.2-0.6c0.1,0,0.1-0.1,0.1-0.1c0.4-0.3,0.8-0.3,1.3-0.4
		c0.3,0,0.6-0.2,0.8-0.3c0.4-0.2,0.7-0.1,0.9,0.3c0.2,0.3,0.2,0.6,0.3,1c0,0.1-0.1,0.2-0.2,0.3c-0.9,0.4-1.8,0.7-2.8,0.9
		c-0.6,0.1-1.2,0.3-1.8,0.5c-0.2,0.1-0.3,0.2-0.5,0.2c0,0.4-0.3,0.1-0.5,0.2c-0.5,0.4-1,0.8-1.1,1.5c0,0,0,0.1,0,0.1
		c0.3,0.3,0.3,0.7,0.7,1c0.5,0.4,1,0.7,1.5,1c0.1,0.1,0.2,0.1,0.4,0c0.4-0.2,0.8-0.3,1.3-0.3c0.3,0,0.6-0.1,0.9-0.3
		c0.2-0.1,0.2-0.1,0.4,0c0.1,0.1,0.3,0.1,0.5,0.1c0.6,0,1.1-0.1,1.7-0.1c0.5,0.1,1.1-0.1,1.7-0.1c0.9-0.1,1.9-0.1,2.8-0.2
		c0.9-0.1,1.7-0.1,2.6,0c0.5-0.3,1,0,1.6-0.1c0.6,0,1.2,0,1.8-0.3c0.1-0.1,0.2-0.1,0.3-0.1c0.4,0,0.8,0.1,1.2-0.1c0.1,0,0.2,0,0.3,0
		c0.6,0,1.2-0.1,1.8-0.1c0.3,0,0.6-0.1,0.9-0.1c0.4,0,0.8-0.1,1.2-0.1c1.2-0.1,2.3-0.3,3.4-0.3c0.7,0,1.4-0.1,2.1-0.2
		c0.6-0.1,1.2,0,1.7-0.2c0.4-0.1,0.8,0.1,1.3,0c0.4-0.1,0.9-0.1,1.3-0.2c0.2,0,0.4-0.2,0.6-0.3c0.5-0.3,1-0.4,1.5,0
		c0.2,0.2,0.4,0.2,0.7,0.1c0.6-0.3,1-0.1,1.2,0.5c0.1,0.5,0.1,0.9-0.2,1.2c-0.1,0.2-0.2,0.4-0.2,0.5c-0.1,0.7-0.4,0.9-1.1,0.7
		c-0.2-0.1-0.4-0.1-0.5,0.2c0,0.1-0.2,0.2-0.3,0.3c-0.8,0.7-1.4,1.5-2.1,2.2c-0.3,0.3-0.6,0.5-0.7,0.9c-0.5,0.3-0.8,0.8-1.2,1.2
		c0,0.3-0.3,0.3-0.5,0.5c-0.3,0.4-0.7,0.7-1,1.1c-0.3,0.3-0.7,0.6-1,1c-0.3,0.5-0.8,0.7-1.1,1.1c-0.3,0.4-0.6,0.8-0.9,1.1
		c-0.4,0.4-0.8,0.9-1.2,1.3c-0.1,0.1-0.3,0.1-0.4,0.2c0,0-0.1,0.1-0.1,0.1c0,0,0.1,0.1,0.1,0.1c0.1,0,0.1,0,0.2,0
		c0.3,0.1,0.6,0.2,0.7,0.6c0,0.4,0.1,0.8-0.3,1.1c-0.3,0.2-0.6,0.5-1.1,0.4c-0.3,0-0.6,0.1-1,0.3c0,0-0.1,0.2-0.1,0.2
		c0,0.1,0.1,0.2,0.2,0.2c0.4,0.3,0.9,0.7,1.5,0.8c0.7,0.1,1.4,0.2,2.1,0.3c0.2,0,0.4,0,0.6,0c0.4,0,0.9,0,1.3-0.1
		c0.3,0,0.4,0.1,0.4,0.3c0.1,0.4,0.2,0.8,0.3,1.1C106,101.4,105.8,101.5,105.6,101.6z"/>
	<path d="M105.6,101.6c0.2-0.1,0.4-0.2,0.6-0.3c0.2,0,0.4-0.1,0.5-0.3c0.7-0.8,1.3-1.6,2-2.3c0.3-0.3,0.5-0.6,0.8-0.8
		c0.4-0.3,0.7-0.7,0.9-1.2c0.3-0.5,0.8-0.9,1.2-1.4c0.4-0.4,0.8-0.9,1.3-1.1c0.1,0,0.1-0.2,0.2-0.3c0.1-0.2,0.2-0.5,0.6-0.5
		c0.1,0,0.3-0.2,0.3-0.3c0.1-0.4,0.3-0.6,0.6-0.7c0.1-0.1,0.3-0.1,0.3-0.2c0.2-0.6,0.8-0.9,1.3-1.3c0.5-0.4,1-0.9,1.4-1.3
		c0.2-0.2,0.5-0.4,0.7-0.6c0.5-0.5,1-1,1.5-1.5c0.1-0.1,0.3-0.3,0.4-0.4c0.3-0.3,0.6-0.5,0.9-0.8c0.5-0.5,1-0.9,1.5-1.4
		c0.8-0.9,1.8-1.6,2.5-2.6c0.1-0.2,0.4-0.3,0.6-0.5c0.3-0.3,0.7-0.6,1-0.9c0.1-0.1,0.2-0.2,0.3-0.2c0.3-0.1,0.5-0.3,0.3-0.7
		c-0.2-0.4,0.2-0.7,0.7-0.7c0.4,0,0.7,0.1,1.1,0.4c0.5,0.3,1.2,0,1.4-0.5c0-0.1,0-0.2-0.1-0.3c-0.2-0.2-0.4-0.5-0.6-0.7
		c-0.1-0.1-0.2-0.2-0.3-0.3c-0.4-0.6-0.9-0.9-1.4-1.4c-0.3-0.3-0.6-0.6-1-0.9c-0.9-0.8-1.9-1.7-2.8-2.5c-1.3-1.3-2.7-2.5-4-3.8
		c-1.4-1.4-2.7-2.8-4-4.2c-1.2-1.3-2.5-2.5-3.7-3.8c-0.7-0.8-1.5-1.5-2.3-2.2c-0.5-0.5-1.1-0.8-1.6-1.3c-0.2-0.1-0.4-0.3-0.5-0.5
		c-0.3-0.4-0.2-0.8,0-1.2c0.2-0.4,0.5-0.5,0.9-0.5c0.1,0,0.3,0.1,0.4,0.2c0.6,0.5,1.2,0.9,1.7,1.6c0.2,0.3,0.5,0.5,0.8,0.8
		c0,0,0,0,0,0c0.5,0,0.6,0.5,0.8,0.7c0.1,0.1,0.2,0.2,0.2,0.3c0.5,0.5,1,1,1.5,1.4c0.6,0.6,1.2,1.1,1.7,1.7c0.4,0.4,0.8,0.9,1.2,1.3
		c0.5,0.6,1.1,1.1,1.7,1.7c0.3,0.3,0.7,0.6,0.8,0.9c0.4,0.8,1.1,1.2,1.7,1.7c0.3,0.3,0.7,0.6,1,1c0.3,0.3,0.5,0.5,0.9,0.7
		c0.3,0.2,0.4,0.4,0.7,0.7c0.3,0.3,0.6,0.6,1,0.9c0.9,0.8,1.8,1.6,2.7,2.5c0.2,0.2,0.5,0.4,0.7,0.6c0.8,0.6,1.5,1.2,2.3,1.9
		c0.4,0.3,0.8,0.6,1.1,1c0.3,0.4,0.6,0.9,0.4,1.5c0,0,0,0.1,0,0.2c0.2,0.3,0.2,0.6,0.1,0.9c-0.2,0.4-0.4,0.8-0.8,1.1
		c-0.1,0-0.2,0.1-0.3,0.2c-0.6,0.6-1.4,0.6-2.2,0.6c-0.5,0-0.8,0.1-1,0.5c-0.1,0.2-0.2,0.3-0.3,0.4c-0.7,0.6-1.4,1.1-2.1,1.7
		c-0.4,0.4-0.8,0.8-1.2,1.1c-0.8,0.7-1.5,1.3-2.3,2c-0.7,0.6-1.4,1.3-2.1,2c-0.9,0.9-1.8,1.7-2.8,2.5c-0.3,0.2-0.5,0.5-0.7,0.7
		c-0.4,0.4-0.9,0.8-1.3,1.2c-0.5,0.5-1,1.1-1.6,1.7c-0.5,0.5-1.1,1.1-1.6,1.6c-0.6,0.6-1.1,1.3-1.7,1.9c-0.1,0.1-0.2,0.2-0.1,0.5
		c0.1,0.2-0.1,0.4-0.3,0.3c-0.3,0-0.4,0.1-0.5,0.3c-0.6,0.7-1.2,1.4-1.7,2.1c-0.2,0.2-0.6,0.3-0.4,0.7c0,0,0,0,0,0
		c-0.8,0.4-1.1,1.2-1.7,1.8c-0.3,0.4-0.7,0.7-1.1,1c-0.3,0.3-0.6,0.1-1-0.1c-0.4-0.2-0.5-0.6-0.6-1c0-0.2,0-0.4,0.2-0.5
		c0.2-0.1,0.4-0.2,0.5-0.4c0.1-0.1,0.5-0.1,0.2-0.5c0,0,0.1-0.2,0.2-0.3c0.3-0.3,0.6-0.6,0.9-0.9C105.4,102,105.5,101.8,105.6,101.6
		z"/>
	<path d="M91.7,146.2c-0.6-0.1-1.2-0.1-1.8-0.2c-0.5-0.1-1-0.1-1.5-0.2c-0.6-0.2-1.2-0.1-1.8-0.1c-1.1-0.1-2.1-0.2-3.2-0.2
		c-0.7,0-1.5,0-2.3-0.1c-1-0.1-2.1-0.1-3.1,0.1c-0.3,0.1-0.7-0.1-1.1-0.1c-0.1,0-0.2-0.1-0.3-0.1c-0.2,0-0.5,0.1-0.6,0
		c-0.7-0.3-1.5-0.6-2.1-0.9c-0.2-0.1-0.4-0.5-0.4-0.7c-0.1-0.4,0-0.9,0-1.4c0-0.1,0-0.2,0-0.3c-0.1-0.7-0.2-1.5-0.1-2.2
		c0-0.4,0-0.9,0-1.3c0-0.3,0-0.7,0.1-1c0.2-0.8,0.2-1.7,0.2-2.5c0-1.3,0.2-2.5,0.4-3.8c0.2-1.2,0.4-2.4,0.6-3.6
		c0.1-0.5,0.2-1,0.3-1.5c0.2-1,0.4-2,0.6-3c0.1-0.5,0.3-0.9,0.4-1.4c0-0.2,0-0.3,0-0.5c0-0.5,0-1,0-1.5c0-0.5,0.4-1,0.8-1
		c0.8-0.1,1.1,0.1,1.4,0.8c0,0.1,0,0.2,0,0.3c-0.1,0.6-0.3,1.1-0.5,1.7c-0.2,0.6-0.4,1.3-0.4,1.9c0,0.6-0.2,1.2-0.4,1.8
		c0,0,0,0,0,0.1c0.1,0.8-0.3,1.4-0.4,2.2c-0.1,0.8-0.3,1.5-0.4,2.2c-0.1,0.4-0.1,0.7-0.1,1.1c-0.2,1.7-0.6,3.4-0.5,5.2
		c0,0.9-0.1,1.8-0.2,2.7c0,0.2,0,0.4,0.1,0.6c0,0.2,0.1,0.4,0.1,0.6c0,0.8,0.1,1.5,0.2,2.2c0.1,0.6,0.4,0.8,0.9,0.9
		c0.4,0.1,0.8,0.1,1.2,0.2c0.2,0,0.4,0.1,0.5,0c0.4-0.1,0.7,0,1,0.1c0.5,0.2,1,0.3,1.5,0.2c0.2,0,0.4,0,0.6,0c0.1,0,0.2,0.1,0.2,0.1
		c0.6-0.1,1.1,0.1,1.7,0.1c0.5,0,0.9,0,1.4,0.1c0.4,0,0.8,0.1,1.2,0.2c0.5,0.1,1,0.1,1.5,0.2c0.6,0.1,1.2,0.1,1.7,0.1
		c0.7,0,1.3,0.1,2,0.1c0.4,0,0.9,0.1,1.3,0.2c0.9,0.1,1.8,0.3,2.6,0.4c0.8,0.1,1.7,0.3,2.5,0.4c0.4,0.1,0.8,0.1,1.2,0.2
		c0.3,0.1,0.5,0.2,0.8,0.2c1.1,0.3,2.2,0.5,3.4,0.8c0.7,0.2,1.4,0.2,2,0.4c0.8,0.2,1.6,0.2,2.3,0.6c0.1,0.1,0.3,0.1,0.5,0.1
		c0.9,0,1.8,0.2,2.7,0.6c0.2,0.1,0.5,0.1,0.8,0.1c0.7,0.1,1.3,0.2,1.9,0.4c0.5,0.2,1,0.1,1.5,0.2c0.2,0,0.3,0,0.5,0.1
		c0.6,0.1,1.2,0.2,1.8,0.2c0.3,0,0.7,0.1,1,0.1c0.5,0.1,1,0.1,1.5,0.2c0.3,0,0.6,0,0.9,0c0.1,0,0.2,0,0.2,0c0.6-0.2,1-0.1,1.3,0.4
		c0.1,0.1,0.2,0.2,0.3,0.3c0.3,0.4,0,1.1-0.5,1.2c-0.3,0.1-0.7,0.1-1,0.2c-0.1,0.1-0.3,0-0.4-0.1c-0.4-0.1-0.8-0.3-1.3-0.4
		c-0.9-0.1-1.8-0.2-2.7-0.3c-0.1,0-0.1,0-0.2,0c-1.1-0.4-2.2-0.2-3.3-0.5c-0.3-0.1-0.6-0.2-0.9-0.2c-1.4-0.3-2.8-0.5-4.1-0.9
		c-1-0.3-2-0.4-2.9-0.7c-0.6-0.2-1.1-0.3-1.7-0.4c-1-0.2-2-0.4-3-0.7c-1-0.3-2-0.4-3-0.5c-0.5-0.1-1.1-0.2-1.6-0.3
		c-0.7-0.1-1.3-0.1-2-0.2c-0.4,0-0.8-0.1-1.2-0.2C92.1,146.2,91.9,146.1,91.7,146.2C91.7,146.1,91.7,146.2,91.7,146.2z"/>
	<path d="M181.9,168.7c0.6,0,1.1,0,1.7,0c0.2,0,0.3,0,0.5-0.1c0.1,0,0.2-0.1,0.2-0.2c0-0.1-0.1-0.2-0.2-0.3
		c-0.5-0.3-1.1-0.5-1.6-0.8c-1.2-0.6-2.3-1.2-3.5-1.7c-0.5-0.2-1.1-0.4-1.6-0.7c-0.9-0.5-1.8-0.7-2.6-1.3c-0.7-0.6-1.1-1.3-1.1-2.2
		c0-0.3,0.1-0.6,0.4-0.9c0.3-0.4,0.7-0.8,1.2-1.1c0.9-0.6,1.9-0.8,2.9-1c1-0.2,2.1-0.4,3.1-0.6c0.2,0,0.5,0,0.6,0
		c0.3,0.2,0.8,0.2,0.8,0.7c0,0.1,0.1,0.2,0,0.2c-0.2,0.4-0.4,0.9-0.7,1.3c-0.3,0.3-0.8,0.5-1.2,0.2c-0.6-0.3-1.2-0.2-1.8-0.1
		c-1,0.2-1.9,0.4-2.7,1c-0.4,0.3-0.5,0.6-0.4,1c0.1,0.2,0.2,0.4,0.4,0.5c0.8,0.3,1.6,0.7,2.2,1.2c0.1,0.1,0.2,0.1,0.4,0.2
		c0.3,0.1,0.5,0.1,0.7,0.4c0.1,0.1,0.3,0.1,0.5,0.2c0.5,0.1,0.9,0.2,1.2,0.6c0.4,0.5,1,0.6,1.6,0.8c0.4,0.1,0.9,0.2,1.3,0.4
		c0.6,0.3,1.3,0.4,1.9,0.8c0.3,0.2,0.7,0.3,1,0.4c0.5,0.3,0.9,0.6,1.2,1.1c0.4,0.6,0,1-0.5,1.2c-0.2,0.1-0.3,0.1-0.5,0.2
		c-0.4,0.1-0.7,0.3-1.1,0.5c-0.3,0.1-0.6,0.2-0.9,0.1c-0.3-0.1-0.6,0-0.9,0c0,0-0.1,0.1-0.1,0.2c0,0-0.1,0.1-0.1,0.1
		c-0.8-0.2-1.5-0.1-2.3,0.1c-0.4,0.1-0.8,0.2-1.2,0.3c-0.7,0.2-1.3,0.5-2.1,0.5c-0.1,0-0.3,0.1-0.4,0.1c-0.3,0.1-0.5,0-0.5-0.3
		c0-0.4,0.1-0.8,0.5-0.9c0.3-0.1,0.5-0.3,0.7-0.6c0.3-0.4,0.7-0.4,1.1-0.6c0.4-0.2,0.7-0.4,1.1-0.6c0.2-0.1,0.5-0.2,0.7-0.3
		C181.9,168.7,181.9,168.7,181.9,168.7z"/>
	<path d="M103.3,75c-0.8,0-1.5,0.1-2.2,0.1c-0.6,0-1.2,0.1-1.8,0.2c-0.4,0-0.9,0.1-1.3,0.1c-0.6,0-1.2,0.1-1.8,0.1
		c-0.1,0-0.1,0-0.2,0c-0.4,0.4-0.8,0.2-1.2,0.2c-0.4,0-0.8,0-1.2,0.1c-0.8,0.1-1.6,0.1-2.4,0.3c-0.4,0.1-0.8,0.1-1.2,0.1
		c-0.7,0.1-1.3,0.1-2,0.1c-0.1,0-0.2,0-0.3,0c-0.3-0.1-0.6,0-0.9,0.1c-0.2,0.1-0.5,0.1-0.8,0.1c-0.4,0-0.7,0-1.1,0
		c-0.1,0-0.2,0-0.3,0c-0.4-0.1-0.7-0.1-1.1,0.1c-0.2,0.1-0.5,0.1-0.8,0.1c-0.2,0-0.5-0.1-0.7,0.2c0,0-0.2,0-0.2,0
		c-0.3-0.3-0.7-0.1-1-0.1c-0.2,0-0.4,0.1-0.5,0.1c-1.1,0-2.1,0.1-3.2,0.3c-0.6,0.1-1.2,0.1-1.8,0c-0.2,0-0.4-0.1-0.5-0.2
		c-0.1-0.1-0.3-0.2-0.3-0.3c0-0.4,0-0.8,0.1-1.1c0.1-0.4,0.4-0.5,0.9-0.5c0.4,0,0.7-0.2,1.1-0.2c0.4-0.1,0.7,0,1,0.3
		c0.2,0.2,0.5,0.3,0.8,0.2c0.3-0.1,0.7-0.1,1.1-0.1c0.6-0.1,1.2,0,1.8,0c0.5,0,1.1-0.1,1.6,0c0.6,0,1.1-0.1,1.7-0.2
		c0.8-0.1,1.5-0.1,2.3,0c0.2,0,0.4,0,0.6,0c0.3-0.1,0.7-0.2,1-0.1c0.1,0,0.2,0,0.4,0c0.6,0,1.2-0.1,1.8-0.1c0.1,0,0.2,0,0.3,0
		c0.9-0.3,1.8-0.3,2.8-0.4c0.8-0.1,1.6-0.1,2.4-0.1c0.6,0,1.2-0.1,1.8-0.2c0.2,0,0.3-0.1,0.5-0.1c0.8,0.2,1.5-0.1,2.2-0.3
		c0.2,0,0.4,0,0.5,0c0.6,0,1.2,0.1,1.7-0.2c0.1,0,0.2,0,0.2,0c0.1,0.1,0.2,0.1,0.4,0c0.2-0.1,0.4-0.1,0.6,0c0,0,0.1,0,0.2,0
		c0.5-0.2,1.1-0.1,1.6,0c0.1,0,0.3,0,0.4-0.1c0.4-0.3,0.9-0.4,1.4-0.3c0.1,0,0.1,0,0.2,0c0.5-0.3,1.1-0.2,1.6-0.4
		c0.5-0.2,1.2,0.3,1.2,0.9c0,0.7-0.2,1-0.8,1.2c-0.2,0.1-0.3,0.2-0.5,0.2c-0.1,0-0.3,0.1-0.5,0c-0.6-0.3-1.2-0.1-1.8-0.1
		c-0.2,0-0.4,0-0.6,0c0,0,0,0-0.1,0c-0.4,0.4-0.9,0-1.3,0.2c0,0-0.1,0-0.1,0C104.1,75,103.6,75,103.3,75z"/>
	<path d="M107.8,58.1c-0.1,0.4-0.3,0.8-0.7,1.1c-0.3,0.2-0.7,0.1-1-0.1c-0.3-0.2-0.6-0.5-1-0.3c-0.7-0.3-1.4,0.1-2.1,0.1
		c-0.4,0-0.9,0.3-1.4,0.5c-0.2,0.1-0.5,0.2-0.7,0.4c-0.5,0.4-0.6,0.7,0,1.2c0.8,0.6,1.6,1.1,2.3,1.8c0.4,0.4,1,0.8,1.5,1.1
		c0.7,0.4,1.1,1,1.7,1.4c0.1,0,0.1,0.1,0.2,0.2c0.3,0.3,0.8,0.4,1,0.9c0.2,0.4,0.7,0.6,1,0.9c0.3,0.3,0.7,0.6,1,0.9
		c1,0.9,1.9,1.7,2.9,2.5c0.6,0.5,1.2,1.1,1.8,1.7c0.1,0.1,0.2,0.2,0.2,0.3c0.3,0.6,0.3,0.9-0.3,1.2c-0.1,0-0.1,0.1-0.2,0.1
		c-0.5,0.4-1,0.3-1.2-0.3c-0.1-0.3-0.3-0.5-0.5-0.8c-0.6-0.5-1.1-1.2-1.8-1.5c-0.1,0-0.2-0.1-0.2-0.2c-1.1-1-2.2-2.1-3.3-3.1
		c-0.6-0.6-1.4-1.1-2-1.8c-1.4-1.4-3.1-2.4-4.7-3.6c-0.3-0.2-0.6-0.5-1.1-0.3c-0.3,0.1-0.5-0.2-0.7-0.5c-0.2-0.3-0.4-0.7-0.6-1
		c-0.2-0.4-0.1-0.9,0.3-1.1c0.3-0.2,0.5-0.4,0.7-0.7c0.2-0.3,0.5-0.4,0.8-0.6c0.4-0.3,0.7-0.5,1.1-0.8c0.1-0.1,0.2-0.1,0.4-0.2
		c0.6-0.2,1.2-0.4,1.9-0.6c0.1,0,0.3-0.1,0.3-0.1c0.5,0.3,1.1,0.1,1.6,0.1c0.5,0,1-0.1,1.5-0.1C107.3,56.7,107.8,57.2,107.8,58.1z"
		/>
	<path d="M193.7,174.2c-0.5,0-1-0.1-1.5-0.1c-0.4,0-0.5-0.3-0.4-0.6c0-0.1,0.1-0.3,0.2-0.4c0.2-0.3,0.4-0.5,0.6-0.8
		c0.3-0.4,0.6-0.6,1.1-0.5c0.2,0,0.3,0,0.5,0c0.9,0,1.3,0.9,1,1.7C194.9,174.1,194.4,174.3,193.7,174.2z"/>
</g>
</svg>
