<?xml version="1.0" encoding="utf-8"?>
<!-- Generator: Adobe Illustrator 24.0.2, SVG Export Plug-In . SVG Version: 6.00 Build 0)  -->
<svg version="1.1" id="Layer_1" xmlns="http://www.w3.org/2000/svg" xmlns:xlink="http://www.w3.org/1999/xlink" x="0px" y="0px"
	 viewBox="0 0 218.9 216.7" style="enable-background:new 0 0 218.9 216.7;" xml:space="preserve">
<g>
	<path d="M117.7,155.2c-0.1-0.6,0.1-1,0.4-1.3c0.4-0.4,1.3-0.4,1.7,0c0.3,0.4,0.5,0.8,0.4,1.5c-0.3,1.3-0.9,2.6-1.3,3.8
		c-0.3,0.7-0.6,1.5-1,2.2c-0.7,1.5-1.5,3-2.3,4.6c-0.3,0.7-0.6,1.4-0.9,2.1c-0.1,0.2-0.3,0.5-0.4,0.7c-0.1,0.2-0.1,0.3,0.1,0.4
		c0.5,0.4,0.5,0.4,0.2,0.9c-0.2,0.3-0.4,0.5-0.7,0.7c-0.4,0.1-0.7,0.4-0.9,0.8c-0.9,1-1.2,2.3-1.7,3.5c-0.3,0.8-0.5,1.7-0.9,2.5
		c-0.3,0.7-0.6,1.4-0.8,2.1c-0.3,1.1-0.8,2.1-0.9,3.3c0,0.4-0.2,0.8-0.3,1.2c-0.1,0.5-0.5,0.7-0.9,1c-0.3,0.2-0.6,0.3-1,0.2
		c-0.1,0-0.3,0-0.4-0.1c-0.4-0.3-0.4-0.8-0.7-1.1c0,0,0-0.2,0.1-0.3c0.5-0.4,0.6-1,0.7-1.5c0.3-0.8,0.5-1.6,0.7-2.3
		c0.2-0.5,0.4-1.1,0.6-1.6c0.6-1.5,1.1-3,1.7-4.5c0.4-1,0.9-2,1.3-2.9c0-0.1,0.1-0.2,0.2-0.3c0.3-0.4,0.3-0.5-0.2-0.7
		c-0.4-0.2-0.7-0.4-1.1-0.6c-0.6-0.3-1.1-0.6-1.7-1c-0.5-0.3-1.1-0.5-1.6-0.8c-0.7-0.4-1.3-0.9-2-1.4c-0.6-0.4-1.2-0.8-1.8-1.2
		c-0.7-0.5-1.5-0.9-2.2-1.5c-0.1-0.1-0.3-0.2-0.5-0.2c0.1,0.2,0.1,0.4,0.2,0.5c0.2,0.4,0.5,0.8,0.7,1.1c0.1,0.2,0.2,0.5,0.3,0.7
		c0,0.2,0,0.4,0.1,0.5c0.1,0.6-0.2,1.1-0.8,1.2c-0.7,0.1-1.4,0.3-2.2,0.3c-0.6,0-1.2,0.1-1.8,0c-0.5,0-1,0-1.5,0
		c-0.2,0-0.3,0.3-0.5,0.2c0,0-0.1,0.1-0.1,0.1c0,0.1,0,0.2,0,0.2c0.3,0.9,0.5,1.8,0.9,2.7c0.1,0.2,0.1,0.5,0.2,0.8
		c0.5,1,0.8,2,0.8,3.1c0,0.7-0.3,1.1-0.8,1.4c-0.6,0.4-1.3,0.5-2,0.2c-0.1-0.1-0.3-0.1-0.5-0.1c-0.8,0-1.5-0.2-2.2-0.6
		c-0.5-0.3-1.1-0.5-1.5-0.9c-0.9-0.7-1.7-1.4-2.5-2.1c-0.3-0.2-0.2-0.2-0.4,0.1c-0.3,0.8-0.3,1.6-0.7,2.4c-0.5,0.9-0.8,1.9-1.2,2.8
		c-0.3,0.5-0.3,1.1-0.5,1.6c-0.1,0.3-0.1,0.6-0.3,0.8c-0.3,0.5-0.8,0.7-1.3,0.6c-0.5-0.1-0.9-0.7-0.9-1.2c0-0.2,0.1-0.4,0.2-0.5
		c0.2-0.3,0.3-0.5,0.2-0.9c0,0,0.2-0.1,0.2-0.2c0.4-1,0.9-1.9,1.3-2.9c0.3-0.8,0.7-1.6,0.9-2.4c0.2-0.6,0.3-1.3,0.4-1.9
		c0.1-0.3,0-0.6-0.2-0.9c-0.2-0.2-0.3-0.6-0.4-0.9c0-0.1,0-0.3,0-0.4c0.2-0.6,0.4-1.2,1.1-1.5c0.1,0,0.2-0.1,0.3-0.2
		c0.5-0.3,0.5-0.7,0.5-1.2c0-0.7,0.2-1.3,0.4-1.9c0.2-0.4,0.1-0.9,0.2-1.3c0.1-0.4,0-0.8,0.1-1.2c0.2-0.9,0.3-1.8,0.4-2.8
		c0.1-0.6,0.1-1.3,0.2-1.9c0-0.4,0.1-0.8,0.1-1.2c0-0.2,0.1-0.5,0.2-0.7c0.3-0.7,1.2-0.8,1.7-0.2c0.3,0.4,0.7,0.6,1,1
		c0.5,0.8,1,1.5,1.5,2.2c0.1,0.2,0.2,0.4,0.2,0.6c0.2,0.8,0.6,1.5,0.8,2.3c0.1,0.7,0.3,1.4,0.5,2.1c0.2,0.6,0.4,1.2,0.6,1.8
		c0.1,0.3,0.3,0.4,0.6,0.4c0.5,0,1,0,1.4,0c0.6,0,1.3-0.1,1.9-0.1c0.5,0,1,0,1.5-0.1c0.2,0,0.3,0,0.1-0.3c-0.3-0.4-0.5-0.7-0.7-1.1
		c-0.4-0.8-0.9-1.6-0.9-2.5c0-0.2-0.1-0.4-0.2-0.6c-0.2-0.4-0.4-0.9-0.6-1.3c-0.1-0.1-0.1-0.3,0-0.5c0.1-0.3,0.2-0.5,0.3-0.8
		c0.1-0.1,0.2-0.2,0.3-0.2c0.6-0.3,1.5-0.1,1.9,0.5c0.1,0.1,0.1,0.2,0.2,0.3c0.5,1,1.5,1.5,2.3,2.2c0.6,0.5,1.3,1,1.9,1.5
		c0.2,0.2,0.5,0.4,0.7,0.6c0.1,0.1,0.1,0.1,0.2,0.2c1.2,0.6,2.1,1.5,3.2,2.2c0.6,0.4,1.3,0.7,2,1.1c0.6,0.3,1.3,0.7,2,1
		c0.3,0.1,0.4,0.1,0.5-0.2c0.1-0.2,0.3-0.5-0.1-0.8c-0.1,0-0.1-0.2,0-0.4c0-0.2,0.1-0.3,0.2-0.5c0.1-0.2,0.2-0.4,0.5-0.3
		c0.2,0,0.5,0.1,0.4,0.4c0,0.1,0.1,0.2,0.1,0.3c0.1-0.1,0.2-0.1,0.2-0.2c0.3-0.7,0.6-1.4,1-2.1c0.4-0.8,0.8-1.6,1.2-2.4
		c0.4-0.9,1-1.7,1.2-2.7c0.1-0.2,0.2-0.4,0.3-0.6c0.2-0.5,0.4-1.1,0.6-1.6C117.6,156.1,117.6,155.6,117.7,155.2z M91.8,174.8
		c0.4-0.1,0.8-0.1,1.2-0.2c0.4-0.1,0.5-0.2,0.4-0.6c-0.1-0.3-0.2-0.7-0.3-1c-0.5-1.4-0.9-2.8-1.4-4.2c-0.1-0.2-0.2-0.4-0.2-0.5
		c-0.1-0.2-0.2-0.3-0.4-0.2c-0.6,0.1-1.2,0.2-1.8,0.4c-0.6,0.2-1.2,0.1-1.8,0.3c-0.5,0.2-0.7,0.4-0.7,0.8c0,0.1-0.1,0.3-0.1,0.4
		c-0.2,0.4-0.2,0.7-0.1,1.1c0.1,0.3,0.3,0.7,0.5,0.9c0.3,0.2,0.5,0.5,0.8,0.7c0.7,0.6,1.5,1.2,2.3,1.6
		C90.6,174.5,91.2,174.8,91.8,174.8z M87.7,166.4c0.9-0.2,1.9-0.1,2.7-0.6c0,0,0.1,0,0.2,0c0.3,0.1,0.3-0.1,0.3-0.4
		c-0.1-0.6-0.3-1.1-0.4-1.7c-0.2-0.7-0.4-1.4-0.6-2c-0.2-0.5-0.3-1.1-0.5-1.6c-0.2-0.5-0.5-0.9-0.8-1.4c0,0-0.1-0.1-0.1-0.1
		c0,0.1,0,0.1,0,0.2c-0.1,0.4-0.1,0.9-0.2,1.3c0,0.5-0.2,0.9,0,1.4c-0.2,0.4-0.4,0.9-0.6,1.3c-0.1,0.3-0.3,0.7-0.2,1
		c0.1,0.5,0,0.8-0.2,1.2c0,0.1-0.1,0.2-0.1,0.3c0.2,0.4,0.1,0.7,0,1c0,0.1,0.1,0.2,0.1,0.2C87.5,166.5,87.6,166.4,87.7,166.4z"/>
	<path d="M101.8,81.3c-0.1,0.8-0.1,1.7-0.2,2.5c0,0.1,0,0.2,0,0.3c0,0.4,0,0.8,0,1.2c0,0.7,0,1.5,0.1,2.2c0.1,1.1,0.2,2.3,0.4,3.4
		c0.1,0.5-0.1,1-0.4,1.4c-0.2,0.3-0.2,0.5-0.6,0.6c-0.7,0.2-1.3-0.2-1.3-0.9c-0.1-1.2-0.2-2.4-0.4-3.7c0-0.4-0.2-0.8-0.4-1.1
		c-0.7-0.8-0.9-1.8-1-2.8c0-0.1,0-0.1,0-0.2c-0.4-0.9,0-1.8,0.2-2.7c0.1-0.2,0.3-0.4,0.4-0.6c0.1-0.1,0.2-0.3,0.3-0.5
		c0-0.1,0-0.2,0-0.2c-0.1,0-0.2-0.1-0.3,0c-0.3,0-0.5,0.1-0.8,0.2c-0.1,0-0.2,0-0.2,0.1c-0.6,0.5-1.5,0.5-2.2,0.7
		c-0.6,0.2-0.6,0.2-0.6,0.8c0,0.7,0.1,1.5,0.3,2.2c0.4,1.2,0.6,2.4,0.9,3.7c0.1,0.5,0.2,1,0.4,1.5c0.3,1.3,0.2,2.4-0.8,3.3
		c-0.9,0.8-2.1,1-3.4,0.4c-1-0.5-1.8-1.1-2.7-1.7c-0.1,0-0.1-0.1-0.2-0.2c-0.5-0.6-0.9-1.1-1.3-1.7c-0.3-0.4-0.7-0.8-1-1.3
		c-0.1-0.2-0.3-0.2-0.4,0c-0.4,0.8-0.7,1.7-1.1,2.5c-0.2,0.5-0.3,1-0.6,1.4c-0.4,0.7-0.6,1.4-0.9,2.2c-0.1,0.4-0.4,0.7-0.8,0.8
		c-0.3,0-0.5,0.1-0.8,0c-0.6-0.1-0.9-0.7-0.7-1.3c0-0.1,0-0.1,0.1-0.2c0.7-1.4,1.5-2.9,2.2-4.3c0.2-0.4,0.4-0.9,0.6-1.4
		c0.2-0.5,0.4-1.1,0.6-1.6c0.1-0.2,0.1-0.5,0.1-0.7c0-0.9,0.3-1.6,0.8-2.3c0-0.1,0.1-0.1,0.1-0.2c0.3-0.8,0.6-1.6,0.9-2.4
		c0.2-0.5,0.4-1.1,0.6-1.6c0.1-0.4,0.3-0.8,0.4-1.2c0.1-0.4,0.2-0.9,0.4-1.3c0.2-0.7,0.4-1.3,0.7-2c0.4-0.9,0.7-1.9,0.8-2.9
		c0.1-0.7,0.5-1.1,1.2-1.1c0.3,0,0.5,0.1,0.6,0.3c0.3,0.4,0.6,0.8,0.8,1.3c0.3,0.6,0.5,1.3,0.7,2c0.2,0.7,0.1,1.4,0.5,2.1
		c0.4,0.7,0.3,1.5,0.4,2.3c0.1,0.6,0.2,0.6,0.7,0.4c0.2-0.1,0.4-0.1,0.6-0.1c0.8-0.2,1.6-0.4,2.4-0.7c0.7-0.2,1.3-0.5,2-0.7
		c0.3-0.1,0.7-0.2,1,0.1c0.2,0.2,0.3,0.1,0.5,0c0.4-0.3,0.8-0.6,1.1-0.9c0.9-0.8,1.9-1.5,3-2.1c0.3-0.2,0.7-0.1,0.7-0.6
		c0.3,0,0.6-0.2,0.9-0.3c0.3-0.1,0.6-0.2,0.9-0.3c1.3-0.5,2.7-0.9,4.1-1.1c0.8-0.1,1.6-0.1,2.4,0.2c0.6,0.2,1,0.6,1.4,1.2
		c0.3,0.6,0.4,1.2,0.6,1.9c0.1,0.2,0,0.6-0.1,0.8c-0.3,1-0.6,1.9-1.1,2.7c-0.3,0.6-0.7,1.2-1.1,1.7c-0.6,0.7-1.2,1.4-1.8,2.2
		c-0.4,0.6-0.7,1.2-1,1.9c-0.2,0.6-0.1,1.1,0,1.7c0.1,0.2,0.2,0.4,0.4,0.5c0.5,0.3,1,0.6,1.6,0.7c0.7,0.1,1.4,0.4,2.2,0.3
		c0.1,0,0.2,0,0.3,0c1.2,0.2,2.5,0,3.7,0c0.4,0,0.8,0,1.3,0.1c0.4,0,0.9-0.3,1.3-0.4c0.2-0.1,0.3-0.2,0.5-0.3c0.1,0,0.2,0,0.3,0
		c0.1,0.1,0.1,0.2,0.1,0.3c-0.1,0.2-0.2,0.5-0.4,0.7c-1,0.9-2.1,1.6-3.5,1.5c-0.5,0-1.1,0.1-1.6,0.1c-1.8,0.1-3.6,0.3-5.3-0.3
		c-0.9-0.3-1.6-0.8-2.2-1.3c-0.2-0.2-0.3-0.5-0.4-0.7c-0.6-1.3-0.6-2.5,0-3.8c0.4-0.9,1.1-1.6,1.7-2.4c0.8-1,1.6-1.9,2.2-3.1
		c0.4-0.7,0.7-1.5,1-2.3c0.1-0.4,0.1-0.8,0-1.2c-0.1-0.3-0.3-0.6-0.6-0.6c-0.6,0-1.2-0.1-1.8,0c-0.4,0-0.8,0.2-1.2,0.3
		c-0.6,0.2-1.2,0.2-1.7,0.5c-0.8,0.4-1.6,0.8-2.4,1.3c-0.1,0-0.1,0.1-0.2,0.1c-0.6,0.2-1,0.7-1.6,1c-0.1,0.1-0.2,0.1-0.3,0.2
		c-0.2,0.3-0.6,0.5-0.9,0.8c-0.5,0.4-1.1,0.8-1.6,1.2c-0.1,0.1-0.1,0.2-0.1,0.4C101.7,80.7,101.7,81,101.8,81.3
		C101.7,81.3,101.8,81.3,101.8,81.3z M93.1,86C93.1,86,93.1,86,93.1,86c0-0.3,0-0.7-0.1-1c-0.1-0.7-0.3-1.4-0.4-2.1
		c0-0.1-0.1-0.2-0.1-0.3c-0.1-0.2-0.2-0.3-0.4-0.2c-0.6,0.3-1.3,0.5-1.9,0.9c-0.7,0.4-1.4,0.8-2.1,1.2c-0.4,0.2-0.7,0.7-0.8,1.1
		c0,0.3-0.2,0.6-0.1,0.9c0,0.3,0.3,0.5,0.4,0.8c0,0,0,0,0,0.1c0.2,0.5,0.4,1,0.7,1.5c0,0.1,0.1,0.2,0.2,0.3c0.3,0.1,0.3,0.3,0.4,0.5
		c0.1,0.2,0.5,0.1,0.6,0.5c0.1,0.2,0.3,0.4,0.5,0.5c0.8,0.5,1.7,0.9,2.7,1c0.4,0,0.8,0,1.2-0.1c0.4-0.1,0.6-0.5,0.6-0.9
		c-0.1-0.4-0.1-0.8-0.2-1.2c-0.1-0.6-0.3-1.2-0.4-1.7c-0.1-0.4-0.2-0.8-0.3-1.2C93.3,86.3,93.2,86.2,93.1,86z M91.9,78.9
		C91.9,78.9,92,78.9,91.9,78.9c0.1-0.1,0.1-0.3,0-0.4c-0.1-0.6-0.3-1.2-0.4-1.8c-0.1-0.4-0.1-0.7-0.3-1.1c0-0.1-0.2-0.2-0.3-0.4
		c-0.1,0.1-0.2,0.2-0.3,0.3c0,0,0,0.1-0.1,0.2c-0.3,0.8-0.6,1.6-0.9,2.5c-0.1,0.3-0.3,0.5-0.3,0.8c-0.2,0.9-0.3,1.7-0.7,2.6
		c0,0.1-0.1,0.1-0.1,0.2c0,0,0,0.1,0,0.1c0,0,0.1,0,0.1,0c0.4-0.3,0.9-0.5,1.4-0.7c0.5-0.2,1-0.4,1.6-0.6c0.4-0.1,0.5-0.4,0.4-0.7
		C92,79.5,92,79.2,91.9,78.9z"/>
	<path d="M78.5,91.9c-0.1-1.1-0.2-2.3-0.3-3.4C78.1,87.8,78,87,78,86.3c0-0.4-0.1-0.8-0.1-1.1c-0.1-0.8-0.2-1.6-0.4-2.5
		c-0.1-0.5-0.3-1-0.4-1.5c-0.2-0.8-0.3-1.6-0.4-2.4c-0.1-0.6-0.1-1.2-0.2-1.8c0-0.1,0-0.1-0.1-0.2c-0.3-0.4-0.4-0.9-0.5-1.4
		c0-0.1-0.1-0.2-0.2-0.3c-0.1,0.1-0.1,0.2-0.2,0.3c-0.2,0.7-0.4,1.4-0.7,2.1c-0.2,0.5-0.3,1-0.5,1.5c-0.3,0.8-0.7,1.5-0.8,2.3
		c-0.1,0.5-0.4,0.9-0.6,1.4c-0.2,0.6-0.4,1.2-0.6,1.9c-0.2,0.5-0.5,1.1-0.6,1.6C71.5,87.1,71,88,70.9,89c0,0.3-0.2,0.6-0.3,0.9
		c-0.2,1.1-0.7,2.2-0.8,3.3c-0.1,0.7-0.4,1.1-1,1.2c-0.1,0-0.2,0.1-0.2,0.1c-0.7,0.2-1.4-0.1-1.4-0.9c-0.1-0.8-0.3-1.6-0.4-2.4
		c-0.1-0.5-0.1-1-0.1-1.5c0-0.2-0.1-0.3-0.1-0.5c-0.1-0.8-0.1-1.6-0.2-2.4c0-0.4-0.1-0.9-0.2-1.3c0-0.5-0.1-1.1-0.1-1.6
		c0-0.7-0.1-1.3-0.1-2c0-0.1,0-0.1,0-0.2c-0.1-0.2-0.1-0.3-0.2-0.5c-0.1,0.1-0.2,0.2-0.2,0.4c-0.3,0.6-0.5,1.2-0.8,1.8
		c-0.1,0.3-0.3,0.6-0.4,0.9c-0.5,1.3-1.1,2.6-1.6,3.8c-0.1,0.2-0.2,0.3-0.3,0.5c-0.2,0.4-0.3,0.7-0.5,1.1c-0.5,0.9-1,1.8-1.5,2.7
		c-0.1,0.2-0.2,0.5-0.3,0.7c-0.4,0.5-0.5,1.1-0.7,1.6c-0.2,0.4-0.4,0.7-0.6,1.1c0,0.1-0.1,0.1-0.2,0.2c-0.2,0.1-0.5,0.2-0.7,0.3
		c-0.5,0.3-0.7,0.2-1-0.3c-0.4-0.8-0.4-1.7-0.4-2.6c-0.1-1,0-2,0.1-3c0.1-0.5,0-1,0.1-1.5c0.1-0.5,0.2-1.1,0.4-1.6
		c0.1-0.6,0.3-1.3,0.4-1.9c0.2-1.1,0.4-2.2,0.7-3.3c0.3-1.1,0.5-2.3,0.7-3.4c0.1-0.5,0.2-0.9,0.3-1.4c0.2-0.9,0.3-1.8,0.5-2.8
		c0.1-0.4,0.3-0.8,0.5-1.1c0.3-0.3,0.6-0.4,1-0.2c0.5,0.2,0.9,0.5,1,1.1c0,0.3,0.2,0.5,0.4,0.7c0.5,0.6,0.4,1.3,0.2,1.9
		c-0.1,0.2-0.2,0.4-0.5,0.5c-0.3,0-0.4-0.2-0.5-0.4c0-0.1-0.1-0.1-0.1-0.2c0,0.1-0.1,0.1-0.1,0.2c-0.5,1.4-0.8,2.8-0.9,4.3
		c0,0.1,0,0.2,0,0.2c-0.5,1-0.6,2.2-0.8,3.3c-0.1,0.5-0.2,1.1-0.3,1.6c0,0.2-0.1,0.5-0.2,0.7c-0.3,0.9-0.4,1.8-0.5,2.7
		c0,0.2-0.1,0.4-0.1,0.6c0,0.2,0,0.5,0.2,0.5c0.3,0.1,0.4-0.1,0.5-0.3c0.4-0.7,0.7-1.4,1.1-2.1c0.6-1.1,1.1-2.3,1.6-3.5
		c0.3-0.6,0.6-1.2,0.9-1.9c0.2-0.7,0.5-1.3,0.7-2c0-0.1,0.1-0.1,0.1-0.2c0.4-0.7,0.7-1.4,0.9-2.2c0.2-0.6,0.4-1.1,0.6-1.7
		c0.1-0.3,0.2-0.7,0.2-1c-0.1-0.5,0.1-0.8,0.5-1c0.3-0.2,0.6-0.4,0.9-0.2c0.5,0.1,0.9,0.7,0.9,1.2c0,0.3,0.1,0.5,0.1,0.8
		c0,0.1,0.1,0.2,0.1,0.3c-0.1,0.8,0.2,1.6,0.1,2.4c-0.1,0.4,0.1,0.9,0.1,1.4c0,0.5,0,0.9,0,1.4c0,0.2,0,0.4,0,0.5
		c0.2,0.8,0.2,1.6,0.3,2.4c0.1,0.7,0.1,1.4,0.2,2.1c0,0.1,0,0.3,0,0.4c0,0.1,0,0.2,0.1,0.2c0.1,0,0.2,0,0.2-0.1
		c0.1-0.2,0.2-0.3,0.2-0.5c0.2-0.6,0.4-1.1,0.6-1.7c0.1-0.3,0.3-0.6,0.4-0.9c0.2-0.5,0.4-1,0.6-1.6c0.2-0.6,0.5-1.2,0.7-1.8
		c0.1-0.3,0.2-0.7,0.3-1c0.2-0.5,0.3-1,0.6-1.5c0.3-0.6,0.3-1.4,0.8-1.9c0.1-0.2,0.1-0.5,0.2-0.7c0.2-0.9,0.5-1.8,0.7-2.7
		c0.1-0.4,0.1-0.8,0.2-1.2c0.1-0.5,0.4-1,0.5-1.5c0.1-0.3,0.2-0.5,0.5-0.6c0.1,0,0.3,0,0.5,0c0.2,0,0.3,0,0.5,0.1
		c0.5,0,0.8,0.2,0.9,0.7c0.4,1,0.8,2,1.1,3.1c0.2,0.6,0.3,1.3,0.4,1.9c0.2,1.3,0.4,2.5,0.6,3.8c0.1,0.8,0.3,1.5,0.4,2.3
		c0.1,0.4,0.3,0.8,0.3,1.2c0.1,0.7,0.2,1.4,0.2,2.1c0.1,0.5,0.1,1,0.2,1.5c0.1,0.5,0.3,1.1,0.2,1.6c0,0.5,0.1,1,0.1,1.5
		c0,0.7,0.1,1.3,0.3,1.9c0.1,0.4,0.1,0.8,0,1.2c0,0.5-0.4,0.7-0.9,0.7c-0.4,0-0.7,0-1.1,0c-0.2,0-0.3-0.1-0.4-0.3
		C78.3,93.3,78.5,92.6,78.5,91.9z"/>
	<path d="M95.6,51.6c0.1-1.1,0.2-2,0.3-2.9c0.1-0.6,0.2-1.1,0.2-1.7c0.1-1.6,0.3-3.2,0.8-4.8c0.1-0.5,0.1-1,0.4-1.5
		c0.1-0.2,0-0.5,0.1-0.8c0.1-0.4,0.2-0.7,0.3-1.1c0.1-0.3,0.1-0.7,0.2-1.1c0-0.2,0.1-0.4,0.1-0.6c0.1-0.2,0.1-0.4-0.1-0.5
		c-0.3-0.3-0.2-0.6,0-0.8c0.3-0.3,0.4-0.7,0.6-1.1c0.1-0.1,0.2-0.3,0.2-0.4c0.4-0.6,0.5-0.7,1.2-0.4c0.3,0.1,0.6,0.1,0.9,0
		c0.4-0.2,0.8-0.4,1.3-0.5c1.2-0.4,2.5-0.7,3.8-0.8c1.2-0.1,2.4-0.2,3.6-0.3c0.7,0,1.4,0,2.1,0c1.3,0,2.6,0.2,3.8,0.6
		c0.6,0.2,1.2,0.5,1.7,0.9c0.4,0.3,0.6,0.6,0.8,1c0.4,0.6,0.3,1.2,0.1,1.8c-0.1,0.3-0.3,0.6-0.5,0.8c-0.9,0.8-1.7,1.8-2.8,2.3
		c-0.4,0.2-0.8,0.5-1.2,0.7c-0.2,0.1-0.3,0.2-0.5,0.3c-1.3,0.6-2.6,1.1-4,1.7c-0.2,0.1-0.1,0.1,0,0.2c0.2,0.2,0.4,0.2,0.6,0.2
		c1,0.1,1.8,0.6,2.7,0.9c0.2,0.1,0.3,0.1,0.4,0.2c0.9,0.3,1.8,0.7,2.6,1.3c0.2,0.1,0.3,0.3,0.5,0.5c0.2,0.2,0.4,0.3,0.7,0.5
		c0.3,0.2,0.6,0.4,0.8,0.7c0.4,0.4,0.7,0.9,1,1.3c0.2,0.2,0.2,0.5,0.4,0.7c0.1,0.1,0.1,0.3,0.2,0.4c0.4,0.5,0.6,1,0.6,1.6
		c0,0.1,0,0.3,0,0.4c0.1,0.4,0,0.7-0.2,1c-0.4,1-1.2,1.9-2,2.6c-0.3,0.3-0.8,0.5-1.2,0.8c-0.1,0.1-0.2,0.1-0.3,0.2
		c-0.8,0.6-1.6,1-2.5,1.4c-0.3,0.1-0.6,0.3-1,0.5c-1.1,0.4-2.2,0.6-3.2,0.9c-0.8,0.2-1.6,0.4-2.3,0.6c-1.2,0.3-2.3,0.5-3.5,0.6
		c-0.2,0-0.3,0.1-0.5,0.1c-0.4,0-0.8,0.1-1.2,0.1c-0.1,0-0.2-0.1-0.3,0c-0.4,0.2-0.9,0.2-1.4,0.2c-0.6,0-1.3,0.1-1.9,0.1
		c-0.6,0-1.2,0.1-1.8,0.1c-0.3,0-0.6,0-0.9-0.1c-0.5-0.1-1-0.8-0.9-1.3c0-0.2,0.2-0.4,0.3-0.5c0.3-0.3,0.7-0.5,1-0.8
		c0.3-0.3,0.8-0.3,1.1-0.1c0.1,0,0.1,0.1,0.2,0.2c0.2,0.5,0.7,0.5,1.1,0.5c0.7,0,1.5-0.1,2.2-0.1c0.2,0,0.4,0,0.6,0
		c0.3,0,0.5,0,0.8,0c0.8-0.1,1.5-0.2,2.2-0.3c0.8-0.1,1.6-0.3,2.3-0.5c0.1,0,0.3-0.1,0.4-0.1c0.8-0.2,1.6-0.3,2.4-0.5
		c0.7-0.2,1.4-0.5,2.1-0.7c0.7-0.3,1.5-0.5,2.2-0.8c0,0,0.1,0,0.1,0c1-0.7,2.2-1.2,3.1-2.1c0.2-0.2,0.3-0.4,0.5-0.6
		c0.6-0.7,0.5-1.5,0.2-2.3c-0.3-0.6-0.7-1-1-1.5c-0.7-1-1.7-1.4-2.6-2.1c-0.1-0.1-0.2-0.2-0.3-0.2c-0.3-0.1-0.6-0.3-0.9-0.4
		c-0.4-0.2-0.9-0.3-1.3-0.5c-0.1,0-0.2-0.1-0.3-0.1c-0.6-0.1-1.2-0.3-1.8-0.4c-0.7-0.2-1.4-0.3-2-0.5c-0.2,0-0.5,0-0.7,0
		c-0.3-0.1-0.6-0.1-0.9-0.1c-0.6,0-1.2,0.2-1.8,0.3c-0.3,0.1-0.6,0.1-0.9,0.1c-0.3,0-0.6,0.1-0.9,0.2c-0.1,0-0.2,0-0.3,0
		c-0.3,0-0.5-0.1-0.8-0.1c-0.6,0-1-0.2-1.3-0.7c-0.1-0.2-0.1-0.2-0.2,0c-0.1,0.3-0.2,0.6-0.3,1c-0.3,1.3-0.3,2.6-0.4,4
		c-0.1,0.7-0.1,1.4-0.2,2.1c-0.1,0.4-0.2,0.9-0.4,1.3c-0.2,0.3-0.6,0.5-1,0.8c-0.2,0.1-0.7-0.2-0.8-0.5
		C95.7,52.2,95.6,51.8,95.6,51.6z M115.8,35.7c-0.1-0.1-0.1-0.3-0.2-0.3c-0.5-0.3-1.1-0.5-1.7-0.8c-0.2-0.1-0.4-0.1-0.6-0.1
		c-0.4-0.1-0.8-0.2-1.2-0.2c-1.4,0-2.8,0-4.2,0c-0.4,0-0.8,0.1-1.2,0.2c-0.7,0.2-1.4,0.4-2.2,0.4c-0.1,0-0.2,0-0.3,0
		c-0.8,0.2-1.4,0.7-2.2,0.9c-0.1,0-0.2,0.1-0.3,0.1c-0.3,0.1-0.5,0.3-0.8,0.3c-0.4,0.1-0.6,0.3-0.7,0.7c-0.1,0.5-0.2,1-0.3,1.6
		c-0.1,1-0.5,1.9-0.7,2.9c-0.1,0.3-0.2,0.5-0.2,0.8c0,0.1,0,0.3,0,0.4c0.1,0,0.3-0.1,0.4-0.1c0.2-0.1,0.4-0.3,0.7-0.4
		c0.8-0.2,1.7-0.4,2.5-0.6c0.9-0.2,1.9-0.4,2.8-0.6c0.2,0,0.3-0.1,0.5-0.1c0.8-0.2,1.5-0.4,2.3-0.7c1.1-0.4,2.2-0.8,3.2-1.3
		c0.2-0.1,0.4-0.2,0.6-0.3c0.8-0.5,1.5-0.9,2.3-1.4c0.3-0.2,0.6-0.4,0.9-0.7C115.5,36.3,115.6,36,115.8,35.7z"/>
	<path d="M79,166.2c0,1.2,0,2.3,0.1,3.5c0.1,1.2,0.4,2.4,0.6,3.6c0.2,1.1,0.4,2.2,0.6,3.3c0,0.2,0.1,0.4,0.2,0.6
		c0.2,0.4,0,0.7-0.2,0.9c-0.3,0.3-0.5,0.8-1,0.6c-0.2,0.3-0.5,0.1-0.7,0.1c-0.4,0-0.6-0.2-0.6-0.6c0-0.7-0.2-1.4-0.3-2.1
		c-0.1-0.8-0.3-1.6-0.5-2.4c0-0.2-0.1-0.4-0.1-0.6c-0.1-0.5,0-1-0.2-1.5c-0.3-1.2-0.3-2.4-0.3-3.6c0-0.7-0.1-1.4-0.2-2.1
		c0-0.5-0.1-1-0.2-1.5c0-0.2-0.2-0.2-0.3-0.1c-0.1,0.1-0.2,0.3-0.3,0.5c-0.1,0.3-0.2,0.6-0.4,0.9c-0.1,0.3-0.2,0.6-0.4,0.9
		c-0.2,0.3-0.3,0.7-0.5,1c0,0.1-0.1,0.2-0.1,0.3c-0.3,1.4-1.1,2.5-1.8,3.7c-0.3,0.4-0.4,0.9-0.7,1.4c-0.4,0.7-0.8,1.3-1.2,1.9
		c-0.1,0.2-0.2,0.4-0.3,0.6c-0.4,0.6-0.8,1.3-1.2,1.9c-0.3,0.4-0.7,0.8-1.2,1c-0.3,0.1-0.5,0-0.6-0.2c-0.3-0.4-0.6-0.8-0.8-1.2
		c-0.2-0.3-0.3-0.6-0.5-0.9c-0.2-0.5-0.4-1-0.6-1.5c-0.3-0.9-0.5-1.8-0.8-2.7c-0.1-0.3-0.2-0.7-0.3-1c0-0.1,0-0.2-0.1-0.3
		c0-0.3,0-0.5-0.1-0.8c-0.2-0.8-0.4-1.7-0.5-2.6c0-0.3-0.1-0.7-0.2-1c-0.1-0.5-0.2-0.9-0.4-1.4c0-0.1-0.1-0.1-0.1-0.2
		c0,0.1-0.1,0.1-0.1,0.2c-0.2,0.3-0.4,0.7-0.5,1c-0.3,0.7-0.6,1.4-0.9,2.1c-0.3,0.7-0.6,1.4-0.8,2.1c-0.2,0.5-0.5,1.1-0.7,1.6
		c-0.2,0.8-0.8,1.5-1.1,2.4c-0.2,0.6-0.5,1.1-0.9,1.5c-0.1,0.1-0.2,0.3-0.2,0.5c-0.1,0.3-0.2,0.6-0.5,0.7c0,0-0.1,0.1-0.1,0.1
		c-0.3,0.8-0.6,1.6-0.9,2.4c-0.2,0.7-0.6,1.2-1.3,1.5c-0.1,0.1-0.4,0.1-0.5,0c-0.3-0.2-0.5-0.4-0.7-0.6c-0.1-0.1-0.1-0.2-0.1-0.3
		c0-0.6,0-1.2,0.1-1.9c0.1-0.7,0.1-1.5,0.2-2.2c0.1-0.9,0.1-1.8,0.3-2.7c0.3-1.5,0.3-3,0.6-4.5c0.1-0.5,0.1-1,0.2-1.5
		c0.1-0.7,0.2-1.4,0.3-2.1c0.1-0.7,0.1-1.4,0.2-2.1c0.1-0.7,0.1-1.3,0-2c-0.1-0.5,0.2-0.9,0.5-1.3c0.1-0.1,0.2-0.1,0.4-0.2
		c0.1,0,0.3,0,0.4-0.1c0.5-0.1,1,0.1,1.1,0.7c0.2,0.7,0.2,1.5,0.1,2.2c-0.1,0.8-0.2,1.7-0.4,2.5c-0.1,1-0.3,2-0.5,2.9
		c-0.2,0.6-0.2,1.3-0.2,1.9c0,0.7-0.2,1.5-0.3,2.2c-0.1,0.5-0.1,0.9-0.1,1.4c0,0.1,0.1,0.2,0.1,0.2c0.1-0.1,0.2-0.1,0.2-0.2
		c0.1-0.3,0.2-0.6,0.4-0.8c0.5-0.8,0.9-1.7,1.3-2.6c0.5-1,0.8-2.1,1.3-3.1c0.2-0.6,0.5-1.2,0.8-1.8c0.4-0.9,0.8-1.8,1.1-2.7
		c0.2-0.6,0.4-1.1,0.5-1.7c0.1-0.6,0.3-0.8,0.9-0.8c0.1,0,0.2,0,0.4,0c0.6-0.1,1,0.2,1.2,0.8c0.2,0.8,0.3,1.5,0.6,2.3
		c0.2,0.5,0.3,1,0.5,1.6c0,0.2,0,0.5,0,0.7c0.1,0.4,0.2,0.7,0.2,1.1c0,1.1,0.5,2,0.6,3.1c0.1,0.7,0.4,1.4,0.6,2.1
		c0.2,0.6,0.3,1.2,0.5,1.8c0.1,0.4,0.2,0.7,0.3,1.1c0.1,0.2,0.2,0.2,0.4,0.1c0.1-0.1,0.2-0.1,0.2-0.2c0.5-0.8,1-1.7,1.6-2.5
		c0.4-0.5,0.5-1.1,0.8-1.5c0.3-0.3,0.5-0.7,0.6-1.1c0.1-0.3,0.2-0.5,0.4-0.8c0.3-0.6,0.7-1.2,1-1.8c0.2-0.3,0.3-0.7,0.4-1
		c0.2-0.4,0.3-0.8,0.4-1.2c0.3-0.8,0.7-1.6,1-2.5c0.2-0.6,0.3-1.2,0.5-1.8c0.1-0.4,0.5-0.7,0.9-0.9c0.6-0.3,1.4,0,1.6,0.7
		c0.3,0.9,0.6,1.8,0.8,2.7C78.9,163.9,79,165,79,166.2z"/>
	<path d="M117.4,179.1c0.6-0.1,1.3-0.2,1.9-0.4c1.1-0.3,2.2-0.5,3.3-0.6c0.4,0,0.8-0.2,1.2-0.2c0.6-0.1,1.2-0.2,1.8-0.2
		c0.3,0,0.6-0.1,0.9-0.2c0.2,0,0.4,0,0.5-0.1c0.4,0,0.7-0.1,1.1-0.1c0.2,0,0.5-0.1,0.7-0.1c0.7-0.1,1.4-0.1,2.1-0.2
		c0.5,0,0.9-0.1,1.4-0.1c1.1-0.1,2.1-0.2,3.2-0.3c0.8-0.1,1.5-0.2,2.3-0.2c0.7-0.1,1.5-0.1,2.2-0.1c0.7,0,1.3-0.2,2-0.2
		c0.7,0,1.5,0,2.2-0.1c1.4,0,2.9-0.1,4.3-0.2c0.4,0,0.9,0,1.3,0c0.8,0,1.6-0.1,2.3-0.1c1.3,0,2.6,0,3.9,0c1,0,1.9,0,2.9,0.1
		c0.8,0,1.7,0,2.5,0c1,0,2,0.1,3,0.1c0.5,0,1,0,1.5,0c0.6,0,1.2,0.1,1.8,0.2c0.4,0,0.8,0,1.2,0c1.1,0,2.2,0.1,3.3,0.1
		c1,0,2.1,0,3.1,0.1c1.5,0,2.9,0.1,4.4,0.1c0.4,0,0.8,0,1.1,0c0.1,0,0.2,0,0-0.1c-0.1-0.1-0.2-0.1-0.2-0.2c0-0.1-0.1-0.3,0-0.4
		c0.1-0.1,0.3-0.2,0.4-0.1c0.3,0.1,0.6,0,0.9-0.1c0.2-0.1,0.4-0.1,0.6,0c0.5,0.2,1,0.3,1.5,0.6c0.5,0.2,0.9,0.5,1.3,0.8
		c0.2,0.1,0.4,0.3,0.5,0.4c0.1,0.1,0.2,0.3,0.2,0.4c0,0.1-0.2,0.2-0.3,0.4c-0.1,0.1-0.2,0.3-0.3,0.4c-0.5,0.5-1.1,0.4-1.7,0.4
		c-0.6,0-1.2-0.1-1.8-0.2c-0.8-0.2-1.6,0-2.3-0.1c-0.8-0.1-1.5-0.1-2.3-0.2c-0.1,0-0.1,0-0.2,0c-1.4,0.1-2.8,0-4.2,0
		c-0.2,0-0.4,0-0.6-0.1c-0.4-0.1-0.7-0.2-1.1-0.1c-0.2,0.1-0.5,0-0.7,0c-1.3,0-2.6-0.1-3.9-0.1c-0.6,0-1.1-0.1-1.7-0.1
		c-1.4,0-2.8-0.1-4.2-0.1c-0.7,0-1.4-0.1-2.1-0.1c-0.1,0-0.2,0-0.3,0c-0.7,0-1.4,0-2.1,0.1c-0.1,0-0.2,0-0.2,0
		c-0.3-0.1-0.7-0.1-1.1,0c-0.8,0.1-1.6,0.2-2.4,0c-0.1,0-0.1,0-0.2,0c-0.7,0.3-1.4,0.1-2.1,0.1c-0.3,0-0.7,0.1-1,0.1
		c-0.3,0-0.7,0-1,0c-1.4,0-2.9,0.2-4.3,0c-0.5,0-0.9,0-1.3,0.1c-0.7,0.2-1.5,0.1-2.2,0.2c-0.7,0-1.5,0-2.2,0.2c-0.3,0.1-0.5,0-0.8,0
		c-0.7,0.1-1.5,0-2.2,0.1c-1,0.1-2,0.2-3,0.4c-0.6,0.1-1.2,0.3-1.8,0.1c-0.1,0-0.2,0-0.2,0c-0.4,0.3-0.8,0.2-1.2,0.2
		c-0.8,0.1-1.6,0.2-2.4,0.3c-0.8,0.1-1.6,0.4-2.3,0.4c-0.8,0-1.5,0.4-2.3,0.3c-0.2,0-0.4,0.2-0.5,0.2c-1,0.2-1.9,0.4-2.9,0.6
		c-0.4,0.1-0.8,0.2-1.3,0.3c-0.6,0.1-1.1,0-1.3-0.4c-0.3-0.6-0.2-1.3,0.1-1.6c0.1-0.1,0.2-0.2,0.3-0.2
		C116.9,179,117.1,179,117.4,179.1C117.4,179,117.4,179,117.4,179.1z"/>
	<path d="M54,129.1c0.4-0.1,0.9-0.1,1.3-0.2c0.2,0,0.5-0.1,0.7-0.1c0.4,0,0.5-0.1,0.6-0.5c0.3-0.8,0.6-1.5,0.9-2.3
		c0.5-1.2,0.9-2.3,1.4-3.5c0.1-0.1,0.1-0.3,0.2-0.4c0.1-0.2,0.2-0.3,0.3-0.5c0.3-0.9,0.5-1.7,0.8-2.6c0-0.2,0.1-0.3,0.2-0.4
		c0.3-0.7,0.5-1.4,0.5-2.1c0-0.1,0-0.1,0-0.2c0,0-0.1,0.1-0.1,0.1c-0.1,0.1-0.1,0.3-0.3,0.1c-0.1-0.1-0.3-0.1-0.1-0.4
		c0.2-0.3,0.4-0.7,0.5-1.1c0.1-0.2,0.2-0.5,0.1-0.7c-0.2-0.6,0.1-0.9,0.4-1.3c0.3-0.4,1.1-0.3,1.4,0.2c0.5,0.8,1.1,1.5,1.1,2.5
		c0,0.1,0,0.1,0,0.2c0.2,0.5,0.4,1,0.6,1.5c0.2,0.6,0.4,1.2,0.6,1.8c0.1,0.3,0.2,0.6,0.3,1c0,0.1,0.1,0.2,0.1,0.3c0,0.1,0,0.2,0,0.2
		c0.1,0.7,0.3,1.3,0.5,2c0.1,0.3,0.1,0.6,0.1,0.9c0,0.1,0,0.2,0.1,0.3c0.1,0.6,0.3,1.2,0.4,1.8c0,0.3,0.1,0.5,0.3,0.7
		c0.2,0.3,0.2,0.7,0.3,1.1c0,0.1,0,0.1,0,0.2c0.1,0.9,0.1,0.8,1,1c0.3,0.1,0.7,0.1,1,0.2c0.4,0.1,0.7,0,0.9-0.2
		c0.3-0.2,0.4-0.2,0.7,0c0.2,0.1,0.2,0.3,0.1,0.5c-0.3,0.4-0.5,1-1.1,1.1c-0.4,0.1-0.9,0.2-1.4,0.2c-0.8,0-0.8,0.1-0.7,0.8
		c0.1,0.5,0.3,1,0.3,1.5c0,0.7,0.2,1.3,0.3,2c0.1,0.8,0,1.5-0.1,2.3c0,0.5-0.3,1-0.7,1.3c-0.6,0.5-1.2,0.9-2,1
		c-0.3,0.1-0.7,0.1-1-0.1c-0.1,0-0.1-0.1-0.2-0.1c-0.6,0.2-1-0.3-1.5-0.5c-0.5-0.2-0.9-0.6-1.2-1.1c-0.2-0.2-0.4-0.5-0.7-0.7
		c-0.1,0-0.1-0.2-0.1-0.3c0.1,0,0.2,0,0.3,0c0.1,0.1,0.3,0.2,0.4,0.2c0.4,0.3,0.8,0.7,1.3,0.8c0.9,0.3,1.8,0.4,2.6-0.2
		c0.2-0.1,0.4-0.4,0.4-0.6c0.1-0.6,0.2-1.2,0-1.8c-0.3-1.1-0.5-2.3-0.6-3.5c0-0.3-0.2-0.6-0.3-0.9c0,0-0.1-0.1-0.1-0.1
		c-0.2,0-0.3,0-0.5,0c-0.9,0-1.7-0.1-2.6-0.1c-1.3-0.1-2.5,0.2-3.7,0.4c-0.1,0-0.3,0.2-0.3,0.3c-0.2,0.7-0.4,1.3-0.7,2
		c-0.4,1.1-0.6,2.3-0.8,3.4c0,0.4-0.2,0.9-0.3,1.3c-0.1,0.4-0.7,1-1.1,1c-0.3,0-0.5-0.1-0.6-0.4c-0.1-0.2-0.1-0.3-0.2-0.5
		c-0.1-0.3-0.2-0.6-0.1-0.9c0.1-0.7,0.3-1.3,0.4-2c0-0.2,0-0.4,0.1-0.6c0.3-0.9,0.5-1.7,0.8-2.6c0.1-0.2,0.1-0.3,0-0.5
		c-0.1-0.2-0.1-0.2-0.3-0.2c-0.5,0.1-1,0-1.5-0.1c-0.1,0-0.2,0-0.2-0.1c-0.1-0.1-0.3-0.2-0.3-0.4c0-0.4-0.6-0.7-0.3-1.2
		c0.2-0.2,0.4-0.4,0.7-0.4C53.6,129,53.8,129,54,129.1C54,129.1,54,129.1,54,129.1z M63.8,128.5c0.2,0,0.4,0,0.5,0
		c0.4,0,0.4-0.1,0.4-0.4c0-0.1,0-0.2,0-0.2c-0.2-1.2-0.4-2.5-0.7-3.7c-0.1-0.4-0.1-0.7-0.2-1.1c-0.2-0.4-0.3-0.9-0.4-1.4
		c0-0.1-0.1-0.2-0.1-0.3c0.1-0.5-0.1-1-0.3-1.4c-0.1-0.2-0.2-0.4-0.3-0.6c-0.1,0.2-0.2,0.4-0.3,0.6c0,0.1-0.1,0.1-0.1,0.2
		c-0.3,0.6-0.5,1.3-0.8,1.9c-0.3,0.6-0.6,1.1-0.7,1.8c0,0.1-0.1,0.2-0.1,0.3c-0.5,1-0.7,2.1-1.3,3.1c-0.1,0.2-0.1,0.5-0.2,0.7
		c-0.1,0.3,0,0.4,0.2,0.4c0.2,0,0.5,0,0.7,0c0.4,0,0.8-0.1,1.2-0.1C62.1,128.4,63,128.5,63.8,128.5z"/>
	<path d="M83.4,53.6c-0.8,0.1-1.5,0.2-2.3,0.2c-0.4,0-0.8,0-1.2,0c-0.2,0-0.3,0-0.5,0C79,54,78.6,54,78.2,54c-0.4,0-0.8,0.1-1.2,0.1
		c-0.1,0-0.2,0-0.4,0c-1.3-0.2-2.6,0-3.9-0.3c-0.3-0.1-0.4-0.2-0.6-0.5c-0.3-0.7-0.1-1.3,0.1-1.9c0.5-1.3,1-2.6,1.5-3.9
		c0.1-0.2,0.1-0.3-0.1-0.4c-0.2-0.1-0.3-0.3-0.4-0.4C72.6,46,73,45.3,73.7,45c0.4-0.2,0.8-0.4,1.3-0.5c0.3-0.1,0.5-0.3,0.7-0.6
		c0.2-0.5,0.5-0.9,0.7-1.3c0.2-0.5,0.4-1,0.6-1.6c0.1-0.2,0.1-0.5,0.3-0.6c0.3-0.4,0.4-0.9,0.6-1.4c0.2-0.3,0.1-0.7-0.2-0.9
		c-0.2-0.2-0.3-0.4-0.3-0.7c0-0.4-0.1-0.7-0.1-1.1c0-0.1,0-0.3,0.1-0.4c0.3-0.4,0.6-0.7,1.1-1c1-0.6,2-1,3.1-1.3
		c1.8-0.5,3.6-1,5.5-1.3c1-0.1,1.9-0.2,2.9-0.4c0.7-0.2,1.4,0,2,0.5c0.3,0.2,0.4,0.5,0.3,0.9c0,0.2-0.1,0.4-0.1,0.5
		c-0.1,0.4-0.3,0.6-0.7,0.5c-0.2,0-0.4-0.1-0.6-0.1c-0.4-0.1-0.7-0.1-1.1,0c-0.1,0-0.3,0-0.5,0.1c-0.2,0-0.4,0-0.5,0.1
		c-0.4,0.3-0.9,0-1.3,0.2c-0.6-0.2-1.2,0.1-1.7,0.2c-1,0.3-2.1,0.5-3.1,1c-0.2,0.1-0.3,0.1-0.5,0.1c-0.7,0.2-1,0.5-1.1,1.2
		c0,0.2-0.1,0.5-0.1,0.7c0,0.1,0,0.1,0,0.2c0.3,0.2,0.2,0.3-0.1,0.4c-0.2,0.1-0.4,0.4-0.5,0.7c-0.5,1.2-1.1,2.4-1.6,3.7
		c-0.2,0.4-0.3,0.8-0.4,1.2c-0.1,0.2,0,0.3,0.2,0.3c0.8-0.1,1.6-0.2,2.4-0.3c0.4-0.1,0.9-0.1,1.3-0.1c0.7-0.1,1.3-0.2,2-0.3
		c0.2,0,0.4-0.1,0.6-0.3c0.2-0.2,0.5-0.4,0.7-0.2c0.2,0.2,0.7,0.4,0.6,0.9c0,0.1,0,0.2,0,0.3c0.2,0.6-0.2,1-0.6,1.2
		c-0.6,0.4-1.3,0.6-2.1,0.6c-0.5,0-1,0.1-1.5,0.1c-0.9,0-1.8,0.2-2.6,0.4c-0.2,0-0.4,0-0.5,0c-0.2,0-0.4,0-0.5,0.1
		c-0.3,0.2-0.6,0.3-1,0.2c-0.1,0-0.3,0.1-0.4,0.2c-0.4,0.7-0.9,1.3-1.3,2.1c-0.4,0.8-0.5,1.7-0.8,2.5c-0.1,0.4-0.1,0.5,0.3,0.5
		c0.7,0,1.4,0,2.1,0c0.4,0,0.7,0,1.1,0c0.9-0.1,1.9-0.1,2.8-0.2c0.3,0,0.6-0.1,0.8-0.1c0.8,0,1.7-0.1,2.5-0.1c0.2,0,0.4-0.1,0.4-0.4
		c0-0.2,0.1-0.3,0.3-0.2c0.2,0.1,0.4,0.1,0.6,0c0.1,0,0.2,0,0.3,0.1c0.3,0.3,0.5,1.3,0.4,1.7c-0.2,0.8-0.8,1.1-1.5,1.1
		c-0.3,0-0.5,0-0.8,0C83.8,53.7,83.6,53.7,83.4,53.6C83.4,53.7,83.4,53.6,83.4,53.6z"/>
	<path d="M72,120.6c0,0.4,0.1,1,0.4,1.5c0.2,0.3,0.2,0.3-0.2,0.4c-0.1,0-0.1,0-0.2,0.1c-0.4,0.4-0.7,0.2-1-0.1
		c-0.2-0.2-0.4-0.5-0.6-0.7c-0.2-0.3-0.3-0.7-0.4-1.1c0-0.1-0.1-0.3,0-0.4c0.1-0.7,0.2-1.4,0.6-2.1c0.5-0.9,1.2-1.7,1.7-2.6
		c0.2-0.3,0.4-0.5,0.7-0.8c1-0.8,1.9-1.8,3.1-2.4c0.2-0.1,0.5-0.2,0.8-0.3c0.7-0.3,1.4-0.7,2.1-0.7c0.2,0,0.3-0.1,0.5-0.2
		c1.5-0.7,3.1-0.9,4.7-0.8c1.2,0.1,2.3,0.4,3.2,1.2c0.4,0.4,0.8,0.9,1.2,1.3c0.7,0.7,0.9,1.6,0.9,2.6c0.1,1-0.3,1.9-0.9,2.7
		c-0.6,0.8-1.3,1.5-2.1,2.1c-1.2,0.8-2.4,1.6-3.7,2.1c-0.7,0.2-1.4,0.5-2.1,0.8c-0.1,0.1-0.3,0.1-0.4,0.1c-1,0.2-1.9,0.6-2.9,0.9
		c-0.3,0.1-0.7,0.1-1,0.2c-0.5,0.1-0.6,0.2-0.7,0.7c0,0.2-0.1,0.4-0.1,0.6c0,0.1-0.1,0.2,0,0.4c0.1,0.8,0.1,1.5,0.1,2.3
		c0,0.7-0.1,1.5,0,2.2c0.1,0.3,0.1,0.7-0.1,1c0,0,0,0.1,0,0.2c0.3,0.9,0.1,1.9,0,2.8c0,0.5-0.4,0.7-0.7,1.1
		c-0.2,0.2-0.5,0.2-0.8,0.1c-0.4-0.2-0.8-0.7-0.7-1.1c0.1-0.6,0.1-1.3,0-1.9c0-0.9,0-1.7,0-2.6c0-1.6,0.1-3.1,0.2-4.7
		c0-0.3-0.1-0.6-0.4-0.8c-0.5-0.3-0.7-0.7-0.7-1.3c0-0.2,0-0.4,0.2-0.5c0.2-0.1,0.4,0,0.5,0.2c0.2,0.2,0.4,0.2,0.5-0.1
		c0-0.2,0.1-0.3,0.1-0.5c0.1-0.9,0.3-1.8,0.2-2.7c0-0.4,0.2-0.7,0.1-1.1c-0.1-0.3,0-0.7-0.1-1.1c0-0.4,0.2-0.7,0.5-1
		c0.2-0.2,1-0.1,1.3,0.1c0.1,0.1,0.2,0.2,0.3,0.4c0.2,0.3,0.4,0.7,0.3,1.1c-0.2,0.8-0.3,1.6-0.3,2.4c0,0.5-0.1,0.9-0.1,1.4
		c0,0.1,0,0.3,0,0.4c0,0.2,0.1,0.2,0.3,0.2c0.3-0.1,0.5-0.1,0.8-0.1c0.2,0,0.4-0.1,0.6-0.2c1-0.5,2-1,3.2-1.2c0.1,0,0.1,0,0.2-0.1
		c0.4-0.4,1-0.5,1.5-0.7c0.8-0.4,1.7-0.8,2.4-1.4c0.3-0.3,0.7-0.4,1-0.7c0.9-0.7,1.5-1.7,1.5-2.9c0-0.6-0.3-1.2-0.7-1.7
		c-0.1-0.2-0.3-0.3-0.4-0.4c-0.2-0.2-0.5-0.4-0.8-0.5c-0.5-0.2-1-0.3-1.4-0.4c-0.7,0-1.3,0-2,0.1c-0.6,0.1-1.2,0.3-1.8,0.5
		c-1,0.3-1.9,0.7-2.8,1.1c-1.1,0.5-2.2,1.2-3,2.1c-0.5,0.6-1,1.4-1.5,2C72.3,118.9,72,119.7,72,120.6z"/>
	<path d="M147,89.1c0-0.7,0-1.4,0.1-2.1c0-0.3-0.1-0.3-0.4-0.3c-0.2,0-0.3,0-0.5,0.1c-0.2,0-0.4,0-0.5,0c-1.1,0.1-2.1,0.3-3.2,0.5
		c-0.4,0.1-0.7,0.3-1.1,0.4c-0.1,0-0.1,0.1-0.1,0.2c0.1,0.9-0.4,1.7-0.2,2.6c0,0.1,0,0.1,0,0.2c0.3,0.4,0.1,0.9,0,1.3
		c-0.1,0.5-0.2,0.9-0.2,1.4c-0.1,0.5-0.5,0.9-0.9,1.1c-0.2,0.1-0.5,0.1-0.6-0.1c-0.1-0.1-0.1-0.2-0.2-0.3c-0.4-0.2-0.5-0.6-0.5-0.9
		c0-0.5,0-1,0-1.4c0-0.7,0.1-1.4,0.2-2.1c0.1-0.7,0.1-1.3,0.2-2c0.1-1,0.1-2.1,0.2-3.1c0.1-1.4,0.3-2.8,0.5-4.2
		c0-0.3,0.1-0.5,0.1-0.8c0-0.6,0.2-1.2,0-1.8c0,0,0,0,0-0.1c0.4-0.7-0.1-1.4,0.1-2.2c0.1-0.5,0.6-0.9,1.1-1c0.7-0.1,1.2,0.4,1.3,1.2
		c0.1,0.8,0.2,1.7,0,2.5c-0.1,0.6,0,1.2-0.1,1.8c-0.1,0.7-0.1,1.3-0.2,2c-0.1,0.6-0.1,1.2-0.2,1.8c0,0.3,0,0.6-0.1,0.9
		c0,0.2,0,0.3,0.2,0.3c0.8-0.1,1.7-0.2,2.5-0.3c0.5-0.1,1-0.1,1.4-0.2c0.4,0,0.7-0.1,1.1-0.1c0.2,0,0.3-0.2,0.3-0.4
		c0.1-0.6,0.1-1.2,0.2-1.8c0-0.6,0.1-1.2,0.1-1.8c0.1-1,0-2-0.1-3c-0.1-0.6-0.1-1.1-0.2-1.7c0-0.2-0.1-0.5-0.2-0.7
		c-0.2-0.6-0.2-1.1-0.1-1.7c0.1-0.7,0.9-1.1,1.6-0.9c0.4,0.1,0.6,0.4,0.8,0.8c0.3,1,0.4,2,0.5,3c0.1,1,0.1,2.1,0.2,3.1
		c0,0.2,0,0.5,0,0.7c0,0.5,0,1,0,1.5c0,0.7-0.1,1.4-0.2,2.1c0,0.2,0,0.3,0.2,0.3c0.1,0,0.3,0.1,0.4,0.1c0.6-0.1,1.1,0,1.6,0.1
		c0.5,0,1,0.1,1.4,0.4c0.1,0.1,0.2,0.1,0.3,0.1c0.1,0,0.2-0.1,0.3-0.1c0.2,0.1,0.4,0.2,0.5,0.3c0.1,0.2-0.1,0.4-0.3,0.5
		c-0.4,0.2-0.8,0.3-1.2,0.4c-0.6,0.1-1.2,0.2-1.7,0.3c-0.3,0-0.6,0.1-0.9,0c-0.6-0.1-0.9,0.2-0.9,0.8c0,0.5,0,0.9,0,1.4
		c0,1.1-0.1,2.3-0.1,3.4c0,0.7-0.2,1.3-0.7,1.7c-0.5,0.4-1,0.7-1.8,0.6c-0.9-0.2-1.7-0.7-2.2-1.4c-0.3-0.4-0.4-0.9-0.5-1.4
		c-0.1-0.2,0.1-0.3,0.3-0.2c0.2,0.1,0.4,0.3,0.5,0.5c0.3,0.5,0.7,0.8,1.3,0.6c0.1,0,0.2-0.1,0.2,0c0.2,0,0.3-0.1,0.3-0.3
		C146.8,91,146.9,90.1,147,89.1C147,89.1,147,89.1,147,89.1z"/>
	<path d="M91.7,129.7c0-0.7-0.2-1.3-0.1-1.9c0.1-0.9-0.1-1.7-0.1-2.6c0-1.1-0.1-2.2-0.1-3.3c-0.1-1.2-0.1-2.3-0.2-3.5
		c0-0.4,0.1-0.7,0.1-1.1c0-0.2,0-0.5,0-0.7c0-0.7,0.4-1.1,1.1-1.1c0.3,0,0.4,0.2,0.6,0.4c0.3,0.4,0.5,0.8,0.8,1.2
		c0.1,0.1,0.2,0.2,0.3,0.3c0.2,0.2,0.3,0.3-0.1,0.3c-0.3,0-0.5,0.5-0.3,0.8c0,0,0.1,0.1,0.1,0c0.4-0.2,0.9-0.4,1.2-0.7
		c0.9-0.6,1.8-1,2.8-1.3c0.1,0,0.2,0,0.2-0.1c0.4-0.3,0.8-0.4,1.3-0.4c0.1,0,0.2,0,0.3-0.1c0.1,0,0.1-0.1,0.2-0.1
		c1-0.3,2-0.8,3.1-0.9c0.8-0.1,1.6-0.3,2.4-0.2c0.8,0.1,1.6,0.2,2.3,0.5c0.1,0,0.2,0.1,0.3,0.2c0.6,0.8,1.1,1.6,0.6,2.6
		c-0.2,0.4-0.4,0.8-0.6,1.1c-0.5,0.9-1.2,1.6-1.9,2.3c-0.9,0.8-1.8,1.6-2.7,2.4c-0.2,0.2-0.4,0.4-0.5,0.6c-0.6,0.8-1,1.7-1.4,2.6
		c-0.3,0.7-0.2,1.4,0.3,2c0.8,1.3,2.1,1.8,3.5,2c0.2,0,0.5,0.1,0.7,0.1c0.3,0.1,0.5,0.1,0.7,0c0.2-0.1,0.4-0.1,0.5,0.2
		c0.1,0.3,0.1,0.5-0.2,0.6c-0.4,0.2-0.8,0.3-1.2,0.4c-0.1,0-0.1,0-0.2,0c-0.4,0.5-1,0.2-1.6,0.3c-0.4,0-0.8-0.2-1.2-0.4
		c-0.1,0-0.3-0.1-0.4-0.1c-1.1,0-1.7-0.7-2.3-1.5c-0.4-0.4-0.6-0.9-0.9-1.4c-0.2-0.4-0.2-0.7-0.3-1.1c-0.1-0.9,0.1-1.7,0.5-2.4
		c0.6-1.2,1.4-2.3,2.4-3.2c0.3-0.2,0.5-0.6,0.8-0.8c0.2-0.2,0.5-0.4,0.8-0.6c0.7-0.7,1.5-1.2,2-2c0.3-0.4,0.5-0.8,0.8-1.2
		c0.2-0.3,0.1-0.7-0.2-0.8c-0.3-0.1-0.6-0.2-0.9-0.2c-0.6,0-1.3,0.1-1.9,0.2c-0.9,0.1-1.9,0.4-2.7,0.7c-0.3,0.1-0.7,0.4-1,0.4
		c-0.5,0-0.9,0.3-1.3,0.5c-0.5,0.1-0.9,0.4-1.3,0.6c-0.5,0.2-0.9,0.4-1.3,0.8c-0.4,0.4-0.8,0.7-1.2,1c-0.2,0.2-0.3,0.4-0.2,0.7
		c0.1,0.3-0.1,0.6-0.3,0.9c-0.1,0.2-0.2,0.4-0.2,0.6c-0.1,0.8,0,1.5,0.1,2.2c0.1,0.5,0.1,1,0.1,1.5c0,0.5,0,1,0,1.5
		c0.1,0.8,0.1,1.6-0.1,2.4c0,0.2,0,0.4,0,0.5c0,0.9-0.4,1.6-1,2.2c-0.4,0.3-0.9,0.3-1.2,0c-0.1-0.1-0.2-0.3-0.4-0.4
		c-0.4-0.3-0.5-0.8-0.5-1.3c0-0.3,0.2-0.4,0.5-0.2c0.3,0.2,0.3,0.2,0.4-0.2C91.6,130.8,91.6,130.2,91.7,129.7z"/>
	<path d="M122.3,131.2c1.2,0,2.4-0.1,3.6-0.1c0.5,0,1,0.1,1.4,0.1c0.4,0,0.8-0.1,1.2-0.1c2.9,0,5.7,0,8.6,0c1.1,0,2.3,0,3.4,0
		c1,0,2.1,0.1,3.1,0.1c0.7,0,1.3-0.1,2-0.1c0.5,0,1.1,0,1.6,0c0.3,0,0.6-0.1,0.9-0.1c0.4,0.1,0.7-0.1,1-0.4c0.1-0.1,0.3-0.2,0.4-0.2
		c0.4-0.1,0.7-0.1,1.1-0.1c0.6,0,1.3,0.7,1.2,1.3c-0.1,0.4-0.5,0.7-0.9,0.9c-1.6,0.6-3.2,0.7-4.9,0.6c-0.7,0-1.4,0.1-2.1,0.1
		c-0.9,0-1.7,0-2.6-0.1c-0.9,0-1.7-0.1-2.6-0.1c-1,0-1.9,0-2.9,0c-0.7,0-1.5,0-2.2,0c-1,0-2,0-3,0c-0.6,0-1.2,0-1.8,0
		c-0.7,0-1.3,0.1-2,0.1c-0.4,0-0.8,0-1.2-0.1c-0.2,0-0.4-0.1-0.5,0c-0.6,0.1-1.1,0-1.7,0c-0.7,0-1.3,0.1-2,0.1c-0.8,0-1.6,0-2.3-0.1
		c-1-0.1-1.6-0.7-2-1.6c-0.1-0.2-0.1-0.4-0.1-0.5c0.1-0.6,0.1-1.2,0.2-1.8c0.1-0.7,0.3-1.4,0.4-2.1c0.1-0.7,0.2-1.3,0.4-2
		c0.2-0.8,0.4-1.7,0.5-2.5c0.2-0.7,0.4-1.5,0.5-2.2c0.1-0.8,0.3-1.6,0.1-2.4c-0.1-0.5-0.2-1,0-1.6c0.1-0.3,0.2-0.7,0.3-1
		c0.3-0.5,0.9-0.7,1.5-0.5c0.4,0.1,0.8,0.7,0.8,1.2c0,0.1,0,0.2,0,0.3c0.1,0.4,0.1,0.7,0,1.1c-0.1,0.7-0.1,1.5-0.2,2.2
		c-0.1,0.8-0.3,1.7-0.5,2.5c-0.3,1.3-0.5,2.6-0.8,3.9c-0.1,0.5-0.3,1-0.3,1.5c-0.1,0.8-0.2,1.7-0.3,2.5c0,0.4,0.2,0.7,0.6,0.7
		C121,131.1,121.7,131.2,122.3,131.2C122.3,131.2,122.3,131.2,122.3,131.2z"/>
	<path d="M62.7,44.7c-0.3,0-0.6,0-0.9,0c-0.2,0-0.4,0.1-0.4,0.3c-0.1,0.5-0.2,0.9-0.3,1.4c-0.1,0.3-0.1,0.7-0.3,1
		c-0.3,0.7-0.2,1.4-0.4,2c-0.1,0.3-0.1,0.5-0.2,0.8c-0.2,1.2-0.5,2.3-0.7,3.5c-0.1,0.8-1.1,1.5-1.8,1.4c-0.1,0-0.3-0.1-0.3-0.3
		c-0.1-0.3-0.1-0.6-0.2-0.9c0-0.2,0.1-0.4,0-0.6c0,0,0.1-0.2,0.1-0.2c0.2-0.5,0.4-1,0.5-1.6c0-0.5,0.2-1,0.3-1.5
		c0.3-1.5,0.6-3,1-4.5c0.1-0.5,0.2-1.1,0.3-1.6c0.1-0.4,0.1-0.8,0.2-1.3c0-0.8,0.2-1.6,0.4-2.4c0-0.1,0.1-0.2,0.1-0.3
		c0-0.4,0-0.8,0.3-1.2c0.1-0.1,0.1-0.2,0.1-0.3c0-0.2,0-0.4-0.3-0.4c-0.6-0.2-0.6-0.3-0.6-0.9c0-0.1,0-0.1,0-0.2
		c0-0.6,0.2-1,0.9-1.1c0.6-0.1,0.6-0.2,0.6-0.7c0-0.4,0.1-0.8,0.4-1.1c0.3-0.3,0.7-0.4,1.1-0.1c0.4,0.2,0.8,0.4,0.8,1
		c0,0.2,0.2,0.2,0.4,0.2c0.5-0.1,1-0.1,1.5-0.2c1-0.1,2.1-0.3,3.1-0.4c0.9-0.1,1.8-0.3,2.7-0.4c0.9-0.1,1.8-0.2,2.7-0.3
		c0.5-0.1,0.9-0.1,1.4-0.2c0.3,0,0.6,0,0.8-0.1c0.2,0,0.4,0.1,0.5,0.3c0,0.1,0.2,0.2,0.3,0.3c0.2,0.2,0.3,0.5,0.1,0.8
		c-0.1,0.2-0.2,0.4-0.4,0.5c-0.2,0.3-1.1,0.5-1.4,0.4c-0.3-0.1-0.7,0-1,0c-0.5,0-1,0-1.5,0.1c-0.7,0.2-1.5,0-2.2,0.3
		c-0.6,0.2-1.3,0.2-2,0.3c-0.3,0-0.7,0.1-1,0.2c-0.2,0-0.5,0-0.7,0.1c-0.1,0-0.1,0-0.2,0c-1,0.3-2.1,0.4-3.1,0.7
		c-0.4,0.1-0.6,0.4-0.7,0.8c-0.2,0.7-0.3,1.5-0.5,2.2c0,0.1-0.1,0.3-0.1,0.4c-0.3,0.4,0.1,0.8-0.1,1.2c0,0,0.1,0.1,0.1,0.1
		c0.5,0,1.1,0,1.6,0c0.3,0,0.5,0,0.8,0c0.7-0.1,1.5-0.2,2.2-0.2c1.2-0.1,2.4-0.3,3.6-0.4c0.5-0.1,0.9,0.3,1,0.9
		c0.1,0.6-0.1,1.1-0.7,1.2c-0.4,0.1-0.7,0.1-1.1,0.2c-1.3,0.2-2.6,0.3-4,0.5C64.4,44.5,63.5,44.6,62.7,44.7
		C62.7,44.7,62.7,44.7,62.7,44.7z"/>
	<path d="M124.6,84.6c0.1,0.3,0.1,0.6,0.2,0.8c0.2,0.6,0.5,1.1,0.8,1.7c0.3,0.5,0.8,0.8,1.1,1.4c0.1,0.2,0.4,0.3,0.6,0.4
		c0.8,0.4,1.7,0.8,2.6,0.9c0.6,0.1,1.1,0.2,1.7,0c0.4-0.1,0.9-0.1,1.3-0.1c0,0,0.1,0.1,0.1,0.2c-0.2,0.3-0.1,0.3,0.1,0.2
		c0.9-0.3,1.6-0.9,2.3-1.6c0.1-0.1,0.1-0.2,0.2-0.2c0.2-0.1,0.3,0,0.3,0.2c0,0.1,0,0.3,0,0.3c-0.2,0.3-0.4,0.7-0.6,0.9
		c-0.4,0.3-0.7,0.9-1.3,1c-0.3,0.5-0.8,0.6-1.3,0.9c-0.5,0.3-1,0.2-1.5,0.3c-0.7,0.1-1.5-0.1-2.2,0c-0.6,0.1-1.2-0.2-1.8-0.3
		c-0.6-0.1-1.1-0.6-1.6-0.9c-0.4-0.2-0.7-0.6-1.2-0.8c-0.3-0.1-0.4-0.5-0.6-0.7c-0.2-0.2-0.3-0.5-0.5-0.7c-0.4-0.4-0.4-0.9-0.6-1.4
		c-0.1-0.3-0.2-0.6-0.3-0.9c-0.2-0.5-0.3-0.9-0.2-1.5c0.1-0.2,0-0.5,0.1-0.8c0.1-1,0.6-1.8,1.2-2.5c0.5-0.5,0.9-1.1,1.4-1.6
		c0.2-0.2,0.5-0.4,0.8-0.7c0.6-0.5,1.2-1,1.8-1.5c0.5-0.4,1-0.6,1.7-0.5c0.3,0,0.6-0.1,0.9-0.1c0.5,0,1,0,1.5,0c0.1,0,0.2,0,0.2,0
		c0.6-0.2,0.9,0.2,1.2,0.6c0.1,0.2,0.1,0.6,0.1,0.8c0,0.2-0.2,0.4-0.4,0.5c-0.4,0.3-0.8,0.5-1.2,0.7c-0.4,0.2-0.7,0.1-1.1,0
		c-0.2-0.1-0.5-0.2-0.7-0.2c-0.2,0-0.5,0-0.7,0.1c-0.5,0.2-0.9,0.4-1.4,0.6c-0.1,0-0.1,0.1-0.2,0.2c-0.2,0.3-0.4,0.5-0.7,0.8
		c-0.7,0.7-1.4,1.4-1.8,2.3C124.8,83.5,124.6,84.1,124.6,84.6z"/>
	<path d="M110.4,130.9c0.1-1.2,0.1-2.3,0.2-3.5c0-1.6,0-3.2,0.1-4.8c0-0.8,0.1-1.5,0.1-2.3c0-0.7,0-1.4,0-2.1c0-0.7,0-1.4,0.1-2.1
		c0-0.5,0.8-1,1.4-0.8c0.7,0.2,0.9,0.6,1,1.3c0,0.6,0.1,1.2,0.1,1.8c0,0.9,0,1.8-0.1,2.7c0,0.6-0.1,1.3-0.1,1.9
		c0,1.6-0.1,3.1-0.1,4.7c0,0.5,0,1,0,1.5c0,1-0.1,1.9-0.1,2.9c0,0.2,0,0.3-0.1,0.4c-0.4,0.4-0.8,0.7-1.4,0.8c-0.3,0-0.4-0.1-0.5-0.4
		c-0.2-0.6-0.4-1.1-0.4-1.7C110.4,131.2,110.4,131,110.4,130.9C110.4,130.9,110.4,130.9,110.4,130.9z"/>
	<path d="M191,176.9c-0.6,0-0.8-0.2-0.9-0.7c0-0.1,0-0.3-0.1-0.4c-0.2-0.9,0.5-1.6,1.4-1.3c0.4,0.1,0.7,0.5,1,0.7
		c0.1,0.1,0.1,0.2,0.1,0.3c-0.1,0.3-0.3,0.7-0.4,1C191.8,177,191.3,176.9,191,176.9z"/>
</g>
</svg>
