<?xml version="1.0" encoding="utf-8"?>
<!-- Generator: Adobe Illustrator 24.0.2, SVG Export Plug-In . SVG Version: 6.00 Build 0)  -->
<svg version="1.1" id="Layer_1" xmlns="http://www.w3.org/2000/svg" xmlns:xlink="http://www.w3.org/1999/xlink" x="0px" y="0px"
	 viewBox="0 0 218.9 216.7" style="enable-background:new 0 0 218.9 216.7;" xml:space="preserve">
<g>
	<path d="M199.3,57.7c-0.1,0.5-0.1,1.1-0.1,1.6c0,0.3,0,0.5,0.1,0.8c0.2,0.5,0,1,0.2,1.6c0.2,0.5,0,1.1,0,1.7c0,0.7-0.1,1.3,0.2,2
		c0,0.1,0,0.1,0,0.2c-0.2,0.6,0,1.1-0.1,1.7c0,0.6,0.1,1.3,0.1,1.9c0,0.3,0.1,0.7,0.1,1c0,0.9,0.1,1.9-0.1,2.8c0,0.1,0,0.3,0,0.4
		c0.1,1,0.2,2.1,0.2,3.2c0,0.8,0.1,1.6,0.1,2.3c0,0.5-0.1,1,0,1.4c0.1,0.4,0,0.9,0.1,1.3c0,1,0.1,1.9,0.1,2.9c0,0.8,0,1.5,0.2,2.2
		c0.1,0.4,0,0.8,0.1,1.2c0,0.3,0.1,0.7,0.1,1c0,0,0,0,0,0.1c-0.2,0.7,0.2,1.4,0.1,2.1c-0.1,0.6,0.1,1.2,0.2,1.9
		c0,0.9,0.1,1.8,0.2,2.7c0.1,0.7,0.2,1.5,0.3,2.2c0,0.3,0.1,0.6,0.1,0.8c0,0.4,0.1,0.7,0.1,1.1c0,0.6,0,1.2,0,1.8c0,0.2,0,0.3,0,0.5
		c0,0.1,0.1,0.2,0.1,0.4c0,0.7,0,1.4,0,2c0,0.5-0.3,0.9-0.7,1.1c-0.2,0.2-0.2,0.3,0,0.4c0.4,0.3,0.8,0.5,1.3,0.8
		c0.2,0.1,0.4,0.1,0.7,0c0.1-0.1,0.3-0.1,0.5-0.1c0.3-0.1,0.5,0,0.6,0.3c0.2,0.4,0.4,0.8,0.6,1.2c0.2,0.2,0.3,0.6,0,0.9
		c0,0-0.1,0.1-0.1,0.1c-0.1,0.2-0.1,0.4-0.3,0.5c-0.3,0-0.5,0.1-0.8,0c-0.5-0.2-1-0.4-1.5-0.7c-0.3-0.2-0.7-0.4-1-0.6
		c-0.7-0.5-1.4-1-2.1-1.5c-0.4-0.3-0.4-0.3-1-0.2c-0.4,0.1-0.6,0.2-0.8,0.5c-0.2,0.3-1.3,0.6-1.7,0.4c-0.5-0.3-1.1-0.3-1.7-0.3
		c-0.9,0-1.8-0.1-2.7-0.3c-0.6-0.1-1.3,0-2,0c-0.8,0-1.5,0-2.3,0c-1.4,0-2.8,0.1-4.2,0.1c-1.6,0.1-3.2,0.3-4.9,0.3
		c-1,0-2.1,0.2-3.1,0.2c-0.5,0-1,0.1-1.5,0.1c-0.4,0-0.9-0.1-1.3,0c-0.6,0.1-1.2,0-1.8,0.1c-0.6,0.1-1.2,0-1.8,0.1
		c-0.4,0.1-0.8,0.1-1.2,0.1c-1.1,0.1-2.1,0.1-3.2,0.1c-0.8,0-1.6,0-2.4,0.2c-0.2,0-0.4-0.1-0.5,0c-0.5,0-0.9,0.1-1.4,0.1
		c-0.6,0-1.1,0-1.7,0c-0.4,0-0.8,0.1-1.2,0.1c-0.1,0-0.3,0.2-0.4,0c-0.1,0-0.1,0.1-0.1,0.1c-0.1,0.4-0.1,0.8,0.1,1.2
		c0.3,0.6,0,1.1-0.3,1.5c-0.1,0.1-0.3,0.3-0.5,0.2c-0.4-0.1-0.8-0.2-1.2-0.4c-0.3-0.2-0.5-0.7-0.5-1.1c0-0.4,0-0.7,0-1.1
		c0-0.2-0.1-0.3-0.3-0.3c-0.7,0.1-1.3,0-2,0.1c-0.5,0.1-1.1,0.1-1.7,0.2c-0.1,0-0.3-0.1-0.4-0.1c-0.1,0-0.3-0.1-0.4-0.1
		c-0.4,0-1-0.6-0.9-1c0.1-0.3,0.2-0.7,0.5-0.9c0.4-0.3,0.8-0.5,1.3-0.4c0.6,0.1,1.3-0.1,1.9-0.1c0.3,0,0.6,0,0.9,0
		c0.1,0,0.2,0,0.3,0c0.4-0.2,0.4-0.2,0.3-0.6c-0.1-0.8-0.2-1.5-0.3-2.3c-0.1-1-0.3-2-0.4-3c-0.1-1.1-0.3-2.1-0.3-3.2
		c0-0.3-0.1-0.6-0.2-1c0-0.3-0.1-0.5-0.1-0.8c-0.1-1-0.2-2-0.3-3c-0.1-0.8-0.1-1.5-0.1-2.3c0-0.3,0-0.7,0-1
		c-0.1-1.1-0.2-2.3-0.4-3.4c-0.1-0.8,0-1.6-0.1-2.4c0-0.1,0-0.1,0-0.2c-0.3-1-0.3-2-0.4-3c-0.1-0.7,0-1.4-0.1-2.1
		c-0.1-0.5,0-1.1-0.2-1.6c-0.1-0.3-0.1-0.7-0.1-1.1c0-0.8-0.1-1.6-0.1-2.4c0-0.6,0-1.3,0-1.9c0-0.4,0-0.7-0.1-1.1
		c0-0.4-0.1-0.8-0.2-1.2c0-0.1,0-0.2,0-0.3c0-0.1,0.1-0.1,0.1-0.2c0-0.8,0.1-1.5,0.1-2.3c0-0.5,0.1-0.9,0.2-1.3
		c0-0.1,0.1-0.3,0.1-0.4c-0.2-0.6-0.1-1.1-0.1-1.7c0-0.1,0-0.2,0-0.2c0.1-0.9,0.2-1.8,0.3-2.7c0-0.3,0-0.4-0.2-0.5
		c-0.6-0.3-0.8-0.7-0.8-1.3c0-0.4,0.2-0.6,0.5-0.9c0.5-0.3,0.9-0.3,1.4-0.2c0.4,0.1,0.9,0.1,1.3,0.2c1.1,0.1,2.1,0.1,3.2,0.2
		c0.2,0,0.5-0.1,0.7-0.1c1,0,1.9,0.1,2.9,0.1c1.1,0,2.2-0.1,3.3-0.2c0.8,0,1.6-0.1,2.4-0.1c0.6,0,1.3,0.1,1.9-0.2
		c0.2-0.1,0.5-0.1,0.8-0.1c0.6,0,1.2,0.2,1.8,0.1c0.7-0.1,1.4-0.1,2.1-0.1c0.3,0,0.5,0,0.8,0c1.3-0.1,2.5-0.2,3.8-0.2
		c0.8,0,1.5,0,2.3,0c0.7,0,1.4-0.1,2.1-0.1c0.4,0,0.8,0.1,1.1,0.1c0.2,0,0.4,0,0.5,0c0.9-0.2,1.7-0.1,2.6,0c0.5,0,1.1,0.2,1.7-0.1
		c0.1,0,0.2,0,0.2,0c1.2,0,2.4,0,3.6,0c0.1,0,0.2,0.1,0.2,0c0.4-0.3,0.8-0.1,1.2-0.1c0.3,0,0.6,0.1,0.9-0.2c0.5,0.1,1-0.1,1.5-0.2
		c0.8-0.1,1.6-0.2,2.4-0.7c0.7-0.4,1.4-0.2,2,0.5c0.3,0.3,0.4,0.7,0.4,1.1C199.3,57,199.2,57.3,199.3,57.7
		C199.3,57.7,199.3,57.7,199.3,57.7z M197.4,58.2c0-0.1-0.1-0.3-0.1-0.3c-0.1-0.1-0.3-0.1-0.4,0.1c-0.2,0.2-0.4,0.3-0.5,0.5
		c-0.4,0.5-0.7,1.1-1.2,1.6c-0.5,0.7-1.2,1.3-1.7,1.9c-1,1.3-2.1,2.4-3,3.7c-0.1,0.1-0.2,0.1-0.2,0.2c-0.1,0.1-0.3,0.2-0.4,0.3
		c-0.8,0.9-1.6,1.7-2.3,2.6c-0.6,0.8-1.2,1.4-1.8,2.1c-0.9,1-1.9,2.1-2.8,3.1c-0.5,0.5-1,1.1-1.5,1.6c-0.5,0.5-0.9,1.1-1.3,1.6
		c-1.4,1.5-2.6,3.1-3.8,4.7c-0.3,0.4-0.3,0.7,0,1c1.1,1.1,2.2,2.1,3.3,3.2c0.2,0.2,0.5,0.4,0.7,0.7c0.5,0.8,1.1,1.4,1.8,2
		c0.3,0.3,0.5,0.6,0.8,0.8c0.4,0.4,0.8,0.7,1.1,1.1c0.4,0.5,1.1,0.7,1.4,1.3c0.1,0.2,0.3,0.4,0.5,0.6c0.9,0.8,1.8,1.7,2.6,2.5
		c0.4,0.4,0.8,0.7,1.2,1.1c0.5,0.5,1.2,0.9,1.7,1.4c0.7,0.7,1.5,1.4,2.3,2c0.1,0.1,0.2,0.2,0.3,0.2c0.3,0.2,0.6,0.5,0.8,0.7
		c0.2,0.1,0.4,0.2,0.5,0.4c0.6,0.7,1.3,1.2,2,1.8c0.5,0.5,1,0.9,1.6,1.2c0.3,0.2,0.4,0.1,0.4-0.2c0-0.3,0-0.6,0-0.9
		c0.2-0.8,0.1-1.5,0.1-2.3c0-0.9,0-1.8,0-2.7c0-0.6-0.1-1.2-0.1-1.8c-0.1-1-0.2-2-0.3-2.9c0-0.3-0.2-0.7-0.1-1
		c0-0.6,0.1-1.2-0.1-1.8c-0.1-0.3-0.1-0.7-0.1-1c0-0.8,0-1.7-0.1-2.5c0-0.8-0.1-1.5-0.1-2.3c-0.1-0.7,0.1-1.5-0.1-2.2
		c-0.1-0.3-0.1-0.7-0.1-1c0-0.2,0.1-0.4,0.1-0.6c0-0.2,0-0.4,0-0.6c0-0.4-0.1-0.9-0.1-1.3c0-0.6,0.1-1.2,0-1.8
		c0-0.6-0.1-1.1-0.1-1.7c0-0.3,0.1-0.7,0-1c-0.2-1.2-0.1-2.4-0.2-3.7c0-0.3,0-0.5,0-0.8c0-0.6,0-1.2,0-1.7c0-0.3,0.1-0.6-0.2-0.9
		c-0.1-0.1-0.1-0.2-0.1-0.3c0-0.8,0-1.5,0-2.3c0-0.6-0.1-1.2-0.1-1.8c0-0.1-0.1-0.2-0.1-0.3c0-0.1-0.1-0.2-0.1-0.3
		c0.2-0.4-0.1-0.8,0-1.2C197.4,60.1,197,59.2,197.4,58.2z M154,95.3C154,95.3,154,95.3,154,95.3c0,0.3,0,0.5,0,0.8
		c0.3,1.2,0.3,2.4,0.5,3.5c0.1,0.6,0.2,1.3,0.3,1.9c0.1,0.5,0.2,1.1,0.3,1.6c0.1,0.7,0.2,1.5,0.3,2.2c0,0.2,0.1,0.3,0.3,0.2
		c0.1,0,0.2-0.1,0.3-0.2c0.4-0.4,0.9-0.7,1.1-1.3c0-0.1,0.1-0.2,0.2-0.2c0.4-0.2,0.6-0.8,1.1-0.9c0.1,0,0.1-0.2,0.2-0.3
		c0.1-0.3,0.2-0.7,0.7-0.7c0,0,0.1-0.1,0.1-0.1c0.2-0.4,0.5-0.7,0.7-1.1c0.4-0.6,0.7-1.2,1.3-1.6c0.1,0,0.2-0.1,0.2-0.2
		c0-0.5,0.5-0.7,0.7-1.1c0.1-0.3,0.3-0.5,0.5-0.7c0.5-0.5,0.9-1,1.3-1.6c0.5-0.7,0.9-1.4,1.4-2.1c0.2-0.4,0.5-0.7,0.8-1.1
		c0.3-0.4,0.7-0.8,1-1.3c0.3-0.4,0.7-0.8,1-1.3c0.5-0.7,1-1.5,1.5-2.2c0.5-0.6,0.9-1.2,1.4-1.9c0.2-0.3,0.4-0.6,0.6-0.9
		c0.7-0.6,1.2-1.5,1.9-2.2c0.1-0.1,0.1-0.3,0-0.4c-0.2-0.4-0.4-0.8-0.7-1.1c-0.3-0.3-0.3-0.9-0.9-0.8c0,0-0.1-0.1-0.1-0.2
		c0-0.1-0.1-0.2-0.1-0.3c-0.3-0.2-0.6-0.4-0.8-0.7c-0.2-0.3-0.4-0.6-0.6-0.9c-0.2-0.3-0.4-0.5-0.7-0.7c-0.1-0.1-0.3-0.3-0.4-0.4
		c-0.1-0.1-0.2-0.2-0.2-0.3c-0.2-0.5-0.6-0.7-1-1c-0.1-0.1-0.3-0.2-0.3-0.3c-0.1-0.3-0.3-0.4-0.5-0.5c-0.3-0.2-0.5-0.4-0.8-0.7
		c0.1-0.7-0.5-0.9-0.9-1.3c-0.1-0.1-0.1-0.1-0.2-0.2c-0.3-0.3-0.5-0.6-0.8-0.9c-0.1-0.1-0.3-0.2-0.4-0.2c-0.3-0.1-0.6-0.2-0.6-0.6
		c0-0.1-0.1-0.2-0.1-0.2c-0.3-0.2-0.7-0.4-0.8-0.9c0-0.1-0.1-0.2-0.2-0.2c-0.2-0.2-0.4-0.3-0.5-0.6c0-0.1-0.1-0.2-0.2-0.2
		c-0.4-0.2-0.6-0.7-1.1-0.8c-0.1-0.4-0.5-0.4-0.6-0.7c-0.3-0.6-0.8-0.8-1.1-1.3c-0.1-0.1-0.3-0.2-0.4-0.3c-0.3,0-0.6-0.2-0.7-0.5
		c-0.3-0.3-0.6-0.6-0.9-0.9c-0.1-0.1-0.2-0.2-0.3-0.4c-0.1-0.1-0.2-0.3-0.3-0.4c-0.2-0.4-0.6-0.6-1-0.9c-0.4-0.4-0.8-0.7-1.2-1.1
		c-0.1-0.1-0.3-0.3-0.4-0.4c-0.1,0.2-0.1,0.3-0.2,0.5c0,0,0,0,0,0.1c-0.2,0.3-0.4,0.6-0.7,0.9c0,0.1,0,0.2-0.1,0.3
		c0,0.1,0,0.3-0.1,0.3c-0.3,0.2-0.3,0.6-0.4,1c0,0.3-0.1,0.6-0.2,0.8c-0.3,0.9-0.1,1.7-0.2,2.6c0,0.1,0.1,0.2,0.1,0.2
		c0,0.1,0,0.2,0,0.4c0,0.3-0.1,0.6-0.1,0.9c0,0.6,0.1,1.2,0,1.8c0,0.6,0,1.1,0.1,1.7c0.1,0.7,0.2,1.3,0.1,2c0,0.3,0,0.7,0.1,1.1
		c0.1,1.2,0.3,2.3,0.3,3.5c0,0.6,0.1,1.2,0.1,1.8c0.1,0.9,0.2,1.9,0.3,2.8c0,0.2,0,0.4,0,0.7c0.1,1.2,0.2,2.3,0.3,3.5
		c0,0.6,0.1,1.2,0.1,1.8c0.1,0.8,0.2,1.7,0.4,2.5C153.8,93.8,153.9,94.5,154,95.3z M157.8,62.8c0,0.1,0,0.2,0.1,0.3
		c0.3,0.4,0.6,0.7,0.9,1.1c0.2,0.3,0.4,0.7,0.6,1.1c0.3,0.3,0.7,0.5,0.9,0.8c0.7,0.8,1.5,1.7,2.2,2.5c0.1,0.1,0.2,0.4,0.4,0.5
		c0.6,0.3,0.9,1,1.4,1.4c0.9,0.9,1.7,1.8,2.6,2.7c0.2,0.2,0.4,0.3,0.5,0.5c1,1.3,2.2,2.6,3.4,3.8c0.2,0.2,0.5,0.4,0.7,0.7
		c1,1,1.9,2,2.9,3c0.4,0.4,0.4,0.4,0.7,0c0.2-0.2,0.3-0.4,0.5-0.7c0.3-0.4,0.6-0.9,0.9-1.3c0.7-0.8,1.4-1.5,2-2.2
		c0.6-0.8,1.3-1.5,1.8-2.3c0.5-0.8,1.2-1.3,1.8-2c0.4-0.5,0.9-0.9,1.3-1.4c0.2-0.2,0.3-0.5,0.5-0.7c0.7-0.7,1.3-1.5,2-2.2
		c0.2-0.2,0.3-0.4,0.4-0.6c0.2-0.2,0.4-0.5,0.6-0.7c0.2-0.2,0.3-0.4,0.5-0.5c0.3-0.2,0.5-0.4,0.6-0.8c0-0.1,0.1-0.3,0.2-0.4
		c0.3-0.5,0.8-0.8,1.2-1.2c0.1-0.1,0.2-0.1,0.2-0.2c0.1-0.5,0.5-0.7,0.7-1.1c0.3-0.5,0.9-0.9,1.2-1.5c0.3-0.5,0.7-0.9,1-1.4
		c0.4-0.5,0.9-1,1.4-1.6c0.1-0.1,0.1-0.2,0.2-0.3c0.1-0.2,0-0.3-0.1-0.3c-0.1,0-0.3,0-0.4,0c-0.4,0-0.7,0.1-1.1,0.1
		c-0.6,0-1.3,0-1.9,0.1c-0.7,0.1-1.4-0.1-2.1,0.2c0,0-0.1,0-0.1,0c-0.5-0.1-1-0.2-1.6-0.2c-1.6,0-3.2,0-4.7,0c-1.4,0-2.7,0-4.1,0
		c-1,0-2,0.1-3,0.1c-0.7,0-1.5,0-2.2,0c-0.1,0-0.3,0-0.4,0c-0.2,0-0.4,0.1-0.5,0c-0.6-0.2-1.1,0-1.7,0c-1.2,0-2.3,0.1-3.5,0.1
		c-0.2,0-0.5-0.1-0.7,0c-0.7,0.2-1.3,0.1-2,0.2c-0.5,0.1-1-0.1-1.4,0c-0.5,0.1-1.1,0.1-1.6,0.1c-1.6,0-3.3,0.1-4.9,0.1
		c-0.8,0-1.7,0.2-2.5,0.2c-0.1,0-0.1,0-0.2,0.1c0,0,0.1,0.1,0.1,0.1c0.3,0.3,0.7,0.5,1,0.8c0.4,0.4,0.9,0.8,1.3,1.1
		c0.4,0.3,0.7,0.5,1.1,0.8c0.1,0.1,0.3,0.2,0.4,0.3C157.8,62.3,157.9,62.5,157.8,62.8z M195.4,104.7c0.2,0,0.3,0.1,0.4,0
		c0.2-0.1,0.4-0.1,0.6-0.2c-0.1-0.2-0.3-0.4-0.4-0.6c0,0-0.1,0-0.1-0.1c-0.7-0.2-1.1-0.7-1.5-1.2c-0.9-0.9-1.9-1.6-2.8-2.5
		c-0.4-0.4-0.9-0.7-1.3-1.2c0-0.1-0.1-0.1-0.2-0.2c-0.8-0.4-1.4-1-1.9-1.7c-0.1-0.2-0.2-0.3-0.4-0.4c-0.4-0.1-0.6-0.4-0.8-0.7
		c-0.1-0.1-0.2-0.3-0.4-0.4c-0.5-0.4-1-0.9-1.3-1.5c-0.1-0.2-0.3-0.4-0.5-0.5c-0.5-0.1-0.7-0.4-0.9-0.7c-0.2-0.4-0.6-0.7-0.9-0.9
		c-0.3-0.3-0.7-0.6-0.9-1c-0.1-0.2-0.2-0.3-0.4-0.4c-0.3-0.1-0.5-0.3-0.5-0.7c0-0.4-0.3-0.7-0.6-0.8c-0.3-0.1-0.5-0.2-0.6-0.5
		c0-0.1-0.2-0.2-0.4-0.3c-0.3-0.1-0.4-0.3-0.5-0.5c-0.2-0.7-0.9-1.1-1.3-1.6c-0.3-0.3-0.7-0.5-1-0.9c-0.5-0.5-0.9-1.2-1.5-1.6
		c-0.2-0.2-0.4-0.2-0.5,0c-0.2,0.2-0.4,0.5-0.6,0.7c-0.6,0.8-1.2,1.7-1.9,2.5c-0.4,0.6-0.8,1.2-1.3,1.8c-0.6,0.8-1.3,1.7-1.9,2.5
		c-0.4,0.5-0.7,1.1-1.2,1.7c-0.7,0.9-1.4,1.8-2,2.8c-0.2,0.3-0.3,0.6-0.5,0.8c-0.6,0.8-1.2,1.6-1.8,2.3c-0.2,0.2-0.4,0.5-0.6,0.7
		c-0.5,0.6-0.9,1.3-1.4,1.9c-0.3,0.4-0.6,0.7-0.9,1.1c-0.3,0.4-0.5,0.8-0.8,1.2c-0.5,0.7-1,1.4-1.5,2.1c-0.2,0.2-0.1,0.3,0.1,0.3
		c0.1,0,0.2,0,0.3,0c0.9,0,1.8,0,2.6,0c0.4,0,0.9,0.1,1.3,0c0.3,0,0.7-0.1,1-0.1c0.5,0,1,0,1.4,0c0.8-0.1,1.5-0.2,2.3-0.2
		c1-0.1,2-0.2,3,0c0.1,0,0.2,0,0.3-0.1c0.5-0.1,1-0.2,1.5-0.1c0.6,0,1.2,0.2,1.9-0.1c0.1,0,0.2,0,0.3,0c0.5,0,0.9,0.1,1.4,0.1
		c0.6,0,1.2,0,1.8-0.2c0.6-0.2,1.2,0.2,1.8-0.2c0.1,0,0.2,0,0.2,0c0.3,0.2,0.7,0,1,0c0.7-0.1,1.3-0.2,2-0.1c0.3,0,0.6,0.1,0.9,0
		c0.5-0.2,0.9-0.2,1.3-0.1c0.4,0,0.8,0,1.2,0c0.5,0,0.9-0.1,1.4-0.2c0.5-0.1,1,0.2,1.5-0.1c0,0,0.1,0,0.1,0c0.4,0.2,0.9,0.1,1.3-0.1
		c0.1,0,0.2-0.1,0.2,0c0.8,0.2,1.5,0.1,2.3,0.1C193.8,104.7,194.7,104.7,195.4,104.7z"/>
	<path d="M22.1,57.7c-0.1,0.9-0.2,1.9-0.3,2.8c0,0.2-0.2,0.4-0.2,0.6c-0.1,0.6-0.2,1.3-0.3,1.9c-0.1,0.5-0.1,1-0.1,1.5
		c0,1.3-0.1,2.6-0.1,4c0,0.8,0,1.6,0.2,2.4c-0.2,0.3-0.1,0.6-0.1,0.9c0,1.1,0.1,2.3,0.2,3.4c0.1,0.6,0.2,1.3,0.2,2
		c0,0.5,0,1.1,0,1.6c0,0.1,0,0.1,0,0.2c0.3,0.8,0.2,1.8,0.4,2.6c0.2,0.9,0.2,1.8,0.4,2.7c0.3,1.2,0.3,2.4,0.5,3.6
		c0.1,0.8,0.3,1.6,0.4,2.5c0,0.1,0,0.3,0.1,0.4c0.1,1,0.3,2,0.4,3c0.1,0.6,0.1,1.2,0.2,1.8c0.2,1.4,0.3,2.9,0.7,4.3c0,0,0,0.1,0,0.1
		c0,1,0.4,1.9,0.5,2.9c0.1,0.9,0.2,1.9,0.2,2.8c0,0.5,0.2,1,0.2,1.5c-0.1,0.6,0.1,1.3-0.1,1.9c-0.1,0.3,0,0.4,0.3,0.5
		c0.3,0.1,0.4,0.3,0.3,0.5c-0.1,0.2-0.1,0.5-0.2,0.7c-0.1,0.4,0,0.4,0.3,0.4c0.9,0,1.8,0,2.6,0.6c0,0,0.1,0,0.1,0.1
		c0.3,0.6,0.8,0.4,1.3,0.4c0.5,0,1-0.1,1.5-0.1c0.8,0.1,1.5-0.1,2.3-0.1c1.1,0,2.3-0.1,3.4-0.1c0.5,0,1.1-0.1,1.6-0.1
		c0.5,0,0.9-0.1,1.4-0.1c0.7-0.1,1.5-0.2,2.2-0.2c0.7,0,1.3,0,2-0.1c0.5,0,0.9-0.1,1.4-0.1c1.5-0.1,2.9-0.4,4.4-0.3
		c0.3,0,0.6,0,0.8-0.1c0.9-0.1,1.8-0.2,2.7-0.2c1,0,1.9-0.1,2.9-0.2c0.7-0.1,1.4,0,2.1,0c0.1,0,0.3-0.1,0.4-0.1c0.3,0,0.5,0,0.8,0
		c0.5,0,0.9-0.1,1.4-0.1c0.5,0,1-0.1,1.4-0.1c1.1,0.1,2.1-0.1,3.1-0.1c1,0,1.9,0,2.9,0c0.4,0,0.8,0,1.2-0.1c0.4-0.1,0.5-0.2,0.3-0.6
		c-0.1-0.3-0.2-0.6-0.2-0.9c0-0.8,0.2-1.7,0.2-2.5c0-0.6,0-1.3,0-1.9c0-0.5,0-1.1,0.1-1.6c0-0.2,0-0.3,0-0.5
		c-0.1-0.5-0.2-1.1-0.2-1.6c0-0.2,0-0.3,0-0.5c0.1-0.4,0.1-0.7,0-1.1c-0.1-0.3,0-0.7,0.1-1c0.1-0.8,0.1-1.7-0.1-2.5
		c-0.1-0.4,0-0.8,0-1.2c0-0.2,0-0.3,0-0.5c-0.1-0.7-0.2-1.4-0.1-2.2c0-0.3-0.1-0.6-0.1-0.8c0-0.8,0-1.5,0-2.3c0-0.9,0-1.8,0.1-2.6
		c0.1-0.9-0.1-1.8-0.1-2.7c0.1-1.2-0.1-2.5-0.2-3.7c0-0.8-0.2-1.6,0-2.4c0.1-0.2,0.1-0.5-0.1-0.7c-0.1-0.1-0.1-0.2,0-0.3
		c0.1-0.7-0.1-1.4,0-2.1c0-0.2-0.1-0.5-0.1-0.7c-0.1-0.6-0.1-1.3,0-1.9c0-0.1,0-0.2-0.1-0.3c0-0.1-0.1-0.2-0.1-0.3
		c0.1-0.5-0.1-0.9-0.1-1.4c-0.1-1-0.1-1.9-0.2-2.9c-0.2-1.2-0.4-2.3-0.6-3.5c-0.1-0.6-0.2-1.2-0.5-1.8c-0.1-0.3-0.1-0.5,0-0.8
		c0.1-0.3,0.1-0.4-0.2-0.4c-0.5-0.1-1-0.1-1.5-0.2c-0.2,0-0.3-0.1-0.5-0.1c-0.1,0-0.2-0.1-0.3,0c-0.8,0.3-1.7,0.1-2.5,0.1
		c-0.8,0-1.6,0-2.5,0c-1,0-2.1,0-3.1-0.1c-0.6,0-1.2-0.1-1.8-0.1c-0.1,0-0.3,0-0.4,0c-0.5,0.2-0.9,0-1.4,0C53.2,59,52.4,59,51.6,59
		c-0.7,0-1.4-0.1-2.1-0.1c-1.4-0.1-2.8-0.3-4.2-0.4c-0.4,0-0.9,0-1.3,0c-0.4,0-0.8-0.1-1.2-0.1c-0.3,0-0.7,0-1,0
		c-0.3,0-0.6-0.1-0.8-0.1c-0.2,0-0.3,0-0.5,0c-0.5,0.1-1.1,0.1-1.6,0.1c-1-0.1-2,0-3.1,0.1c-0.7,0-1.5,0.1-2.2-0.1
		c-0.1,0-0.2-0.1-0.4,0c-1,0.1-2.1-0.1-3.1-0.1c-0.6,0-1.2,0.1-1.8,0c-0.8-0.1-1.7,0.1-2.5,0c-0.5,0-0.9-0.4-1-0.9
		c0-0.3,0-0.6,0-0.9c0-0.2,0.1-0.4,0.3-0.4c0.3-0.1,0.7-0.1,0.9,0c0.5,0.2,1.1,0.1,1.6,0.1c0.5,0,1.1,0,1.6,0.1
		c0.4,0,0.7,0.2,1.1,0.2c0,0,0.1,0,0.1,0c0.4-0.3,0.9,0,1.3-0.2c0.1-0.1,0.3,0,0.4,0c0.8,0.1,1.6,0.2,2.3,0.3c0.5,0,1,0,1.4,0.1
		c1.2,0.1,2.5,0,3.7,0c1.5,0,3,0.1,4.5,0.1c0.3,0,0.7-0.1,1-0.1c1,0,2.1,0.1,3.1,0.1c0.2,0,0.3,0.1,0.5,0.1c0.1,0,0.3,0.1,0.4,0.1
		c0.5-0.2,1,0.1,1.5,0.1c0.3,0,0.6,0.2,0.9,0.2c0.3,0,0.6,0.1,0.8,0c0.6-0.2,1.1-0.1,1.7-0.1c0.4,0,0.8,0.1,1.1,0.1
		c0.3,0,0.6,0.1,0.9,0.1c0.3,0.1,0.7,0.3,1,0c0.1-0.1,0.3,0,0.4,0.1c0.3,0.2,0.6,0.2,0.9,0c0.5-0.2,1-0.1,1.5-0.2c0.1,0,0.2,0,0.4,0
		c0.9,0,1.9,0.1,2.8,0.1c0.1,0,0.3,0,0.4,0c0.7-0.4,1.5-0.2,2.3-0.3c0.3,0,0.7-0.1,1-0.1c0.6,0.1,1.3,0.2,1.9,0.2c0.2,0,0.3,0,0.5,0
		c0.7-0.1,1.2,0.2,1.5,0.9c0.1,0.3,0.1,0.6-0.1,0.8c-0.1,0.1-0.2,0.3-0.4,0.4c-0.2,0.2-0.1,0.3,0,0.5c0.1,0.4,0.2,0.8,0.2,1.2
		c0.1,1.7,0.2,3.4,0.4,5.1c0.1,0.9,0.1,1.8,0.1,2.7c0,0.4,0.1,0.7,0.1,1.1c0,0.5,0.1,1.1,0.1,1.6c0,0.8,0.1,1.5,0.1,2.3
		c0,0.4,0.1,0.9,0.1,1.3c-0.1,0.6,0,1.3,0,1.9c0,2.1,0.1,4.3,0.1,6.4c0,0.8,0.1,1.7,0.1,2.5c0,0.1,0,0.2,0,0.3c0,0.5,0.1,1,0.1,1.5
		c0,0.5,0,0.9,0,1.4c0,0.9-0.2,1.9,0.1,2.8c0.1,0.2,0.1,0.4,0,0.6c-0.2,1.2,0,2.4,0,3.6c0,0.6,0.1,1.2,0.2,1.8c0,0.3,0.1,0.6,0,0.8
		c-0.2,0.8-0.1,1.5,0,2.3c0.1,0.7,0.1,1.4,0.1,2.1c0,0.6,0,1.3,0.4,1.8c0.3,0.4,0.2,1,0.2,1.5c0,0.4,0,0.7,0,1.1
		c0,0.3-0.1,0.6-0.1,0.9c-0.1,0.3-0.1,0.6,0.2,0.9c0.5,0.4,0.4,0.8,0.2,1.3c-0.2,0.6-0.6,0.7-1.1,0.9c-0.4,0.1-0.9,0.2-1.2,0.5
		c-0.1,0.1-0.3,0.1-0.5,0.1c-1.1-0.1-2.2,0.1-3.3,0.2c-0.6,0.1-1.2,0.1-1.8-0.1c-0.5-0.2-1,0-1.5,0c-0.4,0-0.8-0.1-1.2-0.1
		c-0.1,0-0.2-0.1-0.3-0.1c-0.9,0.2-1.8,0-2.7,0.1c-1.1,0-2.2,0.1-3.2,0.1c-1,0-2,0-2.9,0c-0.6,0-1.3,0.1-1.9,0.1
		c-0.9,0.1-1.7,0.2-2.6,0.1c-0.5,0-1,0-1.4,0.1c-0.6,0.1-1.3,0.1-1.9,0.1c-1.1,0.1-2.2,0.2-3.3,0.3c-0.5,0-0.9,0.1-1.4,0.1
		c-1.3,0.1-2.6,0.2-3.9,0.3c-1,0.1-1.9,0.1-2.9,0.2c-1.1,0-2.2,0.1-3.3,0.1c-0.4,0-0.7,0.1-1.1,0.1c-0.7,0-1.3,0-2,0.1
		c-1.2,0.1-2.3,0-3.4-0.3c-0.1,0-0.2-0.1-0.4-0.1c-0.5,0.1-0.8-0.3-1.1-0.6c-0.1-0.1,0-0.3-0.1-0.4c-0.2-0.5,0.1-0.9,0.5-1.2
		c0.2-0.1,0.2-0.3,0.3-0.5c0.1-0.4,0.3-0.8,0.3-1.3c0-0.4,0-0.7,0-1.1c0,0,0-0.1,0-0.1c0.1-0.3,0.2-0.6,0.1-0.8
		c-0.1-0.3-0.1-0.6-0.1-0.9c0-0.6,0-1.1-0.1-1.7c-0.1-0.7-0.2-1.4-0.3-2.1c-0.1-0.8-0.3-1.6-0.4-2.5c-0.1-0.9-0.2-1.8-0.3-2.7
		c0-0.2-0.2-0.4-0.2-0.6c-0.1-0.7-0.1-1.3-0.2-2c0-0.1,0-0.2,0-0.2c-0.1-0.9-0.2-1.9-0.3-2.8c-0.1-0.5-0.1-0.9-0.3-1.3
		c-0.1-0.4-0.2-0.7-0.2-1.1c0-0.6-0.1-1.3-0.2-1.9c0-0.2,0-0.4,0-0.6c0-1-0.1-2-0.2-3c-0.1-0.5-0.2-0.9-0.3-1.4
		c-0.1-0.5-0.2-1.1-0.2-1.6c-0.1-0.5-0.3-1-0.2-1.5c0.1-0.3-0.1-0.6-0.2-1c0-0.3,0-0.5-0.1-0.8c0-0.3,0-0.7,0-1c0-0.6-0.2-1.2,0-1.8
		c0-0.1,0-0.2,0-0.2c-0.3-0.8-0.2-1.7-0.2-2.5c0-0.2-0.1-0.3-0.1-0.5c0-0.3-0.1-0.6-0.1-0.8c0.2-0.7,0.1-1.3,0-2
		c-0.1-1.2-0.2-2.4,0-3.6c0-0.1,0-0.3,0-0.5c0-0.5,0-1,0-1.5c0-0.7,0.2-1.3,0.2-1.9c-0.1-0.7,0-1.4,0-2.1c0-0.6,0.1-1.2,0.1-1.8
		c0-0.2,0-0.3,0-0.5c0-0.3-0.1-0.5,0.2-0.8c0.3-0.3,0.6-0.5,1-0.6c0.5,0,0.9,0.4,1,0.9C22,57.2,22,57.4,22.1,57.7
		C22,57.7,22,57.7,22.1,57.7z"/>
	<path d="M89.9,94.2c1.2-0.1,2.4-0.2,3.6-0.3c0.1,0,0.2,0,0.4,0c1.3-0.1,2.5-0.2,3.8-0.2c0.7,0,1.5-0.1,2.2-0.1
		c0.7-0.1,1.4-0.1,2.1-0.2c0.5,0,0.9,0,1.4-0.1c0.7,0,1.5-0.1,2.2-0.2c0.2,0,0.5,0,0.7,0c0.9,0,1.8,0,2.7-0.1c0.6,0,1.1-0.1,1.7-0.2
		c0.2,0,0.3-0.1,0.5,0c0.4,0.1,0.9,0,1.3,0c0.8-0.1,1.6-0.1,2.4-0.2c0.1,0,0.1,0,0.2,0c1.2-0.1,2.3-0.3,3.5-0.4c0.4,0,0.8,0,1.2,0
		c0.7-0.1,1.4-0.2,2.1-0.3c0.8-0.1,1.7-0.2,2.5-0.2c1.6-0.1,3.3-0.2,4.9-0.3c0.5,0,0.9-0.1,1.4-0.2c0.2,0,0.3-0.1,0.5,0
		c1.3,0.1,2.5,0,3.8,0c1.2,0,2.3-0.2,3.5-0.3c0.2,0,0.4,0,0.6,0c0.2,0,0.4,0.1,0.5,0c0.5-0.1,0.8,0.1,1.1,0.4c0,0,0.1,0.1,0.1,0.1
		c0.1,0.2,0.5,0.3,0.3,0.7c-0.2,0.4-0.3,0.9-0.8,1c-0.4,0.1-0.9,0.2-1.3,0.1c-0.4-0.1-0.7,0-1.1,0c-1.7-0.1-3.3-0.1-5-0.1
		c-1,0-2,0-2.9,0.1c-1.2,0.1-2.4,0.2-3.6,0.2c-0.6,0-1.1,0.1-1.7,0.1c-1,0-2,0.2-3,0.2c-0.5,0-0.9,0.1-1.4,0.1
		c-1.1,0.2-2.1,0.3-3.2,0.3c-1.3,0.1-2.7,0.1-4,0.3c-0.3,0-0.6-0.1-1,0.1c-0.2,0.2-0.6,0-1,0c-1.2,0.1-2.4,0.3-3.7,0.4
		c-0.4,0-0.9,0-1.3,0c-0.4,0-0.8,0.2-1.2,0.1c-0.6-0.1-1.2,0.1-1.8,0c-0.3,0-0.7,0.1-1,0.1c-0.5,0-1,0.1-1.5,0.2
		c-0.9,0.2-1.8,0-2.7,0.3c-0.3,0.1-0.7,0-1,0c-0.1,0-0.2,0-0.3,0c-0.2,0-0.3,0.1-0.5,0.1c0.2,0,0.3,0.2,0.4,0.2c0.3,0.1,0.7,0,1,0
		c0.1,0,0.1,0,0.2,0c0.7,0.3,1.5,0.3,2.3,0.4c0.4,0,0.9,0.1,1.3,0.2c0.3,0,0.6,0.1,0.9,0.1c0.5,0,0.8,0.3,0.9,0.7
		c0.1,0.2,0.2,0.4,0.3,0.6c0.2,0.4,0.2,0.5-0.2,0.8c-0.4,0.2-0.8,0.3-1.3,0.2c-1.1-0.1-2.1-0.5-3.2-0.7c-0.5-0.1-1.1,0-1.7-0.1
		c-0.2,0-0.5,0-0.7-0.1c-0.4-0.1-0.8-0.1-1.2-0.2c-0.7-0.1-1.3-0.2-2-0.3c-0.3,0-0.6-0.1-0.8,0c-0.4,0.1-0.8,0-1.2-0.1
		c-0.5-0.2-1.1-0.2-1.7-0.2c-0.6,0-1.2,0-1.9,0c-0.1,0-0.2,0-0.3,0c-0.8,0.4-1.6-0.1-2.4-0.2c-0.5,0-1-0.4-1.4-0.6
		c-0.4-0.2-0.4-1.1-0.1-1.4c0.5-0.5,1.1-0.9,1.6-1.4c0.1-0.1,0.2-0.2,0.3-0.2c0.1-0.1,0.2-0.2,0-0.3c-0.2-0.2-0.2-0.3,0-0.5
		c0.1-0.1,0.1-0.2,0.2-0.3c0.1-0.1,0.2-0.3,0.4-0.4c0.7-0.3,1.3-0.6,2-0.9c0.3-0.2,0.7-0.2,1.1-0.4c0.4-0.2,0.7-0.5,1.1-0.7
		c0.2-0.2,0.4-0.4,0.6-0.6c0.5-0.3,1-0.6,1.5-0.9c0.1-0.1,0.2-0.2,0.4-0.3c0.2-0.2,0.4-0.3,0.6-0.4c0.2-0.1,0.5-0.1,0.6,0
		c0.4,0.4,0.7,0.8,1.1,1.2c0,0,0,0.1,0,0.1c-0.3,0.3-0.3,0.7-0.7,0.9c-0.4,0.2-0.7,0.4-1,0.7c-0.6,0.5-1.2,1-1.9,1.4
		c-0.9,0.6-1.7,1.1-2.5,1.7c-0.1,0-0.1,0.2-0.2,0.2c0.1,0,0.2,0.1,0.3,0.1C89.1,94.1,89.5,94.1,89.9,94.2
		C89.9,94.1,89.9,94.1,89.9,94.2z"/>
	<path d="M144.3,152c-0.4,0.1-0.7,0.2-1.1,0.3c-0.2,0.1-0.5,0.1-0.7,0.2c-0.6,0.1-1.1,0.3-1.7,0.4c-0.8,0.2-1.6,0.4-2.3,0.5
		c-1,0.2-1.9,0.5-2.9,0.7c-0.6,0.1-1.2,0.4-1.9,0.5c-0.6,0.1-1.1,0.4-1.6,0.5c-0.7,0.2-1.3,0.4-2,0.6c-0.6,0.2-1.2,0.4-1.7,0.6
		c-0.2,0.1-0.5,0.1-0.7,0.2c-0.7,0.2-1.3,0.5-2,0.7c-0.8,0.3-1.6,0.7-2.4,0.9c-0.8,0.2-1.6,0.5-2.4,0.9c-0.7,0.3-1.4,0.6-2.1,0.9
		c-0.8,0.3-1.5,0.6-2.3,0.8c-0.5,0.2-1,0.5-1.5,0.7c-0.5,0.2-1.1,0.4-1.6,0.6c-1,0.5-2.1,0.7-3.1,1.3c0,0,0,0-0.1,0
		c-0.8,0.2-1.5,0.7-2.2,1c-0.5,0.2-0.9,0.5-1.4,0.7c-0.7,0.4-1.5,0.6-2.3,1c-0.1,0-0.1,0-0.2,0.1c-0.4,0.6-1.2,0.6-1.7,1
		c-0.1,0.1-0.3,0.1-0.4,0.2c-0.3,0.1-0.6,0.2-0.9,0.4c-0.3,0.2-0.7,0.3-1,0.5c-0.4,0.3-0.8,0.5-1.3,0.6c-0.4,0.1-0.8,0.5-1.2,0.7
		c-0.4,0.2-0.9,0.5-1.4,0.7c-0.6,0.2-1,0.4-1.5,0.8c-0.4,0.3-0.8,0.4-1.2,0.7c-0.5,0.3-1,0.7-1.6,0.9c-0.6,0.2-1,0.5-1.4,1
		c-0.1,0.1-0.3,0.1-0.4,0.2c-0.1,0.1-0.4,0.1-0.4,0.4c0,0.1-0.1,0.1-0.2,0.2c-0.6,0.2-1.1,0.6-1.6,1.1c-0.6,0.5-1.3,0.9-2.1,0.9
		c-0.5,0-0.9,0.2-1.4,0.2c-0.7,0.1-1.5-0.6-1.4-1.3c0-0.2,0.2-0.5,0.4-0.6c0.4-0.3,0.9-0.5,1.3-0.6c0.7-0.2,1.3-0.5,1.9-0.9
		c0.4-0.3,0.8-0.4,1.3-0.7c1.6-0.8,3.2-1.6,4.8-2.5c0.6-0.3,1.2-0.7,1.8-1c0.9-0.5,1.8-0.9,2.7-1.3c0.6-0.3,1.1-0.6,1.7-0.8
		c0.9-0.4,1.8-0.9,2.7-1.3c1-0.5,2-1,3-1.4c1.3-0.6,2.7-1.2,4-1.8c0.8-0.4,1.6-0.8,2.4-1.1c1.1-0.5,2.1-0.9,3.2-1.3
		c1.2-0.5,2.4-1,3.6-1.4c0,0,0.1,0,0.1-0.1c0.9-0.3,1.8-0.6,2.7-1c0.8-0.3,1.6-0.7,2.4-1c0.8-0.3,1.6-0.6,2.5-0.8
		c0.6-0.2,1.3-0.4,1.9-0.6c0.4-0.1,0.8-0.2,1.1-0.3c0.4-0.2,0.9-0.4,1.3-0.5c0.5-0.2,1.1-0.3,1.6-0.5c1-0.3,2.1-0.6,3.1-0.9
		c0.9-0.2,1.7-0.5,2.6-0.7c0.2-0.1,0.5-0.1,0.7-0.2c1-0.2,2.1-0.5,3.1-0.7c1.3-0.3,2.5-0.5,3.8-0.8c0.6-0.1,1.2-0.4,1.8-0.5
		c1.6-0.4,3.2-0.9,4.9-1.2c0.8-0.1,1.5-0.4,2.3-0.7c0.6-0.2,1.1-0.4,1.7-0.5c0.5-0.1,0.9-0.4,1.3-0.8c0.1-0.1,0.1-0.3,0.1-0.4
		c0.1-0.3,0.2-0.3,0.5-0.2c0.8,0.5,0.9,1.3,0.7,2.1c0,0.1-0.1,0.1-0.1,0.2c-0.7,0.7-1.5,1.1-2.4,1.3c-0.7,0.1-1.3,0.3-2,0.5
		c-0.3,0.1-0.5,0.1-0.8,0.2c-1.7,0.4-3.4,0.8-5.2,1.3c-0.8,0.2-1.7,0.4-2.5,0.6C144.8,151.9,144.6,152,144.3,152
		C144.3,152,144.3,152,144.3,152z"/>
	<path d="M80.7,67.6c0.1-0.9,0.4-1.3,1.2-1.4c0.1,0,0.3,0,0.4,0.1c0.6,0.3,1.2,0.4,1.8,0.5c1,0.1,2,0.1,3,0.2c0.2,0,0.4,0.1,0.6,0.1
		c0.2,0,0.3,0.1,0.5,0.1c1.6,0,3.3,0,4.9,0c0.3,0,0.6-0.1,0.9,0c0.2,0.1,0.5,0,0.7-0.1c0.5-0.1,1-0.3,1.5,0.2c0.2,0.2,0.5,0,0.7-0.1
		c0.2-0.1,0.3-0.2,0.5-0.1c0,0,0.2,0,0.2,0c0.2-0.1,0.3-0.1,0.5,0c0,0,0.1,0.1,0.1,0.1c0.6-0.3,1.2,0.2,1.8,0c0.1,0,0.3-0.1,0.4-0.1
		c0.3-0.1,0.5-0.2,0.8-0.2c0.5,0,1,0,1.5,0c0.2,0,0.4,0.1,0.6,0.1c0.4,0,0.8,0.1,1.3,0c0.4-0.1,0.9-0.4,1.4,0c0.1,0,0.2,0,0.3-0.1
		c0.3-0.2,0.5-0.3,0.8-0.1c0.1,0,0.2,0,0.3,0c0.1,0,0.3-0.1,0.3,0c0.4,0.2,0.8,0.2,1.3,0c0.1,0,0.4-0.1,0.4,0.1c0.3,0,0.7,0,1-0.1
		c0.4-0.1,1.3-0.1,1.7-0.1c0.3,0,0.7,0,1,0c0.1,0,0.2-0.1,0.3,0c0.9,0.2,0.9,0.2,1.7-0.1c0.1,0,0.1,0,0.2,0c0.4,0,0.9,0,1.3,0.1
		c0.5,0.1,0.9,0.1,1.4,0c0.3-0.1,0.7-0.1,1.1,0c0.4,0,0.8-0.1,1.3-0.1c0.6,0.1,1.2,0,1.8-0.1c0.4,0,0.8-0.1,1.2-0.1c0.5,0,1,0,1.5,0
		c0.4,0,0.8-0.1,1.2-0.1c0,0,0.1,0,0.1-0.1c0,0-0.1,0-0.1,0c-0.7-0.3-1.5-0.6-2.3-0.8c-0.7-0.1-1.2-0.6-1.8-1
		c-0.3-0.2-0.6-0.3-0.9-0.5c-0.4-0.3-0.8-0.6-0.7-1.1c0-0.7,0.5-0.9,1-1.2c0.5-0.2,0.9,0.1,1.2,0.4c0.5,0.5,1.1,0.9,1.7,1.1
		c0.1,0,0.2,0.1,0.3,0.1c0.5,0.2,1.1,0.4,1.6,0.6c0.7,0.2,1.4,0.4,2,0.7c0.5,0.2,1,0.3,1.5,0.4c0.4,0.1,0.8,0.2,1.3,0.3
		c0.9,0.2,1.8,0.4,2.6,0.6c0.6,0.1,1.1,0.4,1.7,0.4c0.1,0,0.3,0.2,0.4,0.3c0.2,0.1,0.3,0.3,0.4,0.4c0.5,0.4,0.5,0.8,0,1.1
		c-0.2,0.2-0.5,0.4-0.7,0.5c-1.3,0.7-2.6,1.5-4,1.9c-0.9,0.3-1.9,0.6-2.7,1c-0.9,0.5-1.9,0.7-2.9,1c-0.9,0.3-1.7,0.6-2.5,1.1
		c-0.1,0.1-0.3,0.1-0.5,0.1c-0.7,0.3-1.5,0.2-2.2,0.3c-0.3,0-0.7-0.5-0.6-0.8c0.1-0.3,0.2-0.6,0.6-0.6c0.4-0.1,0.8-0.1,1-0.6
		c0.1-0.2,0.4-0.3,0.6-0.3c0.6-0.2,1.1-0.4,1.7-0.6c1.1-0.4,2.2-0.8,3.3-1.2c0.2-0.1,0.4-0.1,0.6-0.1c0.5-0.2,0.9-0.3,1.4-0.5
		c0.2-0.1,0.4-0.2,0.6-0.2c0.6-0.2,1.2-0.3,1.8-0.6c0.3-0.1,0.5-0.3,0.7-0.5c0,0-0.1-0.1-0.1-0.2c-0.2-0.1-0.5-0.1-0.7-0.2
		c-0.2-0.1-0.5-0.1-0.7-0.2c-0.5-0.2-0.9-0.3-1.5-0.3c-0.3,0-0.7-0.2-1-0.2c-0.2,0-0.3-0.1-0.5-0.2c0,0-0.1,0-0.2,0
		c0,0.1,0,0.1,0.1,0.2c0.1,0.1,0.1,0.2,0.2,0.3c0.4,0.6,0.2,1.1-0.3,1.4c-0.4,0.2-0.8,0.3-1.2,0.4c-0.2,0-0.4,0-0.6-0.1
		c-0.5-0.4-1-0.3-1.6-0.3c-0.3,0-0.5,0-0.8,0c-0.4,0-0.8,0-1.2,0c-0.7,0-1.3,0.1-2,0.1c-0.1,0-0.3,0-0.4,0c-0.9-0.1-1.8-0.1-2.7-0.1
		c-0.7,0-1.4,0.1-2.2,0c-0.4-0.1-0.9,0.1-1.3,0.1c-0.8,0-1.5,0-2.3,0c-2,0-3.9,0.1-5.9,0.1c-1.3,0-2.5,0.1-3.8,0.1c-2,0-4,0.1-6,0.1
		c-0.3,0-0.6,0.1-0.9,0.1c-0.2,0-0.4,0-0.7,0c-0.4,0-0.7-0.1-1.1,0c-0.4,0.1-0.9,0-1.3,0c-0.6,0-1.2-0.1-1.8,0
		c-1.1,0.1-2.3,0.2-3.4,0c-0.4-0.1-0.8,0-1.1,0c-0.8,0-1.6,0.1-2.4,0.1c-0.3,0-0.6-0.1-0.9-0.2c-0.3-0.1-0.6-0.2-0.9-0.2
		C80.8,68.3,80.7,68.1,80.7,67.6z"/>
	<path d="M52.6,148.7c0-0.2,0-0.4,0-0.6c0-0.5,0.6-1,1.1-0.8c0.3,0.1,0.5,0.2,0.7,0.4c0.1,0.1,0.2,0.2,0.2,0.3
		c0.2,0.9,0.5,1.9,0.7,2.8c0.1,0.6,0.2,1.3,0.3,1.9c0.1,0.5,0.2,0.9,0.3,1.4c0.1,0.7,0.3,1.4,0.5,2c0.1,0.4,0.3,0.8,0.5,1.2
		c0.1,0.3,0.2,0.6,0.3,0.8c0,0.1,0.1,0.2,0.2,0.2c0.1,0,0.2-0.1,0.2-0.2c0-0.6,0.5-0.9,0.7-1.4c0.3-1,0.9-1.9,1.2-2.8
		c0.2-0.6,0.6-1.1,0.6-1.8c0-0.1,0-0.2,0.1-0.3c0.2-0.6,0.3-1.1,0.6-1.7c0.2-0.6,0.5-1.1,0.6-1.7c0.1-0.5,0.3-0.9,0.4-1.4
		c0.2-0.6,0.3-1.2,0.5-1.8c0.1-0.3,0.1-0.7,0.2-1c0.2-0.8,0.3-1.7,0.5-2.5c0.1-0.3,0.1-0.7,0.1-1c0-0.4,0.2-0.7,0.3-1
		c0.1-0.3,0.3-0.4,0.6-0.4c0.5,0,0.8,0.3,1.2,0.5c0,0.4,0.3,0.6,0.3,0.9c0,0.5,0.1,0.9-0.2,1.4c-0.1,0.1,0,0.3,0,0.5
		c0,0.2,0,0.4-0.3,0.3c-0.2,0-0.3,0-0.4,0.2c-0.2,0.8-0.3,1.5-0.5,2.3c-0.2,0.7-0.3,1.4-0.5,2.1c-0.2,0.6-0.4,1.2-0.6,1.8
		c-0.2,0.4-0.2,0.9-0.2,1.3c0,0.2-0.1,0.4-0.2,0.7c-0.3,0.5-0.4,1-0.6,1.5c-0.2,0.5-0.4,1.1-0.6,1.6c0,0.1-0.1,0.1-0.1,0.2
		c-0.1,0.7-0.5,1.3-0.7,2c-0.2,0.8-0.5,1.5-0.8,2.3c-0.1,0.3-0.2,0.6-0.3,0.9c-0.1,0.2-0.2,0.3-0.3,0.4c-0.3,0.2-0.4,0.5-0.6,0.8
		c-0.3,0.6-1,0.7-1.5,0.3c-0.7-0.7-1.1-1.6-1.6-2.4c-0.2-0.3-0.3-0.6-0.4-1c-0.3-0.7-0.5-1.4-0.8-2.1c0-0.1,0-0.2,0-0.2
		c-0.1-0.3-0.1-0.6-0.2-0.9c0-0.2-0.2-0.3-0.3-0.4c-0.1,0.2-0.2,0.3-0.2,0.5c-0.1,0.4-0.2,0.8-0.3,1.2c-0.1,0.3-0.2,0.6-0.4,0.9
		c-0.2,0.4-0.3,0.9-0.5,1.3c-0.4,1.2-1,2.2-1.4,3.4c-0.2,0.7-0.7,1.2-1.1,1.7c-0.2,0.3-0.6,0.3-0.9,0.1c-0.4-0.3-0.6-0.7-0.8-1.1
		c-0.1-0.5-0.3-0.9-0.4-1.4c-0.1-0.3-0.1-0.7-0.1-1c0-0.6-0.3-1.2-0.3-1.8c0-0.2,0-0.4,0.1-0.6c0.2-0.3,0.2-0.7,0-1
		c-0.2-0.3-0.2-0.5-0.2-0.9c0-0.4,0-0.7,0-1.1c0-0.6,0.1-1.1,0.2-1.7c0-0.4,0-0.8-0.1-1.2c-0.1-0.7,0.1-1.3,0-2c0-0.4,0-0.8,0-1.1
		c0.1-0.5,0.2-1,0.2-1.6c0.1-0.6,0.1-1.1,0.1-1.7c0-0.8,0.7-1.3,1.5-0.9c0.2,0.1,0.5,0.2,0.5,0.4c0.1,0.3,0.1,0.6,0.1,0.9
		c0,0.3-0.1,0.6,0.1,0.9c0,0,0,0.1,0,0.1c-0.2,0.5-0.1,1-0.1,1.5c-0.1,1-0.1,2-0.4,2.9c-0.1,0.5,0.1,0.9,0,1.4
		c-0.1,0.4-0.1,0.9-0.1,1.3c0,0.2,0,0.4,0,0.6c0,1.1,0,2.2,0.1,3.3c0,0.5,0.1,1,0.1,1.5c0,0.1,0.1,0.2,0.1,0.2
		c0.1,0,0.2-0.1,0.2-0.2c0.2-0.4,0.4-0.8,0.6-1.2c0.6-1.2,0.9-2.4,1.2-3.7c0.4-1.5,0.5-3,0.8-4.5C52.6,149.6,52.6,149.1,52.6,148.7
		C52.6,148.7,52.6,148.7,52.6,148.7z"/>
	<path d="M92.4,151.6c0.1-0.7,0.1-1.4,0.2-2.1c0-0.4,0-0.9,0.1-1.3c0-0.7,0.1-1.4,0.2-2.1c0-0.3,0-0.6,0-0.9c0-0.3,0-0.6,0-0.9
		c0.1-0.6,0.5-0.9,1-1c0.5-0.1,0.9,0.1,1.2,0.5c0.1,0.1,0.1,0.3,0.1,0.4c0,0.4,0,0.9-0.1,1.3c0,0.1,0,0.1,0,0.2
		c-0.2,0.8-0.2,1.5-0.2,2.3c0,0.4,0.1,0.9-0.2,1.3c-0.1,0.1,0,0.3,0,0.5c0,0.2,0.1,0.4,0.1,0.6c0.1-0.2,0.4-0.4,0.4-0.6
		c0.5-1.4,0.9-2.8,1.4-4.2c0-0.1,0.1-0.3,0.1-0.5c0-0.6,0.3-0.9,0.8-1.1c0.2,0,0.4-0.1,0.5,0c0.5,0.2,0.9,0.5,1,1.1
		c0.1,0.5,0.4,1,0.6,1.4c0.2,0.4,0.3,0.7,0.5,1.1c0.2,0.4,0.4,0.9,0.5,1.3c0.1,0.5,0.5,0.8,0.9,1.1c0,0,0.2-0.1,0.3-0.1
		c0.1-0.2,0.2-0.5,0.2-0.7c0.1-0.2,0.2-0.4,0.2-0.5c0-0.1,0.1-0.2,0.1-0.3c-0.1-0.8,0.6-1.3,0.6-2c0-0.2,0.2-0.4,0.3-0.6
		c0.3-0.6,0.5-1.3,0.8-1.9c0.3-0.7,0.8-1.3,1.2-2c0.2-0.2,0.5-0.3,0.8-0.4c0.2-0.1,0.4-0.1,0.6-0.2c0.3-0.1,0.6,0.1,0.7,0.4
		c0,0.3,0,0.5-0.3,0.7c-0.4,0.3-0.7,0.7-0.9,1.2c-0.4,1.2-0.9,2.4-1.3,3.7c0,0,0,0,0,0.1c-0.1,1.1-0.8,2.1-0.9,3.2
		c0,0.3-0.1,0.5-0.1,0.8c-0.1,0.2-0.2,0.5-0.3,0.7c-0.6,0.1-0.7,0.7-1.2,0.9c-0.3,0.1-0.6,0.1-0.8,0c-0.5-0.5-1.1-0.9-1.6-1.4
		c-0.3-0.4-0.6-0.8-0.9-1.2c-0.1-0.1-0.1-0.3-0.2-0.4c-0.3-0.6-0.6-1.1-0.9-1.7c-0.1-0.2-0.2-0.2-0.3,0c-0.1,0.4-0.3,0.8-0.4,1.2
		c-0.2,0.6-0.4,1.1-0.6,1.7c-0.1,0.3-0.3,0.7-0.5,1c-0.2,0.6-0.4,1.1-0.7,1.7c-0.3,0.7-0.9,1.1-1.3,1.6c-0.3,0.3-0.5,0.2-0.8,0
		c-0.4-0.3-0.6-0.8-0.7-1.3c-0.1-0.6-0.2-1.2-0.2-1.8C92.4,152.2,92.4,151.9,92.4,151.6C92.4,151.6,92.4,151.6,92.4,151.6z"/>
	<path d="M126.6,147.8c0,0.2,0.1,0.4,0.1,0.5c0.3,0.5,0.3,1.1,0.3,1.7c0,0.8-0.8,1.3-1.5,1.2c-0.3-0.1-0.5-0.3-0.6-0.6
		c-0.3-1-0.6-2-0.8-3c-0.2-1-0.3-2-0.6-3c-0.2-0.8-0.6-1.6-1-2.4c0-0.1-0.2-0.2-0.2-0.3c-0.4-0.3-0.4-0.3-0.7,0.1
		c-0.5,0.5-0.8,1-1.1,1.6c-0.3,0.6-0.7,1.2-1.1,1.8c-0.3,0.5-0.6,0.9-0.8,1.4c-0.4,1-0.9,2-1.3,3c-0.2,0.5-0.5,1-0.7,1.5
		c-0.3,0.6-0.6,1.1-1.2,1.3c-0.5,0.2-0.8,0.2-1-0.3c-0.1-0.3-0.2-0.6-0.3-0.9c-0.1-1.1-0.2-2.1-0.1-3.2c0.1-1.2,0.3-2.3,0.5-3.4
		c0.2-0.7,0.3-1.4,0.7-2c0.2-0.5,0.7-0.7,1.1-0.9c0.1-0.1,0.3,0,0.4,0c0.2,0,0.3,0.1,0.5,0c0.2-0.1,0.3,0,0.4,0.2
		c0.3,0.6-0.1,1.1-0.2,1.6c-0.2,0.6-0.4,1.1-0.6,1.7c0,0.1,0,0.3,0,0.4c0,0,0.1,0.1,0.1,0.1c0.1,0,0.2,0,0.2-0.1
		c0.3-0.6,0.7-1.2,1-1.8c0.3-0.5,0.6-1,0.9-1.4c0.1-0.1,0.2-0.2,0.2-0.3c0.2-0.8,0.9-1.3,1.3-1.9c0.3-0.5,0.8-0.7,1.3-0.8
		c0.3-0.1,0.7,0,1,0.1c0.8,0.3,1.5,0.7,1.9,1.6c0.2,0.4,0.4,0.7,0.6,1.1c0.6,1.2,0.8,2.6,1.1,4C126.5,146.9,126.6,147.3,126.6,147.8
		C126.6,147.8,126.6,147.8,126.6,147.8z"/>
	<path d="M71.7,152.1c0-0.4,0.1-0.9,0.2-1.4c0-0.1,0.1-0.2,0-0.2c-0.2-0.5-0.1-1.1,0-1.6c0-0.3,0.1-0.6,0.1-0.9
		c0.1-0.8,0.1-1.5,0.4-2.3c0.2-0.6,0.7-0.8,1.3-0.6c0.4,0.2,0.6,0.4,0.6,0.9c0,0.3-0.1,0.6-0.1,1c0,0.1,0,0.2,0,0.2
		c0.1,0.2,0.1,0.6,0.2,0.6c0.3,0.1,0.3-0.3,0.4-0.4c0.1-0.2,0.3-0.3,0.4-0.5c0.1-0.1,0.2-0.2,0.3-0.3c0.2-0.2,0.4-0.4,0.6-0.5
		c0.5-0.4,1-0.4,1.5-0.1c0.3,0.2,0.6,0.3,0.8,0.5c0.6,0.5,1,1.2,1.2,1.8c0.3,0.8,0.5,1.7,0.7,2.6c0.1,0.5,0.3,1,0.4,1.5
		c0.1,0.6,0.2,1.2,0.2,1.8c0,0.1,0,0.2,0,0.3c0.4,0.7-0.2,1.2-0.4,1.8c0,0.1-0.3,0.1-0.4,0.1c-0.5-0.2-0.9-0.5-1-1
		c-0.2-0.6-0.4-1.2-0.6-1.9c-0.2-0.6-0.3-1.3-0.5-1.9c-0.2-0.8-0.4-1.5-0.7-2.3c-0.1-0.3-0.3-0.5-0.4-0.7c-0.1-0.2-0.3-0.2-0.5,0
		c-0.2,0.3-0.4,0.5-0.6,0.8c-0.3,0.7-0.7,1.4-0.9,2.1c-0.3,1.1-0.6,2.1-0.8,3.2c-0.1,0.3-0.1,0.5-0.4,0.6c-0.2,0.1-0.4,0.3-0.5,0.5
		c-0.2,0.3-0.4,0.3-0.7,0.3c-0.1,0-0.2,0-0.2-0.1c-0.1-0.5-0.6-0.7-0.6-1.3C71.8,153.8,71.7,153,71.7,152.1z"/>
	<path d="M108.8,151c0.1-1,0.1-2,0.2-3c0.1-1.1,0.2-2.2,0.3-3.3c0-0.3,0.1-0.6,0.1-0.9c0-0.6,0.1-1.2,0.1-1.7c0-0.5,0.2-0.9,0.8-1.2
		c0.3-0.1,0.5-0.1,0.7,0c0.9,0.4,1,0.5,0.9,1.5c-0.1,0.9-0.2,1.9-0.4,2.8c0,0.3-0.1,0.6-0.1,0.9c-0.1,0.6,0,1.2-0.2,1.8
		c-0.2,0.9-0.2,1.8-0.2,2.7c0,0.4-0.1,0.8-0.1,1.2c0,0.3,0,0.6,0,0.9c0,0.3,0.1,0.5,0,0.8c0,0.2,0,0.3,0.1,0.4
		c0.2,0.2,0.2,0.6,0,0.8c-0.2,0.1-0.3,0.2-0.5,0.3c-0.2,0.1-0.5,0.1-0.7-0.2c-0.2-0.2-0.3-0.5-0.6-0.6c-0.1,0-0.1-0.2-0.1-0.3
		c0-0.5-0.2-1.1-0.3-1.6C108.8,151.9,108.9,151.5,108.8,151C108.8,151,108.8,151,108.8,151z"/>
	<path d="M70.7,148.2c-0.1,0.9-0.2,1.9-0.2,2.9c0,0.8-0.2,1.6-0.1,2.4c0.1,0.5,0.1,1.1-0.2,1.6c-0.1,0.1-0.1,0.3,0,0.4
		c0.2,0.5,0.2,0.9,0.1,1.4c-0.1,0.3,0.1,0.6-0.2,0.9c-0.1,0.1-0.2,0.2-0.3,0.2c-0.4,0-0.8-0.1-1-0.5c-0.1-0.3-0.3-0.7-0.3-1
		c0-0.4-0.1-0.7-0.1-1.1c-0.2-0.8-0.2-1.7-0.1-2.5c0-0.3,0-0.6,0-0.9c0-0.3,0.1-0.5,0.1-0.8c0-0.3,0.1-0.7,0.1-1
		c0-0.8,0.1-1.6-0.1-2.4c-0.1-0.5,0.3-1.1,0.7-1.2c0.1,0,0.1,0,0.2,0c0.5,0,0.8,0.4,1.2,0.6C70.7,147.4,70.8,147.8,70.7,148.2z"/>
	<path d="M72,141.9c-0.9,0-1.4-0.4-1.5-1c-0.1-0.4,0-0.7,0.3-0.9c0.3-0.2,0.6-0.3,0.9-0.2c0.3,0.1,0.5,0.1,0.6-0.1
		c0.1-0.2,0.3-0.1,0.4,0c0.1,0.1,0.2,0.3,0.3,0.4c0.1,0.1,0.1,0.2,0.2,0.2c0.2,0.1,0.3,0.2,0.5,0.3c-0.1,0.1-0.3,0.2-0.3,0.4
		C73.1,141.7,72.5,141.8,72,141.9z"/>
	<path d="M134.8,144.5c-0.3,0-0.5-0.1-0.6-0.4c-0.2-0.3-0.1-0.7-0.2-1c0,0,0-0.1,0.1-0.2c0.3-0.3,0.6-0.7,1.1-0.8c0.5,0,1,0,1.3,0.4
		c0.3,0.4,0.3,1.1-0.2,1.4C135.9,144.3,135.4,144.5,134.8,144.5z"/>
</g>
</svg>
