<?xml version="1.0" encoding="utf-8"?>
<!-- Generator: Adobe Illustrator 24.0.2, SVG Export Plug-In . SVG Version: 6.00 Build 0)  -->
<svg version="1.1" id="Layer_1" xmlns="http://www.w3.org/2000/svg" xmlns:xlink="http://www.w3.org/1999/xlink" x="0px" y="0px"
	 viewBox="0 0 218.9 216.7" style="enable-background:new 0 0 218.9 216.7;" xml:space="preserve">
<g>
	<path d="M177,76.7c0.6,0,1.1,0.2,1.6,0.5c0.3,0.2,0.6,0.3,0.9,0.4c0.8,0.2,1.6,0.6,2.3,1.1c0.3,0.2,0.5,0.6,0.8,0.8
		c0.3,0.2,0.5,0.6,0.7,0.9c0.1,0.1,0.1,0.2,0.1,0.3c0,0.1,0.1,0.2,0.1,0.3c0.7,0.6,1.1,1.4,1.4,2.2c0.1,0.4,0.3,0.7,0.4,1.1
		c0.1,0.5,0.2,1.1,0.4,1.6c0.3,0.9,0.1,1.8,0.2,2.7c0.1,0.7,0.1,1.4-0.1,2c-0.3,0.7-0.4,1.4-0.6,2.1c-0.1,0.3-0.3,0.6-0.5,0.8
		c-0.3,0.4-0.5,0.9-0.9,1.2c-0.5,0.5-1.1,0.9-1.8,1.2c-0.6,0.2-1.2,0.4-1.7,0.7c-0.4,0.2-0.9,0.4-1.3,0.6c-0.3,0.1-0.6,0.2-1,0.3
		c0,0-0.1,0.1-0.1,0.1c0,0,0.1,0.1,0.1,0.1c0.2,0,0.4,0,0.7,0c0.8,0,1.5-0.1,2.3-0.1c0.7-0.1,1.3-0.1,2-0.2c0.3,0,0.6,0,0.8,0
		c0.2,0,0.5,0,0.7-0.1c0.9-0.1,1.7-0.3,2.6-0.4c0.4-0.1,0.8-0.1,1.2-0.1c0.6-0.1,1.2-0.2,1.8-0.2c0.3,0,0.6,0.1,0.9,0.2
		c0.4,0.1,0.5,0.4,0.4,0.8c-0.1,0.3,0,0.6-0.1,1c-0.1,0.3-0.2,0.6-0.3,0.8c-0.2,0.6-0.4,1.3-0.6,1.9c-0.1,0.2-0.1,0.4-0.2,0.6
		c-0.2,0.8-0.5,1.5-0.7,2.3c-0.1,0.5-0.3,0.9-0.4,1.4c-0.1,0.9-0.6,1.7-0.8,2.6c-0.1,0.5-0.3,1-0.5,1.5c-0.8,2.2-1.5,4.3-2.3,6.5
		c-0.2,0.6-0.3,1.2-0.5,1.8c-0.3,0.8-0.5,1.6-0.8,2.4c-0.3,0.9-0.5,1.7-0.8,2.6c-0.1,0.5-0.3,0.9-0.5,1.4c-0.2,0.5-0.4,1.1-0.5,1.6
		c-0.2,0.5-0.3,1-0.5,1.5c-0.1,0.3-0.1,0.6-0.2,0.9c-0.4,1.2-0.7,2.4-1.1,3.6c-0.1,0.4-0.2,0.7-0.3,1.1c-0.3,1-0.6,2.1-0.9,3.1
		c0,0,0,0.1,0,0.1c-0.4,0.8-0.4,1.8-0.7,2.6c-0.2,0.6,0,1,0.1,1.5c0,0.4,0.1,0.8,0.2,1.2c0.1,0.9,0.4,1.8,0.6,2.7
		c0.3,1.2,0.5,2.4,0.7,3.6c0.1,0.4-0.1,0.7-0.5,0.9c-0.1,0.1-0.3,0.2-0.4,0.3c-0.1,0.1-0.3,0.3-0.4,0.3c-0.3,0-0.6-0.1-0.8-0.3
		c-0.2-0.2-0.4-0.4-0.4-0.8c0-0.1,0-0.2-0.1-0.3c0-0.1-0.2-0.1-0.2-0.1c-0.2,0.1-0.3,0.2-0.5,0.3c-0.3,0.2-0.5,0.1-0.9,0
		c-0.9-0.4-0.8-1.2-0.6-1.9c0.2-0.9,0.4-1.9,0.4-2.8c0-1,0.4-1.9,0.4-2.9c0-0.6,0-1.2-0.1-1.7c-0.3-1.1-0.6-2.2-0.9-3.3
		c-0.3-1.1-0.5-2.2-0.7-3.2c0-0.1,0-0.3,0-0.4c-0.1-0.7-0.2-1.3-0.5-1.9c-0.2-0.5-0.3-1.1-0.4-1.7c-0.2-0.6-0.3-1.2-0.5-1.8
		c-0.3-0.9-0.6-1.8-0.9-2.8c-0.1-0.2-0.1-0.5-0.2-0.7c-0.4-1.1-0.8-2.1-1-3.3c0-0.2-0.1-0.3-0.2-0.5c-0.1-0.3-0.2-0.5-0.2-0.8
		c0-0.4-0.1-0.7-0.2-1.1c-0.2-0.4-0.3-0.9-0.4-1.4c-0.1-0.7-0.4-1.4-0.7-2.1c-0.1-0.3-0.2-0.7-0.3-1c-0.2-0.7-0.4-1.3-0.6-2
		c-0.1-0.2-0.2-0.5-0.2-0.7c-0.2-0.7-0.3-1.5-0.7-2.1c-0.4-0.9-0.5-2-1.1-2.8c-0.2-0.9-0.8-1.7-1.1-2.6c-0.1-0.2-0.2-0.5-0.4-0.6
		c-0.4-0.3-0.4-0.6-0.3-1c0-0.2,0-0.4,0-0.6c0-0.1,0-0.2-0.1-0.3c-0.6-0.2-0.4-0.7-0.4-1c-0.1-0.2,0.2-0.5,0.5-0.7
		c0.5-0.2,0.9-0.2,1.4-0.1c0.1,0,0.2,0.1,0.3,0.1c0.7,0,1.5-0.1,2.2-0.1c0.2,0,0.5,0,0.7,0c0.2,0,0.4,0,0.5,0c0.6-0.1,1.3,0,1.9-0.1
		c0.4,0,0.8-0.1,1.2-0.1c0.7,0,1.5,0,2.2,0c0.1,0,0.2,0,0.2,0c0.3,0,0.7-0.1,1-0.1c-0.3-0.1-0.6-0.1-0.9-0.2
		c-0.7-0.2-1.4-0.4-2.1-0.6c-1.2-0.4-2-1.1-2.8-2c-0.4-0.5-0.9-1-1.1-1.6c-0.3-0.8-0.7-1.6-1.1-2.3c-0.1-0.2-0.2-0.5-0.3-0.7
		c-0.1-0.2-0.1-0.3-0.1-0.5c0-0.2-0.1-0.3-0.1-0.5c0-0.2-0.1-0.5-0.1-0.8c0-0.1,0-0.3,0-0.4c-0.1-0.6-0.2-1.1,0-1.7
		c0-0.1,0-0.1,0-0.2c-0.2-1.2,0.2-2.2,0.6-3.3c0.1-0.2,0.1-0.4,0.2-0.6c0-0.1,0-0.1,0-0.2c0.3-0.6,0.6-1.2,0.9-1.8
		c0.4-0.6,0.9-1.2,1.3-1.8c0,0,0.1-0.1,0.1-0.1c0.5-0.1,0.8-0.5,1.2-0.9c0.2-0.2,0.5-0.3,0.7-0.4c1.2-0.2,2.4-0.4,3.6-0.6
		C176.6,76.7,176.8,76.7,177,76.7z M167.7,100.5c-0.6,0-0.7,0.2-0.6,0.7c0.1,0.3,0.2,0.6,0.3,0.8c0.3,0.8,0.5,1.6,0.8,2.3
		c0.3,0.8,0.6,1.7,0.9,2.5c0.1,0.4,0.3,0.7,0.4,1c0.2,0.7,0.4,1.5,0.6,2.2c0.3,1.1,0.7,2.2,1.1,3.3c0.3,0.9,0.6,1.9,0.8,2.8
		c0.3,0.9,0.5,1.9,0.8,2.9c0.3,1.1,0.7,2.2,1,3.4c0.1,0.4,0.2,0.8,0.3,1.1c0.3,0.4,0.3,0.9,0.4,1.4c0.1,0.5,0.2,1.1,0.4,1.5
		c0.6,0.9,0.8,2,1.1,3c0.2,0.6,0.3,1.2,0.4,1.8c0.1,0.4,0.2,0.7,0.3,1.1c0.1,0.4,0.3,0.7,0.4,1.1c0.1,0.2,0.1,0.5,0.2,0.7
		c0,0.2,0.1,0.3,0.2,0.5c0.1-0.1,0.2-0.3,0.3-0.4c0,0,0-0.1,0-0.2c0.4-1.3,0.8-2.7,1.2-4c0.4-1.3,0.8-2.5,1.2-3.8
		c0.3-1,0.6-2.1,0.9-3.1c0.3-0.8,0.5-1.7,0.8-2.5c0.3-0.7,0.6-1.4,0.7-2.1c0.1-0.4,0.3-0.8,0.4-1.3c0.1-0.4,0.2-0.8,0.4-1.2
		c0.2-0.7,0.4-1.3,0.6-2c0.2-0.6,0.5-1.2,0.7-1.9c0.3-0.8,0.5-1.6,0.8-2.3c0.4-1.1,0.8-2.2,1.2-3.3c0.3-1.1,0.6-2.1,0.9-3.2
		c0.3-1.2,0.6-2.3,0.9-3.5c0.1-0.2,0.1-0.5,0.2-0.7c0.1-0.3,0-0.4-0.4-0.4c-1.2,0-2.3,0.1-3.5,0.2c-0.8,0-1.5,0.1-2.3,0.2
		c-0.4,0-0.8,0.1-1.2,0.1c-0.9,0.1-1.7,0.2-2.6,0.3c-1.1,0.1-2.2,0.2-3.3,0.3c-1,0.1-2,0.2-3,0.2c-0.7,0-1.4,0.1-2,0.2
		c-0.1,0-0.3,0.1-0.3,0.2c-0.1,0.4-0.4,0.4-0.8,0.5c-0.3,0-0.6,0-0.9-0.2C168.2,100.6,167.9,100.6,167.7,100.5z M183.9,89
		c0-1.6-0.3-3.1-0.8-4.5c-0.1-0.4-0.3-0.9-0.6-1.2c-0.3-0.4-0.3-0.9-0.7-1.2c-0.1-0.1-0.2-0.3-0.3-0.4c-0.3-0.9-1-1.4-1.7-1.9
		c-0.1-0.1-0.2,0-0.3,0c-0.4,0-0.7,0.1-1.1-0.1c-0.2-0.1-0.5-0.1-0.7-0.1c-0.3,0.1-0.6-0.1-0.8-0.2c-0.2-0.1-0.4-0.2-0.5-0.2
		c-0.4,0.1-0.9,0-1.3-0.1c-0.1,0-0.3,0-0.4,0c-0.7,0.2-1.3,0.5-1.8,1c-0.3,0.3-0.7,0.6-1,0.9c-0.1,0.1-0.2,0.2-0.2,0.3
		c-0.5,0.9-0.9,1.9-1.4,2.8c-0.2,0.3-0.3,0.7-0.4,1c-0.1,0.8-0.1,1.6-0.1,2.4c0.1,1.3,0.3,2.4,1,3.5c0.3,0.5,0.6,1.1,0.9,1.6
		c0.3,0.4,0.5,0.9,0.8,1.3c0.1,0.1,0.3,0.2,0.4,0.3c0.4,0.2,0.9,0.4,1.3,0.6c0.7,0.5,1.4,0.5,2.2,0.5c0.9,0,1.7-0.3,2.6-0.6
		c0.8-0.2,1.5-0.6,2.3-0.9c1.2-0.5,1.9-1.4,2.3-2.5C183.8,90.6,184,89.7,183.9,89z"/>
	<path d="M113.3,134.4c1.1,0.1,2,0.2,2.9,0.3c0.4,0.1,0.7,0.3,1.1,0.4c0.5,0.1,0.9,0.3,0.8,0.9c0.3,0.3,0.3,0.8,0.9,0.8
		c0.1,0,0.1,0,0.2,0.1c0.4,0.3,1,0.6,1.4,0.8c0.5,0.3,1,0.7,1.4,1.2c0.6,0.8,1.1,1.6,1.2,2.7c0,0.1,0,0.2,0,0.3
		c0.4,0.7,0.3,1.5,0.5,2.3c0.1,0.8,0.3,1.5,0.2,2.3c0,0.3,0,0.6-0.1,0.9c-0.1,0.3-0.1,0.6-0.1,0.9c0,0.1,0.1,0.2,0,0.2
		c-0.3,0.4-0.2,0.9-0.5,1.2c-0.2,0.2-0.3,0.6-0.4,0.9c-0.1,0.6-0.5,1-0.8,1.4c-0.6,1-1.6,1.5-2.5,2.1c-0.1,0.1-0.3,0.2-0.4,0.3
		c-0.6,0.6-1.4,1-2.1,1.3c-0.1,0-0.1,0.1-0.1,0.1c0.1,0,0.1,0,0.2,0c0.9-0.1,1.7-0.2,2.6-0.3c0.5-0.1,1.1-0.2,1.6-0.3
		c0.4-0.1,0.8-0.1,1.2-0.3c0.6-0.2,1.1-0.5,1.7-0.7c0.4-0.1,0.8-0.3,1.1-0.3c0.6-0.1,1.1,0.4,1.1,1c0,0.5-0.1,1.1-0.2,1.6
		c-0.2,0.9-0.3,1.9-0.5,2.8c-0.1,0.5-0.2,1.1-0.4,1.6c-0.2,0.7-0.4,1.4-0.6,2c-0.2,0.6-0.4,1.1-0.5,1.7c-0.6,1.6-1.1,3.3-1.7,4.9
		c-0.2,0.7-0.6,1.4-0.8,2.1c-0.3,1-0.8,1.8-1,2.8c-0.1,0.5-0.3,1-0.4,1.5c-0.2,0.8-0.5,1.5-0.7,2.3c-0.2,0.8-0.4,1.5-0.6,2.3
		c-0.2,0.8-0.5,1.6-0.7,2.5c-0.1,0.3-0.1,0.7-0.2,1.1c-0.2,1-0.4,2-0.7,2.9c-0.4,1.3-0.8,2.7-1.2,4c-0.4,1.3-0.8,2.7-1.3,4
		c-0.2,0.6-0.1,1.2,0.1,1.8c0.2,0.8-0.4,1.6-1.1,1.8c-0.1,0-0.2,0-0.3,0c-0.5-0.2-1-0.3-1.4-0.8c-0.1-0.1-0.1-0.2-0.1-0.3
		c0-0.4-0.1-0.8,0-1.2c0.1-0.2,0-0.4,0.1-0.5c0-0.2,0.1-0.5,0.1-0.7c0-0.2,0.1-0.4,0-0.5c-0.1-0.7-0.2-1.4-0.5-2
		c0-0.1,0-0.2-0.1-0.3c-0.1-0.4-0.2-0.8-0.4-1.3c-0.2-0.6-0.4-1.2-0.6-1.7c-0.3-0.8-0.7-1.5-0.9-2.4c-0.2-0.7-0.6-1.3-0.6-2
		c0-0.3-0.2-0.6-0.4-0.9c0-0.1-0.1-0.2-0.1-0.3c0.1-0.6-0.4-1.1-0.3-1.6c0-0.1-0.1-0.2-0.1-0.3c-0.1-0.2-0.2-0.3-0.2-0.5
		c-0.2-0.6-0.4-1.2-0.7-1.8c-0.5-1.2-1-2.5-1.5-3.7c-0.3-0.7-0.5-1.4-0.7-2.1c-0.2-0.6-0.5-1.2-0.8-1.9c-0.1-0.2-0.2-0.4-0.2-0.7
		c0-0.2-0.1-0.3-0.1-0.5c-0.6-1.2-1.2-2.4-1.8-3.6c-0.3-0.6-0.6-1.2-0.9-1.8c-0.4-0.6-0.9-1.2-1.2-1.9c-0.3-0.7-0.8-1.1-1.1-1.7
		c-0.2-0.5-0.5-0.9-0.7-1.4c-0.1-0.2-0.1-0.5,0.1-0.7c0.1-0.1,0.2-0.2,0.2-0.3c0.2-0.2,0.1-0.3-0.1-0.4c-0.2-0.1-0.3-0.1-0.5-0.1
		c-0.6-0.1-1-0.9-0.8-1.5c0.2-0.6,0.8-0.9,1.4-0.7c0.7,0.2,1.4,0.4,2.1,0.4c1.2,0,2.4-0.1,3.6,0c0.9,0.1,1.8,0,2.7-0.1
		c0.3,0,0.6,0,1,0c0.7,0,1.3-0.1,1.9-0.3c0.1,0,0.1-0.1,0.1-0.1c0,0-0.1-0.1-0.1-0.1c-0.1-0.1-0.2-0.1-0.3-0.2
		c-0.5-0.4-1-0.9-1.5-1.3c-0.1-0.1-0.2-0.2-0.3-0.3c-0.4-0.6-0.8-1.1-1.2-1.7c-0.3-0.5-0.7-0.9-1-1.4c-0.3-0.6-0.6-1.2-0.8-1.8
		c-0.3-0.7-0.5-1.5-0.6-2.3c-0.1-0.5-0.1-1-0.1-1.5c0-0.4-0.1-0.8,0-1.1c0.1-0.5,0.1-1.1,0.2-1.6c0.1-0.6,0.3-1.2,0.5-1.8
		c0.1-0.4,0.3-0.8,0.5-1.1c0.2-0.3,0.4-0.5,0.6-0.9c0.3-0.5,0.6-1,0.9-1.5c0.5-0.8,1.2-1.4,1.9-1.9c0.1-0.1,0.2-0.1,0.3-0.1
		c0.2-0.1,0.3-0.1,0.5-0.2c0.6-0.5,1.4-0.6,2.2-0.9C112.1,134.6,112.8,134.5,113.3,134.4z M102.7,159c-1,0.1-1.8,0.1-2.5,0.2
		c-0.1,0-0.1,0.1-0.1,0.1c0,0.1,0,0.1,0.1,0.2c0.1,0.2,0.3,0.3,0.4,0.5c0.3,0.5,0.6,1.1,0.9,1.7c0.3,0.7,0.9,1.3,1,2.1
		c0,0.1,0.1,0.2,0.2,0.3c0.3,0.4,0.6,0.7,0.7,1.1c0.2,0.8,1,1.2,1,2c0,0,0,0,0,0c0.2,0.3,0.4,0.6,0.5,1c0.2,0.5,0,1.1,0.6,1.4
		c0,0,0,0,0,0.1c0,0.4,0.3,0.7,0.4,1c0.2,0.5,0.6,1,0.6,1.7c0,0.3,0.2,0.6,0.4,0.9c0.4,0.4,0.7,0.9,0.7,1.4c0,0.7,0.3,1.1,0.6,1.7
		c0.4,0.6,0.6,1.3,0.8,2c0.1,0.3,0.1,0.6,0.3,0.8c0.5,0.8,0.5,1.7,0.9,2.5c0,0,0,0.1,0,0.1c0.1,0.3,0.1,0.7,0.3,1
		c0.3,0.7,0.4,1.4,0.7,2.1c0.5,1.2,0.7,2.6,1.3,3.8c0.1,0.1,0.1,0.3,0.1,0.4c0.3,0.8,0.6,1.7,0.9,2.5c0,0,0.1,0.1,0.1,0.1
		c0,0,0.1-0.1,0.1-0.1c0.1-0.4,0.3-0.8,0.4-1.1c0.2-0.4,0.2-0.9,0.4-1.4c0.2-0.6,0.3-1.3,0.5-2c0.4-1.3,0.7-2.7,1-4
		c0.3-1.2,0.6-2.4,0.8-3.6c0.3-1.3,0.8-2.5,1.2-3.7c0.3-0.8,0.6-1.7,0.9-2.5c0.1-0.4,0.2-0.7,0.3-1.1c0.2-0.6,0.5-1.2,0.7-1.9
		c0.3-0.8,0.5-1.7,0.9-2.4c0.4-0.8,0.7-1.7,1-2.6c0.2-0.5,0.3-1,0.5-1.5c0.1-0.3,0.1-0.5,0.2-0.8c0.2-0.9,0.5-1.8,0.8-2.7
		c0.3-0.9,0.2-1.8,0.3-2.7c0.1-0.4-0.1-0.5-0.5-0.4c-0.5,0.1-1,0.3-1.5,0.4c-1.3,0.2-2.7,0.4-4.1,0.5c-0.4,0-0.8,0.1-1.2,0.2
		c-0.2,0-0.4,0-0.7,0c-0.3,0-0.5,0-0.8,0c-0.8,0.2-1.7,0.3-2.5,0.3c-0.3,0-0.7,0-0.9,0.2c-0.4,0.2-0.8,0.1-1.2,0.1
		c-0.2,0-0.4-0.1-0.7,0c-0.9,0.1-1.7,0.2-2.5,0.2c-0.2,0-0.4,0.1-0.6,0.1c-0.5,0-1.1,0-1.6,0C104.1,159,103.3,159,102.7,159z
		 M121.6,145.5C121.6,145.5,121.6,145.5,121.6,145.5c0-0.3,0-0.6,0-0.8c-0.1-0.9-0.4-1.7-0.5-2.6c0-0.1-0.1-0.2-0.2-0.3
		c-0.2-0.4-0.5-0.7-0.7-1.2c-0.1-0.2-0.3-0.3-0.4-0.5c-0.4-0.3-0.9-0.4-1.1-0.9c0,0,0-0.1-0.1-0.1c-0.5,0-0.7-0.5-1.1-0.7
		c-0.4-0.3-0.8-0.6-1.3-0.7c-0.4-0.1-0.9-0.2-1.1-0.6c-0.1-0.1-0.2-0.2-0.3-0.2c-0.6-0.2-1.1-0.2-1.6,0.2c-0.1,0.1-0.2,0.1-0.3,0.1
		c-0.2-0.1-0.4-0.1-0.6-0.2c-0.3-0.1-1.1-0.1-1.4,0.1c-0.4,0.3-0.9,0.5-1.3,0.7c-0.1,0.1-0.3,0.2-0.4,0.3c-0.5,0.7-1,1.4-1.4,2
		c-0.3,0.5-0.6,0.9-0.8,1.4c-0.2,0.5-0.4,1-0.5,1.5c-0.2,0.7-0.4,1.3-0.3,2.1c0,0.4,0.1,0.8,0.1,1.2c-0.1,0.5-0.1,1,0.1,1.4
		c0.3,0.7,0.4,1.4,0.8,2c0.4,0.6,0.8,1.3,1.2,1.9c0.4,0.7,0.9,1.1,1.4,1.7c0.3,0.3,0.7,0.6,1.1,0.8c0.6,0.4,1.2,0.6,1.9,0.8
		c0.2,0,0.4,0,0.7,0c0.3-0.1,0.7-0.2,1-0.3c1.9-0.6,3.6-1.8,5.2-3.1c0,0,0.1-0.1,0.1-0.1c0.3-0.5,0.7-0.9,1-1.3
		c0.6-0.8,0.8-1.7,0.9-2.6C121.7,146.9,121.6,146.2,121.6,145.5z"/>
	<path d="M115.4,19.5c-0.2,0.5,0.3,0.6,0.6,0.7c0.7,0.4,1.5,0.9,2,1.5c0.6,0.6,1,1.3,1.3,2c0.4,0.8,0.5,1.7,0.8,2.5
		c0.2,0.7,0.2,1.5,0.2,2.2c0,0.7,0,1.4-0.2,2.1c-0.2,0.8-0.3,1.6-0.7,2.3c-0.3,0.5-0.5,1.1-0.8,1.6c-0.3,0.5-0.8,0.8-1.2,1.1
		c-0.1,0.1-0.2,0.2-0.3,0.2c-0.4,0.2-0.7,0.5-1.2,0.6c-0.1,0-0.3,0.1-0.4,0.2c-0.3,0.1-0.6,0.3-0.9,0.4c0,0-0.1,0-0.1,0.1
		c0,0,0,0.1,0.1,0.1c0.1,0,0.2,0,0.3,0c0.5-0.2,1-0.2,1.5-0.3c1.1-0.2,2.2-0.4,3.4-0.5c1.4-0.1,2.7-0.6,4.1-0.9c0,0,0,0,0.1,0
		c0.9-0.3,1.6,0.3,1.5,1.3c-0.1,0.5-0.2,0.9-0.3,1.3c0,0.1,0,0.1-0.1,0.2c-0.5,0.3-0.4,0.8-0.5,1.3c-0.3,0.9-0.5,1.7-0.8,2.6
		c-0.2,0.6-0.4,1.2-0.6,1.8c-0.1,0.2-0.3,0.5,0,0.8c0,0-0.1,0.1-0.1,0.1c-0.2,0-0.3,0.1-0.3,0.3c-0.1,0.3-0.2,0.6-0.3,1
		c-0.1,0.4-0.2,0.7-0.3,1.1c-0.2,0.7-0.5,1.4-0.8,2.1c-0.1,0.3-0.2,0.7-0.3,1c-0.2,0.6-0.4,1.2-0.6,1.8c-0.2,0.6-0.4,1.3-0.6,1.9
		c-0.5,1.3-0.9,2.7-1.4,4c-0.2,0.4-0.4,0.9-0.5,1.3c-0.2,0.4-0.3,0.9-0.4,1.3c-0.3,1-0.7,1.9-1,2.9c-0.5,1.5-0.9,3-1.3,4.5
		c-0.2,0.7-0.5,1.3-0.6,2c-0.2,0.7-0.5,1.4-0.7,2c-0.1,0.3-0.2,0.6-0.3,0.9c-0.2,0.6-0.4,1.3-0.7,1.9c-0.1,0.1-0.1,0.3-0.1,0.5
		c-0.1,0.4-0.3,0.7-0.4,1.1c-0.1,0.1-0.2,0.3-0.1,0.4c0.1,0.3,0.1,0.7,0.3,1c0.3,0.5,0.3,1.1,0.4,1.6c0,0.2,0.1,0.4,0.1,0.5
		c0.2,0.4,0.1,0.8-0.3,1.1c-0.3,0.3-0.9,0.4-1.3,0.2c-0.1-0.1-0.2-0.2-0.4-0.1c0,0-0.1,0-0.1-0.1c-0.1-0.2-0.2-0.4-0.2-0.5
		c-0.1-0.6-0.2-1.2-0.4-1.7c-0.2-0.6-0.4-1.2-0.6-1.8c-0.1-0.2-0.1-0.4-0.2-0.6c-0.2-0.7-0.4-1.4-0.6-2.1c-0.1-0.6-0.4-1.1-0.6-1.6
		c-0.2-0.5-0.3-1-0.5-1.5c-0.1-0.2-0.2-0.5-0.3-0.7c-0.2-0.6-0.4-1.1-0.6-1.7c0,0,0-0.1,0-0.1c0.1-0.5-0.2-0.9-0.4-1.4
		c-0.2-0.7-0.4-1.5-0.6-2.2c0,0,0,0,0-0.1c-0.5-0.7-0.4-1.5-0.7-2.2c-0.3-0.7-0.6-1.3-0.6-2.1c0-0.2-0.1-0.3-0.1-0.5
		c-0.3-0.9-0.7-1.8-1.1-2.6c-0.1-0.2-0.2-0.5-0.2-0.8c-0.1-0.3-0.2-0.7-0.4-1c-0.2-0.3-0.3-0.8-0.4-1.2c-0.1-0.5-0.3-0.9-0.3-1.4
		c-0.1-0.5-0.4-1.1-0.6-1.6c-0.3-0.6-0.4-1.2-0.8-1.7c0,0-0.1-0.1-0.1-0.2c0-0.6-0.4-1-0.6-1.5c-0.2-0.5-0.5-0.9-0.7-1.4
		c-0.3-0.8-0.8-1.5-1.2-2.2c-0.5-0.8-1-1.5-1.6-2.2c-0.4-0.4-0.3-0.9,0.1-1.4c0.4-0.4,0.8-0.5,1.3-0.2c0.3,0.2,0.6,0.4,0.7,0.7
		c0.1,0.3,0.3,0.5,0.5,0.7c0.6,0.7,1,1.5,1.4,2.3c0.2,0.5,0.5,0.9,0.7,1.4c0.2,0.4,0.4,0.8,0.6,1.2c0.4,0.8,0.8,1.6,1.1,2.5
		c0.4,0.9,0.7,1.7,1,2.6c0.3,0.8,0.6,1.6,0.9,2.3c0.3,0.8,0.6,1.6,0.8,2.4c0.1,0.5,0.4,1,0.6,1.5c0.2,0.5,0.4,1.1,0.5,1.7
		c0.2,0.6,0.4,1.2,0.5,1.8c0.2,0.8,0.4,1.5,0.7,2.3c0.3,1,0.6,1.9,0.9,2.9c0.2,0.5,0.3,1.1,0.4,1.7c0,0.1,0,0.2,0.1,0.3
		c0.6,1,0.8,2.1,1.2,3.1c0,0.1,0,0.2,0,0.2c0.1,0.3,0.2,0.5,0.3,0.8c0.1-0.2,0.3-0.5,0.4-0.7c0.2-0.4,0.4-0.9,0.5-1.3
		c0.2-0.6,0.4-1.1,0.6-1.7c0.3-0.8,0.5-1.7,0.8-2.6c0.3-1.1,0.7-2.2,1-3.3c0.2-0.8,0.5-1.6,0.7-2.3c0.4-1.1,0.7-2.1,1.1-3.2
		c0.4-1.1,0.8-2.2,1.2-3.3c0.3-0.8,0.6-1.5,0.8-2.3c0.3-0.9,0.5-1.7,0.8-2.6c0.1-0.4,0.3-0.9,0.4-1.3c0.3-0.9,0.6-1.9,1-2.7
		c0.4-1,0.7-2.1,1-3.2c0.1-0.3,0.2-0.6,0.3-0.8c0.2-0.8,0.4-1.6,0.6-2.4c0.1-0.4,0.2-0.7,0.3-1.1c0-0.1,0-0.3-0.1-0.4
		c-0.1,0-0.2,0-0.3,0.1c-0.2,0-0.4,0.1-0.6,0.1c-1.3,0.2-2.5,0.4-3.8,0.5c-0.8,0.1-1.7,0.2-2.5,0.3c0,0-0.1,0-0.1,0
		c-1.3,0-2.6,0.2-3.9,0.4c-1,0.1-2.1,0.2-3.2,0.3c-0.7,0.1-1.4,0.1-2.1,0.2c-0.1,0-0.2,0-0.3,0c-0.7-0.2-1.3,0-2,0.1
		c-0.4,0.1-0.8,0.1-1.1,0.1c-0.2,0-0.3,0.1-0.5,0.1c-0.1,0-0.3,0.1-0.3,0.1c-0.5-0.2-0.9,0-1.3,0c-0.6,0-1.3,0.1-1.8-0.5
		c0,0-0.1,0-0.1-0.1c-0.6-0.3-0.7-0.5-0.3-1.1c0.3-0.5,0.6-0.6,1.3-0.6c0.5,0,1.1,0,1.6,0c0.1,0,0.3,0,0.4,0
		c1.1-0.1,2.3-0.1,3.4-0.2c0.7,0,1.3,0,2-0.1c0.1,0,0.2-0.1,0.3-0.1c0-0.1-0.1-0.1-0.1-0.2c-0.1-0.1-0.2-0.2-0.3-0.3
		c-0.7-0.5-1.5-1-2.2-1.5c-0.5-0.4-1-1-1.5-1.4c-0.8-0.7-1-1.6-1.4-2.5c-0.2-0.5-0.4-1-0.6-1.5c0-0.1,0-0.3,0-0.4
		c-0.1-0.5-0.2-1-0.3-1.5c-0.2-1.1-0.2-2.2,0.1-3.2c0.1-0.2,0.2-0.5,0.2-0.8c0-0.7,0.2-1.3,0.6-1.9c0.3-0.6,0.6-1.3,0.9-1.9
		c0.1-0.1,0.1-0.3,0.2-0.4c0.2-0.3,0.5-0.6,0.7-1c0.4-0.4,0.8-0.8,1.4-1c0.7-0.3,1.5-0.5,2.2-0.8c0.4-0.1,0.7-0.4,1.1-0.5
		c0.8-0.2,1.5-0.4,2.3-0.6c0.2,0,0.5,0,0.7,0c0.4,0.1,0.8,0.1,1.2,0.2c0.1,0,0.1,0,0.2,0c0.8,0.5,1.6,0.8,2.2,1.6
		c0.1,0.1,0.2,0.2,0.3,0.3C115.2,18.7,115.5,19,115.4,19.5z M109.1,35.8c0.7-0.1,1.4-0.1,2-0.2c1-0.2,1.9-0.4,2.8-0.7
		c0.8-0.3,1.7-0.5,2.4-1.1c0.5-0.4,0.8-0.9,1-1.4c0.2-0.7,0.4-1.5,0.7-2.2c0.3-0.8,0.3-1.5,0.2-2.3c0-0.3-0.1-0.6-0.1-0.9
		c-0.1-0.8-0.3-1.7-0.7-2.5c-0.1-0.3-0.2-0.6-0.4-0.8c-0.6-0.6-1.2-1.2-1.8-1.8c-0.3-0.3-0.7-0.5-1.1-0.7c-0.2-0.1-0.3-0.4-0.6-0.4
		c-0.6,0-1-0.5-1.4-0.8c-0.1-0.1-0.2-0.3-0.2-0.4c-0.1-0.3,0.1-0.5,0.4-0.4c0.1,0,0.2,0.1,0.2,0.1c0.1,0,0.2,0,0.3,0
		c-0.1-0.1-0.1-0.3-0.2-0.3c-0.2-0.1-0.4-0.2-0.5-0.2c-0.2-0.1-0.4-0.1-0.6-0.2c-0.6-0.2-1.1-0.3-1.7,0c-0.2,0.1-0.5,0.1-0.8,0.2
		c-0.4,0.1-0.9,0.2-1.3,0.4c-0.6,0.3-1.2,0.6-1.7,0.9c-0.5,0.2-0.9,0.5-1.2,1c-0.4,0.6-0.8,1.3-1.2,1.9c-0.1,0.1-0.1,0.3-0.2,0.4
		c-0.2,0.9-0.4,1.8-0.6,2.7c-0.1,0.3-0.1,0.6-0.1,0.9c0,0.4,0.2,0.8,0.2,1.2c0,0.8,0.2,1.5,0.5,2.2c0.2,0.6,0.4,1.1,0.7,1.7
		c0.1,0.2,0.2,0.4,0.5,0.4c0.1,0,0.2,0.1,0.2,0.2c-0.1,0.5,0.3,0.8,0.6,1.1c0.4,0.4,1,0.6,1.4,0.9c0.2,0.1,0.4,0.3,0.6,0.4
		C107.9,35.4,108.5,35.7,109.1,35.8z"/>
	<path d="M29,107.2c0.6,0,1.1,0.1,1.7,0.1c0.1,0,0.3,0,0.4,0c1.5-0.1,3.1-0.1,4.6,0c0.5,0,0.9,0,1.4-0.1c0.6,0,1.2-0.1,1.8,0.1
		c0.1,0,0.2,0,0.3,0c0.3,0,0.5,0,0.8,0c0.2,0,0.4,0,0.6,0c0.2,0,0.2-0.1,0.1-0.3c-0.2-0.2-0.3-0.4-0.5-0.6c-0.6-0.4-1-1-1.4-1.6
		c-0.1-0.2-0.3-0.4-0.4-0.6c-0.4-0.9-0.8-1.7-1.3-2.6c0,0,0,0,0-0.1c-0.2-0.8-0.6-1.6-0.6-2.5c0-0.4-0.3-0.9-0.2-1.3
		c0-0.3,0.1-0.6,0.1-1c0-0.1,0.1-0.3,0-0.4c-0.2-0.5,0-0.9,0.1-1.4c0.1-0.5,0.1-1,0.2-1.5c0.2-0.7,0.4-1.5,0.7-2.2
		c0.2-0.5,0.4-1.1,0.8-1.5c0.5-0.5,0.9-1.1,1.5-1.5c0.2-0.2,0.4-0.4,0.7-0.6c0.3-0.2,0.6-0.5,1-0.6c0.6-0.2,1.3-0.3,1.8-0.8
		c0,0,0.1-0.1,0.2-0.1c0.8-0.3,1.6-0.5,2.4-0.8c0.2-0.1,0.4-0.2,0.6-0.3c0.7-0.4,1.5-0.4,2.2-0.3c0.3,0,0.6,0,0.9,0
		c0.1,0,0.2,0,0.3,0c1,0.2,2,0.4,2.9,1c0.3,0.2,0.5,0.4,0.7,0.7c0.3,0.4,0.2,0.7-0.2,1c-0.1,0.1-0.2,0.1-0.3,0.2c0,0,0,0.1,0,0.2
		c0.5,0.5,0.8,1,1.1,1.6c0,0.1,0.1,0.2,0.2,0.3c0.6,0.9,0.9,1.8,1.2,2.8c0.2,0.9,0.3,1.9,0.7,2.8c0.2,0.3,0.1,0.8,0.1,1.2
		c0,0.8,0,1.6-0.2,2.5c-0.2,0.9-0.3,1.8-0.5,2.6c-0.2,0.8-0.5,1.5-1,2.1c-0.4,0.5-0.9,1-1.4,1.5c-0.4,0.4-0.9,0.7-1.3,1.1
		c-0.1,0.1-0.2,0.1-0.2,0.2c0,0,0,0.1,0,0.2c0,0,0.1,0,0.1,0c0.2-0.2,0.4-0.1,0.6,0c0.2,0.1,0.5,0,0.7,0c0.3,0,0.6-0.1,0.8-0.1
		c0.3-0.1,0.6-0.1,0.8-0.2c0.5-0.3,1.1-0.3,1.6-0.4c0.5-0.1,1.1-0.3,1.6-0.4c0.2-0.1,0.3-0.2,0.5-0.3c0.6-0.4,1-0.3,1.5,0.1
		c0.2,0.1,0.3,0.3,0.5,0.5c0.2,0.2,0.3,0.5,0,0.8c-0.1,0.1-0.1,0.1-0.1,0.2c0,0.5-0.2,0.9-0.3,1.4c0,0.3-0.1,0.6-0.2,0.9
		c-0.1,0.5-0.3,1-0.5,1.5c-0.2,0.8-0.4,1.7-0.7,2.5c-0.1,0.4-0.3,0.7-0.3,1.1c0,0.3-0.3,0.5-0.4,0.8c0,0.1-0.1,0.2-0.1,0.3
		c-0.1,1.1-0.8,1.9-1.1,2.8c-0.1,0.5-0.4,0.9-0.6,1.3c-0.1,0.2-0.2,0.4-0.2,0.6c-0.4,1.4-1,2.8-1.6,4.2c-0.7,1.7-1.3,3.4-1.9,5.1
		c-0.3,0.7-0.5,1.4-0.8,2.1c-0.1,0.3-0.2,0.6-0.3,0.9c-0.2,0.7-0.5,1.4-0.7,2.1c-0.3,1.3-0.6,2.6-0.9,3.9c-0.2,0.8-0.4,1.6-0.6,2.4
		c-0.1,0.2-0.1,0.5-0.1,0.7c-0.2,0.7-0.4,1.3-0.5,2c-0.1,0.6-0.2,1.3-0.4,1.9c-0.2,0.8-0.4,1.6-0.5,2.5c-0.1,0.9-0.2,1.8-0.3,2.8
		c-0.2,1.2,0,2.4-0.4,3.5c-0.2,0.6-0.2,1.3-0.4,1.9c-0.2,0.6-0.2,1.3-0.4,1.9c-0.1,0.2-0.1,0.4-0.2,0.6c-0.1,0.4-0.2,0.7-0.8,0.6
		c-0.2,0-0.4,0.1-0.6,0.2c-0.6,0.3-1.2-0.1-1.2-0.8c0-0.5-0.1-1-0.3-1.5c0-0.2-0.2-0.4,0.2-0.3c0.1,0,0.3-0.1,0.4-0.1
		c0.1,0,0.2-0.1,0.2-0.3c0-0.2,0-0.3,0.1-0.5c0.4-0.8,0.4-1.7,0.5-2.6c0-0.2,0.1-0.4,0.1-0.6c0.2-1.3,0.4-2.7,0.6-4
		c0.2-1.3,0.3-2.6,0.7-3.8c0.2-0.6,0.2-1.3,0.4-1.9c0.4-1,0.4-2.1,0.7-3.1c0.2-0.7,0.4-1.4,0.6-2.1c0.2-0.7,0.3-1.5,0.5-2.2
		c0.1-0.4,0.3-0.9,0.4-1.3c0-0.1,0.1-0.2,0.1-0.3c0.3-0.9,0.5-1.9,0.8-2.8c0.4-1.2,0.8-2.3,1.2-3.5c0.1-0.4,0.3-0.7,0.5-1.1
		c0.2-0.5,0.3-1,0.5-1.5c0.3-0.9,0.7-1.9,1.1-2.8c0.3-0.7,0.5-1.4,0.8-2.2c0.2-0.5,0.3-0.9,0.6-1.3c0.1-0.1,0.2-0.2,0.2-0.4
		c0-0.6,0.3-1,0.6-1.5c0.2-0.4,0.4-0.8,0.5-1.3c0.2-0.6,0.3-1.2,0.6-1.8c0.2-0.6,0.4-1.2,0.6-1.8c0.3-1.1,0.6-2.2,0.9-3.3
		c0.1-0.4,0.2-0.8,0.3-1.1c0-0.2,0-0.2-0.2-0.2c-0.9,0.1-1.9,0.2-2.8,0.4c-0.8,0.2-1.6,0.2-2.4,0.2c-0.1,0-0.1,0-0.2,0
		c-0.5,0.3-1.1,0.2-1.7,0.2c-1.5,0.1-2.9,0.2-4.4,0.3c-1.2,0.1-2.4,0.2-3.6,0.3c-0.7,0.1-1.5,0-2.2,0c-0.9,0-1.7,0.1-2.6,0.1
		c-0.3,0-0.5,0-0.8-0.1c-0.2,0-0.3,0-0.5,0c-1.2,0.1-2.3,0.2-3.5,0.3c-0.4,0-0.8,0.1-1.2,0.2c-0.1,0-0.2,0-0.4,0
		c-0.7-0.1-1.4-0.2-2.1-0.2c-0.7-0.1-1.1-0.6-1.1-1.3C27.9,107.4,28.1,107.2,29,107.2z M49.8,88.9c-0.8,0-0.8,0-1.4-0.5
		c-0.2-0.1-0.2-0.2-0.1-0.4c0.2-0.3,0.5-0.5,0.9-0.6c0.2,0,0.4-0.1,0.5-0.1c0.2-0.1,0.1-0.2,0-0.3C49.6,87,49.5,87,49.4,87
		c-0.5,0-0.9-0.1-1.4-0.1c-0.4,0-0.8,0.2-1.2,0.3c-0.7,0.2-1.4,0.5-2,0.8c-0.9,0.4-1.9,0.7-2.8,1.3c-0.3,0.2-0.5,0.4-0.7,0.6
		c-0.2,0.2-0.4,0.4-0.6,0.6c-0.4,0.4-0.7,0.9-0.9,1.4c-0.2,0.3-0.4,0.7-0.5,1c-0.2,0.6-0.3,1.3-0.5,1.9c-0.3,1.3-0.5,2.7-0.2,4.1
		c0.2,0.8,0.3,1.5,0.6,2.2c0.2,0.3,0.3,0.7,0.4,1c0.3,0.7,0.6,1.4,1,2c0.2,0.2,0.3,0.5,0.6,0.7c0.6,0.4,1,1.2,1.8,1.3
		c0,0,0.1,0.1,0.1,0.1c0.5,0.3,1,0.6,1.6,0.6c0.5,0,1-0.1,1.5-0.1c0.8-0.1,1.5-0.3,2.3-0.7c0.3-0.1,0.5-0.3,0.8-0.5
		c0.6-0.4,1.1-0.8,1.7-1.2c0.5-0.4,0.9-0.7,1.3-1.1c0.4-0.4,0.9-0.7,1-1.4c0-0.3,0.1-0.7,0.2-1c0.2-0.5,0.3-1.1,0.3-1.7
		c0-0.4,0.1-0.8,0.1-1.2c0.2-0.8,0.1-1.7-0.3-2.5c0,0,0-0.1,0-0.2c0.2-0.3,0-0.6-0.1-0.9c-0.1-0.4-0.2-0.8-0.3-1.2
		c-0.1-0.4-0.2-0.8-0.4-1.1c-0.3-0.6-0.5-1.1-0.8-1.6C51.5,89.4,50.9,88.8,49.8,88.9z"/>
	<path d="M167.2,121.2c-0.1,1-0.1,1.9-0.2,2.8c-0.2,0.9-0.2,1.8-0.6,2.6c-0.1,0.3-0.2,0.6-0.2,0.9c0,0.3-0.4,0.5-0.2,0.8
		c-0.2,0.4-0.3,0.9-0.5,1.3c-0.6,1.3-1.2,2.7-1.9,4c-0.5,0.9-0.9,1.9-1.4,2.8c-0.4,0.6-0.7,1.3-1.2,1.9c-0.3,0.3-0.5,0.8-0.7,1.1
		c-0.4,0.6-0.8,1.2-1.1,1.8c-0.6,1-1.3,1.8-2,2.7c-0.6,0.7-1.2,1.5-1.8,2.2c-0.3,0.3-0.6,0.6-0.9,0.9c-0.9,0.9-1.8,1.9-2.7,2.8
		c-1,1.1-2.1,2.1-3.2,3.1c-0.9,0.8-1.7,1.6-2.6,2.4c-0.5,0.4-1,0.7-1.5,1.1c-0.4,0.3-0.8,0.8-1.2,1.1c-0.1,0.1-0.2,0.2-0.3,0.2
		c-0.5,0.3-0.9,0.7-1.2,1.2c-0.6,0.9-1.2,1.7-1.8,2.6c-0.1,0.1-0.1,0.2-0.2,0.2c-0.1,0.3,0,0.5,0.3,0.4c0.5-0.1,1.1-0.3,1.6-0.5
		c0.6-0.2,1.3-0.4,1.9-0.6c1.2-0.4,2.5-0.4,3.7-0.8c0.4-0.1,0.8-0.1,1.2-0.1c0.9-0.1,1.9-0.2,2.8-0.3c0.4,0,0.8,0.1,1.1,0.4
		c0.4,0.5,0.4,1-0.1,1.5c-0.3,0.2-0.5,0.4-0.9,0.3c-0.6-0.1-1.1,0-1.7,0c-1.6,0.2-3.2,0.5-4.8,0.8c-0.1,0-0.2,0.1-0.3,0.1
		c-0.3,0.1-0.7,0.2-1,0.4c-0.4,0.1-0.9,0.3-1.3,0.4c-0.5,0.2-0.9,0.3-1.4,0.5c-0.6,0.2-1.3,0.3-1.9,0.6c-0.7,0.3-1.5,0.2-2.1-0.2
		c-0.4-0.2-0.5-1-0.3-1.5c0.2-0.4,0.4-0.8,0.6-1.2c0.4-0.7,0.9-1.4,1.3-2.1c0.1-0.1,0.1-0.2,0-0.4c-0.1-0.1-0.1-0.3-0.1-0.5
		c0.1-0.4,0-0.9-0.2-1.3c-0.1-0.2,0-0.3,0.1-0.5c0.2-0.2,0.3-0.1,0.5,0c0.2,0.2,0.4,0.3,0.7,0.5c0.1,0,0.2,0,0.3,0
		c0.4-0.3,0.7-0.7,0.9-1.1c0.2-0.3,0.3-0.6,0.5-1c0.3-0.7,0.7-1.5,1-2.2c0.1-0.2,0.2-0.4,0.3-0.5c0.1-0.3,0.2-0.6,0.4-0.9
		c0.1-0.3,0.2-0.6,0.4-0.9c0-0.1,0.1-0.1,0.1-0.2c0.2-0.8,0.3-1.6,0.5-2.4c0-0.1,0-0.3-0.1-0.4c-0.1-0.2-0.2-0.4-0.1-0.6
		c0.1-0.2,0.1-0.4,0.3-0.6c0.3-0.3,1.1-0.3,1.5,0c0.1,0.1,0.3,0.2,0.3,0.4c0.1,0.5,0.1,0.9,0.1,1.4c0,0.2,0,0.4,0,0.6
		c-0.1,0.5-0.1,1-0.3,1.5c-0.3,0.9-0.6,1.8-0.9,2.6c-0.1,0.2-0.1,0.4-0.2,0.6c0,0,0,0.1,0,0.1c0,0,0.1,0,0.1,0
		c1.3-1.3,2.9-2.3,4-3.7c0.2-0.2,0.4-0.3,0.6-0.5c0.7-0.7,1.3-1.4,2-2c0.6-0.5,1-1.2,1.6-1.7c0.4-0.3,0.5-0.6,0.8-0.9
		c0.4-0.6,0.9-1.1,1.4-1.6c0.2-0.2,0.4-0.5,0.6-0.7c0.7-0.8,1.1-1.8,1.9-2.5c0.2-0.2,0.3-0.3,0.4-0.5c0.1-0.5,0.4-0.8,0.7-1.2
		c0.4-0.5,0.7-1.1,1-1.6c0.3-0.5,0.6-1,0.8-1.5c0.6-1,1.2-2.1,1.7-3.2c0.3-0.7,0.8-1.3,1-1.9c0.2-0.5,0.3-0.9,0.5-1.4
		c0.3-0.7,0.5-1.5,0.7-2.2c0.1-0.5,0.2-1,0.3-1.4c0-0.2,0.1-0.4,0.2-0.6c0.2-0.6,0.3-1.1,0.2-1.7c0,0,0-0.1,0-0.1c0.5-1,0.2-2,0-3
		c0-0.2-0.2-0.4-0.4-0.6c-0.1-0.2-0.3-0.2-0.6-0.2c-0.2,0-0.4-0.1-0.3-0.4c0.1-0.3,0.2-0.5,0.4-0.7c0.2-0.1,0.4-0.3,0.6-0.5
		c0.3-0.1,0.5-0.3,0.8-0.4c0.3-0.1,0.6,0,0.7,0.3c0.3,0.6,0.8,1.1,0.8,1.8C167,120,167.1,120.6,167.2,121.2z"/>
	<path d="M87,160.8c0.1,0,0.2,0,0.3,0c0.9,0.3,1.8,0.5,2.7,0.6c1,0.1,2.1,0.3,3.1,0.1c0.6-0.1,1.3,0.5,1.2,1.1
		c0,0.4-0.2,0.7-0.6,0.9c-0.4,0.1-0.6,0.3-1.1,0.1c-0.4-0.2-0.9-0.2-1.3-0.2c-0.7-0.1-1.4-0.2-2.1-0.3c-0.9-0.1-1.8-0.3-2.7-0.6
		c-0.3-0.1-0.5-0.1-0.8-0.2c-0.5-0.2-1-0.3-1.5-0.5c-0.9-0.3-1.8-0.7-2.7-1.1c-0.9-0.3-1.7-0.8-2.4-1.2c-0.9-0.5-1.8-1.1-2.7-1.7
		c-0.4-0.3-0.9-0.5-1.3-0.8c-0.8-0.5-1.7-1.1-2.5-1.7c-0.9-0.7-1.7-1.4-2.6-2.1c-0.1-0.1-0.1-0.1-0.2-0.2c-0.7-0.4-1.2-0.9-1.8-1.4
		c-0.5-0.4-0.9-0.9-1.4-1.4c-0.5-0.5-1-1-1.4-1.5c-0.4-0.5-0.8-0.9-1.2-1.4c-0.2-0.2-0.4-0.4-0.7-0.5c-0.3-0.1-0.5-0.3-0.7-0.6
		c-0.2-0.2-0.3-0.5-0.5-0.7c-0.1-0.2-0.3-0.2-0.5-0.1c-0.2,0.1-0.4,0.2-0.3,0.5c0,0.1,0.1,0.1,0.1,0.2c-0.1,0.9,0.2,1.7,0.2,2.6
		c0,0.5,0.2,1.1,0.2,1.6c0,0.4,0.2,0.7,0.3,1.1c0.2,0.8,0.2,1.6,0.4,2.4c0.1,0.5,0.3,0.9,0.5,1.4c0.2,0.6,0.3,1.2,0.4,1.8
		c0.1,0.4,0.1,0.8,0.3,1.2c0.3,0.6,0,1.1-0.3,1.5c0,0,0,0,0,0c-0.3,0.3-0.5,0.6-1,0.5c-0.5-0.1-0.7-0.5-0.9-1
		c-0.4-1.8-0.8-3.6-1.2-5.4c-0.2-0.8-0.3-1.6-0.4-2.4c-0.2-1.3-0.4-2.6-0.6-3.9c-0.2-1-0.2-2.1-0.4-3.1c0-0.2-0.1-0.4-0.1-0.6
		c0-0.4-0.1-0.7-0.1-1.1c-0.1-0.4-0.1-0.8-0.2-1.2c0-0.3-0.1-0.7-0.1-1c0-0.7,0.4-1.1,1.1-1.2c0.5-0.1,0.9,0,1,0.5
		c0,0.1,0.2,0.2,0.3,0.3c0.4,0.5,0.9,0.8,1.2,1.3c0.1,0.2,0.2,0.2,0.4,0c0.2-0.2,0.4-0.4,0.8-0.4c0.5-0.1,0.9,0,1.2,0.4
		c0.4,0.4,0.9,0.9,1.4,1.2c0.7,0.4,1.5,0.7,2.2,1.1c0.6,0.3,1.1,0.7,1.7,1c0.9,0.5,1.9,1.1,2.8,1.6c0.5,0.3,0.9,0.7,1.4,1
		c0.2,0.1,0.4,0.2,0.6,0.4c0.5,0.2,0.9,0.5,1.4,0.7c0.4,0.2,0.5,0.7,0.2,1.1c-0.2,0.2-0.4,0.4-0.6,0.6c-0.4,0.4-0.9,0.5-1.3,0.1
		c-1-1-2.2-1.5-3.3-2.2c-0.8-0.5-1.5-1-2.3-1.5c-0.1-0.1-0.3-0.1-0.4-0.2c-0.8-0.5-1.7-0.9-2.5-1.4c-0.2-0.1-0.6,0.1-0.7-0.3
		c0,0.1-0.1,0.1,0,0.2c0.2,0.3,0.3,0.7,0.6,1c0.4,0.5,0.9,1,1.3,1.5c0.5,0.7,1,1.4,1.6,2c0.2,0.3,0.5,0.4,0.7,0.7
		c0.6,0.6,1.1,1.2,1.8,1.7c0.4,0.3,0.7,0.7,1.1,1c0.6,0.5,1.1,1,1.7,1.4c0.8,0.6,1.6,1.1,2.4,1.7c0.4,0.3,0.8,0.6,1.2,0.9
		c0.1,0.1,0.3,0.1,0.4,0.2c0.4,0.2,0.8,0.4,1.2,0.7c0.3,0.3,0.6,0.5,1,0.6c0.1,0,0.2,0,0.2,0.1c0.8,0.6,1.8,0.9,2.7,1.3
		c0.5,0.2,1,0.5,1.6,0.7c0.7,0.2,1.3,0.3,2,0.6C86.7,160.9,86.9,160.9,87,160.8C87,160.9,87,160.9,87,160.8z"/>
	<path d="M84.1,51.6c-1,0.1-2,0.2-3,0.3c-0.1,0-0.2,0.1-0.2,0.1c0.1,0.1,0.1,0.1,0.2,0.2c0.3,0.1,0.5,0.3,0.5,0.7
		c0,0.4,0,0.8-0.4,1.1c-0.4,0.4-0.8,0.5-1.3,0.7c-0.9,0.2-1.7,0.7-2.6,1c-0.2,0.1-0.4,0.2-0.5,0.2c-0.5,0.2-1.1,0.5-1.6,0.7
		c-0.1,0-0.1,0.1-0.2,0.1c-1.3,0.5-2.4,1.3-3.6,2c-1,0.6-1.9,1.3-3,1.9c-0.8,0.4-1.4,1.1-2.2,1.5c-0.7,0.4-1.2,1-1.8,1.5
		c-0.7,0.6-1.5,1.2-2.2,1.8c-0.2,0.2-0.4,0.5-0.7,0.7c-0.4,0.3-0.7,0.7-1.1,1c-0.6,0.6-1.2,1.1-1.8,1.7c-0.1,0.1-0.3,0.3-0.4,0.4
		c-0.3,0.3-0.6,0.6-0.8,1c0,0.1-0.1,0.2-0.2,0.2c-0.5,0.5-0.9,1.1-1.4,1.6c0,0-0.1,0.1-0.1,0.1c-0.6,1.2-1.5,2.2-2,3.4
		c-0.3,0.6-0.5,1.2-0.5,1.9c-0.1,0.4-0.3,0.8-0.8,1c-0.5,0.2-0.8,0-1.1-0.2c-0.3-0.2-0.4-1-0.3-1.3c0.4-0.9,0.8-1.7,1.2-2.5
		c0-0.1,0-0.1,0.1-0.2c0.4-0.5,0.7-1,0.9-1.5c0.2-0.3,0.5-0.6,0.7-0.9c0.2-0.4,0.4-0.8,0.8-1c0.2-0.1,0.3-0.4,0.4-0.6
		c0.1-0.1,0.1-0.3,0.1-0.3c0.5-0.3,0.7-0.8,1-1.2c0.3-0.3,0.6-0.5,0.8-0.8c0.2-0.3,0.5-0.5,0.7-0.8c0.1-0.1,0.1-0.2,0.2-0.2
		c0.6-0.5,1.1-1.2,1.9-1.6c0.5-0.3,1-0.8,1.4-1.3c0.2-0.2,0.3-0.4,0.6-0.4c0.1,0,0.2-0.2,0.3-0.3c0.1-0.2,0.3-0.4,0.5-0.5
		c0.2-0.1,0.4-0.3,0.5-0.5c0.2-0.2,0.3-0.4,0.6-0.4c0.3,0,0.6-0.3,0.8-0.5c0.3-0.2,0.5-0.6,0.7-0.8c0,0,0.1-0.1,0.1-0.1
		c0.5,0,0.8-0.5,1.3-0.7c0.1,0,0.2-0.1,0.3-0.2c0.4-0.3,0.6-0.8,1.2-0.8c0.4-0.3,0.8-0.6,1.2-0.9c0.3-0.2,0.6-0.5,1-0.6
		c0.1,0,0.1-0.1,0.1-0.1c0.4-0.3,0.8-0.6,1.2-0.9c0.3-0.2,0.6-0.3,1-0.4c0.4-0.2,0.8-0.2,1.1-0.6c0.1-0.3,0.4-0.5,0.9-0.4
		c0.2,0.1,0.4-0.1,0.4-0.2c0.1-0.3,0.4-0.4,0.7-0.6c0.7-0.3,1.4-0.7,2.1-1c0.3-0.1,0.5-0.3,0.7-0.5c0.2-0.1,0.3-0.1,0.5-0.2
		c0.1,0,0.2-0.1,0.2-0.1c-0.1,0-0.2,0-0.3,0c-0.6,0.1-1.2,0.1-1.7,0.4c-0.5,0.3-1.1,0.3-1.7,0.4c-0.3,0.1-0.6,0.2-0.9,0.3
		c-0.8,0.2-1.6,0.5-2.4,0.7c-0.5,0.1-1,0.1-1.5,0.1c-0.1,0-0.3-0.1-0.4-0.2c-0.3-0.3-0.4-0.7-0.3-1.1c0-0.3,0.5-0.6,0.9-0.7
		c0.5-0.1,0.9-0.2,1.4-0.3c0.3-0.1,0.7-0.1,1-0.2c0.6-0.1,1.3-0.3,1.9-0.4c0.4-0.1,0.8-0.2,1.2-0.2c0.1,0,0.2,0,0.3,0
		c0.8-0.5,1.7-0.5,2.6-0.7c0.3-0.1,0.6-0.2,1-0.3c1.2-0.3,2.3-0.5,3.6-0.4c0.6,0,1.2,0,1.8,0c0.5,0,0.9,0.1,1.4,0.2
		c0.6,0.1,0.9,0.4,1,1.1c0.1,0.5,0.1,1-0.1,1.5c-0.3,0.9-0.6,1.8-0.9,2.7c0,0.1-0.1,0.3-0.2,0.4c-0.2,0.2-0.2,0.4-0.3,0.6
		c-0.1,0.3-0.3,0.6-0.5,0.9c-0.2,0.4-0.5,0.8-0.7,1.2c-0.2,0.6-0.6,1.1-0.9,1.7c-0.3,0.7-0.7,1.3-1.1,2c-0.1,0.1-0.2,0.3-0.3,0.4
		c-0.1,0.1-0.2,0.3-0.2,0.4c0,0.5-0.3,0.8-0.5,1.1c-0.2,0.3-0.4,0.7-0.5,1.1c0,0.1,0,0.2-0.1,0.3c-0.3,0.3-0.6,0.5-0.9,0.8
		c-0.3,0.2-0.6,0.2-0.9,0.1c-0.1,0-0.2-0.2-0.3-0.3c-0.1-0.1-0.1-0.2-0.2-0.3c-0.3-0.5-0.3-0.5,0-1c0.4-0.6,0.8-1.3,1-2
		c0.2-0.4,0.4-0.8,0.8-1.1c0.2-0.1,0.3-0.3,0.4-0.5c0.4-0.7,0.7-1.4,1.2-2c0.5-0.6,0.8-1.4,1.2-2.1c0.1-0.3,0.3-0.5,0.3-0.9
		c0.1-0.3,0.3-0.6,0.5-0.9c0-0.1,0.1-0.1,0.1-0.1c0.2-0.8,0.7-1.5,0.7-2.4c0-0.1,0.1-0.3,0.1-0.5c0.1-0.3,0-0.4-0.3-0.5
		c-0.1,0-0.3-0.1-0.5-0.1C85,51.7,84.6,51.7,84.1,51.6C84.1,51.7,84.1,51.6,84.1,51.6z"/>
	<path d="M32.2,123.7c0.1-0.3,0.1-0.6-0.2-0.7c0,0-0.1-0.1-0.1-0.2c0.1-0.7-0.5-1.2-0.4-1.9c0-0.1,0-0.2,0-0.3
		c-0.2-0.4-0.4-0.9-0.5-1.3c-0.2-0.5-0.3-1-0.4-1.4c-0.3-1-0.6-2-1-2.9c-0.2-0.5-0.5-0.9-0.7-1.3c-0.5-0.8-1-1.5-1.6-2.2
		c-0.3-0.4-0.4-0.9-0.3-1.4c0.1-0.4,0.5-0.6,0.8-0.5c0.5,0.1,0.9,0.3,1.3,0.7c0.5,0.5,0.8,1.1,1.3,1.6c0,0,0.1,0.1,0.1,0.1
		c0.2,0.5,0.5,1.1,0.7,1.6c0.3,0.7,0.6,1.3,0.8,2c0.2,0.4,0.3,0.9,0.4,1.4c0.2,0.9,0.4,1.8,0.7,2.7c0.1,0.3,0.3,0.6,0.3,1
		c0.2,0.8,0.5,1.6,0.6,2.5c0.1,0.5,0.3,1.1,0.5,1.6c0.2,0.5,0.2,1.1,0.5,1.5c0.1,0.1,0,0.2,0,0.3c0,0.2,0.1,0.4,0.1,0.6
		c0.1,0.2,0.2,0.4,0.2,0.6c0.2,0.6,0.3,1.2,0.5,1.8c0.1,0.2,0.2,0.4,0.3,0.6c0.1,0.5,0.4,0.9,0.4,1.4c0.1,0.6,0.3,1.2,0.4,1.7
		c0.1,0.5,0.3,1,0.4,1.4c0.3,0.9,0.5,1.8,0.8,2.7c0.1,0.3,0.1,0.7,0.2,1c0.2,0.6,0.4,1.3,0.5,1.9c0.2,0.8,0.4,1.5,0.6,2.3
		c0.4,1.2,0.8,2.5,1.2,3.7c0.1,0.4,0.2,0.9,0.4,1.3c0.3,0.9,0.4,1.8,0.9,2.6c0.2,0.4,0.2,0.8,0.3,1.2c0,0.5,0,0.9,0.3,1.3
		c0,0.1,0.1,0.1,0.1,0.2c0.1,0.8,0.3,1.6,0.4,2.5c0,0.2,0,0.3,0,0.5c-0.1,0.4-0.1,0.4-0.5,0.2c0,0-0.2,0-0.2,0
		c-0.1,0.3-0.2,0.4-0.6,0.4c-0.1,0-0.1,0.1-0.2,0.2c-0.1,0-0.2,0.1-0.3,0c-0.3-0.3-0.7-0.4-0.7-0.9c-0.1-1-0.2-2.1-0.4-3.1
		c-0.1-0.7-0.3-1.4-0.5-2c-0.3-1.4-0.7-2.9-1-4.3c-0.1-0.5-0.2-0.9-0.4-1.4c-0.4-0.9-0.6-2-0.9-2.9c-0.2-0.7-0.4-1.3-0.6-2
		c-0.1-0.5-0.2-1-0.4-1.6c-0.1-0.6-0.3-1.1-0.5-1.7c-0.1-0.5-0.3-1-0.4-1.5c-0.1-0.4-0.2-0.9-0.2-1.3c0-0.1,0-0.2-0.1-0.2
		c-0.3-0.2-0.3-0.5-0.4-0.8c-0.2-0.6-0.3-1.2-0.5-1.8c-0.1-0.2-0.1-0.5-0.1-0.8c0-0.1-0.1-0.2-0.1-0.3c-0.4-0.6-0.6-1.3-0.7-2.1
		c-0.1-0.4-0.2-0.8-0.3-1.2c-0.2-0.7-0.3-1.3-0.5-2c-0.1-0.2-0.2-0.4-0.2-0.6C32.2,124.2,32.2,123.9,32.2,123.7z"/>
	<path d="M162.5,73.2c-0.1,0.2-0.2,0.4-0.3,0.6c-0.2,0.3-0.5,0.5-0.7,0.7c-0.4,0.4-0.9,0.3-1.1-0.2c-0.2-0.5-0.3-1-0.6-1.3
		c-0.4-0.5-0.6-1.1-0.9-1.7c-0.5-0.8-1-1.6-1.6-2.4c-0.5-0.6-1-1.2-1.5-1.8c-0.7-0.8-1.5-1.5-2.2-2.2c-0.3-0.3-0.4-0.6-0.7-0.8
		c-0.4-0.2-0.6-0.6-1-0.9c-0.4-0.3-0.7-0.6-1.1-0.9c-0.7-0.6-1.4-1.2-2.1-1.8c-0.3-0.2-0.6-0.4-0.9-0.7c-1.2-0.9-2.5-1.7-3.8-2.6
		c-1-0.7-2.1-1.3-3.2-1.9c-0.7-0.4-1.5-0.7-2.2-1.2c-0.6-0.3-1.2-0.4-1.8-0.7c-0.4-0.2-0.8-0.3-1.2-0.5c-0.4-0.2-0.8-1.2-0.5-1.6
		c0.1-0.3,0.9-0.6,1.2-0.5c0.6,0.1,1.1,0.4,1.6,0.7c0.7,0.4,1.5,0.7,2.2,1c0.8,0.4,1.6,0.9,2.3,1.4c0.8,0.6,1.7,1,2.5,1.5
		c0.6,0.3,1.1,0.7,1.6,1.1c0.1,0.1,0.1,0.1,0.2,0.2c1.1,0.5,2,1.2,2.9,2c0.8,0.6,1.6,1.2,2.4,1.9c0.9,0.8,1.8,1.5,2.7,2.3
		c0.5,0.5,1,1,1.5,1.4c0.1,0.1,0.4,0.3,0.3,0.5c0,0,0.1,0.1,0.1,0.2c0.4,0.4,0.9,0.8,1.3,1.3c0.7,0.8,1.4,1.7,2,2.6
		c0.6,0.9,1.1,1.9,1.7,2.8c0.1,0.2,0.3,0.3,0.4,0.5C162.3,72.6,162.5,72.8,162.5,73.2z"/>
	<path d="M164.6,66.6c0.1-1.1,0-2.2,0-3.3c0-0.5,0.3-0.8,0.5-1.1c0.1-0.1,0.3-0.1,0.5-0.1c0.2,0,0.4,0.2,0.7,0.1
		c0.1,0,0.2,0.2,0.2,0.3c0.1,0.7,0.3,1.5,0.4,2.2c0,0.1-0.1,0.3-0.1,0.4c-0.2,0.4-0.4,0.7-0.2,1.1c0,0.1,0,0.1,0,0.2
		c-0.2,0.8-0.3,1.6-0.5,2.4c-0.1,0.4-0.1,0.8-0.1,1.2c0,1.1-0.2,2.2-0.4,3.3c-0.2,0.9-0.4,1.8-0.8,2.6c-0.2,0.4-0.3,0.8-0.4,1.3
		c-0.1,0.8-0.4,1.6-1.1,2.1c-0.3,0.2-0.6,0.3-0.8,0.1c-0.4-0.2-0.8-0.4-1.1-0.7c-0.6-0.5-1.1-1-1.7-1.4c-0.3-0.3-0.6-0.6-0.9-0.9
		c-0.6-0.7-1.1-1.4-1.8-2c-0.9-0.9-1.9-1.8-2.9-2.6c-0.6-0.4-1.1-0.9-1.7-1.3c-0.5-0.3-0.6-0.7-0.4-1.2c0.1-0.4,0.7-0.7,1.2-0.6
		c0.4,0,0.7,0.2,1,0.4c1,0.5,1.8,1.3,2.6,2c0.7,0.6,1.4,1.3,2,2c0.6,0.6,1.2,1.3,1.8,1.9c0.5,0.5,1,1,1.5,1.5c0.2,0.2,0.3,0.2,0.5,0
		c0.2-0.2,0.4-0.4,0.3-0.8c0-0.3,0.2-0.7,0.3-1.1c0.1-0.4,0.2-0.9,0.5-1.3c0.2-0.2,0.2-0.5,0.2-0.7c0.1-1,0.2-2.1,0.4-3.1
		c0.1-0.7,0.2-1.4,0.3-2C164.6,67.2,164.6,66.9,164.6,66.6z"/>
</g>
</svg>
