<svg width="900" height="97" viewBox="0 0 900 97" fill="none" xmlns="http://www.w3.org/2000/svg">
<rect width="900" height="97" fill="white"/>
<rect width="900" height="97" fill="#FFB800"/>
<path d="M346.475 46.8C346.475 45.9 346.125 45.65 345.275 45.65H335.575C334.825 45.65 334.425 45.85 334.425 46.65V49.7C334.425 50.55 334.825 50.8 335.525 50.8H339.975V60.35C338.625 60.9 336.375 61.2 334.325 61.2C328.325 61.2 324.675 56.35 324.675 48.6C324.675 44.5 325.875 41.25 327.975 39.05C329.725 37.2 332.325 36.2 335.025 36.2C337.325 36.2 340.175 36.95 341.825 37.65C342.075 37.75 342.325 37.85 342.525 37.85C342.875 37.85 343.075 37.65 343.275 37.15L344.425 34.15C344.675 33.55 344.775 33.05 343.875 32.65C340.875 31.3 337.925 30.75 334.725 30.75C324.525 30.75 317.775 38.35 317.775 48.8C317.775 59.4 323.675 66.6 334.075 66.6C337.875 66.6 342.525 65.7 345.275 64.3C346.225 63.8 346.475 63.4 346.475 62.4V46.8ZM364.761 61.75C360.811 61.75 358.011 59.1 357.611 55.25H372.261C373.511 55.25 373.911 55 373.911 53.8V53.05C373.911 49.65 373.261 46.5 370.961 44.1C369.211 42.25 366.711 41.1 363.661 41.1C356.211 41.1 351.261 46.3 351.261 53.8C351.261 61.6 355.911 66.6 363.761 66.6C366.361 66.6 369.711 66.1 372.161 65C372.761 64.75 372.961 64.5 372.961 64.15C372.961 64 372.911 63.8 372.861 63.55L372.161 61C371.961 60.25 371.461 60.35 370.911 60.55C368.961 61.3 366.861 61.75 364.761 61.75ZM357.711 51.3C358.111 48.35 360.061 45.75 363.311 45.75C366.361 45.75 367.861 48.15 367.961 50.75C367.961 50.85 367.961 51.2 367.961 51.3H357.711ZM388.643 61.8C387.443 61.8 386.743 61.4 386.293 60.75C385.743 59.95 385.643 58.85 385.643 57.35V45.9H391.243C391.843 45.9 392.243 45.55 392.243 44.95V42.6C392.243 41.95 391.893 41.75 391.293 41.75H385.643V35.75C385.643 35 385.343 34.65 384.693 34.65L380.843 35.1C380.043 35.2 379.593 35.45 379.593 36.3V41.75H377.043C376.443 41.75 376.143 42.15 376.143 42.75V44.65C376.143 45.7 376.293 45.9 377.243 45.9H379.593V57.05C379.593 60.7 379.643 62.75 381.193 64.5C382.443 65.95 384.643 66.6 387.193 66.6C389.193 66.6 391.243 66.1 392.793 65.45C393.393 65.2 393.593 64.8 393.493 64.2L392.993 61.7C392.893 61.25 392.693 61.1 392.393 61.1C392.243 61.1 392.043 61.15 391.843 61.2C390.943 61.5 389.893 61.8 388.643 61.8ZM416.296 35.4C416.296 33.4 414.646 32.25 412.946 32.25C411.196 32.25 409.546 33.45 409.546 35.45C409.546 37.45 411.296 38.55 412.946 38.55C414.596 38.55 416.296 37.35 416.296 35.4ZM415.996 42.9C415.996 42 415.546 41.75 414.746 41.75H411.246C410.446 41.75 409.946 42.05 409.946 42.9V64.75C409.946 65.65 410.346 66 411.246 66H414.746C415.596 66 415.996 65.65 415.996 64.75V42.9ZM444.334 50.05C444.334 44.6 442.034 41.1 436.434 41.1C433.534 41.1 430.634 42.15 428.334 44L428.284 42.7C428.234 41.95 427.784 41.75 427.084 41.75H423.834C422.934 41.75 422.584 42.2 422.584 43V64.8C422.584 65.6 423.034 66 423.784 66H427.434C428.284 66 428.634 65.6 428.634 64.75V48.8C430.184 47.45 432.584 46.4 434.534 46.4C437.584 46.4 438.334 48.35 438.334 51.1V64.7C438.334 65.55 438.634 66 439.534 66H443.134C444.034 66 444.334 65.55 444.334 64.7V50.05ZM472.92 61.8C471.72 61.8 471.02 61.4 470.57 60.75C470.02 59.95 469.92 58.85 469.92 57.35V45.9H475.52C476.12 45.9 476.52 45.55 476.52 44.95V42.6C476.52 41.95 476.17 41.75 475.57 41.75H469.92V35.75C469.92 35 469.62 34.65 468.97 34.65L465.12 35.1C464.32 35.2 463.87 35.45 463.87 36.3V41.75H461.32C460.72 41.75 460.42 42.15 460.42 42.75V44.65C460.42 45.7 460.57 45.9 461.52 45.9H463.87V57.05C463.87 60.7 463.92 62.75 465.47 64.5C466.72 65.95 468.92 66.6 471.47 66.6C473.47 66.6 475.52 66.1 477.07 65.45C477.67 65.2 477.87 64.8 477.77 64.2L477.27 61.7C477.17 61.25 476.97 61.1 476.67 61.1C476.52 61.1 476.32 61.15 476.12 61.2C475.22 61.5 474.17 61.8 472.92 61.8ZM504.364 53.85C504.364 46.5 500.614 41.1 492.464 41.1C484.664 41.1 480.264 46.6 480.264 53.8C480.264 61.1 484.014 66.6 492.164 66.6C499.964 66.6 504.364 61.05 504.364 53.85ZM498.114 53.85C498.114 57.95 496.614 61.85 492.214 61.85C487.764 61.85 486.514 57.8 486.514 53.7C486.514 49.7 487.964 45.85 492.414 45.85C496.814 45.85 498.114 49.75 498.114 53.85ZM530.755 42.9C530.755 42 530.305 41.75 529.505 41.75H525.955C525.155 41.75 524.705 42.05 524.705 42.9V58.85C523.205 60.2 520.805 61.25 518.905 61.25C515.905 61.25 515.205 59.35 515.205 56.6V42.9C515.205 42 514.755 41.75 513.955 41.75H510.455C509.655 41.75 509.155 42.05 509.155 42.9V57.65C509.155 63.05 511.455 66.6 517.055 66.6C519.955 66.6 522.705 65.6 525.005 63.75L525.055 65C525.105 65.65 525.605 66 526.255 66H529.455C530.455 66 530.755 65.65 530.755 64.6V42.9ZM548.088 61.9C543.788 61.9 541.588 58.6 541.588 53.8C541.588 48.9 544.038 45.85 548.338 45.85C550.088 45.85 551.688 46.35 553.138 46.95C553.338 47.05 553.538 47.15 553.688 47.15C553.988 47.15 554.188 46.9 554.288 46.45L554.938 43.8C555.088 43.15 555.088 42.8 554.438 42.5C552.338 41.55 549.988 41.1 547.738 41.1C539.988 41.1 535.338 46.35 535.338 54.1C535.338 61.8 539.588 66.6 547.288 66.6C549.938 66.6 552.138 66.2 554.538 65.1C554.988 64.9 555.238 64.7 555.238 64.3C555.238 64.1 555.188 63.8 555.088 63.45L554.438 61.25C554.238 60.55 553.888 60.6 553.338 60.8C551.588 61.5 550.238 61.9 548.088 61.9ZM581.201 50.05C581.201 44.65 578.901 41.1 573.301 41.1C570.651 41.1 567.501 42.05 565.401 43.8V31.25C565.401 30.55 565.101 30.3 564.551 30.3C564.351 30.3 564.101 30.3 560.451 30.8C559.751 30.9 559.351 31.15 559.351 32.05V65.1C559.351 65.75 559.551 66 560.151 66H564.451C565.201 66 565.401 65.75 565.401 65V48.8C566.951 47.45 569.451 46.4 571.401 46.4C574.401 46.4 575.151 48.4 575.151 51.1V65C575.151 65.8 575.301 66 576.001 66H580.401C581.051 66 581.201 65.75 581.201 65V50.05Z" fill="white"/>
</svg>
